%TF.GenerationSoftware,KiCad,Pcbnew,(6.0.1)*%
%TF.CreationDate,2022-11-29T19:46:15+01:00*%
%TF.ProjectId,ESPRocks,45535052-6f63-46b7-932e-6b696361645f,rev?*%
%TF.SameCoordinates,Original*%
%TF.FileFunction,Copper,L1,Top*%
%TF.FilePolarity,Positive*%
%FSLAX46Y46*%
G04 Gerber Fmt 4.6, Leading zero omitted, Abs format (unit mm)*
G04 Created by KiCad (PCBNEW (6.0.1)) date 2022-11-29 19:46:15*
%MOMM*%
%LPD*%
G01*
G04 APERTURE LIST*
G04 Aperture macros list*
%AMRoundRect*
0 Rectangle with rounded corners*
0 $1 Rounding radius*
0 $2 $3 $4 $5 $6 $7 $8 $9 X,Y pos of 4 corners*
0 Add a 4 corners polygon primitive as box body*
4,1,4,$2,$3,$4,$5,$6,$7,$8,$9,$2,$3,0*
0 Add four circle primitives for the rounded corners*
1,1,$1+$1,$2,$3*
1,1,$1+$1,$4,$5*
1,1,$1+$1,$6,$7*
1,1,$1+$1,$8,$9*
0 Add four rect primitives between the rounded corners*
20,1,$1+$1,$2,$3,$4,$5,0*
20,1,$1+$1,$4,$5,$6,$7,0*
20,1,$1+$1,$6,$7,$8,$9,0*
20,1,$1+$1,$8,$9,$2,$3,0*%
G04 Aperture macros list end*
%TA.AperFunction,ComponentPad*%
%ADD10R,1.700000X1.700000*%
%TD*%
%TA.AperFunction,ComponentPad*%
%ADD11O,1.700000X1.700000*%
%TD*%
%TA.AperFunction,ComponentPad*%
%ADD12O,1.750000X1.200000*%
%TD*%
%TA.AperFunction,ComponentPad*%
%ADD13RoundRect,0.250000X-0.625000X0.350000X-0.625000X-0.350000X0.625000X-0.350000X0.625000X0.350000X0*%
%TD*%
%TA.AperFunction,ViaPad*%
%ADD14C,0.800000*%
%TD*%
%TA.AperFunction,Conductor*%
%ADD15C,0.800000*%
%TD*%
G04 APERTURE END LIST*
D10*
%TO.P,CN14,1,Pin_1*%
%TO.N,/A_Ad_Vcc*%
X85801200Y-62382400D03*
D11*
%TO.P,CN14,2,Pin_2*%
%TO.N,/A_Ad_GND*%
X85801200Y-64922400D03*
%TO.P,CN14,3,Pin_3*%
X85801200Y-67462400D03*
%TO.P,CN14,4,Pin_4*%
%TO.N,/A_Ad_GPIO22*%
X85801200Y-70002400D03*
%TO.P,CN14,5,Pin_5*%
%TO.N,/A_Ad_GPIO21*%
X85801200Y-72542400D03*
%TO.P,CN14,6,Pin_6*%
%TO.N,/A_Ad_GPIO23{slash}SPI_MOSI*%
X85801200Y-75082400D03*
%TO.P,CN14,7,Pin_7*%
%TO.N,/A_Ad_GPIO18{slash}SPI_SCK*%
X85801200Y-77622400D03*
%TO.P,CN14,8,Pin_8*%
%TO.N,/A_Ad_GPIO5*%
X85801200Y-80162400D03*
%TO.P,CN14,9,Pin_9*%
%TO.N,/A_Ad_GPIO19{slash}SPI_MISO*%
X85801200Y-82702400D03*
%TD*%
D10*
%TO.P,CN3,1,Pin_1*%
%TO.N,/AD_DE_Vcc_3*%
X83591000Y-150179800D03*
D11*
%TO.P,CN3,2,Pin_2*%
%TO.N,/AD_DE_GND_3*%
X83591000Y-152719800D03*
%TO.P,CN3,3,Pin_3*%
%TO.N,Net-(CN1-Pad4)*%
X83591000Y-155259800D03*
%TD*%
D10*
%TO.P,CN2,1,Pin_1*%
%TO.N,/AD_DE_Vcc_3*%
X89991800Y-147634800D03*
D11*
%TO.P,CN2,2,Pin_2*%
%TO.N,Net-(CN1-Pad4)*%
X89991800Y-150174800D03*
%TO.P,CN2,3,Pin_3*%
%TO.N,Net-(CN1-Pad3)*%
X89991800Y-152714800D03*
%TO.P,CN2,4,Pin_4*%
%TO.N,/AD_DE_GND_3*%
X89991800Y-155254800D03*
%TD*%
D12*
%TO.P,CN1,4,Pin_4*%
%TO.N,Net-(CN1-Pad4)*%
X75906800Y-154892000D03*
%TO.P,CN1,3,Pin_3*%
%TO.N,Net-(CN1-Pad3)*%
X75906800Y-152892000D03*
%TO.P,CN1,2,Pin_2*%
%TO.N,/AD_DE_Vcc_3*%
X75906800Y-150892000D03*
D13*
%TO.P,CN1,1,Pin_1*%
%TO.N,/AD_DE_GND_3*%
X75906800Y-148892000D03*
%TD*%
%TO.P,CN11,1,Pin_1*%
%TO.N,/AD_C_GPIO12*%
X76161200Y-93180400D03*
D12*
%TO.P,CN11,2,Pin_2*%
%TO.N,/AD_C_GPIO14*%
X76161200Y-95180400D03*
%TO.P,CN11,3,Pin_3*%
%TO.N,/AD_C_GPIO27*%
X76161200Y-97180400D03*
%TO.P,CN11,4,Pin_4*%
%TO.N,/AD_C_Vcc*%
X76161200Y-99180400D03*
%TO.P,CN11,5,Pin_5*%
%TO.N,/AD_C_GND*%
X76161200Y-101180400D03*
%TD*%
D13*
%TO.P,CN13,1,Pin_1*%
%TO.N,/AD_DE_GND_1*%
X75997200Y-113230400D03*
D12*
%TO.P,CN13,2,Pin_2*%
%TO.N,/AD_DE_Vcc_1*%
X75997200Y-115230400D03*
%TO.P,CN13,3,Pin_3*%
%TO.N,Net-(CN13-Pad3)*%
X75997200Y-117230400D03*
%TO.P,CN13,4,Pin_4*%
%TO.N,Net-(CN13-Pad4)*%
X75997200Y-119230400D03*
%TD*%
D10*
%TO.P,CN17,1,Pin_1*%
%TO.N,/AD_C_GPIO27*%
X85191200Y-91495400D03*
D11*
%TO.P,CN17,2,Pin_2*%
%TO.N,/AD_C_GPIO14*%
X85191200Y-94035400D03*
%TO.P,CN17,3,Pin_3*%
%TO.N,/AD_C_GPIO12*%
X85191200Y-96575400D03*
%TO.P,CN17,4,Pin_4*%
%TO.N,/AD_C_GND*%
X85191200Y-99115400D03*
%TO.P,CN17,5,Pin_5*%
%TO.N,/AD_C_Vcc*%
X85191200Y-101655400D03*
%TD*%
D10*
%TO.P,CN21,1,Pin_1*%
%TO.N,Net-(CN12-Pad4)*%
X90221200Y-132628400D03*
D11*
%TO.P,CN21,2,Pin_2*%
%TO.N,/AD_DE_GND_2*%
X90221200Y-135168400D03*
%TO.P,CN21,3,Pin_3*%
%TO.N,/AD_DE_Vcc_2*%
X90221200Y-137708400D03*
%TD*%
D10*
%TO.P,CN16,1,Pin_1*%
%TO.N,/AD_C_GPIO27*%
X94056200Y-91495400D03*
D11*
%TO.P,CN16,2,Pin_2*%
%TO.N,/AD_C_GPIO14*%
X94056200Y-94035400D03*
%TO.P,CN16,3,Pin_3*%
%TO.N,/AD_C_GPIO12*%
X94056200Y-96575400D03*
%TO.P,CN16,4,Pin_4*%
%TO.N,/AD_C_Vcc*%
X94056200Y-99115400D03*
%TO.P,CN16,5,Pin_5*%
%TO.N,/AD_C_GND*%
X94056200Y-101655400D03*
%TD*%
D10*
%TO.P,CN19,1,Pin_1*%
%TO.N,/AD_DE_GND_1*%
X90246600Y-112420400D03*
D11*
%TO.P,CN19,2,Pin_2*%
%TO.N,Net-(CN13-Pad4)*%
X90246600Y-114960400D03*
%TO.P,CN19,3,Pin_3*%
%TO.N,Net-(CN13-Pad3)*%
X90246600Y-117500400D03*
%TO.P,CN19,4,Pin_4*%
%TO.N,/AD_DE_Vcc_1*%
X90246600Y-120040400D03*
%TD*%
D10*
%TO.P,CN20,1,Pin_1*%
%TO.N,/AD_DE_GND_2*%
X83236200Y-132613400D03*
D11*
%TO.P,CN20,2,Pin_2*%
%TO.N,Net-(CN12-Pad4)*%
X83236200Y-135153400D03*
%TO.P,CN20,3,Pin_3*%
%TO.N,/AD_DE_Vcc_2*%
X83236200Y-137693400D03*
%TD*%
D10*
%TO.P,CN18,1,Pin_1*%
%TO.N,Net-(CN13-Pad4)*%
X83159200Y-112410000D03*
D11*
%TO.P,CN18,2,Pin_2*%
%TO.N,Net-(CN13-Pad3)*%
X83159200Y-114950000D03*
%TO.P,CN18,3,Pin_3*%
%TO.N,/AD_DE_Vcc_1*%
X83159200Y-117490000D03*
%TO.P,CN18,4,Pin_4*%
%TO.N,/AD_DE_GND_1*%
X83159200Y-120030000D03*
%TD*%
D10*
%TO.P,CN15,1,Pin_1*%
%TO.N,/A_Ad_Vcc*%
X95301200Y-64947400D03*
D11*
%TO.P,CN15,2,Pin_2*%
%TO.N,/A_Ad_GPIO5*%
X95301200Y-67487400D03*
%TO.P,CN15,3,Pin_3*%
%TO.N,/A_Ad_GPIO22*%
X95301200Y-70027400D03*
%TO.P,CN15,4,Pin_4*%
%TO.N,/A_Ad_GPIO21*%
X95301200Y-72567400D03*
%TO.P,CN15,5,Pin_5*%
%TO.N,/A_Ad_GPIO18{slash}SPI_SCK*%
X95301200Y-75107400D03*
%TO.P,CN15,6,Pin_6*%
%TO.N,/A_Ad_GND*%
X95301200Y-77647400D03*
%TD*%
D13*
%TO.P,CN10,1,Pin_1*%
%TO.N,/A_Ad_GPIO19{slash}SPI_MISO*%
X76085000Y-67955400D03*
D12*
%TO.P,CN10,2,Pin_2*%
%TO.N,/A_Ad_GPIO18{slash}SPI_SCK*%
X76085000Y-69955400D03*
%TO.P,CN10,3,Pin_3*%
%TO.N,/A_Ad_GPIO23{slash}SPI_MOSI*%
X76085000Y-71955400D03*
%TO.P,CN10,4,Pin_4*%
%TO.N,/A_Ad_GPIO21*%
X76085000Y-73955400D03*
%TO.P,CN10,5,Pin_5*%
%TO.N,/A_Ad_GPIO22*%
X76085000Y-75955400D03*
%TO.P,CN10,6,Pin_6*%
%TO.N,/A_Ad_GPIO5*%
X76085000Y-77955400D03*
%TO.P,CN10,7,Pin_7*%
%TO.N,/A_Ad_Vcc*%
X76085000Y-79955400D03*
%TO.P,CN10,8,Pin_8*%
%TO.N,/A_Ad_GND*%
X76085000Y-81955400D03*
%TD*%
D13*
%TO.P,CN12,1,Pin_1*%
%TO.N,/AD_DE_GND_2*%
X76288200Y-131137400D03*
D12*
%TO.P,CN12,2,Pin_2*%
%TO.N,/AD_DE_Vcc_2*%
X76288200Y-133137400D03*
%TO.P,CN12,3,Pin_3*%
%TO.N,unconnected-(CN12-Pad3)*%
X76288200Y-135137400D03*
%TO.P,CN12,4,Pin_4*%
%TO.N,Net-(CN12-Pad4)*%
X76288200Y-137137400D03*
%TD*%
D14*
%TO.N,/A_Ad_GPIO5*%
X88493600Y-68478400D03*
X79146400Y-80162400D03*
%TO.N,/A_Ad_Vcc*%
X78892400Y-66548000D03*
%TO.N,Net-(CN13-Pad3)*%
X77986600Y-117297200D03*
%TO.N,/A_Ad_GPIO18{slash}SPI_SCK*%
X83015800Y-77571600D03*
%TO.N,/A_Ad_GPIO21*%
X80729800Y-73964800D03*
%TO.N,/A_Ad_GPIO22*%
X79764600Y-75996800D03*
%TO.N,/A_Ad_GPIO23{slash}SPI_MOSI*%
X81847400Y-74066400D03*
%TO.N,/A_Ad_GND*%
X90026200Y-65125600D03*
%TO.N,/AD_C_GPIO27*%
X79713800Y-96875600D03*
%TO.N,/AD_C_GPIO14*%
X81187000Y-95351600D03*
%TO.N,/AD_DE_Vcc_1*%
X79510600Y-117703600D03*
%TD*%
D15*
%TO.N,/A_Ad_GPIO5*%
X88493600Y-68478400D02*
X89484600Y-67487400D01*
X89484600Y-67487400D02*
X95301200Y-67487400D01*
X76939400Y-77955400D02*
X79146400Y-80162400D01*
X76085000Y-77955400D02*
X76939400Y-77955400D01*
%TO.N,Net-(CN1-Pad3)*%
X89824400Y-152714800D02*
X89991800Y-152714800D01*
X83261200Y-146151600D02*
X89824400Y-152714800D01*
X75641200Y-146151600D02*
X83261200Y-146151600D01*
X73558400Y-148234400D02*
X75641200Y-146151600D01*
X73558400Y-151892000D02*
X73558400Y-148234400D01*
X75906800Y-152892000D02*
X74558400Y-152892000D01*
X74558400Y-152892000D02*
X73558400Y-151892000D01*
%TO.N,/AD_DE_GND_3*%
X87456800Y-152719800D02*
X89991800Y-155254800D01*
X83591000Y-152719800D02*
X87456800Y-152719800D01*
X79763200Y-148892000D02*
X83591000Y-152719800D01*
X75906800Y-148892000D02*
X79763200Y-148892000D01*
%TO.N,Net-(CN1-Pad4)*%
X76274600Y-155259800D02*
X75906800Y-154892000D01*
X83591000Y-155259800D02*
X76274600Y-155259800D01*
%TO.N,/A_Ad_Vcc*%
X83058000Y-62382400D02*
X85801200Y-62382400D01*
X78892400Y-66548000D02*
X83058000Y-62382400D01*
%TO.N,Net-(CN13-Pad3)*%
X77919800Y-117230400D02*
X77986600Y-117297200D01*
X75997200Y-117230400D02*
X77919800Y-117230400D01*
%TO.N,/A_Ad_GPIO18{slash}SPI_SCK*%
X76085000Y-69955400D02*
X81648000Y-69955400D01*
X85801200Y-77622400D02*
X92786200Y-77622400D01*
X83015800Y-71323200D02*
X83015800Y-77571600D01*
X92786200Y-77622400D02*
X95301200Y-75107400D01*
X81648000Y-69955400D02*
X83015800Y-71323200D01*
%TO.N,/A_Ad_GPIO19{slash}SPI_MISO*%
X84285800Y-82702400D02*
X85801200Y-82702400D01*
X76085000Y-67955400D02*
X82086400Y-67955400D01*
X84031800Y-82448400D02*
X84285800Y-82702400D01*
X82086400Y-67955400D02*
X84031800Y-69900800D01*
X84031800Y-69900800D02*
X84031800Y-82448400D01*
%TO.N,/A_Ad_GPIO21*%
X95276200Y-72542400D02*
X95301200Y-72567400D01*
X80720400Y-73955400D02*
X80729800Y-73964800D01*
X76085000Y-73955400D02*
X80720400Y-73955400D01*
X85801200Y-72542400D02*
X95276200Y-72542400D01*
%TO.N,/A_Ad_GPIO22*%
X79723200Y-75955400D02*
X79764600Y-75996800D01*
X85801200Y-70002400D02*
X95276200Y-70002400D01*
X76085000Y-75955400D02*
X79723200Y-75955400D01*
X95276200Y-70002400D02*
X95301200Y-70027400D01*
%TO.N,/A_Ad_GPIO23{slash}SPI_MOSI*%
X76085000Y-71955400D02*
X81514400Y-71955400D01*
X81514400Y-71955400D02*
X81847400Y-72288400D01*
X81847400Y-72288400D02*
X81847400Y-74066400D01*
%TO.N,/A_Ad_GND*%
X89823000Y-64922400D02*
X90026200Y-65125600D01*
X85801200Y-64922400D02*
X89823000Y-64922400D01*
%TO.N,/AD_C_GPIO27*%
X85191200Y-91495400D02*
X94056200Y-91495400D01*
X79409000Y-97180400D02*
X79713800Y-96875600D01*
X76161200Y-97180400D02*
X79409000Y-97180400D01*
%TO.N,/AD_C_GPIO14*%
X76161200Y-95180400D02*
X81015800Y-95180400D01*
X81015800Y-95180400D02*
X81187000Y-95351600D01*
X85191200Y-94035400D02*
X94056200Y-94035400D01*
%TO.N,/AD_C_GPIO12*%
X85191200Y-96575400D02*
X94056200Y-96575400D01*
X81796200Y-93180400D02*
X85191200Y-96575400D01*
X76161200Y-93180400D02*
X81796200Y-93180400D01*
%TO.N,/AD_C_GND*%
X87440000Y-99115400D02*
X89980000Y-101655400D01*
X80082600Y-101180400D02*
X82147600Y-99115400D01*
X82147600Y-99115400D02*
X85191200Y-99115400D01*
X85191200Y-99115400D02*
X87440000Y-99115400D01*
X76161200Y-101180400D02*
X80082600Y-101180400D01*
X89980000Y-101655400D02*
X94056200Y-101655400D01*
%TO.N,/AD_DE_Vcc_2*%
X78680200Y-133137400D02*
X83236200Y-137693400D01*
X76288200Y-133137400D02*
X78680200Y-133137400D01*
X83236200Y-137693400D02*
X90206200Y-137693400D01*
X90206200Y-137693400D02*
X90221200Y-137708400D01*
%TO.N,/AD_DE_GND_2*%
X76288200Y-131137400D02*
X81760200Y-131137400D01*
X81760200Y-131137400D02*
X83236200Y-132613400D01*
X83236200Y-132613400D02*
X87666200Y-132613400D01*
X87666200Y-132613400D02*
X90221200Y-135168400D01*
%TO.N,/AD_DE_Vcc_1*%
X75997200Y-115230400D02*
X77799400Y-115230400D01*
X77799400Y-115230400D02*
X79256600Y-116687600D01*
X79510600Y-116941600D02*
X79510600Y-117703600D01*
X79256600Y-116687600D02*
X79510600Y-116941600D01*
%TO.N,/AD_DE_GND_1*%
X83159200Y-120030000D02*
X86887000Y-120030000D01*
X80780600Y-114503200D02*
X80780600Y-119583200D01*
X79507800Y-113230400D02*
X80780600Y-114503200D01*
X81227400Y-120030000D02*
X83159200Y-120030000D01*
X87740200Y-119176800D02*
X87740200Y-114655600D01*
X75997200Y-113230400D02*
X79507800Y-113230400D01*
X80780600Y-119583200D02*
X81227400Y-120030000D01*
X89873800Y-112420400D02*
X90246600Y-112420400D01*
X87740200Y-114655600D02*
X87689400Y-114604800D01*
X87689400Y-114604800D02*
X89873800Y-112420400D01*
X86887000Y-120030000D02*
X87740200Y-119176800D01*
%TD*%
%TA.AperFunction,Conductor*%
%TO.N,/AD_C_GND*%
G36*
X96005321Y-87548402D02*
G01*
X96051814Y-87602058D01*
X96063200Y-87654400D01*
X96063200Y-103531400D01*
X96043198Y-103599521D01*
X95989542Y-103646014D01*
X95937200Y-103657400D01*
X69900200Y-103657400D01*
X69832079Y-103637398D01*
X69785586Y-103583742D01*
X69774200Y-103531400D01*
X69774200Y-101447799D01*
X74810912Y-101447799D01*
X74832394Y-101536937D01*
X74836283Y-101548232D01*
X74918829Y-101729782D01*
X74924776Y-101740124D01*
X75040168Y-101902797D01*
X75047961Y-101911825D01*
X75192031Y-102049742D01*
X75201396Y-102057138D01*
X75368941Y-102165321D01*
X75379545Y-102170817D01*
X75564512Y-102245361D01*
X75575970Y-102248755D01*
X75773128Y-102287257D01*
X75781991Y-102288334D01*
X75784700Y-102288400D01*
X75889085Y-102288400D01*
X75904324Y-102283925D01*
X75905529Y-102282535D01*
X75907200Y-102274852D01*
X75907200Y-102270285D01*
X76415200Y-102270285D01*
X76419675Y-102285524D01*
X76421065Y-102286729D01*
X76428748Y-102288400D01*
X76486032Y-102288400D01*
X76492008Y-102288115D01*
X76640694Y-102273929D01*
X76652428Y-102271670D01*
X76843799Y-102215528D01*
X76854875Y-102211098D01*
X77032178Y-102119781D01*
X77042224Y-102113331D01*
X77199057Y-101990138D01*
X77207706Y-101981901D01*
X77338412Y-101831277D01*
X77345347Y-101821553D01*
X77445210Y-101648933D01*
X77450184Y-101638069D01*
X77455731Y-101622095D01*
X83828451Y-101622095D01*
X83828748Y-101627248D01*
X83828748Y-101627251D01*
X83834211Y-101721990D01*
X83841310Y-101845115D01*
X83842447Y-101850161D01*
X83842448Y-101850167D01*
X83856649Y-101913178D01*
X83890422Y-102063039D01*
X83974466Y-102270016D01*
X84091187Y-102460488D01*
X84237450Y-102629338D01*
X84409326Y-102772032D01*
X84602200Y-102884738D01*
X84810892Y-102964430D01*
X84815960Y-102965461D01*
X84815963Y-102965462D01*
X84911062Y-102984810D01*
X85029797Y-103008967D01*
X85034972Y-103009157D01*
X85034974Y-103009157D01*
X85247873Y-103016964D01*
X85247877Y-103016964D01*
X85253037Y-103017153D01*
X85258157Y-103016497D01*
X85258159Y-103016497D01*
X85469488Y-102989425D01*
X85469489Y-102989425D01*
X85474616Y-102988768D01*
X85479566Y-102987283D01*
X85683629Y-102926061D01*
X85683634Y-102926059D01*
X85688584Y-102924574D01*
X85889194Y-102826296D01*
X86071060Y-102696573D01*
X86229296Y-102538889D01*
X86288794Y-102456089D01*
X86356635Y-102361677D01*
X86359653Y-102357477D01*
X86393826Y-102288334D01*
X86456336Y-102161853D01*
X86456337Y-102161851D01*
X86458630Y-102157211D01*
X86509391Y-101990138D01*
X86522065Y-101948423D01*
X86522065Y-101948421D01*
X86523570Y-101943469D01*
X86526217Y-101923366D01*
X92724457Y-101923366D01*
X92754765Y-102057846D01*
X92757845Y-102067675D01*
X92837970Y-102265003D01*
X92842613Y-102274194D01*
X92953894Y-102455788D01*
X92959977Y-102464099D01*
X93099413Y-102625067D01*
X93106780Y-102632283D01*
X93270634Y-102768316D01*
X93279081Y-102774231D01*
X93462956Y-102881679D01*
X93472242Y-102886129D01*
X93671201Y-102962103D01*
X93681099Y-102964979D01*
X93784450Y-102986006D01*
X93798499Y-102984810D01*
X93802200Y-102974465D01*
X93802200Y-102973917D01*
X94310200Y-102973917D01*
X94314264Y-102987759D01*
X94327678Y-102989793D01*
X94334384Y-102988934D01*
X94344462Y-102986792D01*
X94548455Y-102925591D01*
X94558042Y-102921833D01*
X94749295Y-102828139D01*
X94758145Y-102822864D01*
X94931528Y-102699192D01*
X94939400Y-102692539D01*
X95090252Y-102542212D01*
X95096930Y-102534365D01*
X95221203Y-102361420D01*
X95226513Y-102352583D01*
X95320870Y-102161667D01*
X95324669Y-102152072D01*
X95386577Y-101948310D01*
X95388755Y-101938237D01*
X95390186Y-101927362D01*
X95387975Y-101913178D01*
X95374817Y-101909400D01*
X94328315Y-101909400D01*
X94313076Y-101913875D01*
X94311871Y-101915265D01*
X94310200Y-101922948D01*
X94310200Y-102973917D01*
X93802200Y-102973917D01*
X93802200Y-101927515D01*
X93797725Y-101912276D01*
X93796335Y-101911071D01*
X93788652Y-101909400D01*
X92739425Y-101909400D01*
X92725894Y-101913373D01*
X92724457Y-101923366D01*
X86526217Y-101923366D01*
X86552729Y-101721990D01*
X86554356Y-101655400D01*
X86536052Y-101432761D01*
X86481631Y-101216102D01*
X86392554Y-101011240D01*
X86271214Y-100823677D01*
X86120870Y-100658451D01*
X86116819Y-100655252D01*
X86116815Y-100655248D01*
X85949614Y-100523200D01*
X85949610Y-100523198D01*
X85945559Y-100519998D01*
X85903769Y-100496929D01*
X85853798Y-100446497D01*
X85839026Y-100377054D01*
X85864142Y-100310648D01*
X85891494Y-100284041D01*
X86066528Y-100159192D01*
X86074400Y-100152539D01*
X86225252Y-100002212D01*
X86231930Y-99994365D01*
X86356203Y-99821420D01*
X86361513Y-99812583D01*
X86455870Y-99621667D01*
X86459669Y-99612072D01*
X86521577Y-99408310D01*
X86523755Y-99398237D01*
X86525186Y-99387362D01*
X86522975Y-99373178D01*
X86509817Y-99369400D01*
X83874425Y-99369400D01*
X83860894Y-99373373D01*
X83859457Y-99383366D01*
X83889765Y-99517846D01*
X83892845Y-99527675D01*
X83972970Y-99725003D01*
X83977613Y-99734194D01*
X84088894Y-99915788D01*
X84094977Y-99924099D01*
X84234413Y-100085067D01*
X84241780Y-100092283D01*
X84405634Y-100228316D01*
X84414081Y-100234231D01*
X84483169Y-100274603D01*
X84531893Y-100326242D01*
X84544964Y-100396025D01*
X84518233Y-100461796D01*
X84477784Y-100495152D01*
X84464807Y-100501907D01*
X84460674Y-100505010D01*
X84460671Y-100505012D01*
X84306621Y-100620676D01*
X84286165Y-100636035D01*
X84131829Y-100797538D01*
X84128915Y-100801810D01*
X84128914Y-100801811D01*
X84121576Y-100812568D01*
X84005943Y-100982080D01*
X83911888Y-101184705D01*
X83852189Y-101399970D01*
X83828451Y-101622095D01*
X77455731Y-101622095D01*
X77515607Y-101449673D01*
X77515848Y-101448684D01*
X77514380Y-101438392D01*
X77500815Y-101434400D01*
X76433315Y-101434400D01*
X76418076Y-101438875D01*
X76416871Y-101440265D01*
X76415200Y-101447948D01*
X76415200Y-102270285D01*
X75907200Y-102270285D01*
X75907200Y-101452515D01*
X75902725Y-101437276D01*
X75901335Y-101436071D01*
X75893652Y-101434400D01*
X74825798Y-101434400D01*
X74812267Y-101438373D01*
X74810912Y-101447799D01*
X69774200Y-101447799D01*
X69774200Y-99126004D01*
X74773987Y-99126004D01*
X74783767Y-99337299D01*
X74785171Y-99343124D01*
X74785171Y-99343125D01*
X74829684Y-99527825D01*
X74833325Y-99542934D01*
X74835807Y-99548392D01*
X74835808Y-99548396D01*
X74879253Y-99643946D01*
X74920874Y-99735487D01*
X75043254Y-99908011D01*
X75196050Y-100054281D01*
X75201081Y-100057530D01*
X75201088Y-100057535D01*
X75228807Y-100075433D01*
X75275184Y-100129189D01*
X75285137Y-100199485D01*
X75255504Y-100264002D01*
X75238291Y-100280370D01*
X75123343Y-100370662D01*
X75114694Y-100378899D01*
X74983988Y-100529523D01*
X74977053Y-100539247D01*
X74877190Y-100711867D01*
X74872216Y-100722731D01*
X74806793Y-100911127D01*
X74806552Y-100912116D01*
X74808020Y-100922408D01*
X74821585Y-100926400D01*
X77496602Y-100926400D01*
X77510133Y-100922427D01*
X77511488Y-100913001D01*
X77490006Y-100823863D01*
X77486117Y-100812568D01*
X77403571Y-100631018D01*
X77397624Y-100620676D01*
X77282232Y-100458003D01*
X77274439Y-100448975D01*
X77130369Y-100311058D01*
X77121000Y-100303659D01*
X77093623Y-100285982D01*
X77047245Y-100232228D01*
X77037291Y-100161932D01*
X77066922Y-100097415D01*
X77084137Y-100081044D01*
X77199402Y-99990502D01*
X77204120Y-99986796D01*
X77208052Y-99982265D01*
X77208055Y-99982262D01*
X77338821Y-99831567D01*
X77342752Y-99827037D01*
X77345752Y-99821851D01*
X77345755Y-99821847D01*
X77445667Y-99649142D01*
X77448673Y-99643946D01*
X77518061Y-99444129D01*
X77523255Y-99408310D01*
X77547552Y-99240736D01*
X77547552Y-99240733D01*
X77548413Y-99234796D01*
X77538633Y-99023501D01*
X77498609Y-98857427D01*
X77490481Y-98823699D01*
X77490480Y-98823697D01*
X77489075Y-98817866D01*
X77445725Y-98722522D01*
X77434284Y-98697359D01*
X77401526Y-98625313D01*
X77279146Y-98452789D01*
X77126350Y-98306519D01*
X77128147Y-98304641D01*
X77093565Y-98255865D01*
X77090333Y-98184942D01*
X77125958Y-98123530D01*
X77189129Y-98091128D01*
X77212720Y-98088900D01*
X79327583Y-98088900D01*
X79347292Y-98090451D01*
X79361190Y-98092652D01*
X79367777Y-98092307D01*
X79367782Y-98092307D01*
X79429480Y-98089073D01*
X79436074Y-98088900D01*
X79456610Y-98088900D01*
X79459882Y-98088556D01*
X79459884Y-98088556D01*
X79477042Y-98086753D01*
X79483616Y-98086236D01*
X79545308Y-98083003D01*
X79545312Y-98083002D01*
X79551903Y-98082657D01*
X79558284Y-98080947D01*
X79558286Y-98080947D01*
X79565491Y-98079017D01*
X79584925Y-98075415D01*
X79592354Y-98074634D01*
X79592363Y-98074632D01*
X79598928Y-98073942D01*
X79663997Y-98052800D01*
X79670299Y-98050933D01*
X79736370Y-98033229D01*
X79748908Y-98026840D01*
X79767174Y-98019275D01*
X79774272Y-98016969D01*
X79774274Y-98016968D01*
X79780556Y-98014927D01*
X79839785Y-97980731D01*
X79845579Y-97977585D01*
X79845738Y-97977504D01*
X79906530Y-97946529D01*
X79917467Y-97937673D01*
X79933763Y-97926473D01*
X79940224Y-97922743D01*
X79940228Y-97922740D01*
X79945944Y-97919440D01*
X79950850Y-97915023D01*
X79950855Y-97915019D01*
X79996769Y-97873678D01*
X80001784Y-97869394D01*
X80015177Y-97858548D01*
X80017741Y-97856472D01*
X80032256Y-97841957D01*
X80037041Y-97837416D01*
X80082957Y-97796073D01*
X80087866Y-97791653D01*
X80096140Y-97780265D01*
X80108981Y-97765232D01*
X80298632Y-97575581D01*
X80313665Y-97562740D01*
X80319713Y-97558346D01*
X80319714Y-97558345D01*
X80325053Y-97554466D01*
X80370816Y-97503641D01*
X80375357Y-97498856D01*
X80389872Y-97484341D01*
X80402794Y-97468384D01*
X80407078Y-97463369D01*
X80448419Y-97417455D01*
X80448423Y-97417450D01*
X80452840Y-97412544D01*
X80456140Y-97406828D01*
X80456143Y-97406824D01*
X80459873Y-97400363D01*
X80471073Y-97384066D01*
X80475775Y-97378260D01*
X80475776Y-97378258D01*
X80479929Y-97373130D01*
X80510986Y-97312177D01*
X80514133Y-97306382D01*
X80545023Y-97252879D01*
X80545024Y-97252878D01*
X80548327Y-97247156D01*
X80552675Y-97233773D01*
X80560241Y-97215507D01*
X80563632Y-97208852D01*
X80566629Y-97202970D01*
X80570101Y-97190016D01*
X80584329Y-97136915D01*
X80586202Y-97130591D01*
X80603546Y-97077211D01*
X80607342Y-97065528D01*
X80608032Y-97058962D01*
X80608033Y-97058957D01*
X80608812Y-97051539D01*
X80612417Y-97032088D01*
X80614347Y-97024885D01*
X80616057Y-97018504D01*
X80619636Y-96950215D01*
X80620153Y-96943640D01*
X80626614Y-96882166D01*
X80626614Y-96882165D01*
X80627304Y-96875600D01*
X80625833Y-96861601D01*
X80625316Y-96841841D01*
X80625707Y-96834384D01*
X80625707Y-96834380D01*
X80626052Y-96827791D01*
X80615350Y-96760219D01*
X80614492Y-96753702D01*
X80608032Y-96692237D01*
X80607342Y-96685672D01*
X80602995Y-96672293D01*
X80598378Y-96653064D01*
X80597210Y-96645691D01*
X80596177Y-96639168D01*
X80571661Y-96575301D01*
X80569464Y-96569097D01*
X80560868Y-96542642D01*
X80548327Y-96504044D01*
X80541293Y-96491861D01*
X80532781Y-96474014D01*
X80530107Y-96467048D01*
X80530104Y-96467043D01*
X80527738Y-96460878D01*
X80490479Y-96403504D01*
X80487033Y-96397880D01*
X80456143Y-96344377D01*
X80452840Y-96338656D01*
X80443428Y-96328203D01*
X80431392Y-96312517D01*
X80427328Y-96306259D01*
X80427326Y-96306256D01*
X80423726Y-96300713D01*
X80419050Y-96296037D01*
X80417560Y-96294197D01*
X80390234Y-96228670D01*
X80402671Y-96158771D01*
X80450925Y-96106693D01*
X80515479Y-96088900D01*
X80609250Y-96088900D01*
X80677371Y-96108902D01*
X80679367Y-96110345D01*
X80684337Y-96113573D01*
X80689470Y-96117729D01*
X80700762Y-96123483D01*
X80702007Y-96124117D01*
X80718864Y-96134447D01*
X80724907Y-96138838D01*
X80724910Y-96138840D01*
X80730248Y-96142718D01*
X80736276Y-96145402D01*
X80736278Y-96145403D01*
X80792751Y-96170546D01*
X80798704Y-96173386D01*
X80853747Y-96201432D01*
X80853751Y-96201434D01*
X80859630Y-96204429D01*
X80866007Y-96206138D01*
X80866008Y-96206138D01*
X80873221Y-96208071D01*
X80891853Y-96214669D01*
X80898677Y-96217707D01*
X80904712Y-96220394D01*
X80971626Y-96234617D01*
X80978034Y-96236156D01*
X81037716Y-96252148D01*
X81037721Y-96252149D01*
X81044096Y-96253857D01*
X81057471Y-96254558D01*
X81058142Y-96254593D01*
X81077747Y-96257174D01*
X81085046Y-96258726D01*
X81085053Y-96258727D01*
X81091513Y-96260100D01*
X81159925Y-96260100D01*
X81166519Y-96260273D01*
X81228217Y-96263507D01*
X81228222Y-96263507D01*
X81234809Y-96263852D01*
X81248707Y-96261651D01*
X81268416Y-96260100D01*
X81282487Y-96260100D01*
X81296253Y-96257174D01*
X81349399Y-96245878D01*
X81355883Y-96244676D01*
X81409674Y-96236156D01*
X81423432Y-96233977D01*
X81436568Y-96228934D01*
X81455527Y-96223319D01*
X81462830Y-96221767D01*
X81462834Y-96221766D01*
X81469288Y-96220394D01*
X81531794Y-96192565D01*
X81537867Y-96190050D01*
X81595557Y-96167905D01*
X81595561Y-96167903D01*
X81601722Y-96165538D01*
X81613522Y-96157875D01*
X81630894Y-96148443D01*
X81637718Y-96145405D01*
X81637722Y-96145403D01*
X81643752Y-96142718D01*
X81674021Y-96120726D01*
X81699090Y-96102513D01*
X81704525Y-96098778D01*
X81756347Y-96065124D01*
X81756349Y-96065123D01*
X81761887Y-96061526D01*
X81771832Y-96051581D01*
X81786865Y-96038740D01*
X81792913Y-96034346D01*
X81792914Y-96034345D01*
X81798253Y-96030466D01*
X81844016Y-95979641D01*
X81848557Y-95974856D01*
X81896926Y-95926487D01*
X81904592Y-95914683D01*
X81916628Y-95898997D01*
X81921621Y-95893452D01*
X81921622Y-95893451D01*
X81926040Y-95888544D01*
X81960234Y-95829319D01*
X81963679Y-95823696D01*
X81997341Y-95771861D01*
X82000938Y-95766322D01*
X82003304Y-95760157D01*
X82003307Y-95760152D01*
X82005981Y-95753186D01*
X82014493Y-95735339D01*
X82017557Y-95730032D01*
X82021527Y-95723156D01*
X82042665Y-95658101D01*
X82044866Y-95651884D01*
X82067011Y-95594195D01*
X82069377Y-95588032D01*
X82071578Y-95574136D01*
X82076195Y-95554907D01*
X82078501Y-95547809D01*
X82080542Y-95541528D01*
X82087694Y-95473485D01*
X82088550Y-95466981D01*
X82099252Y-95399409D01*
X82098516Y-95385359D01*
X82099033Y-95365599D01*
X82099814Y-95358167D01*
X82099814Y-95358166D01*
X82100504Y-95351600D01*
X82097052Y-95318757D01*
X82093353Y-95283560D01*
X82092836Y-95276985D01*
X82089603Y-95215293D01*
X82089603Y-95215290D01*
X82089257Y-95208696D01*
X82085617Y-95195112D01*
X82082012Y-95175661D01*
X82081233Y-95168243D01*
X82081232Y-95168238D01*
X82080542Y-95161672D01*
X82059402Y-95096609D01*
X82057538Y-95090318D01*
X82046095Y-95047615D01*
X82047785Y-94976640D01*
X82087579Y-94917844D01*
X82152843Y-94889896D01*
X82222857Y-94901669D01*
X82256897Y-94925910D01*
X83791787Y-96460800D01*
X83825813Y-96523112D01*
X83828482Y-96542636D01*
X83841310Y-96765115D01*
X83842447Y-96770161D01*
X83842448Y-96770167D01*
X83858601Y-96841841D01*
X83890422Y-96983039D01*
X83974466Y-97190016D01*
X84091187Y-97380488D01*
X84237450Y-97549338D01*
X84409326Y-97692032D01*
X84482645Y-97734876D01*
X84483155Y-97735174D01*
X84531879Y-97786812D01*
X84544950Y-97856595D01*
X84518219Y-97922367D01*
X84477762Y-97955727D01*
X84469657Y-97959946D01*
X84460938Y-97965436D01*
X84290633Y-98093305D01*
X84282926Y-98100148D01*
X84135790Y-98254117D01*
X84129304Y-98262127D01*
X84009298Y-98438049D01*
X84004200Y-98447023D01*
X83914538Y-98640183D01*
X83910975Y-98649870D01*
X83855589Y-98849583D01*
X83857112Y-98858007D01*
X83869492Y-98861400D01*
X86509544Y-98861400D01*
X86523075Y-98857427D01*
X86524380Y-98848347D01*
X86482414Y-98681275D01*
X86479094Y-98671524D01*
X86394172Y-98476214D01*
X86389305Y-98467139D01*
X86273626Y-98288326D01*
X86267336Y-98280157D01*
X86124006Y-98122640D01*
X86116473Y-98115615D01*
X85949339Y-97983622D01*
X85940756Y-97977920D01*
X85903802Y-97957520D01*
X85853831Y-97907087D01*
X85839059Y-97837645D01*
X85864175Y-97771239D01*
X85891527Y-97744632D01*
X85914997Y-97727891D01*
X86071060Y-97616573D01*
X86167320Y-97520648D01*
X86229690Y-97486733D01*
X86256259Y-97483900D01*
X92988211Y-97483900D01*
X93056332Y-97503902D01*
X93083448Y-97527402D01*
X93099064Y-97545430D01*
X93099069Y-97545435D01*
X93102450Y-97549338D01*
X93274326Y-97692032D01*
X93344795Y-97733211D01*
X93347645Y-97734876D01*
X93396369Y-97786514D01*
X93409440Y-97856297D01*
X93382709Y-97922069D01*
X93342255Y-97955427D01*
X93329807Y-97961907D01*
X93325674Y-97965010D01*
X93325671Y-97965012D01*
X93155300Y-98092930D01*
X93151165Y-98096035D01*
X92996829Y-98257538D01*
X92993915Y-98261810D01*
X92993914Y-98261811D01*
X92963416Y-98306519D01*
X92870943Y-98442080D01*
X92776888Y-98644705D01*
X92717189Y-98859970D01*
X92693451Y-99082095D01*
X92693748Y-99087248D01*
X92693748Y-99087251D01*
X92702598Y-99240736D01*
X92706310Y-99305115D01*
X92707447Y-99310161D01*
X92707448Y-99310167D01*
X92712213Y-99331309D01*
X92755422Y-99523039D01*
X92839466Y-99730016D01*
X92956187Y-99920488D01*
X93102450Y-100089338D01*
X93274326Y-100232032D01*
X93329036Y-100264002D01*
X93348155Y-100275174D01*
X93396879Y-100326812D01*
X93409950Y-100396595D01*
X93383219Y-100462367D01*
X93342762Y-100495727D01*
X93334657Y-100499946D01*
X93325938Y-100505436D01*
X93155633Y-100633305D01*
X93147926Y-100640148D01*
X93000790Y-100794117D01*
X92994304Y-100802127D01*
X92874298Y-100978049D01*
X92869200Y-100987023D01*
X92779538Y-101180183D01*
X92775975Y-101189870D01*
X92720589Y-101389583D01*
X92722112Y-101398007D01*
X92734492Y-101401400D01*
X95374544Y-101401400D01*
X95388075Y-101397427D01*
X95389380Y-101388347D01*
X95347414Y-101221275D01*
X95344094Y-101211524D01*
X95259172Y-101016214D01*
X95254305Y-101007139D01*
X95138626Y-100828326D01*
X95132336Y-100820157D01*
X94989006Y-100662640D01*
X94981473Y-100655615D01*
X94814339Y-100523622D01*
X94805756Y-100517920D01*
X94768802Y-100497520D01*
X94718831Y-100447087D01*
X94704059Y-100377645D01*
X94729175Y-100311239D01*
X94756527Y-100284632D01*
X94807763Y-100248086D01*
X94936060Y-100156573D01*
X95094296Y-99998889D01*
X95153794Y-99916089D01*
X95221635Y-99821677D01*
X95224653Y-99817477D01*
X95262760Y-99740374D01*
X95321336Y-99621853D01*
X95321337Y-99621851D01*
X95323630Y-99617211D01*
X95388570Y-99403469D01*
X95417729Y-99181990D01*
X95417811Y-99178640D01*
X95419274Y-99118765D01*
X95419274Y-99118761D01*
X95419356Y-99115400D01*
X95401052Y-98892761D01*
X95346631Y-98676102D01*
X95257554Y-98471240D01*
X95150991Y-98306519D01*
X95139022Y-98288017D01*
X95139020Y-98288014D01*
X95136214Y-98283677D01*
X94985870Y-98118451D01*
X94981819Y-98115252D01*
X94981815Y-98115248D01*
X94814614Y-97983200D01*
X94814610Y-97983198D01*
X94810559Y-97979998D01*
X94769253Y-97957196D01*
X94719284Y-97906764D01*
X94704512Y-97837321D01*
X94729628Y-97770916D01*
X94756980Y-97744309D01*
X94800803Y-97713050D01*
X94936060Y-97616573D01*
X94977196Y-97575581D01*
X95054189Y-97498856D01*
X95094296Y-97458889D01*
X95142524Y-97391773D01*
X95221635Y-97281677D01*
X95224653Y-97277477D01*
X95239639Y-97247156D01*
X95321336Y-97081853D01*
X95321337Y-97081851D01*
X95323630Y-97077211D01*
X95374127Y-96911007D01*
X95387065Y-96868423D01*
X95387065Y-96868421D01*
X95388570Y-96863469D01*
X95417729Y-96641990D01*
X95419356Y-96575400D01*
X95401052Y-96352761D01*
X95346631Y-96136102D01*
X95257554Y-95931240D01*
X95136214Y-95743677D01*
X94985870Y-95578451D01*
X94981819Y-95575252D01*
X94981815Y-95575248D01*
X94814614Y-95443200D01*
X94814610Y-95443198D01*
X94810559Y-95439998D01*
X94769253Y-95417196D01*
X94719284Y-95366764D01*
X94704512Y-95297321D01*
X94729628Y-95230916D01*
X94756980Y-95204309D01*
X94825565Y-95155388D01*
X94936060Y-95076573D01*
X94965118Y-95047617D01*
X95049125Y-94963902D01*
X95094296Y-94918889D01*
X95115130Y-94889896D01*
X95221635Y-94741677D01*
X95224653Y-94737477D01*
X95234846Y-94716854D01*
X95321336Y-94541853D01*
X95321337Y-94541851D01*
X95323630Y-94537211D01*
X95374341Y-94370301D01*
X95387065Y-94328423D01*
X95387065Y-94328421D01*
X95388570Y-94323469D01*
X95417729Y-94101990D01*
X95419356Y-94035400D01*
X95401052Y-93812761D01*
X95346631Y-93596102D01*
X95257554Y-93391240D01*
X95136214Y-93203677D01*
X95132732Y-93199850D01*
X94988998Y-93041888D01*
X94957946Y-92978042D01*
X94966341Y-92907543D01*
X95011517Y-92852775D01*
X95037961Y-92839106D01*
X95144497Y-92799167D01*
X95152905Y-92796015D01*
X95269461Y-92708661D01*
X95356815Y-92592105D01*
X95407945Y-92455716D01*
X95414700Y-92393534D01*
X95414700Y-90597266D01*
X95407945Y-90535084D01*
X95356815Y-90398695D01*
X95269461Y-90282139D01*
X95152905Y-90194785D01*
X95016516Y-90143655D01*
X94954334Y-90136900D01*
X93158066Y-90136900D01*
X93095884Y-90143655D01*
X92959495Y-90194785D01*
X92842939Y-90282139D01*
X92755585Y-90398695D01*
X92752433Y-90407103D01*
X92715684Y-90505130D01*
X92673042Y-90561894D01*
X92606481Y-90586594D01*
X92597702Y-90586900D01*
X86649698Y-90586900D01*
X86581577Y-90566898D01*
X86535084Y-90513242D01*
X86531716Y-90505130D01*
X86494967Y-90407103D01*
X86491815Y-90398695D01*
X86404461Y-90282139D01*
X86287905Y-90194785D01*
X86151516Y-90143655D01*
X86089334Y-90136900D01*
X84293066Y-90136900D01*
X84230884Y-90143655D01*
X84094495Y-90194785D01*
X83977939Y-90282139D01*
X83890585Y-90398695D01*
X83839455Y-90535084D01*
X83832700Y-90597266D01*
X83832700Y-92393534D01*
X83839455Y-92455716D01*
X83890585Y-92592105D01*
X83977939Y-92708661D01*
X84094495Y-92796015D01*
X84102904Y-92799167D01*
X84102905Y-92799168D01*
X84211651Y-92839935D01*
X84268416Y-92882576D01*
X84293116Y-92949138D01*
X84277909Y-93018487D01*
X84258516Y-93044968D01*
X84219592Y-93085700D01*
X84131829Y-93177538D01*
X84005943Y-93362080D01*
X83911888Y-93564705D01*
X83879994Y-93679708D01*
X83872669Y-93706122D01*
X83835190Y-93766419D01*
X83771061Y-93796882D01*
X83700643Y-93787838D01*
X83662157Y-93761544D01*
X82496181Y-92595568D01*
X82483340Y-92580535D01*
X82478946Y-92574487D01*
X82478945Y-92574486D01*
X82475066Y-92569147D01*
X82424241Y-92523384D01*
X82419456Y-92518843D01*
X82404941Y-92504328D01*
X82397482Y-92498288D01*
X82388984Y-92491406D01*
X82383969Y-92487122D01*
X82338055Y-92445781D01*
X82338050Y-92445777D01*
X82333144Y-92441360D01*
X82327428Y-92438060D01*
X82327424Y-92438057D01*
X82320963Y-92434327D01*
X82304666Y-92423127D01*
X82298860Y-92418425D01*
X82298858Y-92418424D01*
X82293730Y-92414271D01*
X82232777Y-92383214D01*
X82226982Y-92380067D01*
X82173479Y-92349177D01*
X82173478Y-92349176D01*
X82167756Y-92345873D01*
X82161474Y-92343832D01*
X82161472Y-92343831D01*
X82154374Y-92341525D01*
X82136107Y-92333959D01*
X82123570Y-92327571D01*
X82057499Y-92309867D01*
X82051197Y-92308000D01*
X81986128Y-92286858D01*
X81979563Y-92286168D01*
X81979554Y-92286166D01*
X81972125Y-92285385D01*
X81952691Y-92281783D01*
X81945486Y-92279853D01*
X81945484Y-92279853D01*
X81939103Y-92278143D01*
X81932512Y-92277798D01*
X81932508Y-92277797D01*
X81870816Y-92274564D01*
X81864242Y-92274047D01*
X81847084Y-92272244D01*
X81847082Y-92272244D01*
X81843810Y-92271900D01*
X81823274Y-92271900D01*
X81816680Y-92271727D01*
X81754982Y-92268493D01*
X81754977Y-92268493D01*
X81748390Y-92268148D01*
X81734492Y-92270349D01*
X81714783Y-92271900D01*
X77352506Y-92271900D01*
X77284385Y-92251898D01*
X77270498Y-92240717D01*
X77270429Y-92240804D01*
X77264683Y-92236266D01*
X77259503Y-92231095D01*
X77253272Y-92227254D01*
X77115168Y-92142125D01*
X77115166Y-92142124D01*
X77108938Y-92138285D01*
X76948454Y-92085055D01*
X76947589Y-92084768D01*
X76947587Y-92084768D01*
X76941061Y-92082603D01*
X76934225Y-92081903D01*
X76934222Y-92081902D01*
X76891169Y-92077491D01*
X76836600Y-92071900D01*
X75485800Y-92071900D01*
X75482554Y-92072237D01*
X75482550Y-92072237D01*
X75386892Y-92082162D01*
X75386888Y-92082163D01*
X75380034Y-92082874D01*
X75373498Y-92085055D01*
X75373496Y-92085055D01*
X75241394Y-92129128D01*
X75212254Y-92138850D01*
X75061852Y-92231922D01*
X74936895Y-92357097D01*
X74933055Y-92363327D01*
X74933054Y-92363328D01*
X74880948Y-92447860D01*
X74844085Y-92507662D01*
X74788403Y-92675539D01*
X74777700Y-92780000D01*
X74777700Y-93580800D01*
X74778037Y-93584046D01*
X74778037Y-93584050D01*
X74779288Y-93596102D01*
X74788674Y-93686566D01*
X74844650Y-93854346D01*
X74937722Y-94004748D01*
X75062897Y-94129705D01*
X75069127Y-94133545D01*
X75069128Y-94133546D01*
X75114436Y-94161474D01*
X75161929Y-94214246D01*
X75173353Y-94284318D01*
X75145079Y-94349442D01*
X75126155Y-94367818D01*
X75118280Y-94374004D01*
X75114348Y-94378535D01*
X75114345Y-94378538D01*
X75083338Y-94414271D01*
X74979648Y-94533763D01*
X74976648Y-94538949D01*
X74976645Y-94538953D01*
X74947952Y-94588551D01*
X74873727Y-94716854D01*
X74804339Y-94916671D01*
X74803478Y-94922606D01*
X74803478Y-94922608D01*
X74781683Y-95072929D01*
X74773987Y-95126004D01*
X74783767Y-95337299D01*
X74785171Y-95343124D01*
X74785171Y-95343125D01*
X74815015Y-95466957D01*
X74833325Y-95542934D01*
X74835807Y-95548392D01*
X74835808Y-95548396D01*
X74850864Y-95581509D01*
X74920874Y-95735487D01*
X75014531Y-95867520D01*
X75032927Y-95893452D01*
X75043254Y-95908011D01*
X75196050Y-96054281D01*
X75201088Y-96057534D01*
X75228363Y-96075146D01*
X75274740Y-96128901D01*
X75284693Y-96199197D01*
X75255061Y-96263714D01*
X75237849Y-96280081D01*
X75118280Y-96374004D01*
X75114348Y-96378535D01*
X75114345Y-96378538D01*
X75005437Y-96504044D01*
X74979648Y-96533763D01*
X74976648Y-96538949D01*
X74976645Y-96538953D01*
X74904965Y-96662857D01*
X74873727Y-96716854D01*
X74804339Y-96916671D01*
X74803478Y-96922606D01*
X74803478Y-96922608D01*
X74780389Y-97081853D01*
X74773987Y-97126004D01*
X74783767Y-97337299D01*
X74785171Y-97343124D01*
X74785171Y-97343125D01*
X74819781Y-97486733D01*
X74833325Y-97542934D01*
X74835807Y-97548392D01*
X74835808Y-97548396D01*
X74865150Y-97612929D01*
X74920874Y-97735487D01*
X75043254Y-97908011D01*
X75196050Y-98054281D01*
X75201088Y-98057534D01*
X75228363Y-98075146D01*
X75274740Y-98128901D01*
X75284693Y-98199197D01*
X75255061Y-98263714D01*
X75237849Y-98280081D01*
X75118280Y-98374004D01*
X75114348Y-98378535D01*
X75114345Y-98378538D01*
X74995754Y-98515202D01*
X74979648Y-98533763D01*
X74976648Y-98538949D01*
X74976645Y-98538953D01*
X74929512Y-98620426D01*
X74873727Y-98716854D01*
X74804339Y-98916671D01*
X74803478Y-98922606D01*
X74803478Y-98922608D01*
X74775037Y-99118765D01*
X74773987Y-99126004D01*
X69774200Y-99126004D01*
X69774200Y-87654400D01*
X69794202Y-87586279D01*
X69847858Y-87539786D01*
X69900200Y-87528400D01*
X95937200Y-87528400D01*
X96005321Y-87548402D01*
G37*
%TD.AperFunction*%
%TD*%
%TA.AperFunction,Conductor*%
%TO.N,/AD_DE_GND_2*%
G36*
X92068321Y-126029402D02*
G01*
X92114814Y-126083058D01*
X92126200Y-126135400D01*
X92126200Y-139091400D01*
X92106198Y-139159521D01*
X92052542Y-139206014D01*
X92000200Y-139217400D01*
X90772294Y-139217400D01*
X90704173Y-139197398D01*
X90657680Y-139143742D01*
X90647576Y-139073468D01*
X90677070Y-139008888D01*
X90719303Y-138979042D01*
X90718584Y-138977574D01*
X90830518Y-138922738D01*
X90919194Y-138879296D01*
X91101060Y-138749573D01*
X91259296Y-138591889D01*
X91389653Y-138410477D01*
X91438116Y-138312420D01*
X91486336Y-138214853D01*
X91486337Y-138214851D01*
X91488630Y-138210211D01*
X91553570Y-137996469D01*
X91582729Y-137774990D01*
X91584356Y-137708400D01*
X91566052Y-137485761D01*
X91511631Y-137269102D01*
X91422554Y-137064240D01*
X91368381Y-136980501D01*
X91304022Y-136881017D01*
X91304020Y-136881014D01*
X91301214Y-136876677D01*
X91150870Y-136711451D01*
X91146819Y-136708252D01*
X91146815Y-136708248D01*
X90979614Y-136576200D01*
X90979610Y-136576198D01*
X90975559Y-136572998D01*
X90933769Y-136549929D01*
X90883798Y-136499497D01*
X90869026Y-136430054D01*
X90894142Y-136363648D01*
X90921494Y-136337041D01*
X91096528Y-136212192D01*
X91104400Y-136205539D01*
X91255252Y-136055212D01*
X91261930Y-136047365D01*
X91386203Y-135874420D01*
X91391513Y-135865583D01*
X91485870Y-135674667D01*
X91489669Y-135665072D01*
X91551577Y-135461310D01*
X91553755Y-135451237D01*
X91555186Y-135440362D01*
X91552975Y-135426178D01*
X91539817Y-135422400D01*
X88904425Y-135422400D01*
X88890894Y-135426373D01*
X88889457Y-135436366D01*
X88919765Y-135570846D01*
X88922845Y-135580675D01*
X89002970Y-135778003D01*
X89007613Y-135787194D01*
X89118894Y-135968788D01*
X89124977Y-135977099D01*
X89264413Y-136138067D01*
X89271780Y-136145283D01*
X89435634Y-136281316D01*
X89444081Y-136287231D01*
X89513169Y-136327603D01*
X89561893Y-136379242D01*
X89574964Y-136449025D01*
X89548233Y-136514796D01*
X89507784Y-136548152D01*
X89494807Y-136554907D01*
X89490674Y-136558010D01*
X89490671Y-136558012D01*
X89336384Y-136673854D01*
X89316165Y-136689035D01*
X89312593Y-136692773D01*
X89261775Y-136745951D01*
X89200251Y-136781381D01*
X89170681Y-136784900D01*
X84302056Y-136784900D01*
X84233935Y-136764898D01*
X84208862Y-136743699D01*
X84169348Y-136700273D01*
X84169346Y-136700271D01*
X84165870Y-136696451D01*
X84102800Y-136646641D01*
X83994614Y-136561200D01*
X83994610Y-136561198D01*
X83990559Y-136557998D01*
X83949253Y-136535196D01*
X83899284Y-136484764D01*
X83884512Y-136415321D01*
X83909628Y-136348916D01*
X83936980Y-136322309D01*
X83980803Y-136291050D01*
X84116060Y-136194573D01*
X84274296Y-136036889D01*
X84404653Y-135855477D01*
X84438401Y-135787194D01*
X84501336Y-135659853D01*
X84501337Y-135659851D01*
X84503630Y-135655211D01*
X84568570Y-135441469D01*
X84597729Y-135219990D01*
X84598418Y-135191796D01*
X84599274Y-135156765D01*
X84599274Y-135156761D01*
X84599356Y-135153400D01*
X84581052Y-134930761D01*
X84526631Y-134714102D01*
X84437554Y-134509240D01*
X84322248Y-134331004D01*
X84319022Y-134326017D01*
X84319020Y-134326014D01*
X84316214Y-134321677D01*
X84312740Y-134317859D01*
X84312733Y-134317850D01*
X84168635Y-134159488D01*
X84137583Y-134095642D01*
X84145979Y-134025144D01*
X84191156Y-133970376D01*
X84217600Y-133956707D01*
X84324252Y-133916725D01*
X84339849Y-133908186D01*
X84441924Y-133831685D01*
X84454485Y-133819124D01*
X84530986Y-133717049D01*
X84539524Y-133701454D01*
X84584678Y-133581006D01*
X84588305Y-133565751D01*
X84592566Y-133526534D01*
X88862700Y-133526534D01*
X88869455Y-133588716D01*
X88920585Y-133725105D01*
X89007939Y-133841661D01*
X89124495Y-133929015D01*
X89132904Y-133932167D01*
X89132905Y-133932168D01*
X89242160Y-133973126D01*
X89298925Y-134015767D01*
X89323625Y-134082329D01*
X89308418Y-134151678D01*
X89289025Y-134178159D01*
X89165790Y-134307117D01*
X89159304Y-134315127D01*
X89039298Y-134491049D01*
X89034200Y-134500023D01*
X88944538Y-134693183D01*
X88940975Y-134702870D01*
X88885589Y-134902583D01*
X88887112Y-134911007D01*
X88899492Y-134914400D01*
X91539544Y-134914400D01*
X91553075Y-134910427D01*
X91554380Y-134901347D01*
X91512414Y-134734275D01*
X91509094Y-134724524D01*
X91424172Y-134529214D01*
X91419305Y-134520139D01*
X91303626Y-134341326D01*
X91297336Y-134333157D01*
X91153493Y-134175077D01*
X91122441Y-134111231D01*
X91130835Y-134040733D01*
X91176012Y-133985964D01*
X91202456Y-133972295D01*
X91309497Y-133932167D01*
X91317905Y-133929015D01*
X91434461Y-133841661D01*
X91521815Y-133725105D01*
X91572945Y-133588716D01*
X91579700Y-133526534D01*
X91579700Y-131730266D01*
X91572945Y-131668084D01*
X91521815Y-131531695D01*
X91434461Y-131415139D01*
X91317905Y-131327785D01*
X91181516Y-131276655D01*
X91119334Y-131269900D01*
X89323066Y-131269900D01*
X89260884Y-131276655D01*
X89124495Y-131327785D01*
X89007939Y-131415139D01*
X88920585Y-131531695D01*
X88869455Y-131668084D01*
X88862700Y-131730266D01*
X88862700Y-133526534D01*
X84592566Y-133526534D01*
X84593831Y-133514886D01*
X84594200Y-133508072D01*
X84594200Y-132885515D01*
X84589725Y-132870276D01*
X84588335Y-132869071D01*
X84580652Y-132867400D01*
X81896316Y-132867400D01*
X81881077Y-132871875D01*
X81879872Y-132873265D01*
X81878201Y-132880948D01*
X81878201Y-133508069D01*
X81878571Y-133514890D01*
X81884095Y-133565752D01*
X81887721Y-133581004D01*
X81932876Y-133701454D01*
X81941414Y-133717049D01*
X82017915Y-133819124D01*
X82030476Y-133831685D01*
X82132551Y-133908186D01*
X82148146Y-133916724D01*
X82257027Y-133957542D01*
X82313791Y-134000184D01*
X82338491Y-134066745D01*
X82323283Y-134136094D01*
X82303891Y-134162575D01*
X82232690Y-134237083D01*
X82176829Y-134295538D01*
X82173915Y-134299810D01*
X82173914Y-134299811D01*
X82101718Y-134405647D01*
X82050943Y-134480080D01*
X81956888Y-134682705D01*
X81932844Y-134769404D01*
X81917669Y-134824122D01*
X81880190Y-134884419D01*
X81816061Y-134914882D01*
X81745643Y-134905838D01*
X81707157Y-134879544D01*
X79380181Y-132552568D01*
X79367340Y-132537535D01*
X79362946Y-132531487D01*
X79362945Y-132531486D01*
X79359066Y-132526147D01*
X79308241Y-132480384D01*
X79303456Y-132475843D01*
X79288941Y-132461328D01*
X79281482Y-132455288D01*
X79272984Y-132448406D01*
X79267969Y-132444122D01*
X79222055Y-132402781D01*
X79222050Y-132402777D01*
X79217144Y-132398360D01*
X79211428Y-132395060D01*
X79211424Y-132395057D01*
X79204963Y-132391327D01*
X79188666Y-132380127D01*
X79182860Y-132375425D01*
X79182858Y-132375424D01*
X79177730Y-132371271D01*
X79118879Y-132341285D01*
X81878200Y-132341285D01*
X81882675Y-132356524D01*
X81884065Y-132357729D01*
X81891748Y-132359400D01*
X82964085Y-132359400D01*
X82979324Y-132354925D01*
X82980529Y-132353535D01*
X82982200Y-132345852D01*
X82982200Y-132341285D01*
X83490200Y-132341285D01*
X83494675Y-132356524D01*
X83496065Y-132357729D01*
X83503748Y-132359400D01*
X84576084Y-132359400D01*
X84591323Y-132354925D01*
X84592528Y-132353535D01*
X84594199Y-132345852D01*
X84594199Y-131718731D01*
X84593829Y-131711910D01*
X84588305Y-131661048D01*
X84584679Y-131645796D01*
X84539524Y-131525346D01*
X84530986Y-131509751D01*
X84454485Y-131407676D01*
X84441924Y-131395115D01*
X84339849Y-131318614D01*
X84324254Y-131310076D01*
X84203806Y-131264922D01*
X84188551Y-131261295D01*
X84137686Y-131255769D01*
X84130872Y-131255400D01*
X83508315Y-131255400D01*
X83493076Y-131259875D01*
X83491871Y-131261265D01*
X83490200Y-131268948D01*
X83490200Y-132341285D01*
X82982200Y-132341285D01*
X82982200Y-131273516D01*
X82977725Y-131258277D01*
X82976335Y-131257072D01*
X82968652Y-131255401D01*
X82341531Y-131255401D01*
X82334710Y-131255771D01*
X82283848Y-131261295D01*
X82268596Y-131264921D01*
X82148146Y-131310076D01*
X82132551Y-131318614D01*
X82030476Y-131395115D01*
X82017915Y-131407676D01*
X81941414Y-131509751D01*
X81932876Y-131525346D01*
X81887722Y-131645794D01*
X81884095Y-131661049D01*
X81878569Y-131711914D01*
X81878200Y-131718728D01*
X81878200Y-132341285D01*
X79118879Y-132341285D01*
X79116777Y-132340214D01*
X79110982Y-132337067D01*
X79057479Y-132306177D01*
X79057478Y-132306176D01*
X79051756Y-132302873D01*
X79045474Y-132300832D01*
X79045472Y-132300831D01*
X79038374Y-132298525D01*
X79020107Y-132290959D01*
X79007570Y-132284571D01*
X78941499Y-132266867D01*
X78935197Y-132265000D01*
X78870128Y-132243858D01*
X78863563Y-132243168D01*
X78863554Y-132243166D01*
X78856125Y-132242385D01*
X78836691Y-132238783D01*
X78829486Y-132236853D01*
X78829484Y-132236853D01*
X78823103Y-132235143D01*
X78816512Y-132234798D01*
X78816508Y-132234797D01*
X78754816Y-132231564D01*
X78748242Y-132231047D01*
X78731084Y-132229244D01*
X78731082Y-132229244D01*
X78727810Y-132228900D01*
X78707274Y-132228900D01*
X78700680Y-132228727D01*
X78638982Y-132225493D01*
X78638977Y-132225493D01*
X78632390Y-132225148D01*
X78618492Y-132227349D01*
X78598783Y-132228900D01*
X77547885Y-132228900D01*
X77479764Y-132208898D01*
X77433271Y-132155242D01*
X77423167Y-132084968D01*
X77452661Y-132020388D01*
X77458712Y-132013882D01*
X77506939Y-131965571D01*
X77515951Y-131954160D01*
X77601016Y-131816157D01*
X77607163Y-131802976D01*
X77658338Y-131648690D01*
X77661205Y-131635314D01*
X77670872Y-131540962D01*
X77671200Y-131534546D01*
X77671200Y-131409515D01*
X77666725Y-131394276D01*
X77665335Y-131393071D01*
X77657652Y-131391400D01*
X74923316Y-131391400D01*
X74908077Y-131395875D01*
X74906872Y-131397265D01*
X74905201Y-131404948D01*
X74905201Y-131534495D01*
X74905538Y-131541014D01*
X74915457Y-131636606D01*
X74918349Y-131650000D01*
X74969788Y-131804184D01*
X74975961Y-131817362D01*
X75061263Y-131955207D01*
X75070299Y-131966608D01*
X75185029Y-132081139D01*
X75196440Y-132090151D01*
X75241855Y-132118145D01*
X75289348Y-132170917D01*
X75300772Y-132240989D01*
X75272498Y-132306113D01*
X75253575Y-132324488D01*
X75245280Y-132331004D01*
X75241348Y-132335535D01*
X75241345Y-132335538D01*
X75133992Y-132459252D01*
X75106648Y-132490763D01*
X75103648Y-132495949D01*
X75103645Y-132495953D01*
X75074952Y-132545551D01*
X75000727Y-132673854D01*
X74931339Y-132873671D01*
X74900987Y-133083004D01*
X74910767Y-133294299D01*
X74960325Y-133499934D01*
X74962807Y-133505392D01*
X74962808Y-133505396D01*
X74972419Y-133526534D01*
X75047874Y-133692487D01*
X75065297Y-133717049D01*
X75148598Y-133834481D01*
X75170254Y-133865011D01*
X75215355Y-133908186D01*
X75311169Y-133999907D01*
X75323050Y-134011281D01*
X75328088Y-134014534D01*
X75355363Y-134032146D01*
X75401740Y-134085901D01*
X75411693Y-134156197D01*
X75382061Y-134220714D01*
X75364849Y-134237081D01*
X75245280Y-134331004D01*
X75241348Y-134335535D01*
X75241345Y-134335538D01*
X75172674Y-134414675D01*
X75106648Y-134490763D01*
X75103648Y-134495949D01*
X75103645Y-134495953D01*
X75084403Y-134529214D01*
X75000727Y-134673854D01*
X74931339Y-134873671D01*
X74930478Y-134879606D01*
X74930478Y-134879608D01*
X74925364Y-134914882D01*
X74900987Y-135083004D01*
X74910767Y-135294299D01*
X74912171Y-135300124D01*
X74912171Y-135300125D01*
X74951017Y-135461310D01*
X74960325Y-135499934D01*
X74962807Y-135505392D01*
X74962808Y-135505396D01*
X75006253Y-135600946D01*
X75047874Y-135692487D01*
X75170254Y-135865011D01*
X75323050Y-136011281D01*
X75328088Y-136014534D01*
X75355363Y-136032146D01*
X75401740Y-136085901D01*
X75411693Y-136156197D01*
X75382061Y-136220714D01*
X75364849Y-136237081D01*
X75245280Y-136331004D01*
X75241348Y-136335535D01*
X75241345Y-136335538D01*
X75142866Y-136449025D01*
X75106648Y-136490763D01*
X75103648Y-136495949D01*
X75103645Y-136495953D01*
X75067743Y-136558012D01*
X75000727Y-136673854D01*
X74931339Y-136873671D01*
X74930478Y-136879606D01*
X74930478Y-136879608D01*
X74903708Y-137064240D01*
X74900987Y-137083004D01*
X74910767Y-137294299D01*
X74912171Y-137300124D01*
X74912171Y-137300125D01*
X74955700Y-137480742D01*
X74960325Y-137499934D01*
X74962807Y-137505392D01*
X74962808Y-137505396D01*
X75006253Y-137600946D01*
X75047874Y-137692487D01*
X75170254Y-137865011D01*
X75323050Y-138011281D01*
X75500748Y-138126020D01*
X75506314Y-138128263D01*
X75691368Y-138202842D01*
X75691371Y-138202843D01*
X75696937Y-138205086D01*
X75904537Y-138245628D01*
X75910099Y-138245900D01*
X76616046Y-138245900D01*
X76773766Y-138230852D01*
X76976734Y-138171308D01*
X77060311Y-138128263D01*
X77159449Y-138077204D01*
X77159452Y-138077202D01*
X77164780Y-138074458D01*
X77331120Y-137943796D01*
X77335052Y-137939265D01*
X77335055Y-137939262D01*
X77465821Y-137788567D01*
X77469752Y-137784037D01*
X77472752Y-137778851D01*
X77472755Y-137778847D01*
X77572667Y-137606142D01*
X77575673Y-137600946D01*
X77645061Y-137401129D01*
X77675413Y-137191796D01*
X77665633Y-136980501D01*
X77616075Y-136774866D01*
X77585786Y-136708248D01*
X77531006Y-136587768D01*
X77528526Y-136582313D01*
X77406146Y-136409789D01*
X77253350Y-136263519D01*
X77247455Y-136259712D01*
X77221037Y-136242654D01*
X77174660Y-136188899D01*
X77164707Y-136118603D01*
X77194339Y-136054086D01*
X77211553Y-136037717D01*
X77218646Y-136032146D01*
X77331120Y-135943796D01*
X77335052Y-135939265D01*
X77335055Y-135939262D01*
X77465821Y-135788567D01*
X77469752Y-135784037D01*
X77472752Y-135778851D01*
X77472755Y-135778847D01*
X77572667Y-135606142D01*
X77575673Y-135600946D01*
X77645061Y-135401129D01*
X77675413Y-135191796D01*
X77665633Y-134980501D01*
X77616075Y-134774866D01*
X77597620Y-134734275D01*
X77531006Y-134587768D01*
X77528526Y-134582313D01*
X77406146Y-134409789D01*
X77253350Y-134263519D01*
X77255147Y-134261641D01*
X77220565Y-134212865D01*
X77217333Y-134141942D01*
X77252958Y-134080530D01*
X77316129Y-134048128D01*
X77339720Y-134045900D01*
X78251697Y-134045900D01*
X78319818Y-134065902D01*
X78340792Y-134082805D01*
X81836787Y-137578800D01*
X81870813Y-137641112D01*
X81873482Y-137660636D01*
X81886310Y-137883115D01*
X81887447Y-137888161D01*
X81887448Y-137888167D01*
X81898963Y-137939262D01*
X81935422Y-138101039D01*
X82019466Y-138308016D01*
X82136187Y-138498488D01*
X82282450Y-138667338D01*
X82454326Y-138810032D01*
X82647200Y-138922738D01*
X82772837Y-138970714D01*
X82780630Y-138973690D01*
X82837133Y-139016678D01*
X82861426Y-139083389D01*
X82845796Y-139152643D01*
X82795205Y-139202454D01*
X82735681Y-139217400D01*
X69900200Y-139217400D01*
X69832079Y-139197398D01*
X69785586Y-139143742D01*
X69774200Y-139091400D01*
X69774200Y-130865285D01*
X74905200Y-130865285D01*
X74909675Y-130880524D01*
X74911065Y-130881729D01*
X74918748Y-130883400D01*
X76016085Y-130883400D01*
X76031324Y-130878925D01*
X76032529Y-130877535D01*
X76034200Y-130869852D01*
X76034200Y-130865285D01*
X76542200Y-130865285D01*
X76546675Y-130880524D01*
X76548065Y-130881729D01*
X76555748Y-130883400D01*
X77653084Y-130883400D01*
X77668323Y-130878925D01*
X77669528Y-130877535D01*
X77671199Y-130869852D01*
X77671199Y-130740305D01*
X77670862Y-130733786D01*
X77660943Y-130638194D01*
X77658051Y-130624800D01*
X77606612Y-130470616D01*
X77600439Y-130457438D01*
X77515137Y-130319593D01*
X77506101Y-130308192D01*
X77391371Y-130193661D01*
X77379960Y-130184649D01*
X77241957Y-130099584D01*
X77228776Y-130093437D01*
X77074490Y-130042262D01*
X77061114Y-130039395D01*
X76966762Y-130029728D01*
X76960345Y-130029400D01*
X76560315Y-130029400D01*
X76545076Y-130033875D01*
X76543871Y-130035265D01*
X76542200Y-130042948D01*
X76542200Y-130865285D01*
X76034200Y-130865285D01*
X76034200Y-130047516D01*
X76029725Y-130032277D01*
X76028335Y-130031072D01*
X76020652Y-130029401D01*
X75616105Y-130029401D01*
X75609586Y-130029738D01*
X75513994Y-130039657D01*
X75500600Y-130042549D01*
X75346416Y-130093988D01*
X75333238Y-130100161D01*
X75195393Y-130185463D01*
X75183992Y-130194499D01*
X75069461Y-130309229D01*
X75060449Y-130320640D01*
X74975384Y-130458643D01*
X74969237Y-130471824D01*
X74918062Y-130626110D01*
X74915195Y-130639486D01*
X74905528Y-130733838D01*
X74905200Y-130740255D01*
X74905200Y-130865285D01*
X69774200Y-130865285D01*
X69774200Y-126135400D01*
X69794202Y-126067279D01*
X69847858Y-126020786D01*
X69900200Y-126009400D01*
X92000200Y-126009400D01*
X92068321Y-126029402D01*
G37*
%TD.AperFunction*%
%TD*%
%TA.AperFunction,Conductor*%
%TO.N,/AD_DE_GND_1*%
G36*
X92068321Y-108249402D02*
G01*
X92114814Y-108303058D01*
X92126200Y-108355400D01*
X92126200Y-121311400D01*
X92106198Y-121379521D01*
X92052542Y-121426014D01*
X92000200Y-121437400D01*
X91021232Y-121437400D01*
X90953111Y-121417398D01*
X90906618Y-121363742D01*
X90896514Y-121293468D01*
X90926008Y-121228888D01*
X90948064Y-121208821D01*
X90973218Y-121190879D01*
X91126460Y-121081573D01*
X91284696Y-120923889D01*
X91344194Y-120841089D01*
X91412035Y-120746677D01*
X91415053Y-120742477D01*
X91418245Y-120736020D01*
X91511736Y-120546853D01*
X91511737Y-120546851D01*
X91514030Y-120542211D01*
X91575821Y-120338834D01*
X91577465Y-120333423D01*
X91577465Y-120333421D01*
X91578970Y-120328469D01*
X91608129Y-120106990D01*
X91608211Y-120103640D01*
X91609674Y-120043765D01*
X91609674Y-120043761D01*
X91609756Y-120040400D01*
X91591452Y-119817761D01*
X91537031Y-119601102D01*
X91447954Y-119396240D01*
X91326614Y-119208677D01*
X91176270Y-119043451D01*
X91172219Y-119040252D01*
X91172215Y-119040248D01*
X91005014Y-118908200D01*
X91005010Y-118908198D01*
X91000959Y-118904998D01*
X90959653Y-118882196D01*
X90909684Y-118831764D01*
X90894912Y-118762321D01*
X90920028Y-118695916D01*
X90947380Y-118669309D01*
X90991203Y-118638050D01*
X91126460Y-118541573D01*
X91136897Y-118531173D01*
X91239891Y-118428538D01*
X91284696Y-118383889D01*
X91289248Y-118377555D01*
X91412035Y-118206677D01*
X91415053Y-118202477D01*
X91425861Y-118180610D01*
X91511736Y-118006853D01*
X91511737Y-118006851D01*
X91514030Y-118002211D01*
X91578970Y-117788469D01*
X91608129Y-117566990D01*
X91609756Y-117500400D01*
X91591452Y-117277761D01*
X91537031Y-117061102D01*
X91447954Y-116856240D01*
X91326614Y-116668677D01*
X91176270Y-116503451D01*
X91172219Y-116500252D01*
X91172215Y-116500248D01*
X91005014Y-116368200D01*
X91005010Y-116368198D01*
X91000959Y-116364998D01*
X90959653Y-116342196D01*
X90909684Y-116291764D01*
X90894912Y-116222321D01*
X90920028Y-116155916D01*
X90947380Y-116129309D01*
X90991203Y-116098050D01*
X91126460Y-116001573D01*
X91136897Y-115991173D01*
X91281035Y-115847537D01*
X91284696Y-115843889D01*
X91344194Y-115761089D01*
X91412035Y-115666677D01*
X91415053Y-115662477D01*
X91465785Y-115559829D01*
X91511736Y-115466853D01*
X91511737Y-115466851D01*
X91514030Y-115462211D01*
X91578970Y-115248469D01*
X91608129Y-115026990D01*
X91609756Y-114960400D01*
X91591452Y-114737761D01*
X91537031Y-114521102D01*
X91447954Y-114316240D01*
X91326614Y-114128677D01*
X91323140Y-114124859D01*
X91323133Y-114124850D01*
X91179035Y-113966488D01*
X91147983Y-113902642D01*
X91156379Y-113832144D01*
X91201556Y-113777376D01*
X91228000Y-113763707D01*
X91334652Y-113723725D01*
X91350249Y-113715186D01*
X91452324Y-113638685D01*
X91464885Y-113626124D01*
X91541386Y-113524049D01*
X91549924Y-113508454D01*
X91595078Y-113388006D01*
X91598705Y-113372751D01*
X91604231Y-113321886D01*
X91604600Y-113315072D01*
X91604600Y-112692515D01*
X91600125Y-112677276D01*
X91598735Y-112676071D01*
X91591052Y-112674400D01*
X88906716Y-112674400D01*
X88891477Y-112678875D01*
X88890272Y-112680265D01*
X88888601Y-112687948D01*
X88888601Y-113315069D01*
X88888971Y-113321890D01*
X88894495Y-113372752D01*
X88898121Y-113388004D01*
X88943276Y-113508454D01*
X88951814Y-113524049D01*
X89028315Y-113626124D01*
X89040876Y-113638685D01*
X89142951Y-113715186D01*
X89158546Y-113723724D01*
X89267427Y-113764542D01*
X89324191Y-113807184D01*
X89348891Y-113873745D01*
X89333683Y-113943094D01*
X89314291Y-113969575D01*
X89197167Y-114092138D01*
X89187229Y-114102538D01*
X89184315Y-114106810D01*
X89184314Y-114106811D01*
X89123138Y-114196492D01*
X89061343Y-114287080D01*
X89019339Y-114377571D01*
X88980485Y-114461275D01*
X88967288Y-114489705D01*
X88907589Y-114704970D01*
X88883851Y-114927095D01*
X88884148Y-114932248D01*
X88884148Y-114932251D01*
X88889611Y-115026990D01*
X88896710Y-115150115D01*
X88897847Y-115155161D01*
X88897848Y-115155167D01*
X88917648Y-115243023D01*
X88945822Y-115368039D01*
X89029866Y-115575016D01*
X89146587Y-115765488D01*
X89292850Y-115934338D01*
X89464726Y-116077032D01*
X89535195Y-116118211D01*
X89538045Y-116119876D01*
X89586769Y-116171514D01*
X89599840Y-116241297D01*
X89573109Y-116307069D01*
X89532655Y-116340427D01*
X89520207Y-116346907D01*
X89516074Y-116350010D01*
X89516071Y-116350012D01*
X89345700Y-116477930D01*
X89341565Y-116481035D01*
X89316494Y-116507270D01*
X89200739Y-116628401D01*
X89187229Y-116642538D01*
X89184315Y-116646810D01*
X89184314Y-116646811D01*
X89173532Y-116662617D01*
X89061343Y-116827080D01*
X89045603Y-116860990D01*
X88974997Y-117013098D01*
X88967288Y-117029705D01*
X88907589Y-117244970D01*
X88883851Y-117467095D01*
X88884148Y-117472248D01*
X88884148Y-117472251D01*
X88894742Y-117655990D01*
X88896710Y-117690115D01*
X88897847Y-117695161D01*
X88897848Y-117695167D01*
X88916974Y-117780032D01*
X88945822Y-117908039D01*
X88984061Y-118002211D01*
X89026832Y-118107543D01*
X89029866Y-118115016D01*
X89049630Y-118147268D01*
X89103357Y-118234942D01*
X89146587Y-118305488D01*
X89292850Y-118474338D01*
X89464726Y-118617032D01*
X89535195Y-118658211D01*
X89538045Y-118659876D01*
X89586769Y-118711514D01*
X89599840Y-118781297D01*
X89573109Y-118847069D01*
X89532655Y-118880427D01*
X89520207Y-118886907D01*
X89516074Y-118890010D01*
X89516071Y-118890012D01*
X89345700Y-119017930D01*
X89341565Y-119021035D01*
X89187229Y-119182538D01*
X89061343Y-119367080D01*
X89045603Y-119400990D01*
X88974215Y-119554783D01*
X88967288Y-119569705D01*
X88907589Y-119784970D01*
X88883851Y-120007095D01*
X88884148Y-120012248D01*
X88884148Y-120012251D01*
X88889611Y-120106990D01*
X88896710Y-120230115D01*
X88897847Y-120235161D01*
X88897848Y-120235167D01*
X88917719Y-120323339D01*
X88945822Y-120448039D01*
X88984061Y-120542211D01*
X89027340Y-120648794D01*
X89029866Y-120655016D01*
X89032565Y-120659420D01*
X89142427Y-120838699D01*
X89146587Y-120845488D01*
X89292850Y-121014338D01*
X89464726Y-121157032D01*
X89526344Y-121193039D01*
X89542727Y-121202612D01*
X89591451Y-121254251D01*
X89604522Y-121324034D01*
X89577791Y-121389805D01*
X89519744Y-121430684D01*
X89479157Y-121437400D01*
X83916087Y-121437400D01*
X83847966Y-121417398D01*
X83801473Y-121363742D01*
X83791369Y-121293468D01*
X83820863Y-121228888D01*
X83851572Y-121203170D01*
X83861144Y-121197464D01*
X84034528Y-121073792D01*
X84042400Y-121067139D01*
X84193252Y-120916812D01*
X84199930Y-120908965D01*
X84324203Y-120736020D01*
X84329513Y-120727183D01*
X84423870Y-120536267D01*
X84427669Y-120526672D01*
X84489577Y-120322910D01*
X84491755Y-120312837D01*
X84493186Y-120301962D01*
X84490975Y-120287778D01*
X84477817Y-120284000D01*
X81842425Y-120284000D01*
X81828894Y-120287973D01*
X81827457Y-120297966D01*
X81857765Y-120432446D01*
X81860845Y-120442275D01*
X81940970Y-120639603D01*
X81945613Y-120648794D01*
X82056894Y-120830388D01*
X82062977Y-120838699D01*
X82202413Y-120999667D01*
X82209780Y-121006883D01*
X82373634Y-121142916D01*
X82382081Y-121148831D01*
X82474116Y-121202612D01*
X82522840Y-121254250D01*
X82535911Y-121324033D01*
X82509180Y-121389805D01*
X82451133Y-121430684D01*
X82410546Y-121437400D01*
X69900200Y-121437400D01*
X69832079Y-121417398D01*
X69785586Y-121363742D01*
X69774200Y-121311400D01*
X69774200Y-119176004D01*
X74609987Y-119176004D01*
X74619767Y-119387299D01*
X74621171Y-119393124D01*
X74621171Y-119393125D01*
X74660131Y-119554783D01*
X74669325Y-119592934D01*
X74671807Y-119598392D01*
X74671808Y-119598396D01*
X74715253Y-119693946D01*
X74756874Y-119785487D01*
X74879254Y-119958011D01*
X75032050Y-120104281D01*
X75209748Y-120219020D01*
X75249814Y-120235167D01*
X75400368Y-120295842D01*
X75400371Y-120295843D01*
X75405937Y-120298086D01*
X75613537Y-120338628D01*
X75619099Y-120338900D01*
X76325046Y-120338900D01*
X76482766Y-120323852D01*
X76685734Y-120264308D01*
X76752124Y-120230115D01*
X76868449Y-120170204D01*
X76868452Y-120170202D01*
X76873780Y-120167458D01*
X77040120Y-120036796D01*
X77044052Y-120032265D01*
X77044055Y-120032262D01*
X77174821Y-119881567D01*
X77178752Y-119877037D01*
X77181752Y-119871851D01*
X77181755Y-119871847D01*
X77281667Y-119699142D01*
X77284673Y-119693946D01*
X77354061Y-119494129D01*
X77367566Y-119400990D01*
X77383552Y-119290736D01*
X77383552Y-119290733D01*
X77384413Y-119284796D01*
X77374633Y-119073501D01*
X77343019Y-118942323D01*
X77326481Y-118873699D01*
X77326480Y-118873697D01*
X77325075Y-118867866D01*
X77315620Y-118847069D01*
X77253986Y-118711514D01*
X77237526Y-118675313D01*
X77115146Y-118502789D01*
X76962350Y-118356519D01*
X76964147Y-118354641D01*
X76929565Y-118305865D01*
X76926333Y-118234942D01*
X76961958Y-118173530D01*
X77025129Y-118141128D01*
X77048720Y-118138900D01*
X77608811Y-118138900D01*
X77653724Y-118147223D01*
X77659230Y-118150029D01*
X77667959Y-118152368D01*
X77672821Y-118153671D01*
X77691453Y-118160269D01*
X77698277Y-118163307D01*
X77704312Y-118165994D01*
X77771226Y-118180217D01*
X77777634Y-118181756D01*
X77837316Y-118197748D01*
X77837321Y-118197749D01*
X77843696Y-118199457D01*
X77857071Y-118200158D01*
X77857742Y-118200193D01*
X77877347Y-118202774D01*
X77884646Y-118204326D01*
X77884653Y-118204327D01*
X77891113Y-118205700D01*
X77959525Y-118205700D01*
X77966119Y-118205873D01*
X78027817Y-118209107D01*
X78027822Y-118209107D01*
X78034409Y-118209452D01*
X78048307Y-118207251D01*
X78068016Y-118205700D01*
X78082087Y-118205700D01*
X78097250Y-118202477D01*
X78148999Y-118191478D01*
X78155483Y-118190276D01*
X78209274Y-118181756D01*
X78223032Y-118179577D01*
X78236168Y-118174534D01*
X78255127Y-118168919D01*
X78262430Y-118167367D01*
X78262434Y-118167366D01*
X78268888Y-118165994D01*
X78331394Y-118138165D01*
X78337467Y-118135650D01*
X78395157Y-118113505D01*
X78395161Y-118113503D01*
X78401322Y-118111138D01*
X78413122Y-118103475D01*
X78430494Y-118094043D01*
X78437318Y-118091005D01*
X78437322Y-118091003D01*
X78443352Y-118088318D01*
X78498690Y-118048113D01*
X78504115Y-118044384D01*
X78504894Y-118043878D01*
X78572917Y-118023545D01*
X78641134Y-118043216D01*
X78682648Y-118086544D01*
X78771560Y-118240544D01*
X78775978Y-118245451D01*
X78775979Y-118245452D01*
X78824185Y-118298990D01*
X78899347Y-118382466D01*
X79053848Y-118494718D01*
X79059876Y-118497402D01*
X79059878Y-118497403D01*
X79165820Y-118544571D01*
X79228312Y-118572394D01*
X79306216Y-118588953D01*
X79408656Y-118610728D01*
X79408661Y-118610728D01*
X79415113Y-118612100D01*
X79606087Y-118612100D01*
X79612539Y-118610728D01*
X79612544Y-118610728D01*
X79714984Y-118588953D01*
X79792888Y-118572394D01*
X79855380Y-118544571D01*
X79961322Y-118497403D01*
X79961324Y-118497402D01*
X79967352Y-118494718D01*
X80121853Y-118382466D01*
X80197015Y-118298990D01*
X80245221Y-118245452D01*
X80245222Y-118245451D01*
X80249640Y-118240544D01*
X80328312Y-118104281D01*
X80341823Y-118080879D01*
X80341824Y-118080878D01*
X80345127Y-118075156D01*
X80404142Y-117893528D01*
X80419100Y-117751210D01*
X80424104Y-117703600D01*
X80419790Y-117662555D01*
X80419100Y-117649384D01*
X80419100Y-117456695D01*
X81796451Y-117456695D01*
X81796748Y-117461848D01*
X81796748Y-117461851D01*
X81802211Y-117556590D01*
X81809310Y-117679715D01*
X81810447Y-117684761D01*
X81810448Y-117684767D01*
X81816172Y-117710165D01*
X81858422Y-117897639D01*
X81900884Y-118002211D01*
X81934273Y-118084438D01*
X81942466Y-118104616D01*
X81981871Y-118168919D01*
X82025763Y-118240544D01*
X82059187Y-118295088D01*
X82205450Y-118463938D01*
X82258132Y-118507675D01*
X82356032Y-118588953D01*
X82377326Y-118606632D01*
X82389468Y-118613727D01*
X82451155Y-118649774D01*
X82499879Y-118701412D01*
X82512950Y-118771195D01*
X82486219Y-118836967D01*
X82445762Y-118870327D01*
X82437657Y-118874546D01*
X82428938Y-118880036D01*
X82258633Y-119007905D01*
X82250926Y-119014748D01*
X82103790Y-119168717D01*
X82097304Y-119176727D01*
X81977298Y-119352649D01*
X81972200Y-119361623D01*
X81882538Y-119554783D01*
X81878975Y-119564470D01*
X81823589Y-119764183D01*
X81825112Y-119772607D01*
X81837492Y-119776000D01*
X84477544Y-119776000D01*
X84491075Y-119772027D01*
X84492380Y-119762947D01*
X84450414Y-119595875D01*
X84447094Y-119586124D01*
X84362172Y-119390814D01*
X84357305Y-119381739D01*
X84241626Y-119202926D01*
X84235336Y-119194757D01*
X84092006Y-119037240D01*
X84084473Y-119030215D01*
X83917339Y-118898222D01*
X83908756Y-118892520D01*
X83871802Y-118872120D01*
X83821831Y-118821687D01*
X83807059Y-118752245D01*
X83832175Y-118685839D01*
X83859527Y-118659232D01*
X83927527Y-118610728D01*
X84039060Y-118531173D01*
X84067544Y-118502789D01*
X84184391Y-118386349D01*
X84197296Y-118373489D01*
X84240249Y-118313714D01*
X84324635Y-118196277D01*
X84327653Y-118192077D01*
X84333321Y-118180610D01*
X84424336Y-117996453D01*
X84424337Y-117996451D01*
X84426630Y-117991811D01*
X84486905Y-117793423D01*
X84490065Y-117783023D01*
X84490065Y-117783021D01*
X84491570Y-117778069D01*
X84520729Y-117556590D01*
X84522356Y-117490000D01*
X84504052Y-117267361D01*
X84449631Y-117050702D01*
X84360554Y-116845840D01*
X84239214Y-116658277D01*
X84088870Y-116493051D01*
X84084819Y-116489852D01*
X84084815Y-116489848D01*
X83917614Y-116357800D01*
X83917610Y-116357798D01*
X83913559Y-116354598D01*
X83872253Y-116331796D01*
X83822284Y-116281364D01*
X83807512Y-116211921D01*
X83832628Y-116145516D01*
X83859980Y-116118909D01*
X83923323Y-116073727D01*
X84039060Y-115991173D01*
X84197296Y-115833489D01*
X84256794Y-115750689D01*
X84324635Y-115656277D01*
X84327653Y-115652077D01*
X84423939Y-115457257D01*
X84424336Y-115456453D01*
X84424337Y-115456451D01*
X84426630Y-115451811D01*
X84491570Y-115238069D01*
X84520729Y-115016590D01*
X84522356Y-114950000D01*
X84504052Y-114727361D01*
X84449631Y-114510702D01*
X84360554Y-114305840D01*
X84245942Y-114128677D01*
X84242022Y-114122617D01*
X84242020Y-114122614D01*
X84239214Y-114118277D01*
X84235732Y-114114450D01*
X84091998Y-113956488D01*
X84060946Y-113892642D01*
X84069341Y-113822143D01*
X84114517Y-113767375D01*
X84140961Y-113753706D01*
X84247497Y-113713767D01*
X84255905Y-113710615D01*
X84372461Y-113623261D01*
X84459815Y-113506705D01*
X84510945Y-113370316D01*
X84517700Y-113308134D01*
X84517700Y-112148285D01*
X88888600Y-112148285D01*
X88893075Y-112163524D01*
X88894465Y-112164729D01*
X88902148Y-112166400D01*
X89974485Y-112166400D01*
X89989724Y-112161925D01*
X89990929Y-112160535D01*
X89992600Y-112152852D01*
X89992600Y-112148285D01*
X90500600Y-112148285D01*
X90505075Y-112163524D01*
X90506465Y-112164729D01*
X90514148Y-112166400D01*
X91586484Y-112166400D01*
X91601723Y-112161925D01*
X91602928Y-112160535D01*
X91604599Y-112152852D01*
X91604599Y-111525731D01*
X91604229Y-111518910D01*
X91598705Y-111468048D01*
X91595079Y-111452796D01*
X91549924Y-111332346D01*
X91541386Y-111316751D01*
X91464885Y-111214676D01*
X91452324Y-111202115D01*
X91350249Y-111125614D01*
X91334654Y-111117076D01*
X91214206Y-111071922D01*
X91198951Y-111068295D01*
X91148086Y-111062769D01*
X91141272Y-111062400D01*
X90518715Y-111062400D01*
X90503476Y-111066875D01*
X90502271Y-111068265D01*
X90500600Y-111075948D01*
X90500600Y-112148285D01*
X89992600Y-112148285D01*
X89992600Y-111080516D01*
X89988125Y-111065277D01*
X89986735Y-111064072D01*
X89979052Y-111062401D01*
X89351931Y-111062401D01*
X89345110Y-111062771D01*
X89294248Y-111068295D01*
X89278996Y-111071921D01*
X89158546Y-111117076D01*
X89142951Y-111125614D01*
X89040876Y-111202115D01*
X89028315Y-111214676D01*
X88951814Y-111316751D01*
X88943276Y-111332346D01*
X88898122Y-111452794D01*
X88894495Y-111468049D01*
X88888969Y-111518914D01*
X88888600Y-111525728D01*
X88888600Y-112148285D01*
X84517700Y-112148285D01*
X84517700Y-111511866D01*
X84510945Y-111449684D01*
X84459815Y-111313295D01*
X84372461Y-111196739D01*
X84255905Y-111109385D01*
X84119516Y-111058255D01*
X84057334Y-111051500D01*
X82261066Y-111051500D01*
X82198884Y-111058255D01*
X82062495Y-111109385D01*
X81945939Y-111196739D01*
X81858585Y-111313295D01*
X81807455Y-111449684D01*
X81800700Y-111511866D01*
X81800700Y-113308134D01*
X81807455Y-113370316D01*
X81858585Y-113506705D01*
X81945939Y-113623261D01*
X82062495Y-113710615D01*
X82070904Y-113713767D01*
X82070905Y-113713768D01*
X82179651Y-113754535D01*
X82236416Y-113797176D01*
X82261116Y-113863738D01*
X82245909Y-113933087D01*
X82226516Y-113959568D01*
X82099829Y-114092138D01*
X82096915Y-114096410D01*
X82096914Y-114096411D01*
X82089820Y-114106811D01*
X81973943Y-114276680D01*
X81936198Y-114357995D01*
X81882756Y-114473127D01*
X81879888Y-114479305D01*
X81820189Y-114694570D01*
X81796451Y-114916695D01*
X81796748Y-114921848D01*
X81796748Y-114921851D01*
X81802211Y-115016590D01*
X81809310Y-115139715D01*
X81810447Y-115144761D01*
X81810448Y-115144767D01*
X81830319Y-115232939D01*
X81858422Y-115357639D01*
X81942466Y-115564616D01*
X82059187Y-115755088D01*
X82205450Y-115923938D01*
X82377326Y-116066632D01*
X82441755Y-116104281D01*
X82450645Y-116109476D01*
X82499369Y-116161114D01*
X82512440Y-116230897D01*
X82485709Y-116296669D01*
X82445255Y-116330027D01*
X82432807Y-116336507D01*
X82428674Y-116339610D01*
X82428671Y-116339612D01*
X82258300Y-116467530D01*
X82254165Y-116470635D01*
X82235805Y-116489848D01*
X82141098Y-116588953D01*
X82099829Y-116632138D01*
X82096915Y-116636410D01*
X82096914Y-116636411D01*
X82062671Y-116686609D01*
X81973943Y-116816680D01*
X81879888Y-117019305D01*
X81820189Y-117234570D01*
X81796451Y-117456695D01*
X80419100Y-117456695D01*
X80419100Y-117023016D01*
X80420651Y-117003304D01*
X80421820Y-116995924D01*
X80422852Y-116989409D01*
X80421972Y-116972608D01*
X80419273Y-116921119D01*
X80419100Y-116914525D01*
X80419100Y-116893990D01*
X80416953Y-116873560D01*
X80416436Y-116866985D01*
X80413203Y-116805296D01*
X80413203Y-116805295D01*
X80412857Y-116798696D01*
X80409216Y-116785108D01*
X80405612Y-116765661D01*
X80404833Y-116758244D01*
X80404832Y-116758240D01*
X80404142Y-116751672D01*
X80383002Y-116686609D01*
X80381129Y-116680285D01*
X80365139Y-116620610D01*
X80365138Y-116620606D01*
X80363429Y-116614230D01*
X80357040Y-116601692D01*
X80349475Y-116583426D01*
X80347169Y-116576328D01*
X80347168Y-116576326D01*
X80345127Y-116570044D01*
X80310931Y-116510815D01*
X80307785Y-116505021D01*
X80297468Y-116484773D01*
X80276729Y-116444070D01*
X80267873Y-116433133D01*
X80256673Y-116416837D01*
X80252943Y-116410376D01*
X80252940Y-116410372D01*
X80249640Y-116404656D01*
X80245223Y-116399750D01*
X80245219Y-116399745D01*
X80203878Y-116353831D01*
X80199594Y-116348816D01*
X80188748Y-116335423D01*
X80186672Y-116332859D01*
X80172157Y-116318344D01*
X80167616Y-116313559D01*
X80147992Y-116291764D01*
X80121853Y-116262734D01*
X80110465Y-116254460D01*
X80095432Y-116241619D01*
X78499381Y-114645568D01*
X78486540Y-114630535D01*
X78482146Y-114624487D01*
X78482145Y-114624486D01*
X78478266Y-114619147D01*
X78427441Y-114573384D01*
X78422656Y-114568843D01*
X78408141Y-114554328D01*
X78400682Y-114548288D01*
X78392184Y-114541406D01*
X78387169Y-114537122D01*
X78341255Y-114495781D01*
X78341250Y-114495777D01*
X78336344Y-114491360D01*
X78330628Y-114488060D01*
X78330624Y-114488057D01*
X78324163Y-114484327D01*
X78307866Y-114473127D01*
X78302060Y-114468425D01*
X78302058Y-114468424D01*
X78296930Y-114464271D01*
X78235977Y-114433214D01*
X78230182Y-114430067D01*
X78176679Y-114399177D01*
X78176678Y-114399176D01*
X78170956Y-114395873D01*
X78164674Y-114393832D01*
X78164672Y-114393831D01*
X78157574Y-114391525D01*
X78139307Y-114383959D01*
X78126770Y-114377571D01*
X78060699Y-114359867D01*
X78054397Y-114358000D01*
X77989328Y-114336858D01*
X77982763Y-114336168D01*
X77982754Y-114336166D01*
X77975325Y-114335385D01*
X77955891Y-114331783D01*
X77948686Y-114329853D01*
X77948684Y-114329853D01*
X77942303Y-114328143D01*
X77935712Y-114327798D01*
X77935708Y-114327797D01*
X77874016Y-114324564D01*
X77867442Y-114324047D01*
X77850284Y-114322244D01*
X77850282Y-114322244D01*
X77847010Y-114321900D01*
X77826474Y-114321900D01*
X77819880Y-114321727D01*
X77758182Y-114318493D01*
X77758177Y-114318493D01*
X77751590Y-114318148D01*
X77737692Y-114320349D01*
X77717983Y-114321900D01*
X77256885Y-114321900D01*
X77188764Y-114301898D01*
X77142271Y-114248242D01*
X77132167Y-114177968D01*
X77161661Y-114113388D01*
X77167712Y-114106882D01*
X77215939Y-114058571D01*
X77224951Y-114047160D01*
X77310016Y-113909157D01*
X77316163Y-113895976D01*
X77367338Y-113741690D01*
X77370205Y-113728314D01*
X77379872Y-113633962D01*
X77380200Y-113627546D01*
X77380200Y-113502515D01*
X77375725Y-113487276D01*
X77374335Y-113486071D01*
X77366652Y-113484400D01*
X74632316Y-113484400D01*
X74617077Y-113488875D01*
X74615872Y-113490265D01*
X74614201Y-113497948D01*
X74614201Y-113627495D01*
X74614538Y-113634014D01*
X74624457Y-113729606D01*
X74627349Y-113743000D01*
X74678788Y-113897184D01*
X74684961Y-113910362D01*
X74770263Y-114048207D01*
X74779299Y-114059608D01*
X74894029Y-114174139D01*
X74905440Y-114183151D01*
X74950855Y-114211145D01*
X74998348Y-114263917D01*
X75009772Y-114333989D01*
X74981498Y-114399113D01*
X74962575Y-114417488D01*
X74954280Y-114424004D01*
X74950348Y-114428535D01*
X74950345Y-114428538D01*
X74842992Y-114552252D01*
X74815648Y-114583763D01*
X74812648Y-114588949D01*
X74812645Y-114588953D01*
X74748410Y-114699988D01*
X74709727Y-114766854D01*
X74640339Y-114966671D01*
X74639478Y-114972606D01*
X74639478Y-114972608D01*
X74613741Y-115150115D01*
X74609987Y-115176004D01*
X74619767Y-115387299D01*
X74621171Y-115393124D01*
X74621171Y-115393125D01*
X74663562Y-115569020D01*
X74669325Y-115592934D01*
X74671807Y-115598392D01*
X74671808Y-115598396D01*
X74696216Y-115652077D01*
X74756874Y-115785487D01*
X74800889Y-115847537D01*
X74862462Y-115934338D01*
X74879254Y-115958011D01*
X75032050Y-116104281D01*
X75037088Y-116107534D01*
X75064363Y-116125146D01*
X75110740Y-116178901D01*
X75120693Y-116249197D01*
X75091061Y-116313714D01*
X75073849Y-116330081D01*
X74954280Y-116424004D01*
X74950348Y-116428535D01*
X74950345Y-116428538D01*
X74832519Y-116564321D01*
X74815648Y-116583763D01*
X74812648Y-116588949D01*
X74812645Y-116588953D01*
X74757962Y-116683476D01*
X74709727Y-116766854D01*
X74640339Y-116966671D01*
X74639478Y-116972606D01*
X74639478Y-116972608D01*
X74625920Y-117066120D01*
X74609987Y-117176004D01*
X74619767Y-117387299D01*
X74621171Y-117393124D01*
X74621171Y-117393125D01*
X74663073Y-117566990D01*
X74669325Y-117592934D01*
X74756874Y-117785487D01*
X74879254Y-117958011D01*
X75032050Y-118104281D01*
X75037088Y-118107534D01*
X75064363Y-118125146D01*
X75110740Y-118178901D01*
X75120693Y-118249197D01*
X75091061Y-118313714D01*
X75073849Y-118330081D01*
X74954280Y-118424004D01*
X74950348Y-118428535D01*
X74950345Y-118428538D01*
X74881674Y-118507675D01*
X74815648Y-118583763D01*
X74812648Y-118588949D01*
X74812645Y-118588953D01*
X74771988Y-118659232D01*
X74709727Y-118766854D01*
X74640339Y-118966671D01*
X74639478Y-118972606D01*
X74639478Y-118972608D01*
X74611044Y-119168717D01*
X74609987Y-119176004D01*
X69774200Y-119176004D01*
X69774200Y-112958285D01*
X74614200Y-112958285D01*
X74618675Y-112973524D01*
X74620065Y-112974729D01*
X74627748Y-112976400D01*
X75725085Y-112976400D01*
X75740324Y-112971925D01*
X75741529Y-112970535D01*
X75743200Y-112962852D01*
X75743200Y-112958285D01*
X76251200Y-112958285D01*
X76255675Y-112973524D01*
X76257065Y-112974729D01*
X76264748Y-112976400D01*
X77362084Y-112976400D01*
X77377323Y-112971925D01*
X77378528Y-112970535D01*
X77380199Y-112962852D01*
X77380199Y-112833305D01*
X77379862Y-112826786D01*
X77369943Y-112731194D01*
X77367051Y-112717800D01*
X77315612Y-112563616D01*
X77309439Y-112550438D01*
X77224137Y-112412593D01*
X77215101Y-112401192D01*
X77100371Y-112286661D01*
X77088960Y-112277649D01*
X76950957Y-112192584D01*
X76937776Y-112186437D01*
X76783490Y-112135262D01*
X76770114Y-112132395D01*
X76675762Y-112122728D01*
X76669345Y-112122400D01*
X76269315Y-112122400D01*
X76254076Y-112126875D01*
X76252871Y-112128265D01*
X76251200Y-112135948D01*
X76251200Y-112958285D01*
X75743200Y-112958285D01*
X75743200Y-112140516D01*
X75738725Y-112125277D01*
X75737335Y-112124072D01*
X75729652Y-112122401D01*
X75325105Y-112122401D01*
X75318586Y-112122738D01*
X75222994Y-112132657D01*
X75209600Y-112135549D01*
X75055416Y-112186988D01*
X75042238Y-112193161D01*
X74904393Y-112278463D01*
X74892992Y-112287499D01*
X74778461Y-112402229D01*
X74769449Y-112413640D01*
X74684384Y-112551643D01*
X74678237Y-112564824D01*
X74627062Y-112719110D01*
X74624195Y-112732486D01*
X74614528Y-112826838D01*
X74614200Y-112833255D01*
X74614200Y-112958285D01*
X69774200Y-112958285D01*
X69774200Y-108355400D01*
X69794202Y-108287279D01*
X69847858Y-108240786D01*
X69900200Y-108229400D01*
X92000200Y-108229400D01*
X92068321Y-108249402D01*
G37*
%TD.AperFunction*%
%TD*%
%TA.AperFunction,Conductor*%
%TO.N,/A_Ad_GND*%
G36*
X97275321Y-58973402D02*
G01*
X97321814Y-59027058D01*
X97333200Y-59079400D01*
X97333200Y-84481400D01*
X97313198Y-84549521D01*
X97259542Y-84596014D01*
X97207200Y-84607400D01*
X69900200Y-84607400D01*
X69832079Y-84587398D01*
X69785586Y-84533742D01*
X69774200Y-84481400D01*
X69774200Y-82222799D01*
X74734712Y-82222799D01*
X74756194Y-82311937D01*
X74760083Y-82323232D01*
X74842629Y-82504782D01*
X74848576Y-82515124D01*
X74963968Y-82677797D01*
X74971761Y-82686825D01*
X75115831Y-82824742D01*
X75125196Y-82832138D01*
X75292741Y-82940321D01*
X75303345Y-82945817D01*
X75488312Y-83020361D01*
X75499770Y-83023755D01*
X75696928Y-83062257D01*
X75705791Y-83063334D01*
X75708500Y-83063400D01*
X75812885Y-83063400D01*
X75828124Y-83058925D01*
X75829329Y-83057535D01*
X75831000Y-83049852D01*
X75831000Y-83045285D01*
X76339000Y-83045285D01*
X76343475Y-83060524D01*
X76344865Y-83061729D01*
X76352548Y-83063400D01*
X76409832Y-83063400D01*
X76415808Y-83063115D01*
X76564494Y-83048929D01*
X76576228Y-83046670D01*
X76767599Y-82990528D01*
X76778675Y-82986098D01*
X76955978Y-82894781D01*
X76966024Y-82888331D01*
X77122857Y-82765138D01*
X77131506Y-82756901D01*
X77262212Y-82606277D01*
X77269147Y-82596553D01*
X77369010Y-82423933D01*
X77373984Y-82413069D01*
X77439407Y-82224673D01*
X77439648Y-82223684D01*
X77438180Y-82213392D01*
X77424615Y-82209400D01*
X76357115Y-82209400D01*
X76341876Y-82213875D01*
X76340671Y-82215265D01*
X76339000Y-82222948D01*
X76339000Y-83045285D01*
X75831000Y-83045285D01*
X75831000Y-82227515D01*
X75826525Y-82212276D01*
X75825135Y-82211071D01*
X75817452Y-82209400D01*
X74749598Y-82209400D01*
X74736067Y-82213373D01*
X74734712Y-82222799D01*
X69774200Y-82222799D01*
X69774200Y-79901004D01*
X74697787Y-79901004D01*
X74707567Y-80112299D01*
X74708971Y-80118124D01*
X74708971Y-80118125D01*
X74735690Y-80228990D01*
X74757125Y-80317934D01*
X74759607Y-80323392D01*
X74759608Y-80323396D01*
X74803053Y-80418946D01*
X74844674Y-80510487D01*
X74967054Y-80683011D01*
X75119850Y-80829281D01*
X75124881Y-80832530D01*
X75124888Y-80832535D01*
X75152607Y-80850433D01*
X75198984Y-80904189D01*
X75208937Y-80974485D01*
X75179304Y-81039002D01*
X75162091Y-81055370D01*
X75047143Y-81145662D01*
X75038494Y-81153899D01*
X74907788Y-81304523D01*
X74900853Y-81314247D01*
X74800990Y-81486867D01*
X74796016Y-81497731D01*
X74730593Y-81686127D01*
X74730352Y-81687116D01*
X74731820Y-81697408D01*
X74745385Y-81701400D01*
X77420402Y-81701400D01*
X77433933Y-81697427D01*
X77435288Y-81688001D01*
X77413806Y-81598863D01*
X77409917Y-81587568D01*
X77327371Y-81406018D01*
X77321424Y-81395676D01*
X77206032Y-81233003D01*
X77198239Y-81223975D01*
X77054169Y-81086058D01*
X77044800Y-81078659D01*
X77017423Y-81060982D01*
X76971045Y-81007228D01*
X76961091Y-80936932D01*
X76990722Y-80872415D01*
X77007937Y-80856044D01*
X77123202Y-80765502D01*
X77127920Y-80761796D01*
X77131852Y-80757265D01*
X77131855Y-80757262D01*
X77262621Y-80606567D01*
X77266552Y-80602037D01*
X77269552Y-80596851D01*
X77269555Y-80596847D01*
X77369467Y-80424142D01*
X77372473Y-80418946D01*
X77441861Y-80219129D01*
X77443155Y-80210209D01*
X77466130Y-80051749D01*
X77495700Y-79987203D01*
X77555472Y-79948891D01*
X77626468Y-79948975D01*
X77679921Y-79980734D01*
X78484843Y-80785656D01*
X78489384Y-80790441D01*
X78527286Y-80832535D01*
X78535147Y-80841266D01*
X78540489Y-80845147D01*
X78540491Y-80845149D01*
X78590476Y-80881465D01*
X78595709Y-80885481D01*
X78643733Y-80924370D01*
X78643738Y-80924373D01*
X78648870Y-80928529D01*
X78660162Y-80934283D01*
X78661407Y-80934917D01*
X78678264Y-80945247D01*
X78684307Y-80949638D01*
X78684310Y-80949640D01*
X78689648Y-80953518D01*
X78695676Y-80956202D01*
X78695678Y-80956203D01*
X78752151Y-80981346D01*
X78758104Y-80984186D01*
X78813147Y-81012232D01*
X78813151Y-81012234D01*
X78819030Y-81015229D01*
X78825407Y-81016938D01*
X78825408Y-81016938D01*
X78832621Y-81018871D01*
X78851253Y-81025469D01*
X78858077Y-81028507D01*
X78864112Y-81031194D01*
X78931026Y-81045417D01*
X78937434Y-81046956D01*
X78997116Y-81062948D01*
X78997121Y-81062949D01*
X79003496Y-81064657D01*
X79016871Y-81065358D01*
X79017542Y-81065393D01*
X79037147Y-81067974D01*
X79044446Y-81069526D01*
X79044453Y-81069527D01*
X79050913Y-81070900D01*
X79119325Y-81070900D01*
X79125919Y-81071073D01*
X79187617Y-81074307D01*
X79187622Y-81074307D01*
X79194209Y-81074652D01*
X79208107Y-81072451D01*
X79227816Y-81070900D01*
X79241887Y-81070900D01*
X79255653Y-81067974D01*
X79308799Y-81056678D01*
X79315283Y-81055476D01*
X79369074Y-81046956D01*
X79382832Y-81044777D01*
X79395968Y-81039734D01*
X79414927Y-81034119D01*
X79422230Y-81032567D01*
X79422234Y-81032566D01*
X79428688Y-81031194D01*
X79491194Y-81003365D01*
X79497267Y-81000850D01*
X79554957Y-80978705D01*
X79554961Y-80978703D01*
X79561122Y-80976338D01*
X79572922Y-80968675D01*
X79590294Y-80959243D01*
X79597118Y-80956205D01*
X79597122Y-80956203D01*
X79603152Y-80953518D01*
X79633421Y-80931526D01*
X79658490Y-80913313D01*
X79663925Y-80909578D01*
X79715747Y-80875924D01*
X79715749Y-80875923D01*
X79721287Y-80872326D01*
X79731232Y-80862381D01*
X79746265Y-80849540D01*
X79752313Y-80845146D01*
X79752314Y-80845145D01*
X79757653Y-80841266D01*
X79803416Y-80790441D01*
X79807957Y-80785656D01*
X79856326Y-80737287D01*
X79863992Y-80725483D01*
X79876028Y-80709797D01*
X79881021Y-80704252D01*
X79881022Y-80704251D01*
X79885440Y-80699344D01*
X79919634Y-80640119D01*
X79923079Y-80634496D01*
X79956741Y-80582661D01*
X79960338Y-80577122D01*
X79962704Y-80570957D01*
X79962707Y-80570952D01*
X79965381Y-80563986D01*
X79973893Y-80546139D01*
X79974049Y-80545869D01*
X79980927Y-80533956D01*
X80002065Y-80468901D01*
X80004266Y-80462684D01*
X80007054Y-80455423D01*
X80028777Y-80398832D01*
X80030978Y-80384936D01*
X80035595Y-80365707D01*
X80037901Y-80358609D01*
X80039942Y-80352328D01*
X80047094Y-80284285D01*
X80047950Y-80277781D01*
X80058652Y-80210209D01*
X80057916Y-80196159D01*
X80058433Y-80176399D01*
X80059214Y-80168967D01*
X80059214Y-80168966D01*
X80059904Y-80162400D01*
X80059214Y-80155834D01*
X80052753Y-80094360D01*
X80052236Y-80087785D01*
X80049003Y-80026093D01*
X80049003Y-80026090D01*
X80048657Y-80019496D01*
X80045017Y-80005912D01*
X80041412Y-79986461D01*
X80040633Y-79979043D01*
X80040632Y-79979038D01*
X80039942Y-79972472D01*
X80018802Y-79907409D01*
X80016929Y-79901085D01*
X80000939Y-79841410D01*
X80000938Y-79841406D01*
X79999229Y-79835030D01*
X79992840Y-79822492D01*
X79985275Y-79804226D01*
X79982969Y-79797128D01*
X79982968Y-79797126D01*
X79980927Y-79790844D01*
X79946731Y-79731615D01*
X79943585Y-79725821D01*
X79929210Y-79697608D01*
X79912529Y-79664870D01*
X79903673Y-79653933D01*
X79892473Y-79637637D01*
X79888743Y-79631176D01*
X79888740Y-79631172D01*
X79885440Y-79625456D01*
X79881023Y-79620550D01*
X79881019Y-79620545D01*
X79839678Y-79574631D01*
X79835394Y-79569616D01*
X79824548Y-79556223D01*
X79822472Y-79553659D01*
X79807957Y-79539144D01*
X79803416Y-79534359D01*
X79762073Y-79488443D01*
X79757653Y-79483534D01*
X79746265Y-79475260D01*
X79731232Y-79462419D01*
X77639381Y-77370568D01*
X77626540Y-77355535D01*
X77622146Y-77349487D01*
X77622145Y-77349486D01*
X77618266Y-77344147D01*
X77567441Y-77298384D01*
X77562656Y-77293843D01*
X77548141Y-77279328D01*
X77540682Y-77273288D01*
X77532184Y-77266406D01*
X77527169Y-77262122D01*
X77481255Y-77220781D01*
X77481250Y-77220777D01*
X77476344Y-77216360D01*
X77470628Y-77213060D01*
X77470624Y-77213057D01*
X77464163Y-77209327D01*
X77447866Y-77198127D01*
X77442060Y-77193425D01*
X77442058Y-77193424D01*
X77436930Y-77189271D01*
X77375977Y-77158214D01*
X77370182Y-77155067D01*
X77316679Y-77124177D01*
X77316678Y-77124176D01*
X77310956Y-77120873D01*
X77304674Y-77118832D01*
X77304672Y-77118831D01*
X77297574Y-77116525D01*
X77279307Y-77108959D01*
X77266770Y-77102571D01*
X77268029Y-77100100D01*
X77221328Y-77064431D01*
X77197161Y-76997674D01*
X77212922Y-76928449D01*
X77263607Y-76878734D01*
X77322921Y-76863900D01*
X79461097Y-76863900D01*
X79487293Y-76866653D01*
X79505774Y-76870581D01*
X79549226Y-76879817D01*
X79555634Y-76881356D01*
X79615316Y-76897348D01*
X79615321Y-76897349D01*
X79621696Y-76899057D01*
X79635071Y-76899758D01*
X79635742Y-76899793D01*
X79655347Y-76902374D01*
X79662646Y-76903926D01*
X79662653Y-76903927D01*
X79669113Y-76905300D01*
X79737525Y-76905300D01*
X79744119Y-76905473D01*
X79805817Y-76908707D01*
X79805822Y-76908707D01*
X79812409Y-76909052D01*
X79826307Y-76906851D01*
X79846016Y-76905300D01*
X79860087Y-76905300D01*
X79873853Y-76902374D01*
X79926999Y-76891078D01*
X79933483Y-76889876D01*
X79987274Y-76881356D01*
X80001032Y-76879177D01*
X80014168Y-76874134D01*
X80033127Y-76868519D01*
X80040430Y-76866967D01*
X80040434Y-76866966D01*
X80046888Y-76865594D01*
X80109394Y-76837765D01*
X80115467Y-76835250D01*
X80173157Y-76813105D01*
X80173161Y-76813103D01*
X80179322Y-76810738D01*
X80191122Y-76803075D01*
X80208494Y-76793643D01*
X80215318Y-76790605D01*
X80215322Y-76790603D01*
X80221352Y-76787918D01*
X80276690Y-76747713D01*
X80282125Y-76743978D01*
X80333947Y-76710324D01*
X80333949Y-76710323D01*
X80339487Y-76706726D01*
X80349432Y-76696781D01*
X80364465Y-76683940D01*
X80370513Y-76679546D01*
X80370514Y-76679545D01*
X80375853Y-76675666D01*
X80421616Y-76624841D01*
X80426157Y-76620056D01*
X80474526Y-76571687D01*
X80482192Y-76559883D01*
X80494228Y-76544197D01*
X80499221Y-76538652D01*
X80499222Y-76538651D01*
X80503640Y-76533744D01*
X80537834Y-76474519D01*
X80541279Y-76468896D01*
X80574941Y-76417061D01*
X80578538Y-76411522D01*
X80580904Y-76405357D01*
X80580907Y-76405352D01*
X80583581Y-76398386D01*
X80592093Y-76380539D01*
X80592249Y-76380269D01*
X80599127Y-76368356D01*
X80620265Y-76303301D01*
X80622466Y-76297084D01*
X80629679Y-76278296D01*
X80646977Y-76233232D01*
X80649178Y-76219336D01*
X80653795Y-76200107D01*
X80656101Y-76193009D01*
X80658142Y-76186728D01*
X80665294Y-76118685D01*
X80666150Y-76112181D01*
X80676852Y-76044609D01*
X80676116Y-76030559D01*
X80676633Y-76010799D01*
X80677414Y-76003367D01*
X80677414Y-76003366D01*
X80678104Y-75996800D01*
X80677042Y-75986692D01*
X80670953Y-75928760D01*
X80670436Y-75922185D01*
X80667203Y-75860493D01*
X80667203Y-75860490D01*
X80666857Y-75853896D01*
X80663217Y-75840312D01*
X80659612Y-75820861D01*
X80658833Y-75813443D01*
X80658832Y-75813438D01*
X80658142Y-75806872D01*
X80637002Y-75741809D01*
X80635129Y-75735485D01*
X80619139Y-75675810D01*
X80619138Y-75675806D01*
X80617429Y-75669430D01*
X80611040Y-75656892D01*
X80603475Y-75638626D01*
X80601169Y-75631528D01*
X80601168Y-75631526D01*
X80599127Y-75625244D01*
X80592551Y-75613853D01*
X80564936Y-75566023D01*
X80561788Y-75560226D01*
X80533727Y-75505152D01*
X80533725Y-75505149D01*
X80530729Y-75499269D01*
X80521867Y-75488326D01*
X80510673Y-75472037D01*
X80503640Y-75459856D01*
X80499223Y-75454950D01*
X80499219Y-75454945D01*
X80457869Y-75409021D01*
X80453597Y-75404020D01*
X80440672Y-75388059D01*
X80426163Y-75373550D01*
X80421625Y-75368769D01*
X80417400Y-75364077D01*
X80409095Y-75353822D01*
X80405943Y-75349484D01*
X80402066Y-75344147D01*
X80397166Y-75339735D01*
X80397159Y-75339727D01*
X80393174Y-75336139D01*
X80383861Y-75326826D01*
X80380273Y-75322841D01*
X80380265Y-75322834D01*
X80375853Y-75317934D01*
X80366178Y-75310905D01*
X80355923Y-75302600D01*
X80351231Y-75298375D01*
X80346450Y-75293837D01*
X80331941Y-75279328D01*
X80324482Y-75273288D01*
X80315984Y-75266406D01*
X80310969Y-75262122D01*
X80265055Y-75220781D01*
X80265050Y-75220777D01*
X80260144Y-75216360D01*
X80254428Y-75213060D01*
X80254424Y-75213057D01*
X80247963Y-75209327D01*
X80231666Y-75198127D01*
X80225860Y-75193425D01*
X80225858Y-75193424D01*
X80220730Y-75189271D01*
X80159777Y-75158214D01*
X80153982Y-75155067D01*
X80100479Y-75124177D01*
X80100478Y-75124176D01*
X80094756Y-75120873D01*
X80088474Y-75118832D01*
X80088472Y-75118831D01*
X80081374Y-75116525D01*
X80063107Y-75108959D01*
X80060048Y-75107400D01*
X80050570Y-75102571D01*
X80051829Y-75100100D01*
X80005128Y-75064431D01*
X79980961Y-74997674D01*
X79996722Y-74928449D01*
X80047407Y-74878734D01*
X80106721Y-74863900D01*
X80561460Y-74863900D01*
X80580794Y-74865422D01*
X80586897Y-74867057D01*
X80593487Y-74867402D01*
X80593491Y-74867403D01*
X80600943Y-74867793D01*
X80620547Y-74870374D01*
X80634313Y-74873300D01*
X80702726Y-74873300D01*
X80709320Y-74873473D01*
X80771018Y-74876707D01*
X80771023Y-74876707D01*
X80777610Y-74877052D01*
X80784126Y-74876020D01*
X80784127Y-74876020D01*
X80791507Y-74874851D01*
X80811217Y-74873300D01*
X80825287Y-74873300D01*
X80892200Y-74859077D01*
X80898654Y-74857881D01*
X80959713Y-74848211D01*
X80959717Y-74848210D01*
X80966233Y-74847178D01*
X80979374Y-74842134D01*
X80998323Y-74836520D01*
X81012088Y-74833594D01*
X81074572Y-74805774D01*
X81080663Y-74803252D01*
X81138355Y-74781106D01*
X81138357Y-74781105D01*
X81144523Y-74778738D01*
X81150062Y-74775141D01*
X81155944Y-74772144D01*
X81157284Y-74774774D01*
X81213289Y-74758359D01*
X81287289Y-74782423D01*
X81376155Y-74846988D01*
X81390648Y-74857518D01*
X81396676Y-74860202D01*
X81396678Y-74860203D01*
X81494826Y-74903901D01*
X81565112Y-74935194D01*
X81655022Y-74954305D01*
X81745456Y-74973528D01*
X81745461Y-74973528D01*
X81751913Y-74974900D01*
X81942887Y-74974900D01*
X81949341Y-74973528D01*
X81949343Y-74973528D01*
X81952215Y-74972917D01*
X81955100Y-74972304D01*
X82025890Y-74977704D01*
X82082524Y-75020519D01*
X82107020Y-75087156D01*
X82107300Y-75095550D01*
X82107300Y-77517384D01*
X82106610Y-77530555D01*
X82102296Y-77571600D01*
X82102986Y-77578165D01*
X82114321Y-77686007D01*
X82122258Y-77761528D01*
X82181273Y-77943156D01*
X82276760Y-78108544D01*
X82281178Y-78113451D01*
X82281179Y-78113452D01*
X82393388Y-78238073D01*
X82404547Y-78250466D01*
X82559048Y-78362718D01*
X82565076Y-78365402D01*
X82565078Y-78365403D01*
X82727481Y-78437709D01*
X82733512Y-78440394D01*
X82820900Y-78458969D01*
X82913856Y-78478728D01*
X82913861Y-78478728D01*
X82920313Y-78480100D01*
X82997300Y-78480100D01*
X83065421Y-78500102D01*
X83111914Y-78553758D01*
X83123300Y-78606100D01*
X83123300Y-82366983D01*
X83121749Y-82386692D01*
X83119548Y-82400590D01*
X83119893Y-82407177D01*
X83119893Y-82407182D01*
X83123127Y-82468880D01*
X83123300Y-82475474D01*
X83123300Y-82496010D01*
X83123644Y-82499282D01*
X83123644Y-82499284D01*
X83125447Y-82516442D01*
X83125964Y-82523016D01*
X83129543Y-82591303D01*
X83131253Y-82597684D01*
X83131253Y-82597686D01*
X83133183Y-82604891D01*
X83136785Y-82624325D01*
X83137566Y-82631754D01*
X83137568Y-82631763D01*
X83138258Y-82638328D01*
X83159400Y-82703397D01*
X83161267Y-82709699D01*
X83178971Y-82775770D01*
X83185359Y-82788307D01*
X83192925Y-82806573D01*
X83197273Y-82819956D01*
X83200576Y-82825678D01*
X83200577Y-82825679D01*
X83231467Y-82879182D01*
X83234614Y-82884977D01*
X83265671Y-82945930D01*
X83269824Y-82951058D01*
X83269825Y-82951060D01*
X83274527Y-82956866D01*
X83285727Y-82973163D01*
X83289457Y-82979624D01*
X83289460Y-82979628D01*
X83292760Y-82985344D01*
X83297177Y-82990250D01*
X83297181Y-82990255D01*
X83338522Y-83036169D01*
X83342806Y-83041184D01*
X83355728Y-83057141D01*
X83370243Y-83071656D01*
X83374784Y-83076441D01*
X83420547Y-83127266D01*
X83425886Y-83131145D01*
X83425887Y-83131146D01*
X83431935Y-83135540D01*
X83446968Y-83148381D01*
X83585819Y-83287232D01*
X83598660Y-83302265D01*
X83606934Y-83313653D01*
X83611843Y-83318073D01*
X83657759Y-83359416D01*
X83662544Y-83363957D01*
X83677059Y-83378472D01*
X83679623Y-83380548D01*
X83693016Y-83391394D01*
X83698031Y-83395678D01*
X83743945Y-83437019D01*
X83743950Y-83437023D01*
X83748856Y-83441440D01*
X83754572Y-83444740D01*
X83754576Y-83444743D01*
X83761037Y-83448473D01*
X83777333Y-83459673D01*
X83788270Y-83468529D01*
X83849221Y-83499585D01*
X83855015Y-83502731D01*
X83914244Y-83536927D01*
X83920526Y-83538968D01*
X83920528Y-83538969D01*
X83927626Y-83541275D01*
X83945892Y-83548840D01*
X83958430Y-83555229D01*
X83964806Y-83556938D01*
X83964810Y-83556939D01*
X84024485Y-83572929D01*
X84030810Y-83574802D01*
X84095872Y-83595942D01*
X84102440Y-83596632D01*
X84102444Y-83596633D01*
X84109861Y-83597412D01*
X84129308Y-83601016D01*
X84142896Y-83604657D01*
X84149495Y-83605003D01*
X84149496Y-83605003D01*
X84211185Y-83608236D01*
X84217760Y-83608753D01*
X84232022Y-83610252D01*
X84238190Y-83610900D01*
X84258725Y-83610900D01*
X84265319Y-83611073D01*
X84327017Y-83614307D01*
X84327022Y-83614307D01*
X84333609Y-83614652D01*
X84347507Y-83612451D01*
X84367216Y-83610900D01*
X84733211Y-83610900D01*
X84801332Y-83630902D01*
X84828448Y-83654402D01*
X84844064Y-83672430D01*
X84844069Y-83672435D01*
X84847450Y-83676338D01*
X85019326Y-83819032D01*
X85212200Y-83931738D01*
X85420892Y-84011430D01*
X85425960Y-84012461D01*
X85425963Y-84012462D01*
X85533217Y-84034283D01*
X85639797Y-84055967D01*
X85644972Y-84056157D01*
X85644974Y-84056157D01*
X85857873Y-84063964D01*
X85857877Y-84063964D01*
X85863037Y-84064153D01*
X85868157Y-84063497D01*
X85868159Y-84063497D01*
X86079488Y-84036425D01*
X86079489Y-84036425D01*
X86084616Y-84035768D01*
X86089566Y-84034283D01*
X86293629Y-83973061D01*
X86293634Y-83973059D01*
X86298584Y-83971574D01*
X86499194Y-83873296D01*
X86681060Y-83743573D01*
X86839296Y-83585889D01*
X86934476Y-83453432D01*
X86966635Y-83408677D01*
X86969653Y-83404477D01*
X86975094Y-83393469D01*
X87066336Y-83208853D01*
X87066337Y-83208851D01*
X87068630Y-83204211D01*
X87111759Y-83062257D01*
X87132065Y-82995423D01*
X87132065Y-82995421D01*
X87133570Y-82990469D01*
X87162729Y-82768990D01*
X87162823Y-82765138D01*
X87164274Y-82705765D01*
X87164274Y-82705761D01*
X87164356Y-82702400D01*
X87146052Y-82479761D01*
X87091631Y-82263102D01*
X87002554Y-82058240D01*
X86881214Y-81870677D01*
X86730870Y-81705451D01*
X86726819Y-81702252D01*
X86726815Y-81702248D01*
X86559614Y-81570200D01*
X86559610Y-81570198D01*
X86555559Y-81566998D01*
X86514253Y-81544196D01*
X86464284Y-81493764D01*
X86449512Y-81424321D01*
X86474628Y-81357916D01*
X86501980Y-81331309D01*
X86652457Y-81223975D01*
X86681060Y-81203573D01*
X86839296Y-81045889D01*
X86843718Y-81039736D01*
X86966635Y-80868677D01*
X86969653Y-80864477D01*
X86977036Y-80849540D01*
X87066336Y-80668853D01*
X87066337Y-80668851D01*
X87068630Y-80664211D01*
X87115335Y-80510487D01*
X87132065Y-80455423D01*
X87132065Y-80455421D01*
X87133570Y-80450469D01*
X87162729Y-80228990D01*
X87164356Y-80162400D01*
X87146052Y-79939761D01*
X87091631Y-79723102D01*
X87002554Y-79518240D01*
X86881214Y-79330677D01*
X86730870Y-79165451D01*
X86726819Y-79162252D01*
X86726815Y-79162248D01*
X86559614Y-79030200D01*
X86559610Y-79030198D01*
X86555559Y-79026998D01*
X86514253Y-79004196D01*
X86464284Y-78953764D01*
X86449512Y-78884321D01*
X86474628Y-78817916D01*
X86501980Y-78791309D01*
X86642339Y-78691192D01*
X86681060Y-78663573D01*
X86777320Y-78567648D01*
X86839690Y-78533733D01*
X86866259Y-78530900D01*
X92704783Y-78530900D01*
X92724492Y-78532451D01*
X92738390Y-78534652D01*
X92744977Y-78534307D01*
X92744982Y-78534307D01*
X92806680Y-78531073D01*
X92813274Y-78530900D01*
X92833810Y-78530900D01*
X92837082Y-78530556D01*
X92837084Y-78530556D01*
X92854242Y-78528753D01*
X92860816Y-78528236D01*
X92922508Y-78525003D01*
X92922512Y-78525002D01*
X92929103Y-78524657D01*
X92935484Y-78522947D01*
X92935486Y-78522947D01*
X92942691Y-78521017D01*
X92962125Y-78517415D01*
X92969554Y-78516634D01*
X92969563Y-78516632D01*
X92976128Y-78515942D01*
X93041197Y-78494800D01*
X93047499Y-78492933D01*
X93113570Y-78475229D01*
X93126108Y-78468840D01*
X93144374Y-78461275D01*
X93151472Y-78458969D01*
X93151474Y-78458968D01*
X93157756Y-78456927D01*
X93173586Y-78447788D01*
X93216982Y-78422733D01*
X93222779Y-78419585D01*
X93283730Y-78388529D01*
X93294667Y-78379673D01*
X93310963Y-78368473D01*
X93317424Y-78364743D01*
X93317428Y-78364740D01*
X93323144Y-78361440D01*
X93328050Y-78357023D01*
X93328055Y-78357019D01*
X93373969Y-78315678D01*
X93378984Y-78311394D01*
X93392377Y-78300548D01*
X93394941Y-78298472D01*
X93409456Y-78283957D01*
X93414241Y-78279416D01*
X93460157Y-78238073D01*
X93465066Y-78233653D01*
X93473340Y-78222265D01*
X93486181Y-78207232D01*
X93772526Y-77920887D01*
X93834838Y-77886861D01*
X93905653Y-77891926D01*
X93962489Y-77934473D01*
X93984538Y-77982281D01*
X93999765Y-78049847D01*
X94002845Y-78059675D01*
X94082970Y-78257003D01*
X94087613Y-78266194D01*
X94198894Y-78447788D01*
X94204977Y-78456099D01*
X94344413Y-78617067D01*
X94351780Y-78624283D01*
X94515634Y-78760316D01*
X94524081Y-78766231D01*
X94707956Y-78873679D01*
X94717242Y-78878129D01*
X94916201Y-78954103D01*
X94926099Y-78956979D01*
X95029450Y-78978006D01*
X95043499Y-78976810D01*
X95047200Y-78966465D01*
X95047200Y-78965917D01*
X95555200Y-78965917D01*
X95559264Y-78979759D01*
X95572678Y-78981793D01*
X95579384Y-78980934D01*
X95589462Y-78978792D01*
X95793455Y-78917591D01*
X95803042Y-78913833D01*
X95994295Y-78820139D01*
X96003145Y-78814864D01*
X96176528Y-78691192D01*
X96184400Y-78684539D01*
X96335252Y-78534212D01*
X96341930Y-78526365D01*
X96466203Y-78353420D01*
X96471513Y-78344583D01*
X96565870Y-78153667D01*
X96569669Y-78144072D01*
X96631577Y-77940310D01*
X96633755Y-77930237D01*
X96635186Y-77919362D01*
X96632975Y-77905178D01*
X96619817Y-77901400D01*
X95573315Y-77901400D01*
X95558076Y-77905875D01*
X95556871Y-77907265D01*
X95555200Y-77914948D01*
X95555200Y-78965917D01*
X95047200Y-78965917D01*
X95047200Y-77519400D01*
X95067202Y-77451279D01*
X95120858Y-77404786D01*
X95173200Y-77393400D01*
X96619544Y-77393400D01*
X96633075Y-77389427D01*
X96634380Y-77380347D01*
X96592414Y-77213275D01*
X96589094Y-77203524D01*
X96504172Y-77008214D01*
X96499305Y-76999139D01*
X96383626Y-76820326D01*
X96377336Y-76812157D01*
X96234006Y-76654640D01*
X96226473Y-76647615D01*
X96059339Y-76515622D01*
X96050756Y-76509920D01*
X96013802Y-76489520D01*
X95963831Y-76439087D01*
X95949059Y-76369645D01*
X95974175Y-76303239D01*
X96001527Y-76276632D01*
X96037029Y-76251309D01*
X96181060Y-76148573D01*
X96217604Y-76112157D01*
X96335635Y-75994537D01*
X96339296Y-75990889D01*
X96432995Y-75860493D01*
X96466635Y-75813677D01*
X96469653Y-75809477D01*
X96484302Y-75779838D01*
X96566336Y-75613853D01*
X96566337Y-75613851D01*
X96568630Y-75609211D01*
X96633570Y-75395469D01*
X96662729Y-75173990D01*
X96662811Y-75170640D01*
X96664274Y-75110765D01*
X96664274Y-75110761D01*
X96664356Y-75107400D01*
X96646052Y-74884761D01*
X96591631Y-74668102D01*
X96502554Y-74463240D01*
X96412085Y-74323396D01*
X96384022Y-74280017D01*
X96384020Y-74280014D01*
X96381214Y-74275677D01*
X96230870Y-74110451D01*
X96226819Y-74107252D01*
X96226815Y-74107248D01*
X96059614Y-73975200D01*
X96059610Y-73975198D01*
X96055559Y-73971998D01*
X96014253Y-73949196D01*
X95964284Y-73898764D01*
X95949512Y-73829321D01*
X95974628Y-73762916D01*
X96001980Y-73736309D01*
X96064560Y-73691671D01*
X96181060Y-73608573D01*
X96339296Y-73450889D01*
X96469653Y-73269477D01*
X96568630Y-73069211D01*
X96622332Y-72892458D01*
X96632065Y-72860423D01*
X96632065Y-72860421D01*
X96633570Y-72855469D01*
X96662729Y-72633990D01*
X96664356Y-72567400D01*
X96646052Y-72344761D01*
X96591631Y-72128102D01*
X96502554Y-71923240D01*
X96381214Y-71735677D01*
X96230870Y-71570451D01*
X96226819Y-71567252D01*
X96226815Y-71567248D01*
X96059614Y-71435200D01*
X96059610Y-71435198D01*
X96055559Y-71431998D01*
X96014253Y-71409196D01*
X95964284Y-71358764D01*
X95949512Y-71289321D01*
X95974628Y-71222916D01*
X96001980Y-71196309D01*
X96068299Y-71149004D01*
X96181060Y-71068573D01*
X96339296Y-70910889D01*
X96344318Y-70903901D01*
X96466635Y-70733677D01*
X96469653Y-70729477D01*
X96568630Y-70529211D01*
X96633570Y-70315469D01*
X96662729Y-70093990D01*
X96664356Y-70027400D01*
X96646052Y-69804761D01*
X96591631Y-69588102D01*
X96502554Y-69383240D01*
X96416996Y-69250988D01*
X96384022Y-69200017D01*
X96384020Y-69200014D01*
X96381214Y-69195677D01*
X96230870Y-69030451D01*
X96226819Y-69027252D01*
X96226815Y-69027248D01*
X96059614Y-68895200D01*
X96059610Y-68895198D01*
X96055559Y-68891998D01*
X96014253Y-68869196D01*
X95964284Y-68818764D01*
X95949512Y-68749321D01*
X95974628Y-68682916D01*
X96001980Y-68656309D01*
X96050636Y-68621603D01*
X96181060Y-68528573D01*
X96190048Y-68519617D01*
X96335635Y-68374537D01*
X96339296Y-68370889D01*
X96350139Y-68355800D01*
X96466635Y-68193677D01*
X96469653Y-68189477D01*
X96484428Y-68159583D01*
X96566336Y-67993853D01*
X96566337Y-67993851D01*
X96568630Y-67989211D01*
X96624767Y-67804443D01*
X96632065Y-67780423D01*
X96632065Y-67780421D01*
X96633570Y-67775469D01*
X96662729Y-67553990D01*
X96664356Y-67487400D01*
X96646052Y-67264761D01*
X96591631Y-67048102D01*
X96502554Y-66843240D01*
X96449184Y-66760742D01*
X96384022Y-66660017D01*
X96384020Y-66660014D01*
X96381214Y-66655677D01*
X96377732Y-66651850D01*
X96233998Y-66493888D01*
X96202946Y-66430042D01*
X96211341Y-66359543D01*
X96256517Y-66304775D01*
X96282961Y-66291106D01*
X96389497Y-66251167D01*
X96397905Y-66248015D01*
X96514461Y-66160661D01*
X96601815Y-66044105D01*
X96652945Y-65907716D01*
X96659700Y-65845534D01*
X96659700Y-64049266D01*
X96652945Y-63987084D01*
X96601815Y-63850695D01*
X96514461Y-63734139D01*
X96397905Y-63646785D01*
X96261516Y-63595655D01*
X96199334Y-63588900D01*
X94403066Y-63588900D01*
X94340884Y-63595655D01*
X94204495Y-63646785D01*
X94087939Y-63734139D01*
X94000585Y-63850695D01*
X93949455Y-63987084D01*
X93942700Y-64049266D01*
X93942700Y-65845534D01*
X93949455Y-65907716D01*
X94000585Y-66044105D01*
X94087939Y-66160661D01*
X94204495Y-66248015D01*
X94212904Y-66251167D01*
X94212905Y-66251168D01*
X94321651Y-66291935D01*
X94378416Y-66334576D01*
X94403116Y-66401138D01*
X94387909Y-66470487D01*
X94368516Y-66496968D01*
X94327441Y-66539951D01*
X94265917Y-66575381D01*
X94236347Y-66578900D01*
X89566017Y-66578900D01*
X89546307Y-66577349D01*
X89538927Y-66576180D01*
X89538926Y-66576180D01*
X89532410Y-66575148D01*
X89525823Y-66575493D01*
X89525818Y-66575493D01*
X89464120Y-66578727D01*
X89457526Y-66578900D01*
X89436990Y-66578900D01*
X89433718Y-66579244D01*
X89433716Y-66579244D01*
X89416558Y-66581047D01*
X89409984Y-66581564D01*
X89348296Y-66584797D01*
X89348294Y-66584797D01*
X89341697Y-66585143D01*
X89328104Y-66588785D01*
X89308675Y-66592386D01*
X89294672Y-66593858D01*
X89229625Y-66614993D01*
X89223312Y-66616863D01*
X89202674Y-66622393D01*
X89163603Y-66632862D01*
X89163600Y-66632863D01*
X89157230Y-66634570D01*
X89144685Y-66640962D01*
X89126426Y-66648525D01*
X89113044Y-66652873D01*
X89107323Y-66656176D01*
X89053823Y-66687064D01*
X89048026Y-66690212D01*
X88992951Y-66718274D01*
X88992948Y-66718276D01*
X88987070Y-66721271D01*
X88981942Y-66725424D01*
X88981940Y-66725425D01*
X88976134Y-66730127D01*
X88959837Y-66741327D01*
X88953376Y-66745057D01*
X88953372Y-66745060D01*
X88947656Y-66748360D01*
X88942750Y-66752777D01*
X88942745Y-66752781D01*
X88896831Y-66794122D01*
X88891816Y-66798406D01*
X88883318Y-66805288D01*
X88875859Y-66811328D01*
X88861344Y-66825843D01*
X88856559Y-66830384D01*
X88805734Y-66876147D01*
X88801855Y-66881486D01*
X88801854Y-66881487D01*
X88797460Y-66887535D01*
X88784619Y-66902568D01*
X87908768Y-67778419D01*
X87893735Y-67791260D01*
X87882347Y-67799534D01*
X87877927Y-67804443D01*
X87836584Y-67850359D01*
X87832043Y-67855144D01*
X87817528Y-67869659D01*
X87815452Y-67872223D01*
X87804606Y-67885616D01*
X87800322Y-67890631D01*
X87758981Y-67936545D01*
X87758977Y-67936550D01*
X87754560Y-67941456D01*
X87751260Y-67947172D01*
X87751257Y-67947176D01*
X87747527Y-67953637D01*
X87736327Y-67969933D01*
X87727471Y-67980870D01*
X87720856Y-67993853D01*
X87696415Y-68041821D01*
X87693269Y-68047615D01*
X87659073Y-68106844D01*
X87657032Y-68113126D01*
X87657031Y-68113128D01*
X87654725Y-68120226D01*
X87647160Y-68138492D01*
X87640771Y-68151030D01*
X87639063Y-68157403D01*
X87639063Y-68157404D01*
X87623069Y-68217095D01*
X87621200Y-68223403D01*
X87600058Y-68288472D01*
X87599368Y-68295037D01*
X87599366Y-68295046D01*
X87598585Y-68302475D01*
X87594983Y-68321909D01*
X87593053Y-68329114D01*
X87591343Y-68335497D01*
X87590998Y-68342088D01*
X87590997Y-68342092D01*
X87587764Y-68403784D01*
X87587247Y-68410359D01*
X87584888Y-68432805D01*
X87580096Y-68478400D01*
X87580786Y-68484966D01*
X87580786Y-68484968D01*
X87581567Y-68492401D01*
X87582084Y-68512159D01*
X87581348Y-68526210D01*
X87592050Y-68593783D01*
X87592906Y-68600287D01*
X87595147Y-68621603D01*
X87599004Y-68658296D01*
X87600058Y-68668328D01*
X87602098Y-68674605D01*
X87602098Y-68674607D01*
X87604406Y-68681711D01*
X87609021Y-68700934D01*
X87610189Y-68708306D01*
X87611223Y-68714832D01*
X87633752Y-68773520D01*
X87635734Y-68778684D01*
X87637935Y-68784901D01*
X87659073Y-68849956D01*
X87665951Y-68861869D01*
X87666107Y-68862139D01*
X87674619Y-68879986D01*
X87677293Y-68886952D01*
X87677296Y-68886957D01*
X87679662Y-68893122D01*
X87683259Y-68898660D01*
X87683261Y-68898665D01*
X87683661Y-68899281D01*
X87683783Y-68899690D01*
X87686256Y-68904543D01*
X87685368Y-68904995D01*
X87703984Y-68967307D01*
X87684302Y-69035521D01*
X87630866Y-69082266D01*
X87577985Y-69093900D01*
X86867056Y-69093900D01*
X86798935Y-69073898D01*
X86773862Y-69052699D01*
X86768586Y-69046900D01*
X86757093Y-69034270D01*
X86734348Y-69009273D01*
X86734346Y-69009271D01*
X86730870Y-69005451D01*
X86660617Y-68949968D01*
X86559614Y-68870200D01*
X86559610Y-68870198D01*
X86555559Y-68866998D01*
X86513769Y-68843929D01*
X86463798Y-68793497D01*
X86449026Y-68724054D01*
X86474142Y-68657648D01*
X86501494Y-68631041D01*
X86676528Y-68506192D01*
X86684400Y-68499539D01*
X86835252Y-68349212D01*
X86841930Y-68341365D01*
X86966203Y-68168420D01*
X86971513Y-68159583D01*
X87065870Y-67968667D01*
X87069669Y-67959072D01*
X87131577Y-67755310D01*
X87133755Y-67745237D01*
X87135186Y-67734362D01*
X87132975Y-67720178D01*
X87119817Y-67716400D01*
X84484425Y-67716400D01*
X84470894Y-67720373D01*
X84469457Y-67730366D01*
X84499765Y-67864846D01*
X84502845Y-67874675D01*
X84582970Y-68072003D01*
X84587613Y-68081194D01*
X84698894Y-68262788D01*
X84704977Y-68271099D01*
X84844413Y-68432067D01*
X84851780Y-68439283D01*
X85015634Y-68575316D01*
X85024081Y-68581231D01*
X85093169Y-68621603D01*
X85141893Y-68673242D01*
X85154964Y-68743025D01*
X85128233Y-68808796D01*
X85087784Y-68842152D01*
X85074807Y-68848907D01*
X85070674Y-68852010D01*
X85070671Y-68852012D01*
X84900300Y-68979930D01*
X84896165Y-68983035D01*
X84827441Y-69054951D01*
X84742198Y-69144152D01*
X84680674Y-69179582D01*
X84609761Y-69176125D01*
X84562009Y-69146196D01*
X82786381Y-67370568D01*
X82773540Y-67355535D01*
X82769146Y-67349487D01*
X82769145Y-67349486D01*
X82765266Y-67344147D01*
X82714441Y-67298384D01*
X82709656Y-67293843D01*
X82695141Y-67279328D01*
X82687682Y-67273288D01*
X82679184Y-67266406D01*
X82674169Y-67262122D01*
X82628255Y-67220781D01*
X82628250Y-67220777D01*
X82623344Y-67216360D01*
X82617628Y-67213060D01*
X82617624Y-67213057D01*
X82611163Y-67209327D01*
X82594866Y-67198127D01*
X82592959Y-67196583D01*
X84465589Y-67196583D01*
X84467112Y-67205007D01*
X84479492Y-67208400D01*
X85529085Y-67208400D01*
X85544324Y-67203925D01*
X85545529Y-67202535D01*
X85547200Y-67194852D01*
X85547200Y-67190285D01*
X86055200Y-67190285D01*
X86059675Y-67205524D01*
X86061065Y-67206729D01*
X86068748Y-67208400D01*
X87119544Y-67208400D01*
X87133075Y-67204427D01*
X87134380Y-67195347D01*
X87092414Y-67028275D01*
X87089094Y-67018524D01*
X87004172Y-66823214D01*
X86999305Y-66814139D01*
X86883626Y-66635326D01*
X86877336Y-66627157D01*
X86734006Y-66469640D01*
X86726473Y-66462615D01*
X86559339Y-66330622D01*
X86550752Y-66324917D01*
X86513316Y-66304251D01*
X86463346Y-66253819D01*
X86448574Y-66184376D01*
X86473690Y-66117971D01*
X86501042Y-66091364D01*
X86676527Y-65966192D01*
X86684400Y-65959539D01*
X86835252Y-65809212D01*
X86841930Y-65801365D01*
X86966203Y-65628420D01*
X86971513Y-65619583D01*
X87065870Y-65428667D01*
X87069669Y-65419072D01*
X87131577Y-65215310D01*
X87133755Y-65205237D01*
X87135186Y-65194362D01*
X87132975Y-65180178D01*
X87119817Y-65176400D01*
X86073315Y-65176400D01*
X86058076Y-65180875D01*
X86056871Y-65182265D01*
X86055200Y-65189948D01*
X86055200Y-67190285D01*
X85547200Y-67190285D01*
X85547200Y-65194515D01*
X85542725Y-65179276D01*
X85541335Y-65178071D01*
X85533652Y-65176400D01*
X84484425Y-65176400D01*
X84470894Y-65180373D01*
X84469457Y-65190366D01*
X84499765Y-65324846D01*
X84502845Y-65334675D01*
X84582970Y-65532003D01*
X84587613Y-65541194D01*
X84698894Y-65722788D01*
X84704977Y-65731099D01*
X84844413Y-65892067D01*
X84851780Y-65899283D01*
X85015634Y-66035316D01*
X85024081Y-66041231D01*
X85093679Y-66081901D01*
X85142403Y-66133540D01*
X85155474Y-66203323D01*
X85128743Y-66269094D01*
X85088287Y-66302453D01*
X85079662Y-66306942D01*
X85070938Y-66312436D01*
X84900633Y-66440305D01*
X84892926Y-66447148D01*
X84745790Y-66601117D01*
X84739304Y-66609127D01*
X84619298Y-66785049D01*
X84614200Y-66794023D01*
X84524538Y-66987183D01*
X84520975Y-66996870D01*
X84465589Y-67196583D01*
X82592959Y-67196583D01*
X82589060Y-67193425D01*
X82589058Y-67193424D01*
X82583930Y-67189271D01*
X82522977Y-67158214D01*
X82517182Y-67155067D01*
X82463679Y-67124177D01*
X82463678Y-67124176D01*
X82457956Y-67120873D01*
X82451674Y-67118832D01*
X82451672Y-67118831D01*
X82444574Y-67116525D01*
X82426307Y-67108959D01*
X82413770Y-67102571D01*
X82347699Y-67084867D01*
X82341397Y-67083000D01*
X82276328Y-67061858D01*
X82269763Y-67061168D01*
X82269754Y-67061166D01*
X82262325Y-67060385D01*
X82242891Y-67056783D01*
X82235686Y-67054853D01*
X82235684Y-67054853D01*
X82229303Y-67053143D01*
X82222712Y-67052798D01*
X82222708Y-67052797D01*
X82161016Y-67049564D01*
X82154442Y-67049047D01*
X82137284Y-67047244D01*
X82137282Y-67047244D01*
X82134010Y-67046900D01*
X82113474Y-67046900D01*
X82106880Y-67046727D01*
X82045182Y-67043493D01*
X82045177Y-67043493D01*
X82038590Y-67043148D01*
X82024692Y-67045349D01*
X82004983Y-67046900D01*
X79982503Y-67046900D01*
X79914382Y-67026898D01*
X79867889Y-66973242D01*
X79857785Y-66902968D01*
X79887279Y-66838388D01*
X79893408Y-66831805D01*
X83397408Y-63327805D01*
X83459720Y-63293779D01*
X83486503Y-63290900D01*
X84342702Y-63290900D01*
X84410823Y-63310902D01*
X84457316Y-63364558D01*
X84460684Y-63372670D01*
X84500585Y-63479105D01*
X84587939Y-63595661D01*
X84704495Y-63683015D01*
X84712904Y-63686167D01*
X84712905Y-63686168D01*
X84822160Y-63727126D01*
X84878925Y-63769767D01*
X84903625Y-63836329D01*
X84888418Y-63905678D01*
X84869025Y-63932159D01*
X84745790Y-64061117D01*
X84739304Y-64069127D01*
X84619298Y-64245049D01*
X84614200Y-64254023D01*
X84524538Y-64447183D01*
X84520975Y-64456870D01*
X84465589Y-64656583D01*
X84467112Y-64665007D01*
X84479492Y-64668400D01*
X87119544Y-64668400D01*
X87133075Y-64664427D01*
X87134380Y-64655347D01*
X87092414Y-64488275D01*
X87089094Y-64478524D01*
X87004172Y-64283214D01*
X86999305Y-64274139D01*
X86883626Y-64095326D01*
X86877336Y-64087157D01*
X86733493Y-63929077D01*
X86702441Y-63865231D01*
X86710835Y-63794733D01*
X86756012Y-63739964D01*
X86782456Y-63726295D01*
X86889497Y-63686167D01*
X86897905Y-63683015D01*
X87014461Y-63595661D01*
X87101815Y-63479105D01*
X87152945Y-63342716D01*
X87159700Y-63280534D01*
X87159700Y-61484266D01*
X87152945Y-61422084D01*
X87101815Y-61285695D01*
X87014461Y-61169139D01*
X86897905Y-61081785D01*
X86761516Y-61030655D01*
X86699334Y-61023900D01*
X84903066Y-61023900D01*
X84840884Y-61030655D01*
X84704495Y-61081785D01*
X84587939Y-61169139D01*
X84500585Y-61285695D01*
X84497433Y-61294103D01*
X84460684Y-61392130D01*
X84418042Y-61448894D01*
X84351481Y-61473594D01*
X84342702Y-61473900D01*
X83139417Y-61473900D01*
X83119708Y-61472349D01*
X83105810Y-61470148D01*
X83099223Y-61470493D01*
X83099218Y-61470493D01*
X83037520Y-61473727D01*
X83030926Y-61473900D01*
X83010390Y-61473900D01*
X83007118Y-61474244D01*
X83007116Y-61474244D01*
X82989958Y-61476047D01*
X82983384Y-61476564D01*
X82921692Y-61479797D01*
X82921688Y-61479798D01*
X82915097Y-61480143D01*
X82908716Y-61481853D01*
X82908714Y-61481853D01*
X82901509Y-61483783D01*
X82882075Y-61487385D01*
X82874646Y-61488166D01*
X82874637Y-61488168D01*
X82868072Y-61488858D01*
X82803003Y-61510000D01*
X82796701Y-61511867D01*
X82730630Y-61529571D01*
X82718093Y-61535959D01*
X82699826Y-61543525D01*
X82692728Y-61545831D01*
X82692726Y-61545832D01*
X82686444Y-61547873D01*
X82680722Y-61551176D01*
X82680721Y-61551177D01*
X82627218Y-61582067D01*
X82621423Y-61585214D01*
X82560470Y-61616271D01*
X82555342Y-61620424D01*
X82555340Y-61620425D01*
X82549534Y-61625127D01*
X82533237Y-61636327D01*
X82526776Y-61640057D01*
X82526772Y-61640060D01*
X82521056Y-61643360D01*
X82516150Y-61647777D01*
X82516145Y-61647781D01*
X82470231Y-61689122D01*
X82465216Y-61693406D01*
X82456718Y-61700288D01*
X82449259Y-61706328D01*
X82434744Y-61720843D01*
X82429959Y-61725384D01*
X82379134Y-61771147D01*
X82375255Y-61776486D01*
X82375254Y-61776487D01*
X82370860Y-61782535D01*
X82358019Y-61797568D01*
X78307568Y-65848019D01*
X78292535Y-65860860D01*
X78281147Y-65869134D01*
X78276727Y-65874043D01*
X78235384Y-65919959D01*
X78230843Y-65924744D01*
X78216328Y-65939259D01*
X78214252Y-65941823D01*
X78203406Y-65955216D01*
X78199122Y-65960231D01*
X78157781Y-66006145D01*
X78157777Y-66006150D01*
X78153360Y-66011056D01*
X78150060Y-66016772D01*
X78150057Y-66016776D01*
X78146327Y-66023237D01*
X78135127Y-66039533D01*
X78126271Y-66050470D01*
X78095215Y-66111421D01*
X78092067Y-66117218D01*
X78063879Y-66166042D01*
X78057873Y-66176444D01*
X78055832Y-66182726D01*
X78055831Y-66182728D01*
X78053525Y-66189826D01*
X78045960Y-66208092D01*
X78039571Y-66220630D01*
X78037863Y-66227003D01*
X78037863Y-66227004D01*
X78021869Y-66286695D01*
X78020000Y-66293003D01*
X77998858Y-66358072D01*
X77998168Y-66364637D01*
X77998166Y-66364646D01*
X77997385Y-66372075D01*
X77993783Y-66391509D01*
X77991853Y-66398714D01*
X77990143Y-66405097D01*
X77989798Y-66411688D01*
X77989797Y-66411692D01*
X77986564Y-66473384D01*
X77986047Y-66479959D01*
X77979742Y-66539951D01*
X77978896Y-66548000D01*
X77979586Y-66554566D01*
X77979586Y-66554568D01*
X77980367Y-66562001D01*
X77980884Y-66581759D01*
X77980148Y-66595810D01*
X77990850Y-66663383D01*
X77991706Y-66669887D01*
X77998858Y-66737928D01*
X78000898Y-66744205D01*
X78000898Y-66744207D01*
X78003206Y-66751311D01*
X78007821Y-66770534D01*
X78008989Y-66777906D01*
X78010023Y-66784432D01*
X78034129Y-66847228D01*
X78034534Y-66848284D01*
X78036728Y-66854477D01*
X78045659Y-66881966D01*
X78047687Y-66952930D01*
X78011025Y-67013728D01*
X77947313Y-67045054D01*
X77925826Y-67046900D01*
X77276306Y-67046900D01*
X77208185Y-67026898D01*
X77194298Y-67015717D01*
X77194229Y-67015804D01*
X77188483Y-67011266D01*
X77183303Y-67006095D01*
X77177072Y-67002254D01*
X77038968Y-66917125D01*
X77038966Y-66917124D01*
X77032738Y-66913285D01*
X76938302Y-66881962D01*
X76871389Y-66859768D01*
X76871387Y-66859768D01*
X76864861Y-66857603D01*
X76858025Y-66856903D01*
X76858022Y-66856902D01*
X76814969Y-66852491D01*
X76760400Y-66846900D01*
X75409600Y-66846900D01*
X75406354Y-66847237D01*
X75406350Y-66847237D01*
X75310692Y-66857162D01*
X75310688Y-66857163D01*
X75303834Y-66857874D01*
X75297298Y-66860055D01*
X75297296Y-66860055D01*
X75169870Y-66902568D01*
X75136054Y-66913850D01*
X74985652Y-67006922D01*
X74860695Y-67132097D01*
X74856855Y-67138327D01*
X74856854Y-67138328D01*
X74813090Y-67209327D01*
X74767885Y-67282662D01*
X74712203Y-67450539D01*
X74701500Y-67555000D01*
X74701500Y-68355800D01*
X74701837Y-68359046D01*
X74701837Y-68359050D01*
X74709490Y-68432805D01*
X74712474Y-68461566D01*
X74714655Y-68468102D01*
X74714655Y-68468104D01*
X74756577Y-68593759D01*
X74768450Y-68629346D01*
X74861522Y-68779748D01*
X74986697Y-68904705D01*
X74992927Y-68908545D01*
X74992928Y-68908546D01*
X75038236Y-68936474D01*
X75085729Y-68989246D01*
X75097153Y-69059318D01*
X75068879Y-69124442D01*
X75049955Y-69142818D01*
X75042080Y-69149004D01*
X75038148Y-69153535D01*
X75038145Y-69153538D01*
X74919554Y-69290202D01*
X74903448Y-69308763D01*
X74900448Y-69313949D01*
X74900445Y-69313953D01*
X74862877Y-69378892D01*
X74797527Y-69491854D01*
X74728139Y-69691671D01*
X74727278Y-69697606D01*
X74727278Y-69697608D01*
X74711742Y-69804761D01*
X74697787Y-69901004D01*
X74707567Y-70112299D01*
X74708971Y-70118124D01*
X74708971Y-70118125D01*
X74755295Y-70310339D01*
X74757125Y-70317934D01*
X74844674Y-70510487D01*
X74967054Y-70683011D01*
X75119850Y-70829281D01*
X75124888Y-70832534D01*
X75152163Y-70850146D01*
X75198540Y-70903901D01*
X75208493Y-70974197D01*
X75178861Y-71038714D01*
X75161649Y-71055081D01*
X75042080Y-71149004D01*
X75038148Y-71153535D01*
X75038145Y-71153538D01*
X74977942Y-71222916D01*
X74903448Y-71308763D01*
X74900448Y-71313949D01*
X74900445Y-71313953D01*
X74830302Y-71435200D01*
X74797527Y-71491854D01*
X74728139Y-71691671D01*
X74697787Y-71901004D01*
X74707567Y-72112299D01*
X74708971Y-72118124D01*
X74708971Y-72118125D01*
X74711376Y-72128102D01*
X74757125Y-72317934D01*
X74759607Y-72323392D01*
X74759608Y-72323396D01*
X74771669Y-72349922D01*
X74844674Y-72510487D01*
X74967054Y-72683011D01*
X75119850Y-72829281D01*
X75124888Y-72832534D01*
X75152163Y-72850146D01*
X75198540Y-72903901D01*
X75208493Y-72974197D01*
X75178861Y-73038714D01*
X75161649Y-73055081D01*
X75042080Y-73149004D01*
X75038148Y-73153535D01*
X75038145Y-73153538D01*
X74941564Y-73264838D01*
X74903448Y-73308763D01*
X74900448Y-73313949D01*
X74900445Y-73313953D01*
X74819581Y-73453733D01*
X74797527Y-73491854D01*
X74728139Y-73691671D01*
X74727278Y-73697606D01*
X74727278Y-73697608D01*
X74701737Y-73873764D01*
X74697787Y-73901004D01*
X74707567Y-74112299D01*
X74708971Y-74118124D01*
X74708971Y-74118125D01*
X74740642Y-74249538D01*
X74757125Y-74317934D01*
X74844674Y-74510487D01*
X74967054Y-74683011D01*
X74971381Y-74687153D01*
X75093897Y-74804436D01*
X75119850Y-74829281D01*
X75124888Y-74832534D01*
X75152163Y-74850146D01*
X75198540Y-74903901D01*
X75208493Y-74974197D01*
X75178861Y-75038714D01*
X75161649Y-75055081D01*
X75042080Y-75149004D01*
X75038148Y-75153535D01*
X75038145Y-75153538D01*
X74930792Y-75277252D01*
X74903448Y-75308763D01*
X74900448Y-75313949D01*
X74900445Y-75313953D01*
X74864884Y-75375423D01*
X74797527Y-75491854D01*
X74728139Y-75691671D01*
X74727278Y-75697606D01*
X74727278Y-75697608D01*
X74705543Y-75847515D01*
X74697787Y-75901004D01*
X74707567Y-76112299D01*
X74708971Y-76118124D01*
X74708971Y-76118125D01*
X74753584Y-76303239D01*
X74757125Y-76317934D01*
X74759607Y-76323392D01*
X74759608Y-76323396D01*
X74811916Y-76438441D01*
X74844674Y-76510487D01*
X74886817Y-76569898D01*
X74962787Y-76676995D01*
X74967054Y-76683011D01*
X75119850Y-76829281D01*
X75124888Y-76832534D01*
X75152163Y-76850146D01*
X75198540Y-76903901D01*
X75208493Y-76974197D01*
X75178861Y-77038714D01*
X75161649Y-77055081D01*
X75042080Y-77149004D01*
X75038148Y-77153535D01*
X75038145Y-77153538D01*
X74930792Y-77277252D01*
X74903448Y-77308763D01*
X74900448Y-77313949D01*
X74900445Y-77313953D01*
X74854484Y-77393400D01*
X74797527Y-77491854D01*
X74728139Y-77691671D01*
X74727278Y-77697606D01*
X74727278Y-77697608D01*
X74699838Y-77886861D01*
X74697787Y-77901004D01*
X74707567Y-78112299D01*
X74708971Y-78118124D01*
X74708971Y-78118125D01*
X74752435Y-78298472D01*
X74757125Y-78317934D01*
X74759607Y-78323392D01*
X74759608Y-78323396D01*
X74785196Y-78379673D01*
X74844674Y-78510487D01*
X74967054Y-78683011D01*
X75119850Y-78829281D01*
X75124888Y-78832534D01*
X75152163Y-78850146D01*
X75198540Y-78903901D01*
X75208493Y-78974197D01*
X75178861Y-79038714D01*
X75161649Y-79055081D01*
X75042080Y-79149004D01*
X75038148Y-79153535D01*
X75038145Y-79153538D01*
X75024494Y-79169270D01*
X74903448Y-79308763D01*
X74900448Y-79313949D01*
X74900445Y-79313953D01*
X74814556Y-79462419D01*
X74797527Y-79491854D01*
X74728139Y-79691671D01*
X74727278Y-79697606D01*
X74727278Y-79697608D01*
X74708206Y-79829148D01*
X74697787Y-79901004D01*
X69774200Y-79901004D01*
X69774200Y-59079400D01*
X69794202Y-59011279D01*
X69847858Y-58964786D01*
X69900200Y-58953400D01*
X97207200Y-58953400D01*
X97275321Y-58973402D01*
G37*
%TD.AperFunction*%
%TD*%
%TA.AperFunction,Conductor*%
%TO.N,/AD_DE_GND_3*%
G36*
X91991721Y-143631602D02*
G01*
X92038214Y-143685258D01*
X92049600Y-143737600D01*
X92049600Y-156693600D01*
X92029598Y-156761721D01*
X91975942Y-156808214D01*
X91923600Y-156819600D01*
X90360527Y-156819600D01*
X90292406Y-156799598D01*
X90245913Y-156745942D01*
X90235809Y-156675668D01*
X90265303Y-156611088D01*
X90324320Y-156572914D01*
X90484052Y-156524992D01*
X90493642Y-156521233D01*
X90684895Y-156427539D01*
X90693745Y-156422264D01*
X90867128Y-156298592D01*
X90875000Y-156291939D01*
X91025852Y-156141612D01*
X91032530Y-156133765D01*
X91156803Y-155960820D01*
X91162113Y-155951983D01*
X91256470Y-155761067D01*
X91260269Y-155751472D01*
X91322177Y-155547710D01*
X91324355Y-155537637D01*
X91325786Y-155526762D01*
X91323575Y-155512578D01*
X91310417Y-155508800D01*
X88675025Y-155508800D01*
X88661494Y-155512773D01*
X88660057Y-155522766D01*
X88690365Y-155657246D01*
X88693445Y-155667075D01*
X88773570Y-155864403D01*
X88778213Y-155873594D01*
X88889494Y-156055188D01*
X88895577Y-156063499D01*
X89035013Y-156224467D01*
X89042380Y-156231683D01*
X89206234Y-156367716D01*
X89214681Y-156373631D01*
X89398556Y-156481079D01*
X89407842Y-156485529D01*
X89606801Y-156561503D01*
X89616699Y-156564379D01*
X89644962Y-156570129D01*
X89707728Y-156603311D01*
X89742590Y-156665159D01*
X89738481Y-156736036D01*
X89696705Y-156793441D01*
X89630525Y-156819146D01*
X89619842Y-156819600D01*
X83978134Y-156819600D01*
X83910013Y-156799598D01*
X83863520Y-156745942D01*
X83853416Y-156675668D01*
X83882910Y-156611088D01*
X83941926Y-156572914D01*
X84083429Y-156530461D01*
X84083434Y-156530459D01*
X84088384Y-156528974D01*
X84288994Y-156430696D01*
X84470860Y-156300973D01*
X84629096Y-156143289D01*
X84724276Y-156010832D01*
X84756435Y-155966077D01*
X84759453Y-155961877D01*
X84799613Y-155880620D01*
X84856136Y-155766253D01*
X84856137Y-155766251D01*
X84858430Y-155761611D01*
X84923370Y-155547869D01*
X84952529Y-155326390D01*
X84954156Y-155259800D01*
X84935852Y-155037161D01*
X84881431Y-154820502D01*
X84792354Y-154615640D01*
X84671014Y-154428077D01*
X84520670Y-154262851D01*
X84516619Y-154259652D01*
X84516615Y-154259648D01*
X84349414Y-154127600D01*
X84349410Y-154127598D01*
X84345359Y-154124398D01*
X84303569Y-154101329D01*
X84253598Y-154050897D01*
X84238826Y-153981454D01*
X84263942Y-153915048D01*
X84291294Y-153888441D01*
X84466328Y-153763592D01*
X84474200Y-153756939D01*
X84625052Y-153606612D01*
X84631730Y-153598765D01*
X84756003Y-153425820D01*
X84761313Y-153416983D01*
X84855670Y-153226067D01*
X84859469Y-153216472D01*
X84921377Y-153012710D01*
X84923555Y-153002637D01*
X84924986Y-152991762D01*
X84922775Y-152977578D01*
X84909617Y-152973800D01*
X82274225Y-152973800D01*
X82260694Y-152977773D01*
X82259257Y-152987766D01*
X82289565Y-153122246D01*
X82292645Y-153132075D01*
X82372770Y-153329403D01*
X82377413Y-153338594D01*
X82488694Y-153520188D01*
X82494777Y-153528499D01*
X82634213Y-153689467D01*
X82641580Y-153696683D01*
X82805434Y-153832716D01*
X82813881Y-153838631D01*
X82882969Y-153879003D01*
X82931693Y-153930642D01*
X82944764Y-154000425D01*
X82918033Y-154066196D01*
X82877584Y-154099552D01*
X82864607Y-154106307D01*
X82860474Y-154109410D01*
X82860471Y-154109412D01*
X82780741Y-154169275D01*
X82685965Y-154240435D01*
X82660895Y-154266670D01*
X82617241Y-154312351D01*
X82555717Y-154347781D01*
X82526147Y-154351300D01*
X77222435Y-154351300D01*
X77154314Y-154331298D01*
X77119665Y-154298200D01*
X77028212Y-154169275D01*
X77028211Y-154169274D01*
X77024746Y-154164389D01*
X76871950Y-154018119D01*
X76857846Y-154009012D01*
X76839637Y-153997254D01*
X76793260Y-153943499D01*
X76783307Y-153873203D01*
X76812939Y-153808686D01*
X76830153Y-153792317D01*
X76832318Y-153790617D01*
X76949720Y-153698396D01*
X76953652Y-153693865D01*
X76953655Y-153693862D01*
X77084421Y-153543167D01*
X77088352Y-153538637D01*
X77091352Y-153533451D01*
X77091355Y-153533447D01*
X77191267Y-153360742D01*
X77194273Y-153355546D01*
X77263661Y-153155729D01*
X77284398Y-153012710D01*
X77293152Y-152952336D01*
X77293152Y-152952333D01*
X77294013Y-152946396D01*
X77284233Y-152735101D01*
X77248050Y-152584964D01*
X77236081Y-152535299D01*
X77236080Y-152535297D01*
X77234675Y-152529466D01*
X77221615Y-152500741D01*
X77149606Y-152342368D01*
X77147126Y-152336913D01*
X77024746Y-152164389D01*
X76871950Y-152018119D01*
X76866055Y-152014312D01*
X76839637Y-151997254D01*
X76793260Y-151943499D01*
X76783307Y-151873203D01*
X76812939Y-151808686D01*
X76830153Y-151792317D01*
X76943760Y-151703078D01*
X76949720Y-151698396D01*
X76953652Y-151693865D01*
X76953655Y-151693862D01*
X77084421Y-151543167D01*
X77088352Y-151538637D01*
X77091352Y-151533451D01*
X77091355Y-151533447D01*
X77191267Y-151360742D01*
X77194273Y-151355546D01*
X77263661Y-151155729D01*
X77294013Y-150946396D01*
X77284233Y-150735101D01*
X77234675Y-150529466D01*
X77206648Y-150467823D01*
X77149606Y-150342368D01*
X77147126Y-150336913D01*
X77024746Y-150164389D01*
X77020423Y-150160251D01*
X77020419Y-150160246D01*
X76929109Y-150072836D01*
X76893733Y-150011280D01*
X76897252Y-149940371D01*
X76938549Y-149882621D01*
X76949937Y-149874674D01*
X76999607Y-149843937D01*
X77011008Y-149834901D01*
X77125539Y-149720171D01*
X77134551Y-149708760D01*
X77219616Y-149570757D01*
X77225763Y-149557576D01*
X77276938Y-149403290D01*
X77279805Y-149389914D01*
X77289472Y-149295562D01*
X77289800Y-149289146D01*
X77289800Y-149164115D01*
X77285325Y-149148876D01*
X77283935Y-149147671D01*
X77276252Y-149146000D01*
X75778800Y-149146000D01*
X75710679Y-149125998D01*
X75664186Y-149072342D01*
X75652800Y-149020000D01*
X75652800Y-148619885D01*
X76160800Y-148619885D01*
X76165275Y-148635124D01*
X76166665Y-148636329D01*
X76174348Y-148638000D01*
X77271684Y-148638000D01*
X77286923Y-148633525D01*
X77288128Y-148632135D01*
X77289799Y-148624452D01*
X77289799Y-148494905D01*
X77289462Y-148488386D01*
X77279543Y-148392794D01*
X77276651Y-148379400D01*
X77225212Y-148225216D01*
X77219039Y-148212038D01*
X77133737Y-148074193D01*
X77124701Y-148062792D01*
X77009971Y-147948261D01*
X76998560Y-147939249D01*
X76860557Y-147854184D01*
X76847376Y-147848037D01*
X76693090Y-147796862D01*
X76679714Y-147793995D01*
X76585362Y-147784328D01*
X76578945Y-147784000D01*
X76178915Y-147784000D01*
X76163676Y-147788475D01*
X76162471Y-147789865D01*
X76160800Y-147797548D01*
X76160800Y-148619885D01*
X75652800Y-148619885D01*
X75652800Y-147802116D01*
X75648325Y-147786877D01*
X75646935Y-147785672D01*
X75639252Y-147784001D01*
X75597802Y-147784001D01*
X75529681Y-147763999D01*
X75483188Y-147710343D01*
X75473084Y-147640069D01*
X75502578Y-147575489D01*
X75508707Y-147568906D01*
X75980608Y-147097005D01*
X76042920Y-147062979D01*
X76069703Y-147060100D01*
X82832697Y-147060100D01*
X82900818Y-147080102D01*
X82921792Y-147097005D01*
X84430992Y-148606205D01*
X84465018Y-148668517D01*
X84459953Y-148739332D01*
X84417406Y-148796168D01*
X84350886Y-148820979D01*
X84341897Y-148821300D01*
X82692866Y-148821300D01*
X82630684Y-148828055D01*
X82494295Y-148879185D01*
X82377739Y-148966539D01*
X82290385Y-149083095D01*
X82239255Y-149219484D01*
X82232500Y-149281666D01*
X82232500Y-151077934D01*
X82239255Y-151140116D01*
X82290385Y-151276505D01*
X82377739Y-151393061D01*
X82494295Y-151480415D01*
X82502704Y-151483567D01*
X82502705Y-151483568D01*
X82611960Y-151524526D01*
X82668725Y-151567167D01*
X82693425Y-151633729D01*
X82678218Y-151703078D01*
X82658825Y-151729559D01*
X82535590Y-151858517D01*
X82529104Y-151866527D01*
X82409098Y-152042449D01*
X82404000Y-152051423D01*
X82314338Y-152244583D01*
X82310775Y-152254270D01*
X82255389Y-152453983D01*
X82256912Y-152462407D01*
X82269292Y-152465800D01*
X84909344Y-152465800D01*
X84922875Y-152461827D01*
X84924180Y-152452747D01*
X84882214Y-152285675D01*
X84878894Y-152275924D01*
X84793972Y-152080614D01*
X84789105Y-152071539D01*
X84673426Y-151892726D01*
X84667136Y-151884557D01*
X84523293Y-151726477D01*
X84492241Y-151662631D01*
X84500635Y-151592133D01*
X84545812Y-151537364D01*
X84572256Y-151523695D01*
X84679297Y-151483567D01*
X84687705Y-151480415D01*
X84804261Y-151393061D01*
X84891615Y-151276505D01*
X84942745Y-151140116D01*
X84949500Y-151077934D01*
X84949500Y-149428903D01*
X84969502Y-149360782D01*
X85023158Y-149314289D01*
X85093432Y-149304185D01*
X85158012Y-149333679D01*
X85164595Y-149339808D01*
X88602629Y-152777842D01*
X88636655Y-152840154D01*
X88639325Y-152859684D01*
X88641910Y-152904515D01*
X88643047Y-152909561D01*
X88643048Y-152909567D01*
X88660672Y-152987766D01*
X88691022Y-153122439D01*
X88775066Y-153329416D01*
X88794263Y-153360742D01*
X88884302Y-153507673D01*
X88891787Y-153519888D01*
X89038050Y-153688738D01*
X89209926Y-153831432D01*
X89222246Y-153838631D01*
X89283755Y-153874574D01*
X89332479Y-153926212D01*
X89345550Y-153995995D01*
X89318819Y-154061767D01*
X89278362Y-154095127D01*
X89270257Y-154099346D01*
X89261538Y-154104836D01*
X89091233Y-154232705D01*
X89083526Y-154239548D01*
X88936390Y-154393517D01*
X88929904Y-154401527D01*
X88809898Y-154577449D01*
X88804800Y-154586423D01*
X88715138Y-154779583D01*
X88711575Y-154789270D01*
X88656189Y-154988983D01*
X88657712Y-154997407D01*
X88670092Y-155000800D01*
X91310144Y-155000800D01*
X91323675Y-154996827D01*
X91324980Y-154987747D01*
X91283014Y-154820675D01*
X91279694Y-154810924D01*
X91194772Y-154615614D01*
X91189905Y-154606539D01*
X91074226Y-154427726D01*
X91067936Y-154419557D01*
X90924606Y-154262040D01*
X90917073Y-154255015D01*
X90749939Y-154123022D01*
X90741356Y-154117320D01*
X90704402Y-154096920D01*
X90654431Y-154046487D01*
X90639659Y-153977045D01*
X90664775Y-153910639D01*
X90692127Y-153884032D01*
X90755777Y-153838631D01*
X90871660Y-153755973D01*
X90885846Y-153741837D01*
X90966839Y-153661126D01*
X91029896Y-153598289D01*
X91076490Y-153533447D01*
X91157235Y-153421077D01*
X91160253Y-153416877D01*
X91187997Y-153360742D01*
X91256936Y-153221253D01*
X91256937Y-153221251D01*
X91259230Y-153216611D01*
X91324170Y-153002869D01*
X91353329Y-152781390D01*
X91354460Y-152735101D01*
X91354874Y-152718165D01*
X91354874Y-152718161D01*
X91354956Y-152714800D01*
X91336652Y-152492161D01*
X91282231Y-152275502D01*
X91193154Y-152070640D01*
X91108387Y-151939610D01*
X91074622Y-151887417D01*
X91074620Y-151887414D01*
X91071814Y-151883077D01*
X90921470Y-151717851D01*
X90917419Y-151714652D01*
X90917415Y-151714648D01*
X90750214Y-151582600D01*
X90750210Y-151582598D01*
X90746159Y-151579398D01*
X90704853Y-151556596D01*
X90654884Y-151506164D01*
X90640112Y-151436721D01*
X90665228Y-151370316D01*
X90692580Y-151343709D01*
X90776722Y-151283691D01*
X90871660Y-151215973D01*
X91029896Y-151058289D01*
X91036644Y-151048899D01*
X91157235Y-150881077D01*
X91160253Y-150876877D01*
X91259230Y-150676611D01*
X91324170Y-150462869D01*
X91353329Y-150241390D01*
X91354956Y-150174800D01*
X91336652Y-149952161D01*
X91282231Y-149735502D01*
X91193154Y-149530640D01*
X91071814Y-149343077D01*
X91068332Y-149339250D01*
X90924598Y-149181288D01*
X90893546Y-149117442D01*
X90901941Y-149046943D01*
X90947117Y-148992175D01*
X90973561Y-148978506D01*
X91080097Y-148938567D01*
X91088505Y-148935415D01*
X91205061Y-148848061D01*
X91292415Y-148731505D01*
X91343545Y-148595116D01*
X91350300Y-148532934D01*
X91350300Y-146736666D01*
X91343545Y-146674484D01*
X91292415Y-146538095D01*
X91205061Y-146421539D01*
X91088505Y-146334185D01*
X90952116Y-146283055D01*
X90889934Y-146276300D01*
X89093666Y-146276300D01*
X89031484Y-146283055D01*
X88895095Y-146334185D01*
X88778539Y-146421539D01*
X88691185Y-146538095D01*
X88640055Y-146674484D01*
X88633300Y-146736666D01*
X88633300Y-148532934D01*
X88640055Y-148595116D01*
X88691185Y-148731505D01*
X88778539Y-148848061D01*
X88895095Y-148935415D01*
X88903504Y-148938567D01*
X88903505Y-148938568D01*
X89012251Y-148979335D01*
X89069016Y-149021976D01*
X89093716Y-149088538D01*
X89078509Y-149157887D01*
X89059116Y-149184368D01*
X88932429Y-149316938D01*
X88806543Y-149501480D01*
X88712488Y-149704105D01*
X88652789Y-149919370D01*
X88652240Y-149924507D01*
X88648066Y-149963565D01*
X88620938Y-150029175D01*
X88562646Y-150069703D01*
X88491696Y-150072282D01*
X88433684Y-150039271D01*
X83961181Y-145566768D01*
X83948340Y-145551735D01*
X83943946Y-145545687D01*
X83943945Y-145545686D01*
X83940066Y-145540347D01*
X83889241Y-145494584D01*
X83884456Y-145490043D01*
X83869941Y-145475528D01*
X83862482Y-145469488D01*
X83853984Y-145462606D01*
X83848969Y-145458322D01*
X83803055Y-145416981D01*
X83803050Y-145416977D01*
X83798144Y-145412560D01*
X83792428Y-145409260D01*
X83792424Y-145409257D01*
X83785963Y-145405527D01*
X83769666Y-145394327D01*
X83763860Y-145389625D01*
X83763858Y-145389624D01*
X83758730Y-145385471D01*
X83697777Y-145354414D01*
X83691982Y-145351267D01*
X83638479Y-145320377D01*
X83638478Y-145320376D01*
X83632756Y-145317073D01*
X83626474Y-145315032D01*
X83626472Y-145315031D01*
X83619374Y-145312725D01*
X83601107Y-145305159D01*
X83588570Y-145298771D01*
X83522499Y-145281067D01*
X83516197Y-145279200D01*
X83451128Y-145258058D01*
X83444563Y-145257368D01*
X83444554Y-145257366D01*
X83437125Y-145256585D01*
X83417691Y-145252983D01*
X83410486Y-145251053D01*
X83410484Y-145251053D01*
X83404103Y-145249343D01*
X83397512Y-145248998D01*
X83397508Y-145248997D01*
X83335816Y-145245764D01*
X83329242Y-145245247D01*
X83312084Y-145243444D01*
X83312082Y-145243444D01*
X83308810Y-145243100D01*
X83288274Y-145243100D01*
X83281680Y-145242927D01*
X83219982Y-145239693D01*
X83219977Y-145239693D01*
X83213390Y-145239348D01*
X83199492Y-145241549D01*
X83179783Y-145243100D01*
X75722617Y-145243100D01*
X75702908Y-145241549D01*
X75689010Y-145239348D01*
X75682423Y-145239693D01*
X75682418Y-145239693D01*
X75620720Y-145242927D01*
X75614126Y-145243100D01*
X75593590Y-145243100D01*
X75590318Y-145243444D01*
X75590316Y-145243444D01*
X75573158Y-145245247D01*
X75566584Y-145245764D01*
X75504892Y-145248997D01*
X75504888Y-145248998D01*
X75498297Y-145249343D01*
X75491916Y-145251053D01*
X75491914Y-145251053D01*
X75484709Y-145252983D01*
X75465275Y-145256585D01*
X75457846Y-145257366D01*
X75457837Y-145257368D01*
X75451272Y-145258058D01*
X75386203Y-145279200D01*
X75379901Y-145281067D01*
X75313830Y-145298771D01*
X75301293Y-145305159D01*
X75283026Y-145312725D01*
X75275928Y-145315031D01*
X75275926Y-145315032D01*
X75269644Y-145317073D01*
X75263922Y-145320376D01*
X75263921Y-145320377D01*
X75210418Y-145351267D01*
X75204623Y-145354414D01*
X75143670Y-145385471D01*
X75138542Y-145389624D01*
X75138540Y-145389625D01*
X75132734Y-145394327D01*
X75116437Y-145405527D01*
X75109976Y-145409257D01*
X75109972Y-145409260D01*
X75104256Y-145412560D01*
X75099350Y-145416977D01*
X75099345Y-145416981D01*
X75053431Y-145458322D01*
X75048416Y-145462606D01*
X75039918Y-145469488D01*
X75032459Y-145475528D01*
X75017944Y-145490043D01*
X75013159Y-145494584D01*
X74962334Y-145540347D01*
X74958455Y-145545686D01*
X74958454Y-145545687D01*
X74954060Y-145551735D01*
X74941219Y-145566768D01*
X72973568Y-147534419D01*
X72958535Y-147547260D01*
X72947147Y-147555534D01*
X72901384Y-147606359D01*
X72896843Y-147611144D01*
X72882328Y-147625659D01*
X72880252Y-147628223D01*
X72869406Y-147641616D01*
X72865122Y-147646631D01*
X72823781Y-147692545D01*
X72823777Y-147692550D01*
X72819360Y-147697456D01*
X72816060Y-147703172D01*
X72816057Y-147703176D01*
X72812327Y-147709637D01*
X72801127Y-147725933D01*
X72792271Y-147736870D01*
X72778448Y-147763999D01*
X72761215Y-147797821D01*
X72758069Y-147803615D01*
X72723873Y-147862844D01*
X72721832Y-147869126D01*
X72721831Y-147869128D01*
X72719525Y-147876226D01*
X72711960Y-147894492D01*
X72705571Y-147907030D01*
X72703863Y-147913403D01*
X72703863Y-147913404D01*
X72687869Y-147973095D01*
X72686000Y-147979403D01*
X72664858Y-148044472D01*
X72664168Y-148051037D01*
X72664166Y-148051046D01*
X72663385Y-148058475D01*
X72659783Y-148077909D01*
X72657853Y-148085114D01*
X72656143Y-148091497D01*
X72655798Y-148098088D01*
X72655797Y-148098092D01*
X72652564Y-148159784D01*
X72652047Y-148166358D01*
X72650244Y-148183516D01*
X72649900Y-148186790D01*
X72649900Y-148207326D01*
X72649727Y-148213920D01*
X72646148Y-148282210D01*
X72647180Y-148288725D01*
X72648349Y-148296105D01*
X72649900Y-148315817D01*
X72649900Y-151810583D01*
X72648349Y-151830292D01*
X72646148Y-151844190D01*
X72646493Y-151850777D01*
X72646493Y-151850782D01*
X72649727Y-151912480D01*
X72649900Y-151919074D01*
X72649900Y-151939610D01*
X72650244Y-151942882D01*
X72650244Y-151942884D01*
X72652047Y-151960042D01*
X72652564Y-151966616D01*
X72655481Y-152022264D01*
X72656143Y-152034903D01*
X72657853Y-152041284D01*
X72657853Y-152041286D01*
X72659783Y-152048491D01*
X72663385Y-152067925D01*
X72664166Y-152075354D01*
X72664168Y-152075363D01*
X72664858Y-152081928D01*
X72686000Y-152146997D01*
X72687867Y-152153299D01*
X72705571Y-152219370D01*
X72711959Y-152231907D01*
X72719525Y-152250173D01*
X72723873Y-152263556D01*
X72727176Y-152269278D01*
X72727177Y-152269279D01*
X72758067Y-152322782D01*
X72761214Y-152328577D01*
X72792271Y-152389530D01*
X72796424Y-152394658D01*
X72796425Y-152394660D01*
X72801127Y-152400466D01*
X72812327Y-152416763D01*
X72816057Y-152423224D01*
X72816060Y-152423228D01*
X72819360Y-152428944D01*
X72823777Y-152433850D01*
X72823781Y-152433855D01*
X72865122Y-152479769D01*
X72869406Y-152484784D01*
X72882328Y-152500741D01*
X72896843Y-152515256D01*
X72901384Y-152520041D01*
X72947147Y-152570866D01*
X72952486Y-152574745D01*
X72952487Y-152574746D01*
X72958535Y-152579140D01*
X72973568Y-152591981D01*
X73858419Y-153476832D01*
X73871260Y-153491865D01*
X73879534Y-153503253D01*
X73898009Y-153519888D01*
X73930359Y-153549016D01*
X73935144Y-153553557D01*
X73949659Y-153568072D01*
X73952223Y-153570148D01*
X73965616Y-153580994D01*
X73970631Y-153585278D01*
X74016545Y-153626619D01*
X74016550Y-153626623D01*
X74021456Y-153631040D01*
X74027172Y-153634340D01*
X74027176Y-153634343D01*
X74033637Y-153638073D01*
X74049933Y-153649273D01*
X74060870Y-153658129D01*
X74066748Y-153661124D01*
X74066751Y-153661126D01*
X74121826Y-153689188D01*
X74127623Y-153692336D01*
X74181123Y-153723224D01*
X74186844Y-153726527D01*
X74200226Y-153730875D01*
X74218485Y-153738438D01*
X74231030Y-153744830D01*
X74237400Y-153746537D01*
X74237403Y-153746538D01*
X74259016Y-153752329D01*
X74297112Y-153762537D01*
X74303425Y-153764407D01*
X74368472Y-153785542D01*
X74382475Y-153787014D01*
X74401904Y-153790615D01*
X74415497Y-153794257D01*
X74422094Y-153794603D01*
X74422096Y-153794603D01*
X74483784Y-153797836D01*
X74490358Y-153798353D01*
X74507516Y-153800156D01*
X74507518Y-153800156D01*
X74510790Y-153800500D01*
X74531326Y-153800500D01*
X74537920Y-153800673D01*
X74599618Y-153803907D01*
X74599623Y-153803907D01*
X74606210Y-153804252D01*
X74612726Y-153803220D01*
X74612727Y-153803220D01*
X74620107Y-153802051D01*
X74639817Y-153800500D01*
X74862453Y-153800500D01*
X74930574Y-153820502D01*
X74977067Y-153874158D01*
X74987171Y-153944432D01*
X74957677Y-154009012D01*
X74940286Y-154025586D01*
X74863880Y-154085604D01*
X74859948Y-154090135D01*
X74859945Y-154090138D01*
X74791274Y-154169275D01*
X74725248Y-154245363D01*
X74722248Y-154250549D01*
X74722245Y-154250553D01*
X74663962Y-154351300D01*
X74619327Y-154428454D01*
X74549939Y-154628271D01*
X74549078Y-154634206D01*
X74549078Y-154634208D01*
X74522042Y-154820675D01*
X74519587Y-154837604D01*
X74529367Y-155048899D01*
X74578925Y-155254534D01*
X74666474Y-155447087D01*
X74788854Y-155619611D01*
X74941650Y-155765881D01*
X75119348Y-155880620D01*
X75124914Y-155882863D01*
X75309968Y-155957442D01*
X75309971Y-155957443D01*
X75315537Y-155959686D01*
X75523137Y-156000228D01*
X75528699Y-156000500D01*
X75701857Y-156000500D01*
X75770482Y-156020828D01*
X75771940Y-156021775D01*
X75777070Y-156025929D01*
X75812748Y-156044108D01*
X75838026Y-156056988D01*
X75843823Y-156060136D01*
X75897323Y-156091024D01*
X75903044Y-156094327D01*
X75916426Y-156098675D01*
X75934685Y-156106238D01*
X75947230Y-156112630D01*
X75953600Y-156114337D01*
X75953603Y-156114338D01*
X75992674Y-156124807D01*
X76013312Y-156130337D01*
X76019625Y-156132207D01*
X76084672Y-156153342D01*
X76098675Y-156154814D01*
X76118104Y-156158415D01*
X76131697Y-156162057D01*
X76138294Y-156162403D01*
X76138296Y-156162403D01*
X76199984Y-156165636D01*
X76206558Y-156166153D01*
X76223716Y-156167956D01*
X76223718Y-156167956D01*
X76226990Y-156168300D01*
X76247526Y-156168300D01*
X76254120Y-156168473D01*
X76315818Y-156171707D01*
X76315823Y-156171707D01*
X76322410Y-156172052D01*
X76328926Y-156171020D01*
X76328927Y-156171020D01*
X76336307Y-156169851D01*
X76356017Y-156168300D01*
X82523011Y-156168300D01*
X82591132Y-156188302D01*
X82618248Y-156211802D01*
X82633864Y-156229830D01*
X82633869Y-156229835D01*
X82637250Y-156233738D01*
X82707354Y-156291939D01*
X82798628Y-156367716D01*
X82809126Y-156376432D01*
X83002000Y-156489138D01*
X83210692Y-156568830D01*
X83217082Y-156570130D01*
X83217564Y-156570385D01*
X83220721Y-156571302D01*
X83220532Y-156571954D01*
X83279846Y-156603310D01*
X83314709Y-156665158D01*
X83310600Y-156736035D01*
X83268824Y-156793440D01*
X83202645Y-156819146D01*
X83191961Y-156819600D01*
X69823600Y-156819600D01*
X69755479Y-156799598D01*
X69708986Y-156745942D01*
X69697600Y-156693600D01*
X69697600Y-143737600D01*
X69717602Y-143669479D01*
X69771258Y-143622986D01*
X69823600Y-143611600D01*
X91923600Y-143611600D01*
X91991721Y-143631602D01*
G37*
%TD.AperFunction*%
%TD*%
M02*
