%TF.GenerationSoftware,KiCad,Pcbnew,(6.0.1)*%
%TF.CreationDate,2022-11-29T19:46:15+01:00*%
%TF.ProjectId,ESPRocks,45535052-6f63-46b7-932e-6b696361645f,rev?*%
%TF.SameCoordinates,Original*%
%TF.FileFunction,Copper,L2,Bot*%
%TF.FilePolarity,Positive*%
%FSLAX46Y46*%
G04 Gerber Fmt 4.6, Leading zero omitted, Abs format (unit mm)*
G04 Created by KiCad (PCBNEW (6.0.1)) date 2022-11-29 19:46:15*
%MOMM*%
%LPD*%
G01*
G04 APERTURE LIST*
G04 Aperture macros list*
%AMRoundRect*
0 Rectangle with rounded corners*
0 $1 Rounding radius*
0 $2 $3 $4 $5 $6 $7 $8 $9 X,Y pos of 4 corners*
0 Add a 4 corners polygon primitive as box body*
4,1,4,$2,$3,$4,$5,$6,$7,$8,$9,$2,$3,0*
0 Add four circle primitives for the rounded corners*
1,1,$1+$1,$2,$3*
1,1,$1+$1,$4,$5*
1,1,$1+$1,$6,$7*
1,1,$1+$1,$8,$9*
0 Add four rect primitives between the rounded corners*
20,1,$1+$1,$2,$3,$4,$5,0*
20,1,$1+$1,$4,$5,$6,$7,0*
20,1,$1+$1,$6,$7,$8,$9,0*
20,1,$1+$1,$8,$9,$2,$3,0*%
G04 Aperture macros list end*
%TA.AperFunction,ComponentPad*%
%ADD10R,1.700000X1.700000*%
%TD*%
%TA.AperFunction,ComponentPad*%
%ADD11O,1.700000X1.700000*%
%TD*%
%TA.AperFunction,ComponentPad*%
%ADD12O,1.750000X1.200000*%
%TD*%
%TA.AperFunction,ComponentPad*%
%ADD13RoundRect,0.250000X-0.625000X0.350000X-0.625000X-0.350000X0.625000X-0.350000X0.625000X0.350000X0*%
%TD*%
%TA.AperFunction,ViaPad*%
%ADD14C,0.800000*%
%TD*%
%TA.AperFunction,Conductor*%
%ADD15C,0.800000*%
%TD*%
G04 APERTURE END LIST*
D10*
%TO.P,CN14,1,Pin_1*%
%TO.N,/A_Ad_Vcc*%
X85801200Y-62382400D03*
D11*
%TO.P,CN14,2,Pin_2*%
%TO.N,/A_Ad_GND*%
X85801200Y-64922400D03*
%TO.P,CN14,3,Pin_3*%
X85801200Y-67462400D03*
%TO.P,CN14,4,Pin_4*%
%TO.N,/A_Ad_GPIO22*%
X85801200Y-70002400D03*
%TO.P,CN14,5,Pin_5*%
%TO.N,/A_Ad_GPIO21*%
X85801200Y-72542400D03*
%TO.P,CN14,6,Pin_6*%
%TO.N,/A_Ad_GPIO23{slash}SPI_MOSI*%
X85801200Y-75082400D03*
%TO.P,CN14,7,Pin_7*%
%TO.N,/A_Ad_GPIO18{slash}SPI_SCK*%
X85801200Y-77622400D03*
%TO.P,CN14,8,Pin_8*%
%TO.N,/A_Ad_GPIO5*%
X85801200Y-80162400D03*
%TO.P,CN14,9,Pin_9*%
%TO.N,/A_Ad_GPIO19{slash}SPI_MISO*%
X85801200Y-82702400D03*
%TD*%
D10*
%TO.P,CN3,1,Pin_1*%
%TO.N,/AD_DE_Vcc_3*%
X83591000Y-150179800D03*
D11*
%TO.P,CN3,2,Pin_2*%
%TO.N,/AD_DE_GND_3*%
X83591000Y-152719800D03*
%TO.P,CN3,3,Pin_3*%
%TO.N,Net-(CN1-Pad4)*%
X83591000Y-155259800D03*
%TD*%
D10*
%TO.P,CN2,1,Pin_1*%
%TO.N,/AD_DE_Vcc_3*%
X89991800Y-147634800D03*
D11*
%TO.P,CN2,2,Pin_2*%
%TO.N,Net-(CN1-Pad4)*%
X89991800Y-150174800D03*
%TO.P,CN2,3,Pin_3*%
%TO.N,Net-(CN1-Pad3)*%
X89991800Y-152714800D03*
%TO.P,CN2,4,Pin_4*%
%TO.N,/AD_DE_GND_3*%
X89991800Y-155254800D03*
%TD*%
D12*
%TO.P,CN1,4,Pin_4*%
%TO.N,Net-(CN1-Pad4)*%
X75906800Y-154892000D03*
%TO.P,CN1,3,Pin_3*%
%TO.N,Net-(CN1-Pad3)*%
X75906800Y-152892000D03*
%TO.P,CN1,2,Pin_2*%
%TO.N,/AD_DE_Vcc_3*%
X75906800Y-150892000D03*
D13*
%TO.P,CN1,1,Pin_1*%
%TO.N,/AD_DE_GND_3*%
X75906800Y-148892000D03*
%TD*%
%TO.P,CN11,1,Pin_1*%
%TO.N,/AD_C_GPIO12*%
X76161200Y-93180400D03*
D12*
%TO.P,CN11,2,Pin_2*%
%TO.N,/AD_C_GPIO14*%
X76161200Y-95180400D03*
%TO.P,CN11,3,Pin_3*%
%TO.N,/AD_C_GPIO27*%
X76161200Y-97180400D03*
%TO.P,CN11,4,Pin_4*%
%TO.N,/AD_C_Vcc*%
X76161200Y-99180400D03*
%TO.P,CN11,5,Pin_5*%
%TO.N,/AD_C_GND*%
X76161200Y-101180400D03*
%TD*%
D13*
%TO.P,CN13,1,Pin_1*%
%TO.N,/AD_DE_GND_1*%
X75997200Y-113230400D03*
D12*
%TO.P,CN13,2,Pin_2*%
%TO.N,/AD_DE_Vcc_1*%
X75997200Y-115230400D03*
%TO.P,CN13,3,Pin_3*%
%TO.N,Net-(CN13-Pad3)*%
X75997200Y-117230400D03*
%TO.P,CN13,4,Pin_4*%
%TO.N,Net-(CN13-Pad4)*%
X75997200Y-119230400D03*
%TD*%
D10*
%TO.P,CN17,1,Pin_1*%
%TO.N,/AD_C_GPIO27*%
X85191200Y-91495400D03*
D11*
%TO.P,CN17,2,Pin_2*%
%TO.N,/AD_C_GPIO14*%
X85191200Y-94035400D03*
%TO.P,CN17,3,Pin_3*%
%TO.N,/AD_C_GPIO12*%
X85191200Y-96575400D03*
%TO.P,CN17,4,Pin_4*%
%TO.N,/AD_C_GND*%
X85191200Y-99115400D03*
%TO.P,CN17,5,Pin_5*%
%TO.N,/AD_C_Vcc*%
X85191200Y-101655400D03*
%TD*%
D10*
%TO.P,CN21,1,Pin_1*%
%TO.N,Net-(CN12-Pad4)*%
X90221200Y-132628400D03*
D11*
%TO.P,CN21,2,Pin_2*%
%TO.N,/AD_DE_GND_2*%
X90221200Y-135168400D03*
%TO.P,CN21,3,Pin_3*%
%TO.N,/AD_DE_Vcc_2*%
X90221200Y-137708400D03*
%TD*%
D10*
%TO.P,CN16,1,Pin_1*%
%TO.N,/AD_C_GPIO27*%
X94056200Y-91495400D03*
D11*
%TO.P,CN16,2,Pin_2*%
%TO.N,/AD_C_GPIO14*%
X94056200Y-94035400D03*
%TO.P,CN16,3,Pin_3*%
%TO.N,/AD_C_GPIO12*%
X94056200Y-96575400D03*
%TO.P,CN16,4,Pin_4*%
%TO.N,/AD_C_Vcc*%
X94056200Y-99115400D03*
%TO.P,CN16,5,Pin_5*%
%TO.N,/AD_C_GND*%
X94056200Y-101655400D03*
%TD*%
D10*
%TO.P,CN19,1,Pin_1*%
%TO.N,/AD_DE_GND_1*%
X90246600Y-112420400D03*
D11*
%TO.P,CN19,2,Pin_2*%
%TO.N,Net-(CN13-Pad4)*%
X90246600Y-114960400D03*
%TO.P,CN19,3,Pin_3*%
%TO.N,Net-(CN13-Pad3)*%
X90246600Y-117500400D03*
%TO.P,CN19,4,Pin_4*%
%TO.N,/AD_DE_Vcc_1*%
X90246600Y-120040400D03*
%TD*%
D10*
%TO.P,CN20,1,Pin_1*%
%TO.N,/AD_DE_GND_2*%
X83236200Y-132613400D03*
D11*
%TO.P,CN20,2,Pin_2*%
%TO.N,Net-(CN12-Pad4)*%
X83236200Y-135153400D03*
%TO.P,CN20,3,Pin_3*%
%TO.N,/AD_DE_Vcc_2*%
X83236200Y-137693400D03*
%TD*%
D10*
%TO.P,CN18,1,Pin_1*%
%TO.N,Net-(CN13-Pad4)*%
X83159200Y-112410000D03*
D11*
%TO.P,CN18,2,Pin_2*%
%TO.N,Net-(CN13-Pad3)*%
X83159200Y-114950000D03*
%TO.P,CN18,3,Pin_3*%
%TO.N,/AD_DE_Vcc_1*%
X83159200Y-117490000D03*
%TO.P,CN18,4,Pin_4*%
%TO.N,/AD_DE_GND_1*%
X83159200Y-120030000D03*
%TD*%
D10*
%TO.P,CN15,1,Pin_1*%
%TO.N,/A_Ad_Vcc*%
X95301200Y-64947400D03*
D11*
%TO.P,CN15,2,Pin_2*%
%TO.N,/A_Ad_GPIO5*%
X95301200Y-67487400D03*
%TO.P,CN15,3,Pin_3*%
%TO.N,/A_Ad_GPIO22*%
X95301200Y-70027400D03*
%TO.P,CN15,4,Pin_4*%
%TO.N,/A_Ad_GPIO21*%
X95301200Y-72567400D03*
%TO.P,CN15,5,Pin_5*%
%TO.N,/A_Ad_GPIO18{slash}SPI_SCK*%
X95301200Y-75107400D03*
%TO.P,CN15,6,Pin_6*%
%TO.N,/A_Ad_GND*%
X95301200Y-77647400D03*
%TD*%
D13*
%TO.P,CN10,1,Pin_1*%
%TO.N,/A_Ad_GPIO19{slash}SPI_MISO*%
X76085000Y-67955400D03*
D12*
%TO.P,CN10,2,Pin_2*%
%TO.N,/A_Ad_GPIO18{slash}SPI_SCK*%
X76085000Y-69955400D03*
%TO.P,CN10,3,Pin_3*%
%TO.N,/A_Ad_GPIO23{slash}SPI_MOSI*%
X76085000Y-71955400D03*
%TO.P,CN10,4,Pin_4*%
%TO.N,/A_Ad_GPIO21*%
X76085000Y-73955400D03*
%TO.P,CN10,5,Pin_5*%
%TO.N,/A_Ad_GPIO22*%
X76085000Y-75955400D03*
%TO.P,CN10,6,Pin_6*%
%TO.N,/A_Ad_GPIO5*%
X76085000Y-77955400D03*
%TO.P,CN10,7,Pin_7*%
%TO.N,/A_Ad_Vcc*%
X76085000Y-79955400D03*
%TO.P,CN10,8,Pin_8*%
%TO.N,/A_Ad_GND*%
X76085000Y-81955400D03*
%TD*%
D13*
%TO.P,CN12,1,Pin_1*%
%TO.N,/AD_DE_GND_2*%
X76288200Y-131137400D03*
D12*
%TO.P,CN12,2,Pin_2*%
%TO.N,/AD_DE_Vcc_2*%
X76288200Y-133137400D03*
%TO.P,CN12,3,Pin_3*%
%TO.N,unconnected-(CN12-Pad3)*%
X76288200Y-135137400D03*
%TO.P,CN12,4,Pin_4*%
%TO.N,Net-(CN12-Pad4)*%
X76288200Y-137137400D03*
%TD*%
D14*
%TO.N,/A_Ad_GPIO5*%
X88493600Y-68478400D03*
X79146400Y-80162400D03*
%TO.N,/A_Ad_Vcc*%
X78892400Y-66548000D03*
%TO.N,Net-(CN13-Pad3)*%
X77986600Y-117297200D03*
%TO.N,/A_Ad_GPIO18{slash}SPI_SCK*%
X83015800Y-77571600D03*
%TO.N,/A_Ad_GPIO21*%
X80729800Y-73964800D03*
%TO.N,/A_Ad_GPIO22*%
X79764600Y-75996800D03*
%TO.N,/A_Ad_GPIO23{slash}SPI_MOSI*%
X81847400Y-74066400D03*
%TO.N,/A_Ad_GND*%
X90026200Y-65125600D03*
%TO.N,/AD_C_GPIO27*%
X79713800Y-96875600D03*
%TO.N,/AD_C_GPIO14*%
X81187000Y-95351600D03*
%TO.N,/AD_DE_Vcc_1*%
X79510600Y-117703600D03*
%TD*%
D15*
%TO.N,/A_Ad_GPIO5*%
X87579200Y-80162400D02*
X85801200Y-80162400D01*
X88290400Y-79451200D02*
X87579200Y-80162400D01*
X88493600Y-68478400D02*
X88290400Y-68681600D01*
X88290400Y-68681600D02*
X88290400Y-79451200D01*
X79146400Y-80162400D02*
X85801200Y-80162400D01*
%TO.N,Net-(CN1-Pad4)*%
X86309200Y-154635200D02*
X85684600Y-155259800D01*
X86309200Y-152349200D02*
X86309200Y-154635200D01*
X88483600Y-150174800D02*
X86309200Y-152349200D01*
X89991800Y-150174800D02*
X88483600Y-150174800D01*
X85684600Y-155259800D02*
X83591000Y-155259800D01*
%TO.N,/AD_DE_Vcc_3*%
X83591000Y-150179800D02*
X84109800Y-150179800D01*
X84109800Y-150179800D02*
X86654800Y-147634800D01*
X86654800Y-147634800D02*
X89991800Y-147634800D01*
X82878800Y-150892000D02*
X83591000Y-150179800D01*
X75906800Y-150892000D02*
X82878800Y-150892000D01*
%TO.N,/A_Ad_Vcc*%
X78181200Y-67259200D02*
X78892400Y-66548000D01*
X78181200Y-72694800D02*
X78181200Y-67259200D01*
X78079600Y-79502000D02*
X78181200Y-79400400D01*
X77626200Y-79955400D02*
X78079600Y-79502000D01*
X78181200Y-79400400D02*
X78181200Y-72694800D01*
X76085000Y-79955400D02*
X77626200Y-79955400D01*
%TO.N,Net-(CN12-Pad4)*%
X87696200Y-135153400D02*
X90221200Y-132628400D01*
X76288200Y-137137400D02*
X81252200Y-137137400D01*
X83236200Y-135153400D02*
X87696200Y-135153400D01*
X81252200Y-137137400D02*
X83236200Y-135153400D01*
%TO.N,Net-(CN13-Pad4)*%
X83159200Y-112410000D02*
X87696200Y-112410000D01*
X75997200Y-119230400D02*
X74992200Y-119230400D01*
X73973400Y-118211600D02*
X73973400Y-112623600D01*
X82560000Y-111810800D02*
X83159200Y-112410000D01*
X74786200Y-111810800D02*
X82560000Y-111810800D01*
X87696200Y-112410000D02*
X90246600Y-114960400D01*
X74992200Y-119230400D02*
X73973400Y-118211600D01*
X73973400Y-112623600D02*
X74786200Y-111810800D01*
%TO.N,Net-(CN13-Pad3)*%
X83159200Y-114950000D02*
X87696200Y-114950000D01*
X77986600Y-117297200D02*
X80333800Y-114950000D01*
X80333800Y-114950000D02*
X83159200Y-114950000D01*
X87696200Y-114950000D02*
X90246600Y-117500400D01*
%TO.N,/A_Ad_GPIO18{slash}SPI_SCK*%
X85750400Y-77571600D02*
X85801200Y-77622400D01*
X83015800Y-77571600D02*
X85750400Y-77571600D01*
%TO.N,/A_Ad_GPIO21*%
X82099287Y-72542400D02*
X85801200Y-72542400D01*
X80729800Y-73911887D02*
X82099287Y-72542400D01*
X80729800Y-73964800D02*
X80729800Y-73911887D01*
%TO.N,/A_Ad_GPIO22*%
X83367173Y-70002400D02*
X85801200Y-70002400D01*
X79764600Y-75996800D02*
X79764600Y-73604973D01*
X79764600Y-73604973D02*
X83367173Y-70002400D01*
%TO.N,/A_Ad_GPIO23{slash}SPI_MOSI*%
X81847400Y-74066400D02*
X84785200Y-74066400D01*
X84785200Y-74066400D02*
X85801200Y-75082400D01*
%TO.N,/A_Ad_Vcc*%
X85801200Y-62382400D02*
X92736200Y-62382400D01*
X92736200Y-62382400D02*
X95301200Y-64947400D01*
%TO.N,/A_Ad_GND*%
X73770200Y-80772000D02*
X73770200Y-66395600D01*
X74953600Y-81955400D02*
X73770200Y-80772000D01*
X75243400Y-64922400D02*
X85801200Y-64922400D01*
X90026200Y-72372400D02*
X95301200Y-77647400D01*
X90026200Y-65125600D02*
X90026200Y-72372400D01*
X73770200Y-66395600D02*
X75243400Y-64922400D01*
X76085000Y-81955400D02*
X74953600Y-81955400D01*
%TO.N,/AD_C_GPIO27*%
X79713800Y-96875600D02*
X79713800Y-92811600D01*
X79713800Y-92811600D02*
X81030000Y-91495400D01*
X81030000Y-91495400D02*
X85191200Y-91495400D01*
%TO.N,/AD_C_GPIO14*%
X83875000Y-95351600D02*
X85191200Y-94035400D01*
X81187000Y-95351600D02*
X83875000Y-95351600D01*
%TO.N,/AD_C_Vcc*%
X76161200Y-99180400D02*
X78615000Y-99180400D01*
X78615000Y-99180400D02*
X81090000Y-101655400D01*
X81090000Y-101655400D02*
X85191200Y-101655400D01*
X88192800Y-101655400D02*
X90732800Y-99115400D01*
X90732800Y-99115400D02*
X94056200Y-99115400D01*
X85191200Y-101655400D02*
X88192800Y-101655400D01*
%TO.N,/AD_DE_Vcc_1*%
X87696200Y-117490000D02*
X90246600Y-120040400D01*
X83159200Y-117490000D02*
X87696200Y-117490000D01*
X79510600Y-117703600D02*
X82945600Y-117703600D01*
X82945600Y-117703600D02*
X83159200Y-117490000D01*
%TD*%
%TA.AperFunction,Conductor*%
%TO.N,/AD_C_GND*%
G36*
X96005321Y-87548402D02*
G01*
X96051814Y-87602058D01*
X96063200Y-87654400D01*
X96063200Y-103531400D01*
X96043198Y-103599521D01*
X95989542Y-103646014D01*
X95937200Y-103657400D01*
X69900200Y-103657400D01*
X69832079Y-103637398D01*
X69785586Y-103583742D01*
X69774200Y-103531400D01*
X69774200Y-101447799D01*
X74810912Y-101447799D01*
X74832394Y-101536937D01*
X74836283Y-101548232D01*
X74918829Y-101729782D01*
X74924776Y-101740124D01*
X75040168Y-101902797D01*
X75047961Y-101911825D01*
X75192031Y-102049742D01*
X75201396Y-102057138D01*
X75368941Y-102165321D01*
X75379545Y-102170817D01*
X75564512Y-102245361D01*
X75575970Y-102248755D01*
X75773128Y-102287257D01*
X75781991Y-102288334D01*
X75784700Y-102288400D01*
X75889085Y-102288400D01*
X75904324Y-102283925D01*
X75905529Y-102282535D01*
X75907200Y-102274852D01*
X75907200Y-102270285D01*
X76415200Y-102270285D01*
X76419675Y-102285524D01*
X76421065Y-102286729D01*
X76428748Y-102288400D01*
X76486032Y-102288400D01*
X76492008Y-102288115D01*
X76640694Y-102273929D01*
X76652428Y-102271670D01*
X76843799Y-102215528D01*
X76854875Y-102211098D01*
X77032178Y-102119781D01*
X77042224Y-102113331D01*
X77199057Y-101990138D01*
X77207706Y-101981901D01*
X77338412Y-101831277D01*
X77345347Y-101821553D01*
X77445210Y-101648933D01*
X77450184Y-101638069D01*
X77515607Y-101449673D01*
X77515848Y-101448684D01*
X77514380Y-101438392D01*
X77500815Y-101434400D01*
X76433315Y-101434400D01*
X76418076Y-101438875D01*
X76416871Y-101440265D01*
X76415200Y-101447948D01*
X76415200Y-102270285D01*
X75907200Y-102270285D01*
X75907200Y-101452515D01*
X75902725Y-101437276D01*
X75901335Y-101436071D01*
X75893652Y-101434400D01*
X74825798Y-101434400D01*
X74812267Y-101438373D01*
X74810912Y-101447799D01*
X69774200Y-101447799D01*
X69774200Y-99126004D01*
X74773987Y-99126004D01*
X74783767Y-99337299D01*
X74785171Y-99343124D01*
X74785171Y-99343125D01*
X74829648Y-99527675D01*
X74833325Y-99542934D01*
X74920874Y-99735487D01*
X75043254Y-99908011D01*
X75196050Y-100054281D01*
X75201081Y-100057530D01*
X75201088Y-100057535D01*
X75228807Y-100075433D01*
X75275184Y-100129189D01*
X75285137Y-100199485D01*
X75255504Y-100264002D01*
X75238291Y-100280370D01*
X75123343Y-100370662D01*
X75114694Y-100378899D01*
X74983988Y-100529523D01*
X74977053Y-100539247D01*
X74877190Y-100711867D01*
X74872216Y-100722731D01*
X74806793Y-100911127D01*
X74806552Y-100912116D01*
X74808020Y-100922408D01*
X74821585Y-100926400D01*
X77496602Y-100926400D01*
X77510133Y-100922427D01*
X77511488Y-100913001D01*
X77490006Y-100823863D01*
X77486117Y-100812568D01*
X77403571Y-100631018D01*
X77397624Y-100620676D01*
X77282232Y-100458003D01*
X77274439Y-100448975D01*
X77126039Y-100306913D01*
X77127711Y-100305166D01*
X77092757Y-100255870D01*
X77089522Y-100184947D01*
X77125144Y-100123534D01*
X77188314Y-100091129D01*
X77211910Y-100088900D01*
X78186497Y-100088900D01*
X78254618Y-100108902D01*
X78275592Y-100125805D01*
X80390019Y-102240232D01*
X80402860Y-102255265D01*
X80411134Y-102266653D01*
X80416043Y-102271073D01*
X80461959Y-102312416D01*
X80466744Y-102316957D01*
X80481259Y-102331472D01*
X80483823Y-102333548D01*
X80497216Y-102344394D01*
X80502231Y-102348678D01*
X80548145Y-102390019D01*
X80548150Y-102390023D01*
X80553056Y-102394440D01*
X80558772Y-102397740D01*
X80558776Y-102397743D01*
X80565237Y-102401473D01*
X80581533Y-102412673D01*
X80592470Y-102421529D01*
X80598348Y-102424524D01*
X80598351Y-102424526D01*
X80653426Y-102452588D01*
X80659223Y-102455736D01*
X80712721Y-102486623D01*
X80718444Y-102489927D01*
X80731826Y-102494275D01*
X80750085Y-102501838D01*
X80762630Y-102508230D01*
X80769000Y-102509937D01*
X80769003Y-102509938D01*
X80808074Y-102520407D01*
X80828712Y-102525937D01*
X80835025Y-102527807D01*
X80900072Y-102548942D01*
X80914075Y-102550414D01*
X80933504Y-102554015D01*
X80947097Y-102557657D01*
X80953694Y-102558003D01*
X80953696Y-102558003D01*
X81015384Y-102561236D01*
X81021958Y-102561753D01*
X81039116Y-102563556D01*
X81039118Y-102563556D01*
X81042390Y-102563900D01*
X81062926Y-102563900D01*
X81069520Y-102564073D01*
X81131218Y-102567307D01*
X81131223Y-102567307D01*
X81137810Y-102567652D01*
X81144326Y-102566620D01*
X81144327Y-102566620D01*
X81151707Y-102565451D01*
X81171417Y-102563900D01*
X84123211Y-102563900D01*
X84191332Y-102583902D01*
X84218448Y-102607402D01*
X84234064Y-102625430D01*
X84234069Y-102625435D01*
X84237450Y-102629338D01*
X84409326Y-102772032D01*
X84602200Y-102884738D01*
X84810892Y-102964430D01*
X84815960Y-102965461D01*
X84815963Y-102965462D01*
X84911062Y-102984810D01*
X85029797Y-103008967D01*
X85034972Y-103009157D01*
X85034974Y-103009157D01*
X85247873Y-103016964D01*
X85247877Y-103016964D01*
X85253037Y-103017153D01*
X85258157Y-103016497D01*
X85258159Y-103016497D01*
X85469488Y-102989425D01*
X85469489Y-102989425D01*
X85474616Y-102988768D01*
X85479566Y-102987283D01*
X85683629Y-102926061D01*
X85683634Y-102926059D01*
X85688584Y-102924574D01*
X85889194Y-102826296D01*
X86071060Y-102696573D01*
X86167320Y-102600648D01*
X86229690Y-102566733D01*
X86256259Y-102563900D01*
X88111383Y-102563900D01*
X88131092Y-102565451D01*
X88144990Y-102567652D01*
X88151577Y-102567307D01*
X88151582Y-102567307D01*
X88213280Y-102564073D01*
X88219874Y-102563900D01*
X88240410Y-102563900D01*
X88243682Y-102563556D01*
X88243684Y-102563556D01*
X88260842Y-102561753D01*
X88267416Y-102561236D01*
X88329108Y-102558003D01*
X88329112Y-102558002D01*
X88335703Y-102557657D01*
X88342084Y-102555947D01*
X88342086Y-102555947D01*
X88349291Y-102554017D01*
X88368725Y-102550415D01*
X88376154Y-102549634D01*
X88376163Y-102549632D01*
X88382728Y-102548942D01*
X88447797Y-102527800D01*
X88454099Y-102525933D01*
X88520170Y-102508229D01*
X88532708Y-102501840D01*
X88550974Y-102494275D01*
X88558072Y-102491969D01*
X88558074Y-102491968D01*
X88564356Y-102489927D01*
X88623585Y-102455731D01*
X88629379Y-102452585D01*
X88690330Y-102421529D01*
X88701267Y-102412673D01*
X88717563Y-102401473D01*
X88724024Y-102397743D01*
X88724028Y-102397740D01*
X88729744Y-102394440D01*
X88734650Y-102390023D01*
X88734655Y-102390019D01*
X88780569Y-102348678D01*
X88785584Y-102344394D01*
X88798977Y-102333548D01*
X88801541Y-102331472D01*
X88816056Y-102316957D01*
X88820841Y-102312416D01*
X88866757Y-102271073D01*
X88871666Y-102266653D01*
X88879940Y-102255265D01*
X88892781Y-102240232D01*
X89209647Y-101923366D01*
X92724457Y-101923366D01*
X92754765Y-102057846D01*
X92757845Y-102067675D01*
X92837970Y-102265003D01*
X92842613Y-102274194D01*
X92953894Y-102455788D01*
X92959977Y-102464099D01*
X93099413Y-102625067D01*
X93106780Y-102632283D01*
X93270634Y-102768316D01*
X93279081Y-102774231D01*
X93462956Y-102881679D01*
X93472242Y-102886129D01*
X93671201Y-102962103D01*
X93681099Y-102964979D01*
X93784450Y-102986006D01*
X93798499Y-102984810D01*
X93802200Y-102974465D01*
X93802200Y-102973917D01*
X94310200Y-102973917D01*
X94314264Y-102987759D01*
X94327678Y-102989793D01*
X94334384Y-102988934D01*
X94344462Y-102986792D01*
X94548455Y-102925591D01*
X94558042Y-102921833D01*
X94749295Y-102828139D01*
X94758145Y-102822864D01*
X94931528Y-102699192D01*
X94939400Y-102692539D01*
X95090252Y-102542212D01*
X95096930Y-102534365D01*
X95221203Y-102361420D01*
X95226513Y-102352583D01*
X95320870Y-102161667D01*
X95324669Y-102152072D01*
X95386577Y-101948310D01*
X95388755Y-101938237D01*
X95390186Y-101927362D01*
X95387975Y-101913178D01*
X95374817Y-101909400D01*
X94328315Y-101909400D01*
X94313076Y-101913875D01*
X94311871Y-101915265D01*
X94310200Y-101922948D01*
X94310200Y-102973917D01*
X93802200Y-102973917D01*
X93802200Y-101927515D01*
X93797725Y-101912276D01*
X93796335Y-101911071D01*
X93788652Y-101909400D01*
X92739425Y-101909400D01*
X92725894Y-101913373D01*
X92724457Y-101923366D01*
X89209647Y-101923366D01*
X91072208Y-100060805D01*
X91134520Y-100026779D01*
X91161303Y-100023900D01*
X92988211Y-100023900D01*
X93056332Y-100043902D01*
X93083448Y-100067402D01*
X93099064Y-100085430D01*
X93099069Y-100085435D01*
X93102450Y-100089338D01*
X93274326Y-100232032D01*
X93315120Y-100255870D01*
X93348155Y-100275174D01*
X93396879Y-100326812D01*
X93409950Y-100396595D01*
X93383219Y-100462367D01*
X93342762Y-100495727D01*
X93334657Y-100499946D01*
X93325938Y-100505436D01*
X93155633Y-100633305D01*
X93147926Y-100640148D01*
X93000790Y-100794117D01*
X92994304Y-100802127D01*
X92874298Y-100978049D01*
X92869200Y-100987023D01*
X92779538Y-101180183D01*
X92775975Y-101189870D01*
X92720589Y-101389583D01*
X92722112Y-101398007D01*
X92734492Y-101401400D01*
X95374544Y-101401400D01*
X95388075Y-101397427D01*
X95389380Y-101388347D01*
X95347414Y-101221275D01*
X95344094Y-101211524D01*
X95259172Y-101016214D01*
X95254305Y-101007139D01*
X95138626Y-100828326D01*
X95132336Y-100820157D01*
X94989006Y-100662640D01*
X94981473Y-100655615D01*
X94814339Y-100523622D01*
X94805756Y-100517920D01*
X94768802Y-100497520D01*
X94718831Y-100447087D01*
X94704059Y-100377645D01*
X94729175Y-100311239D01*
X94756527Y-100284632D01*
X94807763Y-100248086D01*
X94936060Y-100156573D01*
X95094296Y-99998889D01*
X95224653Y-99817477D01*
X95262760Y-99740374D01*
X95321336Y-99621853D01*
X95321337Y-99621851D01*
X95323630Y-99617211D01*
X95388570Y-99403469D01*
X95417729Y-99181990D01*
X95417811Y-99178640D01*
X95419274Y-99118765D01*
X95419274Y-99118761D01*
X95419356Y-99115400D01*
X95401052Y-98892761D01*
X95346631Y-98676102D01*
X95257554Y-98471240D01*
X95199642Y-98381721D01*
X95139022Y-98288017D01*
X95139020Y-98288014D01*
X95136214Y-98283677D01*
X94985870Y-98118451D01*
X94981819Y-98115252D01*
X94981815Y-98115248D01*
X94814614Y-97983200D01*
X94814610Y-97983198D01*
X94810559Y-97979998D01*
X94769253Y-97957196D01*
X94719284Y-97906764D01*
X94704512Y-97837321D01*
X94729628Y-97770916D01*
X94756980Y-97744309D01*
X94800803Y-97713050D01*
X94936060Y-97616573D01*
X95094296Y-97458889D01*
X95153794Y-97376089D01*
X95221635Y-97281677D01*
X95224653Y-97277477D01*
X95239639Y-97247156D01*
X95321336Y-97081853D01*
X95321337Y-97081851D01*
X95323630Y-97077211D01*
X95388570Y-96863469D01*
X95417729Y-96641990D01*
X95418003Y-96630768D01*
X95419274Y-96578765D01*
X95419274Y-96578761D01*
X95419356Y-96575400D01*
X95401052Y-96352761D01*
X95346631Y-96136102D01*
X95257554Y-95931240D01*
X95190142Y-95827037D01*
X95139022Y-95748017D01*
X95139020Y-95748014D01*
X95136214Y-95743677D01*
X94985870Y-95578451D01*
X94981819Y-95575252D01*
X94981815Y-95575248D01*
X94814614Y-95443200D01*
X94814610Y-95443198D01*
X94810559Y-95439998D01*
X94769253Y-95417196D01*
X94719284Y-95366764D01*
X94704512Y-95297321D01*
X94729628Y-95230916D01*
X94756980Y-95204309D01*
X94800803Y-95173050D01*
X94936060Y-95076573D01*
X95094296Y-94918889D01*
X95153794Y-94836089D01*
X95221635Y-94741677D01*
X95224653Y-94737477D01*
X95234846Y-94716854D01*
X95321336Y-94541853D01*
X95321337Y-94541851D01*
X95323630Y-94537211D01*
X95374341Y-94370301D01*
X95387065Y-94328423D01*
X95387065Y-94328421D01*
X95388570Y-94323469D01*
X95417729Y-94101990D01*
X95419356Y-94035400D01*
X95401052Y-93812761D01*
X95346631Y-93596102D01*
X95257554Y-93391240D01*
X95136214Y-93203677D01*
X95121870Y-93187913D01*
X94988998Y-93041888D01*
X94957946Y-92978042D01*
X94966341Y-92907543D01*
X95011517Y-92852775D01*
X95037961Y-92839106D01*
X95144497Y-92799167D01*
X95152905Y-92796015D01*
X95269461Y-92708661D01*
X95356815Y-92592105D01*
X95407945Y-92455716D01*
X95414700Y-92393534D01*
X95414700Y-90597266D01*
X95407945Y-90535084D01*
X95356815Y-90398695D01*
X95269461Y-90282139D01*
X95152905Y-90194785D01*
X95016516Y-90143655D01*
X94954334Y-90136900D01*
X93158066Y-90136900D01*
X93095884Y-90143655D01*
X92959495Y-90194785D01*
X92842939Y-90282139D01*
X92755585Y-90398695D01*
X92704455Y-90535084D01*
X92697700Y-90597266D01*
X92697700Y-92393534D01*
X92704455Y-92455716D01*
X92755585Y-92592105D01*
X92842939Y-92708661D01*
X92959495Y-92796015D01*
X92967904Y-92799167D01*
X92967905Y-92799168D01*
X93076651Y-92839935D01*
X93133416Y-92882576D01*
X93158116Y-92949138D01*
X93142909Y-93018487D01*
X93123516Y-93044968D01*
X92996829Y-93177538D01*
X92870943Y-93362080D01*
X92776888Y-93564705D01*
X92717189Y-93779970D01*
X92693451Y-94002095D01*
X92693748Y-94007248D01*
X92693748Y-94007251D01*
X92702753Y-94163432D01*
X92706310Y-94225115D01*
X92707447Y-94230161D01*
X92707448Y-94230167D01*
X92710857Y-94245293D01*
X92755422Y-94443039D01*
X92839466Y-94650016D01*
X92842165Y-94654420D01*
X92945899Y-94823699D01*
X92956187Y-94840488D01*
X93102450Y-95009338D01*
X93274326Y-95152032D01*
X93344795Y-95193211D01*
X93347645Y-95194876D01*
X93396369Y-95246514D01*
X93409440Y-95316297D01*
X93382709Y-95382069D01*
X93342255Y-95415427D01*
X93329807Y-95421907D01*
X93325674Y-95425010D01*
X93325671Y-95425012D01*
X93161339Y-95548396D01*
X93151165Y-95556035D01*
X92996829Y-95717538D01*
X92870943Y-95902080D01*
X92855203Y-95935990D01*
X92780425Y-96097086D01*
X92776888Y-96104705D01*
X92717189Y-96319970D01*
X92693451Y-96542095D01*
X92693748Y-96547248D01*
X92693748Y-96547251D01*
X92699211Y-96641990D01*
X92706310Y-96765115D01*
X92707447Y-96770161D01*
X92707448Y-96770167D01*
X92721959Y-96834555D01*
X92755422Y-96983039D01*
X92839466Y-97190016D01*
X92956187Y-97380488D01*
X93102450Y-97549338D01*
X93274326Y-97692032D01*
X93344795Y-97733211D01*
X93347645Y-97734876D01*
X93396369Y-97786514D01*
X93409440Y-97856297D01*
X93382709Y-97922069D01*
X93342255Y-97955427D01*
X93329807Y-97961907D01*
X93325674Y-97965010D01*
X93325671Y-97965012D01*
X93155300Y-98092930D01*
X93151165Y-98096035D01*
X93126095Y-98122270D01*
X93082441Y-98167951D01*
X93020917Y-98203381D01*
X92991347Y-98206900D01*
X90814216Y-98206900D01*
X90794507Y-98205349D01*
X90780609Y-98203148D01*
X90774022Y-98203493D01*
X90774017Y-98203493D01*
X90712319Y-98206727D01*
X90705725Y-98206900D01*
X90685190Y-98206900D01*
X90679022Y-98207548D01*
X90664760Y-98209047D01*
X90658185Y-98209564D01*
X90596496Y-98212797D01*
X90596495Y-98212797D01*
X90589896Y-98213143D01*
X90576308Y-98216784D01*
X90556861Y-98220388D01*
X90549444Y-98221167D01*
X90549440Y-98221168D01*
X90542872Y-98221858D01*
X90486076Y-98240312D01*
X90477809Y-98242998D01*
X90471485Y-98244871D01*
X90411810Y-98260861D01*
X90411806Y-98260862D01*
X90405430Y-98262571D01*
X90393808Y-98268493D01*
X90392893Y-98268959D01*
X90374626Y-98276525D01*
X90367528Y-98278831D01*
X90367526Y-98278832D01*
X90361244Y-98280873D01*
X90355522Y-98284177D01*
X90355521Y-98284177D01*
X90302023Y-98315064D01*
X90296226Y-98318212D01*
X90241152Y-98346273D01*
X90241149Y-98346275D01*
X90235269Y-98349271D01*
X90224326Y-98358133D01*
X90208037Y-98369327D01*
X90195856Y-98376360D01*
X90190950Y-98380777D01*
X90190945Y-98380781D01*
X90145021Y-98422131D01*
X90140020Y-98426403D01*
X90124059Y-98439328D01*
X90109544Y-98453843D01*
X90104759Y-98458384D01*
X90053934Y-98504147D01*
X90050055Y-98509486D01*
X90050054Y-98509487D01*
X90045660Y-98515535D01*
X90032819Y-98530568D01*
X87853392Y-100709995D01*
X87791080Y-100744021D01*
X87764297Y-100746900D01*
X86257056Y-100746900D01*
X86188935Y-100726898D01*
X86163862Y-100705699D01*
X86124348Y-100662273D01*
X86124346Y-100662271D01*
X86120870Y-100658451D01*
X86057800Y-100608641D01*
X85949614Y-100523200D01*
X85949610Y-100523198D01*
X85945559Y-100519998D01*
X85903769Y-100496929D01*
X85853798Y-100446497D01*
X85839026Y-100377054D01*
X85864142Y-100310648D01*
X85891494Y-100284041D01*
X86066528Y-100159192D01*
X86074400Y-100152539D01*
X86225252Y-100002212D01*
X86231930Y-99994365D01*
X86356203Y-99821420D01*
X86361513Y-99812583D01*
X86455870Y-99621667D01*
X86459669Y-99612072D01*
X86521577Y-99408310D01*
X86523755Y-99398237D01*
X86525186Y-99387362D01*
X86522975Y-99373178D01*
X86509817Y-99369400D01*
X83874425Y-99369400D01*
X83860894Y-99373373D01*
X83859457Y-99383366D01*
X83889765Y-99517846D01*
X83892845Y-99527675D01*
X83972970Y-99725003D01*
X83977613Y-99734194D01*
X84088894Y-99915788D01*
X84094977Y-99924099D01*
X84234413Y-100085067D01*
X84241780Y-100092283D01*
X84405634Y-100228316D01*
X84414081Y-100234231D01*
X84483169Y-100274603D01*
X84531893Y-100326242D01*
X84544964Y-100396025D01*
X84518233Y-100461796D01*
X84477784Y-100495152D01*
X84464807Y-100501907D01*
X84460674Y-100505010D01*
X84460671Y-100505012D01*
X84306621Y-100620676D01*
X84286165Y-100636035D01*
X84261092Y-100662273D01*
X84217441Y-100707951D01*
X84155917Y-100743381D01*
X84126347Y-100746900D01*
X81518503Y-100746900D01*
X81450382Y-100726898D01*
X81429408Y-100709995D01*
X79314981Y-98595568D01*
X79302140Y-98580535D01*
X79297746Y-98574487D01*
X79297745Y-98574486D01*
X79293866Y-98569147D01*
X79243041Y-98523384D01*
X79238256Y-98518843D01*
X79223741Y-98504328D01*
X79216282Y-98498288D01*
X79207784Y-98491406D01*
X79202769Y-98487122D01*
X79156855Y-98445781D01*
X79156850Y-98445777D01*
X79151944Y-98441360D01*
X79146228Y-98438060D01*
X79146224Y-98438057D01*
X79139763Y-98434327D01*
X79123466Y-98423127D01*
X79117660Y-98418425D01*
X79117658Y-98418424D01*
X79112530Y-98414271D01*
X79051577Y-98383214D01*
X79045782Y-98380067D01*
X78992279Y-98349177D01*
X78992278Y-98349176D01*
X78986556Y-98345873D01*
X78980274Y-98343832D01*
X78980272Y-98343831D01*
X78973174Y-98341525D01*
X78954907Y-98333959D01*
X78942370Y-98327571D01*
X78876299Y-98309867D01*
X78869997Y-98308000D01*
X78804928Y-98286858D01*
X78798363Y-98286168D01*
X78798354Y-98286166D01*
X78790925Y-98285385D01*
X78771491Y-98281783D01*
X78764286Y-98279853D01*
X78764284Y-98279853D01*
X78757903Y-98278143D01*
X78751312Y-98277798D01*
X78751308Y-98277797D01*
X78689616Y-98274564D01*
X78683042Y-98274047D01*
X78665884Y-98272244D01*
X78665882Y-98272244D01*
X78662610Y-98271900D01*
X78642074Y-98271900D01*
X78635480Y-98271727D01*
X78573782Y-98268493D01*
X78573777Y-98268493D01*
X78567190Y-98268148D01*
X78553292Y-98270349D01*
X78533583Y-98271900D01*
X77205547Y-98271900D01*
X77137426Y-98251898D01*
X77090933Y-98198242D01*
X77080829Y-98127968D01*
X77110323Y-98063388D01*
X77127714Y-98046814D01*
X77199402Y-97990502D01*
X77204120Y-97986796D01*
X77208052Y-97982265D01*
X77208055Y-97982262D01*
X77338821Y-97831567D01*
X77342752Y-97827037D01*
X77345752Y-97821851D01*
X77345755Y-97821847D01*
X77445667Y-97649142D01*
X77448673Y-97643946D01*
X77518061Y-97444129D01*
X77527289Y-97380488D01*
X77547552Y-97240736D01*
X77547552Y-97240733D01*
X77548413Y-97234796D01*
X77538633Y-97023501D01*
X77502989Y-96875600D01*
X78800296Y-96875600D01*
X78805300Y-96923210D01*
X78820258Y-97065528D01*
X78822298Y-97071805D01*
X78822298Y-97071807D01*
X78854034Y-97169480D01*
X78879273Y-97247156D01*
X78882576Y-97252878D01*
X78882577Y-97252879D01*
X78896779Y-97277477D01*
X78974760Y-97412544D01*
X78979178Y-97417451D01*
X78979179Y-97417452D01*
X79097930Y-97549338D01*
X79102547Y-97554466D01*
X79257048Y-97666718D01*
X79263076Y-97669402D01*
X79263078Y-97669403D01*
X79399254Y-97730032D01*
X79431512Y-97744394D01*
X79524913Y-97764247D01*
X79611856Y-97782728D01*
X79611861Y-97782728D01*
X79618313Y-97784100D01*
X79809287Y-97784100D01*
X79815739Y-97782728D01*
X79815744Y-97782728D01*
X79902687Y-97764247D01*
X79996088Y-97744394D01*
X80028346Y-97730032D01*
X80164522Y-97669403D01*
X80164524Y-97669402D01*
X80170552Y-97666718D01*
X80325053Y-97554466D01*
X80329670Y-97549338D01*
X80448421Y-97417452D01*
X80448422Y-97417451D01*
X80452840Y-97412544D01*
X80530821Y-97277477D01*
X80545023Y-97252879D01*
X80545024Y-97252878D01*
X80548327Y-97247156D01*
X80607342Y-97065528D01*
X80622300Y-96923210D01*
X80627304Y-96875600D01*
X80622990Y-96834555D01*
X80622300Y-96821384D01*
X80622300Y-96292853D01*
X80642302Y-96224732D01*
X80695958Y-96178239D01*
X80766232Y-96168135D01*
X80803323Y-96180975D01*
X80803695Y-96180140D01*
X80809722Y-96182824D01*
X80815444Y-96186127D01*
X80821727Y-96188168D01*
X80821728Y-96188169D01*
X80854696Y-96198881D01*
X80866994Y-96203601D01*
X80904712Y-96220394D01*
X80911165Y-96221766D01*
X80911169Y-96221767D01*
X80945080Y-96228975D01*
X80957817Y-96232388D01*
X80990791Y-96243102D01*
X80990798Y-96243103D01*
X80997072Y-96245142D01*
X81003633Y-96245832D01*
X81003635Y-96245832D01*
X81017690Y-96247309D01*
X81038128Y-96249457D01*
X81051136Y-96251518D01*
X81091513Y-96260100D01*
X83718404Y-96260100D01*
X83786525Y-96280102D01*
X83833018Y-96333758D01*
X83843691Y-96399489D01*
X83828451Y-96542095D01*
X83828748Y-96547248D01*
X83828748Y-96547251D01*
X83834211Y-96641990D01*
X83841310Y-96765115D01*
X83842447Y-96770161D01*
X83842448Y-96770167D01*
X83856959Y-96834555D01*
X83890422Y-96983039D01*
X83974466Y-97190016D01*
X84091187Y-97380488D01*
X84237450Y-97549338D01*
X84409326Y-97692032D01*
X84482645Y-97734876D01*
X84483155Y-97735174D01*
X84531879Y-97786812D01*
X84544950Y-97856595D01*
X84518219Y-97922367D01*
X84477762Y-97955727D01*
X84469657Y-97959946D01*
X84460938Y-97965436D01*
X84290633Y-98093305D01*
X84282926Y-98100148D01*
X84135790Y-98254117D01*
X84129304Y-98262127D01*
X84009298Y-98438049D01*
X84004200Y-98447023D01*
X83914538Y-98640183D01*
X83910975Y-98649870D01*
X83855589Y-98849583D01*
X83857112Y-98858007D01*
X83869492Y-98861400D01*
X86509544Y-98861400D01*
X86523075Y-98857427D01*
X86524380Y-98848347D01*
X86482414Y-98681275D01*
X86479094Y-98671524D01*
X86394172Y-98476214D01*
X86389305Y-98467139D01*
X86273626Y-98288326D01*
X86267336Y-98280157D01*
X86124006Y-98122640D01*
X86116473Y-98115615D01*
X85949339Y-97983622D01*
X85940756Y-97977920D01*
X85903802Y-97957520D01*
X85853831Y-97907087D01*
X85839059Y-97837645D01*
X85864175Y-97771239D01*
X85891527Y-97744632D01*
X85914997Y-97727891D01*
X86071060Y-97616573D01*
X86229296Y-97458889D01*
X86288794Y-97376089D01*
X86356635Y-97281677D01*
X86359653Y-97277477D01*
X86374639Y-97247156D01*
X86456336Y-97081853D01*
X86456337Y-97081851D01*
X86458630Y-97077211D01*
X86523570Y-96863469D01*
X86552729Y-96641990D01*
X86553003Y-96630768D01*
X86554274Y-96578765D01*
X86554274Y-96578761D01*
X86554356Y-96575400D01*
X86536052Y-96352761D01*
X86481631Y-96136102D01*
X86392554Y-95931240D01*
X86325142Y-95827037D01*
X86274022Y-95748017D01*
X86274020Y-95748014D01*
X86271214Y-95743677D01*
X86120870Y-95578451D01*
X86116819Y-95575252D01*
X86116815Y-95575248D01*
X85949614Y-95443200D01*
X85949610Y-95443198D01*
X85945559Y-95439998D01*
X85904253Y-95417196D01*
X85854284Y-95366764D01*
X85839512Y-95297321D01*
X85864628Y-95230916D01*
X85891980Y-95204309D01*
X85935803Y-95173050D01*
X86071060Y-95076573D01*
X86229296Y-94918889D01*
X86288794Y-94836089D01*
X86356635Y-94741677D01*
X86359653Y-94737477D01*
X86369846Y-94716854D01*
X86456336Y-94541853D01*
X86456337Y-94541851D01*
X86458630Y-94537211D01*
X86509341Y-94370301D01*
X86522065Y-94328423D01*
X86522065Y-94328421D01*
X86523570Y-94323469D01*
X86552729Y-94101990D01*
X86554356Y-94035400D01*
X86536052Y-93812761D01*
X86481631Y-93596102D01*
X86392554Y-93391240D01*
X86271214Y-93203677D01*
X86256870Y-93187913D01*
X86123998Y-93041888D01*
X86092946Y-92978042D01*
X86101341Y-92907543D01*
X86146517Y-92852775D01*
X86172961Y-92839106D01*
X86279497Y-92799167D01*
X86287905Y-92796015D01*
X86404461Y-92708661D01*
X86491815Y-92592105D01*
X86542945Y-92455716D01*
X86549700Y-92393534D01*
X86549700Y-90597266D01*
X86542945Y-90535084D01*
X86491815Y-90398695D01*
X86404461Y-90282139D01*
X86287905Y-90194785D01*
X86151516Y-90143655D01*
X86089334Y-90136900D01*
X84293066Y-90136900D01*
X84230884Y-90143655D01*
X84094495Y-90194785D01*
X83977939Y-90282139D01*
X83890585Y-90398695D01*
X83887433Y-90407103D01*
X83850684Y-90505130D01*
X83808042Y-90561894D01*
X83741481Y-90586594D01*
X83732702Y-90586900D01*
X81111417Y-90586900D01*
X81091708Y-90585349D01*
X81077810Y-90583148D01*
X81071223Y-90583493D01*
X81071218Y-90583493D01*
X81009520Y-90586727D01*
X81002926Y-90586900D01*
X80982390Y-90586900D01*
X80979118Y-90587244D01*
X80979116Y-90587244D01*
X80961958Y-90589047D01*
X80955384Y-90589564D01*
X80893696Y-90592797D01*
X80893694Y-90592797D01*
X80887097Y-90593143D01*
X80873504Y-90596785D01*
X80854075Y-90600386D01*
X80840072Y-90601858D01*
X80775025Y-90622993D01*
X80768712Y-90624863D01*
X80748074Y-90630393D01*
X80709003Y-90640862D01*
X80709000Y-90640863D01*
X80702630Y-90642570D01*
X80690085Y-90648962D01*
X80671826Y-90656525D01*
X80658444Y-90660873D01*
X80652723Y-90664176D01*
X80599223Y-90695064D01*
X80593426Y-90698212D01*
X80538351Y-90726274D01*
X80538348Y-90726276D01*
X80532470Y-90729271D01*
X80527342Y-90733424D01*
X80527340Y-90733425D01*
X80521534Y-90738127D01*
X80505237Y-90749327D01*
X80498776Y-90753057D01*
X80498772Y-90753060D01*
X80493056Y-90756360D01*
X80488150Y-90760777D01*
X80488145Y-90760781D01*
X80442231Y-90802122D01*
X80437216Y-90806406D01*
X80428718Y-90813288D01*
X80421259Y-90819328D01*
X80406744Y-90833843D01*
X80401959Y-90838384D01*
X80351134Y-90884147D01*
X80347255Y-90889486D01*
X80347254Y-90889487D01*
X80342860Y-90895535D01*
X80330019Y-90910568D01*
X79128968Y-92111619D01*
X79113935Y-92124460D01*
X79102547Y-92132734D01*
X79098127Y-92137643D01*
X79056784Y-92183559D01*
X79052243Y-92188344D01*
X79037728Y-92202859D01*
X79035652Y-92205423D01*
X79024806Y-92218816D01*
X79020522Y-92223831D01*
X78979181Y-92269745D01*
X78979177Y-92269750D01*
X78974760Y-92274656D01*
X78971460Y-92280372D01*
X78971457Y-92280376D01*
X78967727Y-92286837D01*
X78956527Y-92303133D01*
X78947671Y-92314070D01*
X78928916Y-92350879D01*
X78916615Y-92375021D01*
X78913467Y-92380818D01*
X78888593Y-92423902D01*
X78879273Y-92440044D01*
X78877232Y-92446326D01*
X78877231Y-92446328D01*
X78874925Y-92453426D01*
X78867360Y-92471692D01*
X78860971Y-92484230D01*
X78859263Y-92490603D01*
X78859263Y-92490604D01*
X78843269Y-92550295D01*
X78841400Y-92556603D01*
X78820258Y-92621672D01*
X78819568Y-92628237D01*
X78819566Y-92628246D01*
X78818785Y-92635675D01*
X78815183Y-92655109D01*
X78813253Y-92662314D01*
X78811543Y-92668697D01*
X78811198Y-92675288D01*
X78811197Y-92675292D01*
X78807964Y-92736984D01*
X78807447Y-92743558D01*
X78805644Y-92760716D01*
X78805300Y-92763990D01*
X78805300Y-92784526D01*
X78805127Y-92791120D01*
X78801896Y-92852775D01*
X78801548Y-92859410D01*
X78802580Y-92865925D01*
X78803749Y-92873305D01*
X78805300Y-92893017D01*
X78805300Y-96821384D01*
X78804610Y-96834555D01*
X78800296Y-96875600D01*
X77502989Y-96875600D01*
X77489075Y-96817866D01*
X77467388Y-96770167D01*
X77410617Y-96645308D01*
X77401526Y-96625313D01*
X77279146Y-96452789D01*
X77126350Y-96306519D01*
X77120455Y-96302712D01*
X77094037Y-96285654D01*
X77047660Y-96231899D01*
X77037707Y-96161603D01*
X77067339Y-96097086D01*
X77084553Y-96080717D01*
X77091646Y-96075146D01*
X77204120Y-95986796D01*
X77208052Y-95982265D01*
X77208055Y-95982262D01*
X77338821Y-95831567D01*
X77342752Y-95827037D01*
X77345752Y-95821851D01*
X77345755Y-95821847D01*
X77445667Y-95649142D01*
X77448673Y-95643946D01*
X77518061Y-95444129D01*
X77521283Y-95421907D01*
X77547552Y-95240736D01*
X77547552Y-95240733D01*
X77548413Y-95234796D01*
X77538633Y-95023501D01*
X77489075Y-94817866D01*
X77445725Y-94722522D01*
X77404006Y-94630768D01*
X77401526Y-94625313D01*
X77279146Y-94452789D01*
X77274819Y-94448647D01*
X77274814Y-94448641D01*
X77183883Y-94361594D01*
X77148506Y-94300039D01*
X77152025Y-94229130D01*
X77193321Y-94171379D01*
X77204704Y-94163435D01*
X77260548Y-94128878D01*
X77385505Y-94003703D01*
X77478315Y-93853138D01*
X77533997Y-93685261D01*
X77544700Y-93580800D01*
X77544700Y-92780000D01*
X77540237Y-92736984D01*
X77534438Y-92681092D01*
X77534437Y-92681088D01*
X77533726Y-92674234D01*
X77527346Y-92655109D01*
X77480068Y-92513402D01*
X77477750Y-92506454D01*
X77384678Y-92356052D01*
X77259503Y-92231095D01*
X77239583Y-92218816D01*
X77115168Y-92142125D01*
X77115166Y-92142124D01*
X77108938Y-92138285D01*
X76948454Y-92085055D01*
X76947589Y-92084768D01*
X76947587Y-92084768D01*
X76941061Y-92082603D01*
X76934225Y-92081903D01*
X76934222Y-92081902D01*
X76891169Y-92077491D01*
X76836600Y-92071900D01*
X75485800Y-92071900D01*
X75482554Y-92072237D01*
X75482550Y-92072237D01*
X75386892Y-92082162D01*
X75386888Y-92082163D01*
X75380034Y-92082874D01*
X75373498Y-92085055D01*
X75373496Y-92085055D01*
X75255386Y-92124460D01*
X75212254Y-92138850D01*
X75061852Y-92231922D01*
X74936895Y-92357097D01*
X74933055Y-92363327D01*
X74933054Y-92363328D01*
X74862153Y-92478351D01*
X74844085Y-92507662D01*
X74841781Y-92514609D01*
X74792790Y-92662314D01*
X74788403Y-92675539D01*
X74777700Y-92780000D01*
X74777700Y-93580800D01*
X74778037Y-93584046D01*
X74778037Y-93584050D01*
X74779288Y-93596102D01*
X74788674Y-93686566D01*
X74844650Y-93854346D01*
X74937722Y-94004748D01*
X75062897Y-94129705D01*
X75091312Y-94147220D01*
X75114436Y-94161474D01*
X75161929Y-94214246D01*
X75173353Y-94284318D01*
X75145079Y-94349442D01*
X75126155Y-94367818D01*
X75118280Y-94374004D01*
X75114348Y-94378535D01*
X75114345Y-94378538D01*
X75025058Y-94481433D01*
X74979648Y-94533763D01*
X74976648Y-94538949D01*
X74976645Y-94538953D01*
X74929512Y-94620426D01*
X74873727Y-94716854D01*
X74804339Y-94916671D01*
X74803478Y-94922606D01*
X74803478Y-94922608D01*
X74781683Y-95072929D01*
X74773987Y-95126004D01*
X74783767Y-95337299D01*
X74785171Y-95343124D01*
X74785171Y-95343125D01*
X74804158Y-95421907D01*
X74833325Y-95542934D01*
X74835807Y-95548392D01*
X74835808Y-95548396D01*
X74879253Y-95643946D01*
X74920874Y-95735487D01*
X75014531Y-95867520D01*
X75036012Y-95897801D01*
X75043254Y-95908011D01*
X75196050Y-96054281D01*
X75201088Y-96057534D01*
X75228363Y-96075146D01*
X75274740Y-96128901D01*
X75284693Y-96199197D01*
X75255061Y-96263714D01*
X75237849Y-96280081D01*
X75118280Y-96374004D01*
X75114348Y-96378535D01*
X75114345Y-96378538D01*
X75045674Y-96457675D01*
X74979648Y-96533763D01*
X74976648Y-96538949D01*
X74976645Y-96538953D01*
X74929512Y-96620426D01*
X74873727Y-96716854D01*
X74804339Y-96916671D01*
X74803478Y-96922606D01*
X74803478Y-96922608D01*
X74780389Y-97081853D01*
X74773987Y-97126004D01*
X74783767Y-97337299D01*
X74785171Y-97343124D01*
X74785171Y-97343125D01*
X74794176Y-97380488D01*
X74833325Y-97542934D01*
X74835807Y-97548392D01*
X74835808Y-97548396D01*
X74879253Y-97643946D01*
X74920874Y-97735487D01*
X75043254Y-97908011D01*
X75196050Y-98054281D01*
X75201088Y-98057534D01*
X75228363Y-98075146D01*
X75274740Y-98128901D01*
X75284693Y-98199197D01*
X75255061Y-98263714D01*
X75237849Y-98280081D01*
X75118280Y-98374004D01*
X75114348Y-98378535D01*
X75114345Y-98378538D01*
X75009183Y-98499727D01*
X74979648Y-98533763D01*
X74976648Y-98538949D01*
X74976645Y-98538953D01*
X74947952Y-98588551D01*
X74873727Y-98716854D01*
X74804339Y-98916671D01*
X74803478Y-98922606D01*
X74803478Y-98922608D01*
X74775037Y-99118765D01*
X74773987Y-99126004D01*
X69774200Y-99126004D01*
X69774200Y-87654400D01*
X69794202Y-87586279D01*
X69847858Y-87539786D01*
X69900200Y-87528400D01*
X95937200Y-87528400D01*
X96005321Y-87548402D01*
G37*
%TD.AperFunction*%
%TD*%
%TA.AperFunction,Conductor*%
%TO.N,/AD_DE_GND_2*%
G36*
X92068321Y-126029402D02*
G01*
X92114814Y-126083058D01*
X92126200Y-126135400D01*
X92126200Y-139091400D01*
X92106198Y-139159521D01*
X92052542Y-139206014D01*
X92000200Y-139217400D01*
X90772294Y-139217400D01*
X90704173Y-139197398D01*
X90657680Y-139143742D01*
X90647576Y-139073468D01*
X90677070Y-139008888D01*
X90719303Y-138979042D01*
X90718584Y-138977574D01*
X90830518Y-138922738D01*
X90919194Y-138879296D01*
X91101060Y-138749573D01*
X91259296Y-138591889D01*
X91273091Y-138572692D01*
X91386635Y-138414677D01*
X91389653Y-138410477D01*
X91397067Y-138395477D01*
X91486336Y-138214853D01*
X91486337Y-138214851D01*
X91488630Y-138210211D01*
X91537725Y-138048620D01*
X91552065Y-138001423D01*
X91552065Y-138001421D01*
X91553570Y-137996469D01*
X91582729Y-137774990D01*
X91582811Y-137771640D01*
X91584274Y-137711765D01*
X91584274Y-137711761D01*
X91584356Y-137708400D01*
X91566052Y-137485761D01*
X91511631Y-137269102D01*
X91422554Y-137064240D01*
X91301214Y-136876677D01*
X91150870Y-136711451D01*
X91146819Y-136708252D01*
X91146815Y-136708248D01*
X90979614Y-136576200D01*
X90979610Y-136576198D01*
X90975559Y-136572998D01*
X90933769Y-136549929D01*
X90883798Y-136499497D01*
X90869026Y-136430054D01*
X90894142Y-136363648D01*
X90921494Y-136337041D01*
X91096528Y-136212192D01*
X91104400Y-136205539D01*
X91255252Y-136055212D01*
X91261930Y-136047365D01*
X91386203Y-135874420D01*
X91391513Y-135865583D01*
X91485870Y-135674667D01*
X91489669Y-135665072D01*
X91551577Y-135461310D01*
X91553755Y-135451237D01*
X91555186Y-135440362D01*
X91552975Y-135426178D01*
X91539817Y-135422400D01*
X90093200Y-135422400D01*
X90025079Y-135402398D01*
X89978586Y-135348742D01*
X89967200Y-135296400D01*
X89967200Y-135040400D01*
X89987202Y-134972279D01*
X90040858Y-134925786D01*
X90093200Y-134914400D01*
X91539544Y-134914400D01*
X91553075Y-134910427D01*
X91554380Y-134901347D01*
X91512414Y-134734275D01*
X91509094Y-134724524D01*
X91424172Y-134529214D01*
X91419305Y-134520139D01*
X91303626Y-134341326D01*
X91297336Y-134333157D01*
X91153493Y-134175077D01*
X91122441Y-134111231D01*
X91130835Y-134040733D01*
X91176012Y-133985964D01*
X91202456Y-133972295D01*
X91309497Y-133932167D01*
X91317905Y-133929015D01*
X91434461Y-133841661D01*
X91521815Y-133725105D01*
X91572945Y-133588716D01*
X91579700Y-133526534D01*
X91579700Y-131730266D01*
X91572945Y-131668084D01*
X91521815Y-131531695D01*
X91434461Y-131415139D01*
X91317905Y-131327785D01*
X91181516Y-131276655D01*
X91119334Y-131269900D01*
X89323066Y-131269900D01*
X89260884Y-131276655D01*
X89124495Y-131327785D01*
X89007939Y-131415139D01*
X88920585Y-131531695D01*
X88869455Y-131668084D01*
X88862700Y-131730266D01*
X88862700Y-132649897D01*
X88842698Y-132718018D01*
X88825795Y-132738992D01*
X87356792Y-134207995D01*
X87294480Y-134242021D01*
X87267697Y-134244900D01*
X84302056Y-134244900D01*
X84233935Y-134224898D01*
X84208867Y-134203704D01*
X84168633Y-134159487D01*
X84137583Y-134095644D01*
X84145978Y-134025145D01*
X84191154Y-133970377D01*
X84217598Y-133956708D01*
X84324254Y-133916724D01*
X84339849Y-133908186D01*
X84441924Y-133831685D01*
X84454485Y-133819124D01*
X84530986Y-133717049D01*
X84539524Y-133701454D01*
X84584678Y-133581006D01*
X84588305Y-133565751D01*
X84593831Y-133514886D01*
X84594200Y-133508072D01*
X84594200Y-132885515D01*
X84589725Y-132870276D01*
X84588335Y-132869071D01*
X84580652Y-132867400D01*
X81896316Y-132867400D01*
X81881077Y-132871875D01*
X81879872Y-132873265D01*
X81878201Y-132880948D01*
X81878201Y-133508069D01*
X81878571Y-133514890D01*
X81884095Y-133565752D01*
X81887721Y-133581004D01*
X81932876Y-133701454D01*
X81941414Y-133717049D01*
X82017915Y-133819124D01*
X82030476Y-133831685D01*
X82132551Y-133908186D01*
X82148146Y-133916724D01*
X82257027Y-133957542D01*
X82313791Y-134000184D01*
X82338491Y-134066745D01*
X82323283Y-134136094D01*
X82303891Y-134162575D01*
X82207427Y-134263519D01*
X82176829Y-134295538D01*
X82173915Y-134299810D01*
X82173914Y-134299811D01*
X82101718Y-134405647D01*
X82050943Y-134480080D01*
X81956888Y-134682705D01*
X81897189Y-134897970D01*
X81873451Y-135120095D01*
X81873748Y-135125248D01*
X81873748Y-135125252D01*
X81876263Y-135168873D01*
X81860215Y-135238032D01*
X81839567Y-135265220D01*
X80912792Y-136191995D01*
X80850480Y-136226021D01*
X80823697Y-136228900D01*
X77332547Y-136228900D01*
X77264426Y-136208898D01*
X77217933Y-136155242D01*
X77207829Y-136084968D01*
X77237323Y-136020388D01*
X77254714Y-136003814D01*
X77326402Y-135947502D01*
X77331120Y-135943796D01*
X77335052Y-135939265D01*
X77335055Y-135939262D01*
X77465821Y-135788567D01*
X77469752Y-135784037D01*
X77472752Y-135778851D01*
X77472755Y-135778847D01*
X77572667Y-135606142D01*
X77575673Y-135600946D01*
X77645061Y-135401129D01*
X77675413Y-135191796D01*
X77665633Y-134980501D01*
X77616075Y-134774866D01*
X77597620Y-134734275D01*
X77531006Y-134587768D01*
X77528526Y-134582313D01*
X77406146Y-134409789D01*
X77253350Y-134263519D01*
X77247455Y-134259712D01*
X77221037Y-134242654D01*
X77174660Y-134188899D01*
X77164707Y-134118603D01*
X77194339Y-134054086D01*
X77211553Y-134037717D01*
X77218646Y-134032146D01*
X77331120Y-133943796D01*
X77335052Y-133939265D01*
X77335055Y-133939262D01*
X77465821Y-133788567D01*
X77469752Y-133784037D01*
X77472752Y-133778851D01*
X77472755Y-133778847D01*
X77572667Y-133606142D01*
X77575673Y-133600946D01*
X77645061Y-133401129D01*
X77675413Y-133191796D01*
X77665633Y-132980501D01*
X77616075Y-132774866D01*
X77572725Y-132679522D01*
X77531006Y-132587768D01*
X77528526Y-132582313D01*
X77406146Y-132409789D01*
X77401823Y-132405651D01*
X77401819Y-132405646D01*
X77334586Y-132341285D01*
X81878200Y-132341285D01*
X81882675Y-132356524D01*
X81884065Y-132357729D01*
X81891748Y-132359400D01*
X82964085Y-132359400D01*
X82979324Y-132354925D01*
X82980529Y-132353535D01*
X82982200Y-132345852D01*
X82982200Y-132341285D01*
X83490200Y-132341285D01*
X83494675Y-132356524D01*
X83496065Y-132357729D01*
X83503748Y-132359400D01*
X84576084Y-132359400D01*
X84591323Y-132354925D01*
X84592528Y-132353535D01*
X84594199Y-132345852D01*
X84594199Y-131718731D01*
X84593829Y-131711910D01*
X84588305Y-131661048D01*
X84584679Y-131645796D01*
X84539524Y-131525346D01*
X84530986Y-131509751D01*
X84454485Y-131407676D01*
X84441924Y-131395115D01*
X84339849Y-131318614D01*
X84324254Y-131310076D01*
X84203806Y-131264922D01*
X84188551Y-131261295D01*
X84137686Y-131255769D01*
X84130872Y-131255400D01*
X83508315Y-131255400D01*
X83493076Y-131259875D01*
X83491871Y-131261265D01*
X83490200Y-131268948D01*
X83490200Y-132341285D01*
X82982200Y-132341285D01*
X82982200Y-131273516D01*
X82977725Y-131258277D01*
X82976335Y-131257072D01*
X82968652Y-131255401D01*
X82341531Y-131255401D01*
X82334710Y-131255771D01*
X82283848Y-131261295D01*
X82268596Y-131264921D01*
X82148146Y-131310076D01*
X82132551Y-131318614D01*
X82030476Y-131395115D01*
X82017915Y-131407676D01*
X81941414Y-131509751D01*
X81932876Y-131525346D01*
X81887722Y-131645794D01*
X81884095Y-131661049D01*
X81878569Y-131711914D01*
X81878200Y-131718728D01*
X81878200Y-132341285D01*
X77334586Y-132341285D01*
X77310509Y-132318236D01*
X77275133Y-132256680D01*
X77278652Y-132185771D01*
X77319949Y-132128021D01*
X77331337Y-132120074D01*
X77381007Y-132089337D01*
X77392408Y-132080301D01*
X77506939Y-131965571D01*
X77515951Y-131954160D01*
X77601016Y-131816157D01*
X77607163Y-131802976D01*
X77658338Y-131648690D01*
X77661205Y-131635314D01*
X77670872Y-131540962D01*
X77671200Y-131534546D01*
X77671200Y-131409515D01*
X77666725Y-131394276D01*
X77665335Y-131393071D01*
X77657652Y-131391400D01*
X74923316Y-131391400D01*
X74908077Y-131395875D01*
X74906872Y-131397265D01*
X74905201Y-131404948D01*
X74905201Y-131534495D01*
X74905538Y-131541014D01*
X74915457Y-131636606D01*
X74918349Y-131650000D01*
X74969788Y-131804184D01*
X74975961Y-131817362D01*
X75061263Y-131955207D01*
X75070299Y-131966608D01*
X75185029Y-132081139D01*
X75196440Y-132090151D01*
X75241855Y-132118145D01*
X75289348Y-132170917D01*
X75300772Y-132240989D01*
X75272498Y-132306113D01*
X75253575Y-132324488D01*
X75245280Y-132331004D01*
X75241348Y-132335535D01*
X75241345Y-132335538D01*
X75172674Y-132414675D01*
X75106648Y-132490763D01*
X75103648Y-132495949D01*
X75103645Y-132495953D01*
X75056512Y-132577426D01*
X75000727Y-132673854D01*
X74931339Y-132873671D01*
X74900987Y-133083004D01*
X74910767Y-133294299D01*
X74960325Y-133499934D01*
X74962807Y-133505392D01*
X74962808Y-133505396D01*
X75004056Y-133596115D01*
X75047874Y-133692487D01*
X75119574Y-133793565D01*
X75148598Y-133834481D01*
X75170254Y-133865011D01*
X75215355Y-133908186D01*
X75311169Y-133999907D01*
X75323050Y-134011281D01*
X75328088Y-134014534D01*
X75355363Y-134032146D01*
X75401740Y-134085901D01*
X75411693Y-134156197D01*
X75382061Y-134220714D01*
X75364849Y-134237081D01*
X75245280Y-134331004D01*
X75241348Y-134335535D01*
X75241345Y-134335538D01*
X75172674Y-134414675D01*
X75106648Y-134490763D01*
X75103648Y-134495949D01*
X75103645Y-134495953D01*
X75084403Y-134529214D01*
X75000727Y-134673854D01*
X74931339Y-134873671D01*
X74930478Y-134879606D01*
X74930478Y-134879608D01*
X74923783Y-134925786D01*
X74900987Y-135083004D01*
X74910767Y-135294299D01*
X74912171Y-135300124D01*
X74912171Y-135300125D01*
X74951017Y-135461310D01*
X74960325Y-135499934D01*
X74962807Y-135505392D01*
X74962808Y-135505396D01*
X75006253Y-135600946D01*
X75047874Y-135692487D01*
X75131527Y-135810416D01*
X75155683Y-135844469D01*
X75170254Y-135865011D01*
X75323050Y-136011281D01*
X75328088Y-136014534D01*
X75355363Y-136032146D01*
X75401740Y-136085901D01*
X75411693Y-136156197D01*
X75382061Y-136220714D01*
X75364849Y-136237081D01*
X75245280Y-136331004D01*
X75241348Y-136335535D01*
X75241345Y-136335538D01*
X75142866Y-136449025D01*
X75106648Y-136490763D01*
X75103648Y-136495949D01*
X75103645Y-136495953D01*
X75067743Y-136558012D01*
X75000727Y-136673854D01*
X74931339Y-136873671D01*
X74930478Y-136879606D01*
X74930478Y-136879608D01*
X74903708Y-137064240D01*
X74900987Y-137083004D01*
X74910767Y-137294299D01*
X74912171Y-137300124D01*
X74912171Y-137300125D01*
X74955700Y-137480742D01*
X74960325Y-137499934D01*
X75047874Y-137692487D01*
X75170254Y-137865011D01*
X75323050Y-138011281D01*
X75500748Y-138126020D01*
X75506314Y-138128263D01*
X75691368Y-138202842D01*
X75691371Y-138202843D01*
X75696937Y-138205086D01*
X75904537Y-138245628D01*
X75910099Y-138245900D01*
X76616046Y-138245900D01*
X76773766Y-138230852D01*
X76976734Y-138171308D01*
X77060311Y-138128263D01*
X77159449Y-138077204D01*
X77159452Y-138077202D01*
X77164780Y-138074458D01*
X77169494Y-138070755D01*
X77174544Y-138067513D01*
X77175685Y-138069291D01*
X77232801Y-138046464D01*
X77244706Y-138045900D01*
X81170783Y-138045900D01*
X81190492Y-138047451D01*
X81204390Y-138049652D01*
X81210977Y-138049307D01*
X81210982Y-138049307D01*
X81272680Y-138046073D01*
X81279274Y-138045900D01*
X81299810Y-138045900D01*
X81303082Y-138045556D01*
X81303084Y-138045556D01*
X81320242Y-138043753D01*
X81326816Y-138043236D01*
X81388508Y-138040003D01*
X81388512Y-138040002D01*
X81395103Y-138039657D01*
X81401484Y-138037947D01*
X81401486Y-138037947D01*
X81408691Y-138036017D01*
X81428125Y-138032415D01*
X81435554Y-138031634D01*
X81435563Y-138031632D01*
X81442128Y-138030942D01*
X81507197Y-138009800D01*
X81513499Y-138007933D01*
X81579570Y-137990229D01*
X81592108Y-137983840D01*
X81610374Y-137976275D01*
X81617472Y-137973969D01*
X81617474Y-137973968D01*
X81623756Y-137971927D01*
X81682985Y-137937731D01*
X81688780Y-137934585D01*
X81731897Y-137912616D01*
X81801673Y-137899512D01*
X81867458Y-137926212D01*
X81908364Y-137984240D01*
X81912016Y-137997181D01*
X81930050Y-138077204D01*
X81935422Y-138101039D01*
X82019466Y-138308016D01*
X82136187Y-138498488D01*
X82282450Y-138667338D01*
X82454326Y-138810032D01*
X82647200Y-138922738D01*
X82772837Y-138970714D01*
X82780630Y-138973690D01*
X82837133Y-139016678D01*
X82861426Y-139083389D01*
X82845796Y-139152643D01*
X82795205Y-139202454D01*
X82735681Y-139217400D01*
X69900200Y-139217400D01*
X69832079Y-139197398D01*
X69785586Y-139143742D01*
X69774200Y-139091400D01*
X69774200Y-130865285D01*
X74905200Y-130865285D01*
X74909675Y-130880524D01*
X74911065Y-130881729D01*
X74918748Y-130883400D01*
X76016085Y-130883400D01*
X76031324Y-130878925D01*
X76032529Y-130877535D01*
X76034200Y-130869852D01*
X76034200Y-130865285D01*
X76542200Y-130865285D01*
X76546675Y-130880524D01*
X76548065Y-130881729D01*
X76555748Y-130883400D01*
X77653084Y-130883400D01*
X77668323Y-130878925D01*
X77669528Y-130877535D01*
X77671199Y-130869852D01*
X77671199Y-130740305D01*
X77670862Y-130733786D01*
X77660943Y-130638194D01*
X77658051Y-130624800D01*
X77606612Y-130470616D01*
X77600439Y-130457438D01*
X77515137Y-130319593D01*
X77506101Y-130308192D01*
X77391371Y-130193661D01*
X77379960Y-130184649D01*
X77241957Y-130099584D01*
X77228776Y-130093437D01*
X77074490Y-130042262D01*
X77061114Y-130039395D01*
X76966762Y-130029728D01*
X76960345Y-130029400D01*
X76560315Y-130029400D01*
X76545076Y-130033875D01*
X76543871Y-130035265D01*
X76542200Y-130042948D01*
X76542200Y-130865285D01*
X76034200Y-130865285D01*
X76034200Y-130047516D01*
X76029725Y-130032277D01*
X76028335Y-130031072D01*
X76020652Y-130029401D01*
X75616105Y-130029401D01*
X75609586Y-130029738D01*
X75513994Y-130039657D01*
X75500600Y-130042549D01*
X75346416Y-130093988D01*
X75333238Y-130100161D01*
X75195393Y-130185463D01*
X75183992Y-130194499D01*
X75069461Y-130309229D01*
X75060449Y-130320640D01*
X74975384Y-130458643D01*
X74969237Y-130471824D01*
X74918062Y-130626110D01*
X74915195Y-130639486D01*
X74905528Y-130733838D01*
X74905200Y-130740255D01*
X74905200Y-130865285D01*
X69774200Y-130865285D01*
X69774200Y-126135400D01*
X69794202Y-126067279D01*
X69847858Y-126020786D01*
X69900200Y-126009400D01*
X92000200Y-126009400D01*
X92068321Y-126029402D01*
G37*
%TD.AperFunction*%
%TD*%
%TA.AperFunction,Conductor*%
%TO.N,/AD_DE_GND_1*%
G36*
X92068321Y-108249402D02*
G01*
X92114814Y-108303058D01*
X92126200Y-108355400D01*
X92126200Y-121311400D01*
X92106198Y-121379521D01*
X92052542Y-121426014D01*
X92000200Y-121437400D01*
X91021232Y-121437400D01*
X90953111Y-121417398D01*
X90906618Y-121363742D01*
X90896514Y-121293468D01*
X90926008Y-121228888D01*
X90948064Y-121208821D01*
X90973218Y-121190879D01*
X91126460Y-121081573D01*
X91284696Y-120923889D01*
X91344194Y-120841089D01*
X91412035Y-120746677D01*
X91415053Y-120742477D01*
X91418245Y-120736020D01*
X91511736Y-120546853D01*
X91511737Y-120546851D01*
X91514030Y-120542211D01*
X91575821Y-120338834D01*
X91577465Y-120333423D01*
X91577465Y-120333421D01*
X91578970Y-120328469D01*
X91608129Y-120106990D01*
X91609157Y-120064927D01*
X91609674Y-120043765D01*
X91609674Y-120043761D01*
X91609756Y-120040400D01*
X91591452Y-119817761D01*
X91537031Y-119601102D01*
X91447954Y-119396240D01*
X91326614Y-119208677D01*
X91176270Y-119043451D01*
X91172219Y-119040252D01*
X91172215Y-119040248D01*
X91005014Y-118908200D01*
X91005010Y-118908198D01*
X91000959Y-118904998D01*
X90959653Y-118882196D01*
X90909684Y-118831764D01*
X90894912Y-118762321D01*
X90920028Y-118695916D01*
X90947380Y-118669309D01*
X91027584Y-118612100D01*
X91126460Y-118541573D01*
X91135469Y-118532596D01*
X91281035Y-118387537D01*
X91284696Y-118383889D01*
X91289166Y-118377669D01*
X91412035Y-118206677D01*
X91415053Y-118202477D01*
X91425296Y-118181753D01*
X91511736Y-118006853D01*
X91511737Y-118006851D01*
X91514030Y-118002211D01*
X91578970Y-117788469D01*
X91608129Y-117566990D01*
X91609756Y-117500400D01*
X91591452Y-117277761D01*
X91537031Y-117061102D01*
X91447954Y-116856240D01*
X91326614Y-116668677D01*
X91176270Y-116503451D01*
X91172219Y-116500252D01*
X91172215Y-116500248D01*
X91005014Y-116368200D01*
X91005010Y-116368198D01*
X91000959Y-116364998D01*
X90959653Y-116342196D01*
X90909684Y-116291764D01*
X90894912Y-116222321D01*
X90920028Y-116155916D01*
X90947380Y-116129309D01*
X91035250Y-116066632D01*
X91126460Y-116001573D01*
X91136897Y-115991173D01*
X91281035Y-115847537D01*
X91284696Y-115843889D01*
X91415053Y-115662477D01*
X91501190Y-115488192D01*
X91511736Y-115466853D01*
X91511737Y-115466851D01*
X91514030Y-115462211D01*
X91578970Y-115248469D01*
X91608129Y-115026990D01*
X91609756Y-114960400D01*
X91591452Y-114737761D01*
X91537031Y-114521102D01*
X91447954Y-114316240D01*
X91379845Y-114210960D01*
X91329422Y-114133017D01*
X91329420Y-114133014D01*
X91326614Y-114128677D01*
X91323140Y-114124859D01*
X91323133Y-114124850D01*
X91179035Y-113966488D01*
X91147983Y-113902642D01*
X91156379Y-113832144D01*
X91201556Y-113777376D01*
X91228000Y-113763707D01*
X91334652Y-113723725D01*
X91350249Y-113715186D01*
X91452324Y-113638685D01*
X91464885Y-113626124D01*
X91541386Y-113524049D01*
X91549924Y-113508454D01*
X91595078Y-113388006D01*
X91598705Y-113372751D01*
X91604231Y-113321886D01*
X91604600Y-113315072D01*
X91604600Y-112692515D01*
X91600125Y-112677276D01*
X91598735Y-112676071D01*
X91591052Y-112674400D01*
X90118600Y-112674400D01*
X90050479Y-112654398D01*
X90003986Y-112600742D01*
X89992600Y-112548400D01*
X89992600Y-112148285D01*
X90500600Y-112148285D01*
X90505075Y-112163524D01*
X90506465Y-112164729D01*
X90514148Y-112166400D01*
X91586484Y-112166400D01*
X91601723Y-112161925D01*
X91602928Y-112160535D01*
X91604599Y-112152852D01*
X91604599Y-111525731D01*
X91604229Y-111518910D01*
X91598705Y-111468048D01*
X91595079Y-111452796D01*
X91549924Y-111332346D01*
X91541386Y-111316751D01*
X91464885Y-111214676D01*
X91452324Y-111202115D01*
X91350249Y-111125614D01*
X91334654Y-111117076D01*
X91214206Y-111071922D01*
X91198951Y-111068295D01*
X91148086Y-111062769D01*
X91141272Y-111062400D01*
X90518715Y-111062400D01*
X90503476Y-111066875D01*
X90502271Y-111068265D01*
X90500600Y-111075948D01*
X90500600Y-112148285D01*
X89992600Y-112148285D01*
X89992600Y-111080516D01*
X89988125Y-111065277D01*
X89986735Y-111064072D01*
X89979052Y-111062401D01*
X89351931Y-111062401D01*
X89345110Y-111062771D01*
X89294248Y-111068295D01*
X89278996Y-111071921D01*
X89158546Y-111117076D01*
X89142951Y-111125614D01*
X89040876Y-111202115D01*
X89028315Y-111214676D01*
X88951814Y-111316751D01*
X88943276Y-111332346D01*
X88898122Y-111452794D01*
X88894495Y-111468049D01*
X88888969Y-111518914D01*
X88888600Y-111525728D01*
X88888600Y-112013397D01*
X88868598Y-112081518D01*
X88814942Y-112128011D01*
X88744668Y-112138115D01*
X88680088Y-112108621D01*
X88673505Y-112102492D01*
X88396181Y-111825168D01*
X88383340Y-111810135D01*
X88378946Y-111804087D01*
X88378945Y-111804086D01*
X88375066Y-111798747D01*
X88324241Y-111752984D01*
X88319456Y-111748443D01*
X88304941Y-111733928D01*
X88297482Y-111727888D01*
X88288984Y-111721006D01*
X88283969Y-111716722D01*
X88238055Y-111675381D01*
X88238050Y-111675377D01*
X88233144Y-111670960D01*
X88227428Y-111667660D01*
X88227424Y-111667657D01*
X88220963Y-111663927D01*
X88204666Y-111652727D01*
X88198860Y-111648025D01*
X88198858Y-111648024D01*
X88193730Y-111643871D01*
X88132777Y-111612814D01*
X88126982Y-111609667D01*
X88073479Y-111578777D01*
X88073478Y-111578776D01*
X88067756Y-111575473D01*
X88061474Y-111573432D01*
X88061472Y-111573431D01*
X88054374Y-111571125D01*
X88036107Y-111563559D01*
X88023570Y-111557171D01*
X87957499Y-111539467D01*
X87951197Y-111537600D01*
X87886128Y-111516458D01*
X87879563Y-111515768D01*
X87879554Y-111515766D01*
X87872125Y-111514985D01*
X87852691Y-111511383D01*
X87845486Y-111509453D01*
X87845484Y-111509453D01*
X87839103Y-111507743D01*
X87832512Y-111507398D01*
X87832508Y-111507397D01*
X87770816Y-111504164D01*
X87764242Y-111503647D01*
X87747084Y-111501844D01*
X87747082Y-111501844D01*
X87743810Y-111501500D01*
X87723274Y-111501500D01*
X87716680Y-111501327D01*
X87654982Y-111498093D01*
X87654977Y-111498093D01*
X87648390Y-111497748D01*
X87634492Y-111499949D01*
X87614783Y-111501500D01*
X84617698Y-111501500D01*
X84549577Y-111481498D01*
X84503084Y-111427842D01*
X84499716Y-111419730D01*
X84462967Y-111321703D01*
X84459815Y-111313295D01*
X84372461Y-111196739D01*
X84255905Y-111109385D01*
X84119516Y-111058255D01*
X84057334Y-111051500D01*
X83101183Y-111051500D01*
X83043980Y-111037767D01*
X82996579Y-111013615D01*
X82990782Y-111010467D01*
X82937279Y-110979577D01*
X82937278Y-110979576D01*
X82931556Y-110976273D01*
X82925274Y-110974232D01*
X82925272Y-110974231D01*
X82918174Y-110971925D01*
X82899907Y-110964359D01*
X82899903Y-110964357D01*
X82887370Y-110957971D01*
X82821291Y-110940265D01*
X82814997Y-110938400D01*
X82749928Y-110917258D01*
X82743363Y-110916568D01*
X82743354Y-110916566D01*
X82735925Y-110915785D01*
X82716491Y-110912183D01*
X82709286Y-110910253D01*
X82709284Y-110910253D01*
X82702903Y-110908543D01*
X82696312Y-110908198D01*
X82696308Y-110908197D01*
X82634616Y-110904964D01*
X82628042Y-110904447D01*
X82610884Y-110902644D01*
X82610882Y-110902644D01*
X82607610Y-110902300D01*
X82587074Y-110902300D01*
X82580480Y-110902127D01*
X82518782Y-110898893D01*
X82518777Y-110898893D01*
X82512190Y-110898548D01*
X82498292Y-110900749D01*
X82478583Y-110902300D01*
X74867617Y-110902300D01*
X74847908Y-110900749D01*
X74834010Y-110898548D01*
X74827423Y-110898893D01*
X74827418Y-110898893D01*
X74765720Y-110902127D01*
X74759126Y-110902300D01*
X74738590Y-110902300D01*
X74735318Y-110902644D01*
X74735316Y-110902644D01*
X74718158Y-110904447D01*
X74711584Y-110904964D01*
X74649896Y-110908197D01*
X74649894Y-110908197D01*
X74643297Y-110908543D01*
X74629704Y-110912185D01*
X74610275Y-110915786D01*
X74596272Y-110917258D01*
X74531225Y-110938393D01*
X74524912Y-110940263D01*
X74504274Y-110945793D01*
X74465203Y-110956262D01*
X74465200Y-110956263D01*
X74458830Y-110957970D01*
X74446285Y-110964362D01*
X74428026Y-110971925D01*
X74414644Y-110976273D01*
X74408923Y-110979576D01*
X74355423Y-111010464D01*
X74349626Y-111013612D01*
X74294551Y-111041674D01*
X74294548Y-111041676D01*
X74288670Y-111044671D01*
X74283542Y-111048824D01*
X74283540Y-111048825D01*
X74277734Y-111053527D01*
X74261437Y-111064727D01*
X74254976Y-111068457D01*
X74254972Y-111068460D01*
X74249256Y-111071760D01*
X74244350Y-111076177D01*
X74244345Y-111076181D01*
X74198431Y-111117522D01*
X74193416Y-111121806D01*
X74188714Y-111125614D01*
X74177459Y-111134728D01*
X74162944Y-111149243D01*
X74158159Y-111153784D01*
X74107334Y-111199547D01*
X74103455Y-111204886D01*
X74103454Y-111204887D01*
X74099060Y-111210935D01*
X74086219Y-111225968D01*
X73388568Y-111923619D01*
X73373535Y-111936460D01*
X73362147Y-111944734D01*
X73357727Y-111949643D01*
X73316384Y-111995559D01*
X73311843Y-112000344D01*
X73297328Y-112014859D01*
X73295252Y-112017423D01*
X73284406Y-112030816D01*
X73280122Y-112035831D01*
X73238781Y-112081745D01*
X73238777Y-112081750D01*
X73234360Y-112086656D01*
X73231060Y-112092372D01*
X73231057Y-112092376D01*
X73227327Y-112098837D01*
X73216127Y-112115133D01*
X73207271Y-112126070D01*
X73186722Y-112166400D01*
X73176215Y-112187021D01*
X73173069Y-112192815D01*
X73138873Y-112252044D01*
X73136832Y-112258326D01*
X73136831Y-112258328D01*
X73134525Y-112265426D01*
X73126960Y-112283692D01*
X73120571Y-112296230D01*
X73118863Y-112302603D01*
X73118863Y-112302604D01*
X73102869Y-112362295D01*
X73101000Y-112368603D01*
X73079858Y-112433672D01*
X73079168Y-112440237D01*
X73079166Y-112440246D01*
X73078385Y-112447675D01*
X73074783Y-112467109D01*
X73072853Y-112474314D01*
X73071143Y-112480697D01*
X73070798Y-112487288D01*
X73070797Y-112487292D01*
X73067564Y-112548984D01*
X73067047Y-112555558D01*
X73065244Y-112572716D01*
X73064900Y-112575990D01*
X73064900Y-112596526D01*
X73064727Y-112603120D01*
X73062040Y-112654398D01*
X73061148Y-112671410D01*
X73062180Y-112677925D01*
X73063349Y-112685305D01*
X73064900Y-112705017D01*
X73064900Y-118130183D01*
X73063349Y-118149892D01*
X73061148Y-118163790D01*
X73061493Y-118170377D01*
X73061493Y-118170382D01*
X73064727Y-118232080D01*
X73064900Y-118238674D01*
X73064900Y-118259210D01*
X73065244Y-118262482D01*
X73065244Y-118262484D01*
X73067047Y-118279642D01*
X73067564Y-118286216D01*
X73071143Y-118354503D01*
X73072853Y-118360884D01*
X73072853Y-118360886D01*
X73074783Y-118368091D01*
X73078385Y-118387525D01*
X73079166Y-118394954D01*
X73079168Y-118394963D01*
X73079858Y-118401528D01*
X73101000Y-118466597D01*
X73102867Y-118472899D01*
X73120571Y-118538970D01*
X73126640Y-118550881D01*
X73126959Y-118551507D01*
X73134525Y-118569773D01*
X73138873Y-118583156D01*
X73142176Y-118588878D01*
X73142177Y-118588879D01*
X73173067Y-118642382D01*
X73176214Y-118648177D01*
X73207271Y-118709130D01*
X73211424Y-118714258D01*
X73211425Y-118714260D01*
X73216127Y-118720066D01*
X73227327Y-118736363D01*
X73231057Y-118742824D01*
X73231060Y-118742828D01*
X73234360Y-118748544D01*
X73238777Y-118753450D01*
X73238781Y-118753455D01*
X73280122Y-118799369D01*
X73284406Y-118804384D01*
X73297328Y-118820341D01*
X73311843Y-118834856D01*
X73316384Y-118839641D01*
X73362147Y-118890466D01*
X73367486Y-118894345D01*
X73367487Y-118894346D01*
X73373535Y-118898740D01*
X73388568Y-118911581D01*
X74292219Y-119815232D01*
X74305060Y-119830265D01*
X74313334Y-119841653D01*
X74318243Y-119846073D01*
X74364159Y-119887416D01*
X74368944Y-119891957D01*
X74383459Y-119906472D01*
X74386023Y-119908548D01*
X74399416Y-119919394D01*
X74404431Y-119923678D01*
X74450345Y-119965019D01*
X74450350Y-119965023D01*
X74455256Y-119969440D01*
X74460972Y-119972740D01*
X74460976Y-119972743D01*
X74467437Y-119976473D01*
X74483733Y-119987673D01*
X74494670Y-119996529D01*
X74500548Y-119999524D01*
X74500551Y-119999526D01*
X74555626Y-120027588D01*
X74561423Y-120030736D01*
X74614923Y-120061624D01*
X74620644Y-120064927D01*
X74634026Y-120069275D01*
X74652285Y-120076838D01*
X74664830Y-120083230D01*
X74671200Y-120084937D01*
X74671203Y-120084938D01*
X74710274Y-120095407D01*
X74730912Y-120100937D01*
X74737225Y-120102807D01*
X74802272Y-120123942D01*
X74816275Y-120125414D01*
X74835704Y-120129015D01*
X74849297Y-120132657D01*
X74855894Y-120133003D01*
X74855896Y-120133003D01*
X74917584Y-120136236D01*
X74924158Y-120136753D01*
X74941316Y-120138556D01*
X74941318Y-120138556D01*
X74944590Y-120138900D01*
X74965126Y-120138900D01*
X74971720Y-120139073D01*
X75040010Y-120142652D01*
X75046076Y-120141691D01*
X75120862Y-120161627D01*
X75204710Y-120215767D01*
X75209748Y-120219020D01*
X75249814Y-120235167D01*
X75400368Y-120295842D01*
X75400371Y-120295843D01*
X75405937Y-120298086D01*
X75613537Y-120338628D01*
X75619099Y-120338900D01*
X76325046Y-120338900D01*
X76482766Y-120323852D01*
X76685734Y-120264308D01*
X76752124Y-120230115D01*
X76868449Y-120170204D01*
X76868452Y-120170202D01*
X76873780Y-120167458D01*
X77040120Y-120036796D01*
X77044052Y-120032265D01*
X77044055Y-120032262D01*
X77174821Y-119881567D01*
X77178752Y-119877037D01*
X77181752Y-119871851D01*
X77181755Y-119871847D01*
X77281667Y-119699142D01*
X77284673Y-119693946D01*
X77354061Y-119494129D01*
X77367566Y-119400990D01*
X77383552Y-119290736D01*
X77383552Y-119290733D01*
X77384413Y-119284796D01*
X77374633Y-119073501D01*
X77335610Y-118911581D01*
X77326481Y-118873699D01*
X77326480Y-118873697D01*
X77325075Y-118867866D01*
X77311027Y-118836968D01*
X77249393Y-118701413D01*
X77237526Y-118675313D01*
X77132695Y-118527529D01*
X77118612Y-118507675D01*
X77118611Y-118507674D01*
X77115146Y-118502789D01*
X76962350Y-118356519D01*
X76949014Y-118347908D01*
X76930037Y-118335654D01*
X76883660Y-118281899D01*
X76873707Y-118211603D01*
X76903339Y-118147086D01*
X76920553Y-118130717D01*
X76930835Y-118122641D01*
X77040120Y-118036796D01*
X77137915Y-117924097D01*
X77197665Y-117885759D01*
X77268661Y-117885809D01*
X77322172Y-117917585D01*
X77325043Y-117920456D01*
X77329584Y-117925241D01*
X77375347Y-117976066D01*
X77380686Y-117979945D01*
X77380687Y-117979946D01*
X77386735Y-117984340D01*
X77401768Y-117997181D01*
X77411713Y-118007126D01*
X77417251Y-118010723D01*
X77417253Y-118010724D01*
X77469075Y-118044378D01*
X77474510Y-118048113D01*
X77499579Y-118066326D01*
X77529848Y-118088318D01*
X77535878Y-118091003D01*
X77535882Y-118091005D01*
X77542706Y-118094043D01*
X77560078Y-118103475D01*
X77571878Y-118111138D01*
X77578039Y-118113503D01*
X77578043Y-118113505D01*
X77635733Y-118135650D01*
X77641806Y-118138165D01*
X77704312Y-118165994D01*
X77710766Y-118167366D01*
X77710770Y-118167367D01*
X77718073Y-118168919D01*
X77737032Y-118174534D01*
X77750168Y-118179577D01*
X77817733Y-118190278D01*
X77824186Y-118191474D01*
X77891113Y-118205700D01*
X77905183Y-118205700D01*
X77924892Y-118207251D01*
X77938790Y-118209452D01*
X77945377Y-118209107D01*
X77945382Y-118209107D01*
X78007080Y-118205873D01*
X78013674Y-118205700D01*
X78082087Y-118205700D01*
X78095853Y-118202774D01*
X78115457Y-118200193D01*
X78122909Y-118199803D01*
X78122913Y-118199802D01*
X78129503Y-118199457D01*
X78135874Y-118197750D01*
X78135880Y-118197749D01*
X78195578Y-118181753D01*
X78201990Y-118180214D01*
X78216112Y-118177212D01*
X78268888Y-118165994D01*
X78274917Y-118163310D01*
X78274919Y-118163309D01*
X78281747Y-118160269D01*
X78300379Y-118153671D01*
X78307592Y-118151738D01*
X78307593Y-118151738D01*
X78313970Y-118150029D01*
X78319849Y-118147034D01*
X78319853Y-118147032D01*
X78374896Y-118118986D01*
X78380849Y-118116146D01*
X78437322Y-118091003D01*
X78437324Y-118091002D01*
X78443352Y-118088318D01*
X78448690Y-118084440D01*
X78448693Y-118084438D01*
X78454736Y-118080047D01*
X78471593Y-118069717D01*
X78472838Y-118069083D01*
X78484130Y-118063329D01*
X78489260Y-118059175D01*
X78489266Y-118059171D01*
X78495622Y-118054024D01*
X78561150Y-118026699D01*
X78631048Y-118039139D01*
X78684034Y-118088945D01*
X78694772Y-118107543D01*
X78696704Y-118110890D01*
X78702692Y-118122641D01*
X78713576Y-118147086D01*
X78719482Y-118160352D01*
X78723361Y-118165691D01*
X78723364Y-118165696D01*
X78743746Y-118193749D01*
X78750925Y-118204802D01*
X78771560Y-118240544D01*
X78775980Y-118245453D01*
X78775983Y-118245457D01*
X78799175Y-118271214D01*
X78807471Y-118281457D01*
X78831734Y-118314853D01*
X78836636Y-118319267D01*
X78836638Y-118319269D01*
X78862406Y-118342471D01*
X78871729Y-118351794D01*
X78894931Y-118377562D01*
X78899347Y-118382466D01*
X78932743Y-118406729D01*
X78942986Y-118415025D01*
X78968743Y-118438217D01*
X78968747Y-118438220D01*
X78973656Y-118442640D01*
X79009398Y-118463275D01*
X79020451Y-118470454D01*
X79048504Y-118490836D01*
X79048509Y-118490839D01*
X79053848Y-118494718D01*
X79059875Y-118497401D01*
X79059876Y-118497402D01*
X79091559Y-118511508D01*
X79103308Y-118517495D01*
X79139044Y-118538127D01*
X79145327Y-118540168D01*
X79145328Y-118540169D01*
X79178296Y-118550881D01*
X79190594Y-118555601D01*
X79228312Y-118572394D01*
X79234765Y-118573766D01*
X79234769Y-118573767D01*
X79268680Y-118580975D01*
X79281417Y-118584388D01*
X79314391Y-118595102D01*
X79314398Y-118595103D01*
X79320672Y-118597142D01*
X79327233Y-118597832D01*
X79327235Y-118597832D01*
X79341290Y-118599309D01*
X79361728Y-118601457D01*
X79374736Y-118603518D01*
X79415113Y-118612100D01*
X82352568Y-118612100D01*
X82416139Y-118629313D01*
X82451155Y-118649775D01*
X82499878Y-118701413D01*
X82512949Y-118771196D01*
X82486217Y-118836968D01*
X82445764Y-118870325D01*
X82437663Y-118874542D01*
X82428938Y-118880036D01*
X82258633Y-119007905D01*
X82250926Y-119014748D01*
X82103790Y-119168717D01*
X82097304Y-119176727D01*
X81977298Y-119352649D01*
X81972200Y-119361623D01*
X81882538Y-119554783D01*
X81878975Y-119564470D01*
X81823589Y-119764183D01*
X81825112Y-119772607D01*
X81837492Y-119776000D01*
X84477544Y-119776000D01*
X84491075Y-119772027D01*
X84492380Y-119762947D01*
X84450414Y-119595875D01*
X84447094Y-119586124D01*
X84362172Y-119390814D01*
X84357305Y-119381739D01*
X84241626Y-119202926D01*
X84235336Y-119194757D01*
X84092006Y-119037240D01*
X84084473Y-119030215D01*
X83917339Y-118898222D01*
X83908756Y-118892520D01*
X83871802Y-118872120D01*
X83821831Y-118821687D01*
X83807059Y-118752245D01*
X83832175Y-118685839D01*
X83859527Y-118659232D01*
X83927527Y-118610728D01*
X84039060Y-118531173D01*
X84135320Y-118435248D01*
X84197690Y-118401333D01*
X84224259Y-118398500D01*
X87267697Y-118398500D01*
X87335818Y-118418502D01*
X87356792Y-118435405D01*
X88847187Y-119925800D01*
X88881213Y-119988112D01*
X88883882Y-120007636D01*
X88896710Y-120230115D01*
X88897847Y-120235161D01*
X88897848Y-120235167D01*
X88917719Y-120323339D01*
X88945822Y-120448039D01*
X88984061Y-120542211D01*
X89027340Y-120648794D01*
X89029866Y-120655016D01*
X89032565Y-120659420D01*
X89142427Y-120838699D01*
X89146587Y-120845488D01*
X89292850Y-121014338D01*
X89464726Y-121157032D01*
X89526344Y-121193039D01*
X89542727Y-121202612D01*
X89591451Y-121254251D01*
X89604522Y-121324034D01*
X89577791Y-121389805D01*
X89519744Y-121430684D01*
X89479157Y-121437400D01*
X83916087Y-121437400D01*
X83847966Y-121417398D01*
X83801473Y-121363742D01*
X83791369Y-121293468D01*
X83820863Y-121228888D01*
X83851572Y-121203170D01*
X83861144Y-121197464D01*
X84034528Y-121073792D01*
X84042400Y-121067139D01*
X84193252Y-120916812D01*
X84199930Y-120908965D01*
X84324203Y-120736020D01*
X84329513Y-120727183D01*
X84423870Y-120536267D01*
X84427669Y-120526672D01*
X84489577Y-120322910D01*
X84491755Y-120312837D01*
X84493186Y-120301962D01*
X84490975Y-120287778D01*
X84477817Y-120284000D01*
X81842425Y-120284000D01*
X81828894Y-120287973D01*
X81827457Y-120297966D01*
X81857765Y-120432446D01*
X81860845Y-120442275D01*
X81940970Y-120639603D01*
X81945613Y-120648794D01*
X82056894Y-120830388D01*
X82062977Y-120838699D01*
X82202413Y-120999667D01*
X82209780Y-121006883D01*
X82373634Y-121142916D01*
X82382081Y-121148831D01*
X82474116Y-121202612D01*
X82522840Y-121254250D01*
X82535911Y-121324033D01*
X82509180Y-121389805D01*
X82451133Y-121430684D01*
X82410546Y-121437400D01*
X69900200Y-121437400D01*
X69832079Y-121417398D01*
X69785586Y-121363742D01*
X69774200Y-121311400D01*
X69774200Y-108355400D01*
X69794202Y-108287279D01*
X69847858Y-108240786D01*
X69900200Y-108229400D01*
X92000200Y-108229400D01*
X92068321Y-108249402D01*
G37*
%TD.AperFunction*%
%TA.AperFunction,Conductor*%
G36*
X81742821Y-112739302D02*
G01*
X81789314Y-112792958D01*
X81800700Y-112845300D01*
X81800700Y-113308134D01*
X81807455Y-113370316D01*
X81858585Y-113506705D01*
X81945939Y-113623261D01*
X82062495Y-113710615D01*
X82070904Y-113713767D01*
X82070905Y-113713768D01*
X82179651Y-113754535D01*
X82236416Y-113797176D01*
X82261116Y-113863738D01*
X82245909Y-113933087D01*
X82226516Y-113959568D01*
X82185441Y-114002551D01*
X82123917Y-114037981D01*
X82094347Y-114041500D01*
X80415217Y-114041500D01*
X80395508Y-114039949D01*
X80381610Y-114037748D01*
X80375023Y-114038093D01*
X80375018Y-114038093D01*
X80313319Y-114041327D01*
X80306725Y-114041500D01*
X80286190Y-114041500D01*
X80280022Y-114042148D01*
X80265760Y-114043647D01*
X80259185Y-114044164D01*
X80197496Y-114047397D01*
X80197495Y-114047397D01*
X80190896Y-114047743D01*
X80177308Y-114051384D01*
X80157861Y-114054988D01*
X80150444Y-114055767D01*
X80150440Y-114055768D01*
X80143872Y-114056458D01*
X80137369Y-114058571D01*
X80078809Y-114077598D01*
X80072485Y-114079471D01*
X80012810Y-114095461D01*
X80012806Y-114095462D01*
X80006430Y-114097171D01*
X80000548Y-114100168D01*
X79993893Y-114103559D01*
X79975626Y-114111125D01*
X79968528Y-114113431D01*
X79968526Y-114113432D01*
X79962244Y-114115473D01*
X79956522Y-114118776D01*
X79956521Y-114118777D01*
X79903018Y-114149667D01*
X79897223Y-114152814D01*
X79836270Y-114183871D01*
X79831142Y-114188024D01*
X79831140Y-114188025D01*
X79825334Y-114192727D01*
X79809037Y-114203927D01*
X79802576Y-114207657D01*
X79802572Y-114207660D01*
X79796856Y-114210960D01*
X79791950Y-114215377D01*
X79791945Y-114215381D01*
X79746031Y-114256722D01*
X79741016Y-114261006D01*
X79732518Y-114267888D01*
X79725059Y-114273928D01*
X79710544Y-114288443D01*
X79705759Y-114292984D01*
X79654934Y-114338747D01*
X79651055Y-114344086D01*
X79651054Y-114344087D01*
X79646660Y-114350135D01*
X79633819Y-114365168D01*
X77401768Y-116597219D01*
X77386735Y-116610060D01*
X77375347Y-116618334D01*
X77371758Y-116622320D01*
X77308167Y-116652841D01*
X77237713Y-116644081D01*
X77185088Y-116601389D01*
X77118612Y-116507675D01*
X77118611Y-116507674D01*
X77115146Y-116502789D01*
X76962350Y-116356519D01*
X76955512Y-116352104D01*
X76930037Y-116335654D01*
X76883660Y-116281899D01*
X76873707Y-116211603D01*
X76903339Y-116147086D01*
X76920553Y-116130717D01*
X76922346Y-116129309D01*
X77040120Y-116036796D01*
X77044052Y-116032265D01*
X77044055Y-116032262D01*
X77174821Y-115881567D01*
X77178752Y-115877037D01*
X77181752Y-115871851D01*
X77181755Y-115871847D01*
X77281667Y-115699142D01*
X77284673Y-115693946D01*
X77354061Y-115494129D01*
X77384413Y-115284796D01*
X77374633Y-115073501D01*
X77325075Y-114867866D01*
X77237526Y-114675313D01*
X77115146Y-114502789D01*
X77110823Y-114498651D01*
X77110819Y-114498646D01*
X77019509Y-114411236D01*
X76984133Y-114349680D01*
X76987652Y-114278771D01*
X77028949Y-114221021D01*
X77040337Y-114213074D01*
X77090007Y-114182337D01*
X77101408Y-114173301D01*
X77215939Y-114058571D01*
X77224951Y-114047160D01*
X77310016Y-113909157D01*
X77316163Y-113895976D01*
X77367338Y-113741690D01*
X77370205Y-113728314D01*
X77379872Y-113633962D01*
X77380200Y-113627546D01*
X77380200Y-113502515D01*
X77375725Y-113487276D01*
X77374335Y-113486071D01*
X77366652Y-113484400D01*
X75869200Y-113484400D01*
X75801079Y-113464398D01*
X75754586Y-113410742D01*
X75743200Y-113358400D01*
X75743200Y-113102400D01*
X75763202Y-113034279D01*
X75816858Y-112987786D01*
X75869200Y-112976400D01*
X77362084Y-112976400D01*
X77377323Y-112971925D01*
X77378528Y-112970535D01*
X77380199Y-112962852D01*
X77380199Y-112845300D01*
X77400201Y-112777179D01*
X77453857Y-112730686D01*
X77506199Y-112719300D01*
X81674700Y-112719300D01*
X81742821Y-112739302D01*
G37*
%TD.AperFunction*%
%TD*%
%TA.AperFunction,Conductor*%
%TO.N,/A_Ad_GND*%
G36*
X97275321Y-58973402D02*
G01*
X97321814Y-59027058D01*
X97333200Y-59079400D01*
X97333200Y-84481400D01*
X97313198Y-84549521D01*
X97259542Y-84596014D01*
X97207200Y-84607400D01*
X69900200Y-84607400D01*
X69832079Y-84587398D01*
X69785586Y-84533742D01*
X69774200Y-84481400D01*
X69774200Y-82222799D01*
X74734712Y-82222799D01*
X74756194Y-82311937D01*
X74760083Y-82323232D01*
X74842629Y-82504782D01*
X74848576Y-82515124D01*
X74963968Y-82677797D01*
X74971761Y-82686825D01*
X75115831Y-82824742D01*
X75125196Y-82832138D01*
X75292741Y-82940321D01*
X75303345Y-82945817D01*
X75488312Y-83020361D01*
X75499770Y-83023755D01*
X75696928Y-83062257D01*
X75705791Y-83063334D01*
X75708500Y-83063400D01*
X75812885Y-83063400D01*
X75828124Y-83058925D01*
X75829329Y-83057535D01*
X75831000Y-83049852D01*
X75831000Y-83045285D01*
X76339000Y-83045285D01*
X76343475Y-83060524D01*
X76344865Y-83061729D01*
X76352548Y-83063400D01*
X76409832Y-83063400D01*
X76415808Y-83063115D01*
X76564494Y-83048929D01*
X76576228Y-83046670D01*
X76767599Y-82990528D01*
X76778675Y-82986098D01*
X76955978Y-82894781D01*
X76966024Y-82888331D01*
X77122857Y-82765138D01*
X77131506Y-82756901D01*
X77262212Y-82606277D01*
X77269147Y-82596553D01*
X77369010Y-82423933D01*
X77373984Y-82413069D01*
X77439407Y-82224673D01*
X77439648Y-82223684D01*
X77438180Y-82213392D01*
X77424615Y-82209400D01*
X76357115Y-82209400D01*
X76341876Y-82213875D01*
X76340671Y-82215265D01*
X76339000Y-82222948D01*
X76339000Y-83045285D01*
X75831000Y-83045285D01*
X75831000Y-82227515D01*
X75826525Y-82212276D01*
X75825135Y-82211071D01*
X75817452Y-82209400D01*
X74749598Y-82209400D01*
X74736067Y-82213373D01*
X74734712Y-82222799D01*
X69774200Y-82222799D01*
X69774200Y-79901004D01*
X74697787Y-79901004D01*
X74707567Y-80112299D01*
X74708971Y-80118124D01*
X74708971Y-80118125D01*
X74716938Y-80151181D01*
X74757125Y-80317934D01*
X74844674Y-80510487D01*
X74967054Y-80683011D01*
X75119850Y-80829281D01*
X75124881Y-80832530D01*
X75124888Y-80832535D01*
X75152607Y-80850433D01*
X75198984Y-80904189D01*
X75208937Y-80974485D01*
X75179304Y-81039002D01*
X75162091Y-81055370D01*
X75047143Y-81145662D01*
X75038494Y-81153899D01*
X74907788Y-81304523D01*
X74900853Y-81314247D01*
X74800990Y-81486867D01*
X74796016Y-81497731D01*
X74730593Y-81686127D01*
X74730352Y-81687116D01*
X74731820Y-81697408D01*
X74745385Y-81701400D01*
X77420402Y-81701400D01*
X77433933Y-81697427D01*
X77435288Y-81688001D01*
X77413806Y-81598863D01*
X77409917Y-81587568D01*
X77327371Y-81406018D01*
X77321424Y-81395676D01*
X77206032Y-81233003D01*
X77198239Y-81223975D01*
X77049839Y-81081913D01*
X77051511Y-81080166D01*
X77016557Y-81030870D01*
X77013322Y-80959947D01*
X77048944Y-80898534D01*
X77112114Y-80866129D01*
X77135710Y-80863900D01*
X77544783Y-80863900D01*
X77564492Y-80865451D01*
X77578390Y-80867652D01*
X77584977Y-80867307D01*
X77584982Y-80867307D01*
X77646680Y-80864073D01*
X77653274Y-80863900D01*
X77673810Y-80863900D01*
X77677082Y-80863556D01*
X77677084Y-80863556D01*
X77694242Y-80861753D01*
X77700816Y-80861236D01*
X77762508Y-80858003D01*
X77762512Y-80858002D01*
X77769103Y-80857657D01*
X77775484Y-80855947D01*
X77775486Y-80855947D01*
X77782691Y-80854017D01*
X77802125Y-80850415D01*
X77809554Y-80849634D01*
X77809563Y-80849632D01*
X77816128Y-80848942D01*
X77881197Y-80827800D01*
X77887499Y-80825933D01*
X77953570Y-80808229D01*
X77966108Y-80801840D01*
X77984374Y-80794275D01*
X77991472Y-80791969D01*
X77991474Y-80791968D01*
X77997756Y-80789927D01*
X78056985Y-80755731D01*
X78062779Y-80752585D01*
X78073285Y-80747232D01*
X78123730Y-80721529D01*
X78134667Y-80712673D01*
X78150963Y-80701473D01*
X78157424Y-80697743D01*
X78157428Y-80697740D01*
X78163144Y-80694440D01*
X78206335Y-80655551D01*
X78270341Y-80624834D01*
X78340795Y-80633597D01*
X78395326Y-80679060D01*
X78399757Y-80686176D01*
X78407360Y-80699344D01*
X78411780Y-80704253D01*
X78411783Y-80704257D01*
X78434975Y-80730014D01*
X78443271Y-80740257D01*
X78467534Y-80773653D01*
X78472436Y-80778067D01*
X78472438Y-80778069D01*
X78498206Y-80801271D01*
X78507529Y-80810594D01*
X78527285Y-80832535D01*
X78535147Y-80841266D01*
X78568543Y-80865529D01*
X78578786Y-80873825D01*
X78604543Y-80897017D01*
X78604546Y-80897019D01*
X78609456Y-80901440D01*
X78645198Y-80922075D01*
X78656251Y-80929254D01*
X78684304Y-80949636D01*
X78684309Y-80949639D01*
X78689648Y-80953518D01*
X78695675Y-80956201D01*
X78695676Y-80956202D01*
X78727359Y-80970308D01*
X78739108Y-80976295D01*
X78774844Y-80996927D01*
X78781127Y-80998968D01*
X78781128Y-80998969D01*
X78814096Y-81009681D01*
X78826394Y-81014401D01*
X78864112Y-81031194D01*
X78870565Y-81032566D01*
X78870569Y-81032567D01*
X78904480Y-81039775D01*
X78917217Y-81043188D01*
X78950191Y-81053902D01*
X78950198Y-81053903D01*
X78956472Y-81055942D01*
X78963033Y-81056632D01*
X78963035Y-81056632D01*
X78977090Y-81058109D01*
X78997528Y-81060257D01*
X79010536Y-81062318D01*
X79050913Y-81070900D01*
X84733211Y-81070900D01*
X84801332Y-81090902D01*
X84828448Y-81114402D01*
X84844064Y-81132430D01*
X84844069Y-81132435D01*
X84847450Y-81136338D01*
X85019326Y-81279032D01*
X85089795Y-81320211D01*
X85092645Y-81321876D01*
X85141369Y-81373514D01*
X85154440Y-81443297D01*
X85127709Y-81509069D01*
X85087255Y-81542427D01*
X85074807Y-81548907D01*
X85070674Y-81552010D01*
X85070671Y-81552012D01*
X84900300Y-81679930D01*
X84896165Y-81683035D01*
X84741829Y-81844538D01*
X84615943Y-82029080D01*
X84600203Y-82062990D01*
X84530389Y-82213392D01*
X84521888Y-82231705D01*
X84462189Y-82446970D01*
X84438451Y-82669095D01*
X84438748Y-82674248D01*
X84438748Y-82674251D01*
X84444211Y-82768990D01*
X84451310Y-82892115D01*
X84452447Y-82897161D01*
X84452448Y-82897167D01*
X84462174Y-82940321D01*
X84500422Y-83110039D01*
X84584466Y-83317016D01*
X84701187Y-83507488D01*
X84847450Y-83676338D01*
X85019326Y-83819032D01*
X85212200Y-83931738D01*
X85420892Y-84011430D01*
X85425960Y-84012461D01*
X85425963Y-84012462D01*
X85533217Y-84034283D01*
X85639797Y-84055967D01*
X85644972Y-84056157D01*
X85644974Y-84056157D01*
X85857873Y-84063964D01*
X85857877Y-84063964D01*
X85863037Y-84064153D01*
X85868157Y-84063497D01*
X85868159Y-84063497D01*
X86079488Y-84036425D01*
X86079489Y-84036425D01*
X86084616Y-84035768D01*
X86089566Y-84034283D01*
X86293629Y-83973061D01*
X86293634Y-83973059D01*
X86298584Y-83971574D01*
X86499194Y-83873296D01*
X86681060Y-83743573D01*
X86839296Y-83585889D01*
X86898794Y-83503089D01*
X86966635Y-83408677D01*
X86969653Y-83404477D01*
X87068630Y-83204211D01*
X87111759Y-83062257D01*
X87132065Y-82995423D01*
X87132065Y-82995421D01*
X87133570Y-82990469D01*
X87162729Y-82768990D01*
X87162823Y-82765138D01*
X87164274Y-82705765D01*
X87164274Y-82705761D01*
X87164356Y-82702400D01*
X87146052Y-82479761D01*
X87091631Y-82263102D01*
X87002554Y-82058240D01*
X86881214Y-81870677D01*
X86730870Y-81705451D01*
X86726819Y-81702252D01*
X86726815Y-81702248D01*
X86559614Y-81570200D01*
X86559610Y-81570198D01*
X86555559Y-81566998D01*
X86514253Y-81544196D01*
X86464284Y-81493764D01*
X86449512Y-81424321D01*
X86474628Y-81357916D01*
X86501980Y-81331309D01*
X86545803Y-81300050D01*
X86681060Y-81203573D01*
X86777320Y-81107648D01*
X86839690Y-81073733D01*
X86866259Y-81070900D01*
X87497783Y-81070900D01*
X87517492Y-81072451D01*
X87531390Y-81074652D01*
X87537977Y-81074307D01*
X87537982Y-81074307D01*
X87599680Y-81071073D01*
X87606274Y-81070900D01*
X87626810Y-81070900D01*
X87630082Y-81070556D01*
X87630084Y-81070556D01*
X87647242Y-81068753D01*
X87653816Y-81068236D01*
X87715508Y-81065003D01*
X87715512Y-81065002D01*
X87722103Y-81064657D01*
X87728484Y-81062947D01*
X87728486Y-81062947D01*
X87735691Y-81061017D01*
X87755125Y-81057415D01*
X87762554Y-81056634D01*
X87762563Y-81056632D01*
X87769128Y-81055942D01*
X87834197Y-81034800D01*
X87840499Y-81032933D01*
X87906570Y-81015229D01*
X87919108Y-81008840D01*
X87937374Y-81001275D01*
X87944472Y-80998969D01*
X87944474Y-80998968D01*
X87950756Y-80996927D01*
X88009985Y-80962731D01*
X88015779Y-80959585D01*
X88076730Y-80928529D01*
X88087667Y-80919673D01*
X88103963Y-80908473D01*
X88110424Y-80904743D01*
X88110428Y-80904740D01*
X88116144Y-80901440D01*
X88121050Y-80897023D01*
X88121055Y-80897019D01*
X88166969Y-80855678D01*
X88171984Y-80851394D01*
X88180482Y-80844512D01*
X88187941Y-80838472D01*
X88202456Y-80823957D01*
X88207241Y-80819416D01*
X88217039Y-80810594D01*
X88258066Y-80773653D01*
X88266340Y-80762265D01*
X88279181Y-80747232D01*
X88875232Y-80151181D01*
X88890265Y-80138340D01*
X88896313Y-80133946D01*
X88896314Y-80133945D01*
X88901653Y-80130066D01*
X88947416Y-80079241D01*
X88951957Y-80074456D01*
X88966472Y-80059941D01*
X88979394Y-80043984D01*
X88983678Y-80038969D01*
X89025019Y-79993055D01*
X89025023Y-79993050D01*
X89029440Y-79988144D01*
X89032740Y-79982428D01*
X89032743Y-79982424D01*
X89036473Y-79975963D01*
X89047673Y-79959666D01*
X89052375Y-79953860D01*
X89052376Y-79953858D01*
X89056529Y-79948730D01*
X89083874Y-79895064D01*
X89087588Y-79887774D01*
X89090736Y-79881977D01*
X89121624Y-79828477D01*
X89124927Y-79822756D01*
X89129275Y-79809374D01*
X89136838Y-79791115D01*
X89143230Y-79778570D01*
X89160937Y-79712488D01*
X89162809Y-79706169D01*
X89181901Y-79647410D01*
X89181901Y-79647409D01*
X89183942Y-79641128D01*
X89185414Y-79627125D01*
X89189015Y-79607696D01*
X89192657Y-79594103D01*
X89196236Y-79525816D01*
X89196753Y-79519242D01*
X89198556Y-79502084D01*
X89198556Y-79502082D01*
X89198900Y-79498810D01*
X89198900Y-79478274D01*
X89199073Y-79471680D01*
X89202307Y-79409982D01*
X89202307Y-79409977D01*
X89202652Y-79403390D01*
X89200451Y-79389493D01*
X89198900Y-79369783D01*
X89198900Y-77915366D01*
X93969457Y-77915366D01*
X93999765Y-78049846D01*
X94002845Y-78059675D01*
X94082970Y-78257003D01*
X94087613Y-78266194D01*
X94198894Y-78447788D01*
X94204977Y-78456099D01*
X94344413Y-78617067D01*
X94351780Y-78624283D01*
X94515634Y-78760316D01*
X94524081Y-78766231D01*
X94707956Y-78873679D01*
X94717242Y-78878129D01*
X94916201Y-78954103D01*
X94926099Y-78956979D01*
X95029450Y-78978006D01*
X95043499Y-78976810D01*
X95047200Y-78966465D01*
X95047200Y-78965917D01*
X95555200Y-78965917D01*
X95559264Y-78979759D01*
X95572678Y-78981793D01*
X95579384Y-78980934D01*
X95589462Y-78978792D01*
X95793455Y-78917591D01*
X95803042Y-78913833D01*
X95994295Y-78820139D01*
X96003145Y-78814864D01*
X96176528Y-78691192D01*
X96184400Y-78684539D01*
X96335252Y-78534212D01*
X96341930Y-78526365D01*
X96466203Y-78353420D01*
X96471513Y-78344583D01*
X96565870Y-78153667D01*
X96569669Y-78144072D01*
X96631577Y-77940310D01*
X96633755Y-77930237D01*
X96635186Y-77919362D01*
X96632975Y-77905178D01*
X96619817Y-77901400D01*
X95573315Y-77901400D01*
X95558076Y-77905875D01*
X95556871Y-77907265D01*
X95555200Y-77914948D01*
X95555200Y-78965917D01*
X95047200Y-78965917D01*
X95047200Y-77919515D01*
X95042725Y-77904276D01*
X95041335Y-77903071D01*
X95033652Y-77901400D01*
X93984425Y-77901400D01*
X93970894Y-77905373D01*
X93969457Y-77915366D01*
X89198900Y-77915366D01*
X89198900Y-69101183D01*
X89218902Y-69033062D01*
X89224510Y-69025718D01*
X89224340Y-69025594D01*
X89228223Y-69020250D01*
X89232640Y-69015344D01*
X89235940Y-69009628D01*
X89235943Y-69009624D01*
X89239673Y-69003163D01*
X89250873Y-68986866D01*
X89255575Y-68981060D01*
X89255576Y-68981058D01*
X89259729Y-68975930D01*
X89290786Y-68914977D01*
X89293933Y-68909182D01*
X89324823Y-68855679D01*
X89324824Y-68855678D01*
X89328127Y-68849956D01*
X89332475Y-68836573D01*
X89340041Y-68818307D01*
X89343432Y-68811652D01*
X89346429Y-68805770D01*
X89352253Y-68784038D01*
X89364129Y-68739715D01*
X89366002Y-68733391D01*
X89377334Y-68698514D01*
X89387142Y-68668328D01*
X89387832Y-68661762D01*
X89387833Y-68661757D01*
X89388612Y-68654339D01*
X89392217Y-68634888D01*
X89394147Y-68627685D01*
X89395857Y-68621304D01*
X89396608Y-68606984D01*
X89399436Y-68553015D01*
X89399953Y-68546440D01*
X89406414Y-68484966D01*
X89406414Y-68484965D01*
X89407104Y-68478400D01*
X89405633Y-68464401D01*
X89405116Y-68444641D01*
X89405507Y-68437184D01*
X89405507Y-68437180D01*
X89405852Y-68430591D01*
X89395150Y-68363019D01*
X89394292Y-68356502D01*
X89394219Y-68355800D01*
X89387142Y-68288472D01*
X89382795Y-68275093D01*
X89378178Y-68255864D01*
X89377010Y-68248491D01*
X89375977Y-68241968D01*
X89351461Y-68178101D01*
X89349264Y-68171897D01*
X89330166Y-68113120D01*
X89328127Y-68106844D01*
X89321093Y-68094661D01*
X89312581Y-68076814D01*
X89309907Y-68069848D01*
X89309904Y-68069843D01*
X89307538Y-68063678D01*
X89270279Y-68006304D01*
X89266833Y-68000680D01*
X89235943Y-67947177D01*
X89232640Y-67941456D01*
X89223228Y-67931003D01*
X89211192Y-67915317D01*
X89207124Y-67909053D01*
X89207122Y-67909051D01*
X89203526Y-67903513D01*
X89155157Y-67855144D01*
X89150616Y-67850359D01*
X89109273Y-67804443D01*
X89104853Y-67799534D01*
X89093465Y-67791260D01*
X89078432Y-67778419D01*
X89068487Y-67768474D01*
X89062947Y-67764876D01*
X89011125Y-67731222D01*
X89005690Y-67727487D01*
X88955692Y-67691162D01*
X88950352Y-67687282D01*
X88944322Y-67684597D01*
X88944318Y-67684595D01*
X88937494Y-67681557D01*
X88920120Y-67672124D01*
X88908322Y-67664462D01*
X88902161Y-67662097D01*
X88902157Y-67662095D01*
X88844467Y-67639950D01*
X88838394Y-67637435D01*
X88775888Y-67609606D01*
X88769434Y-67608234D01*
X88769430Y-67608233D01*
X88762127Y-67606681D01*
X88743168Y-67601066D01*
X88730032Y-67596023D01*
X88705593Y-67592152D01*
X88662483Y-67585324D01*
X88655999Y-67584122D01*
X88595546Y-67571273D01*
X88595547Y-67571273D01*
X88589087Y-67569900D01*
X88575016Y-67569900D01*
X88555307Y-67568349D01*
X88541409Y-67566148D01*
X88534822Y-67566493D01*
X88534817Y-67566493D01*
X88473119Y-67569727D01*
X88466525Y-67569900D01*
X88398113Y-67569900D01*
X88391653Y-67571273D01*
X88391646Y-67571274D01*
X88384347Y-67572826D01*
X88364742Y-67575407D01*
X88364071Y-67575442D01*
X88350696Y-67576143D01*
X88344321Y-67577851D01*
X88344316Y-67577852D01*
X88284634Y-67593844D01*
X88278226Y-67595383D01*
X88211312Y-67609606D01*
X88205277Y-67612293D01*
X88198453Y-67615331D01*
X88179821Y-67621929D01*
X88172608Y-67623862D01*
X88166230Y-67625571D01*
X88160351Y-67628566D01*
X88160347Y-67628568D01*
X88105304Y-67656614D01*
X88099351Y-67659454D01*
X88042878Y-67684597D01*
X88042876Y-67684598D01*
X88036848Y-67687282D01*
X88031510Y-67691160D01*
X88031507Y-67691162D01*
X88025464Y-67695553D01*
X88008607Y-67705883D01*
X87996070Y-67712271D01*
X87990938Y-67716427D01*
X87990933Y-67716430D01*
X87942909Y-67755319D01*
X87937681Y-67759331D01*
X87882347Y-67799534D01*
X87877927Y-67804443D01*
X87877925Y-67804445D01*
X87836584Y-67850359D01*
X87832043Y-67855144D01*
X87705568Y-67981619D01*
X87690535Y-67994460D01*
X87679147Y-68002734D01*
X87674727Y-68007643D01*
X87633384Y-68053559D01*
X87628843Y-68058344D01*
X87614328Y-68072859D01*
X87608288Y-68080318D01*
X87601406Y-68088816D01*
X87597122Y-68093831D01*
X87555781Y-68139745D01*
X87555777Y-68139750D01*
X87551360Y-68144656D01*
X87548060Y-68150372D01*
X87548057Y-68150376D01*
X87544327Y-68156837D01*
X87533127Y-68173134D01*
X87529093Y-68178116D01*
X87524271Y-68184070D01*
X87519376Y-68193677D01*
X87493215Y-68245021D01*
X87490067Y-68250818D01*
X87468328Y-68288472D01*
X87455873Y-68310044D01*
X87453832Y-68316326D01*
X87453831Y-68316328D01*
X87451525Y-68323426D01*
X87443960Y-68341692D01*
X87437571Y-68354230D01*
X87435863Y-68360603D01*
X87435863Y-68360604D01*
X87419869Y-68420295D01*
X87418000Y-68426603D01*
X87396858Y-68491672D01*
X87396168Y-68498237D01*
X87396166Y-68498246D01*
X87395385Y-68505675D01*
X87391783Y-68525109D01*
X87390052Y-68531571D01*
X87388143Y-68538697D01*
X87387798Y-68545288D01*
X87387797Y-68545292D01*
X87384564Y-68606984D01*
X87384047Y-68613558D01*
X87383233Y-68621304D01*
X87381900Y-68633990D01*
X87381900Y-68654526D01*
X87381727Y-68661120D01*
X87380929Y-68676355D01*
X87378148Y-68729410D01*
X87380305Y-68743025D01*
X87380349Y-68743305D01*
X87381900Y-68763017D01*
X87381900Y-69699874D01*
X87361898Y-69767995D01*
X87308242Y-69814488D01*
X87237968Y-69824592D01*
X87173388Y-69795098D01*
X87133696Y-69730569D01*
X87099171Y-69593120D01*
X87091631Y-69563102D01*
X87002554Y-69358240D01*
X86963106Y-69297262D01*
X86884022Y-69175017D01*
X86884020Y-69175014D01*
X86881214Y-69170677D01*
X86730870Y-69005451D01*
X86726819Y-69002252D01*
X86726815Y-69002248D01*
X86559614Y-68870200D01*
X86559610Y-68870198D01*
X86555559Y-68866998D01*
X86513769Y-68843929D01*
X86463798Y-68793497D01*
X86449026Y-68724054D01*
X86474142Y-68657648D01*
X86501494Y-68631041D01*
X86676528Y-68506192D01*
X86684400Y-68499539D01*
X86835252Y-68349212D01*
X86841930Y-68341365D01*
X86966203Y-68168420D01*
X86971513Y-68159583D01*
X87065870Y-67968667D01*
X87069669Y-67959072D01*
X87131577Y-67755310D01*
X87133755Y-67745237D01*
X87135186Y-67734362D01*
X87132975Y-67720178D01*
X87119817Y-67716400D01*
X84484425Y-67716400D01*
X84470894Y-67720373D01*
X84469457Y-67730366D01*
X84499765Y-67864846D01*
X84502845Y-67874675D01*
X84582970Y-68072003D01*
X84587613Y-68081194D01*
X84698894Y-68262788D01*
X84704977Y-68271099D01*
X84844413Y-68432067D01*
X84851780Y-68439283D01*
X85015634Y-68575316D01*
X85024081Y-68581231D01*
X85093169Y-68621603D01*
X85141893Y-68673242D01*
X85154964Y-68743025D01*
X85128233Y-68808796D01*
X85087784Y-68842152D01*
X85074807Y-68848907D01*
X85070674Y-68852010D01*
X85070671Y-68852012D01*
X84905628Y-68975930D01*
X84896165Y-68983035D01*
X84850854Y-69030451D01*
X84827441Y-69054951D01*
X84765917Y-69090381D01*
X84736347Y-69093900D01*
X83448590Y-69093900D01*
X83428880Y-69092349D01*
X83421500Y-69091180D01*
X83421499Y-69091180D01*
X83414983Y-69090148D01*
X83408396Y-69090493D01*
X83408391Y-69090493D01*
X83346693Y-69093727D01*
X83340099Y-69093900D01*
X83319563Y-69093900D01*
X83316291Y-69094244D01*
X83316289Y-69094244D01*
X83299131Y-69096047D01*
X83292557Y-69096564D01*
X83230869Y-69099797D01*
X83230867Y-69099797D01*
X83224270Y-69100143D01*
X83210677Y-69103785D01*
X83191248Y-69107386D01*
X83177245Y-69108858D01*
X83112198Y-69129993D01*
X83105885Y-69131863D01*
X83085247Y-69137393D01*
X83046176Y-69147862D01*
X83046173Y-69147863D01*
X83039803Y-69149570D01*
X83027258Y-69155962D01*
X83008999Y-69163525D01*
X82995617Y-69167873D01*
X82989896Y-69171176D01*
X82936396Y-69202064D01*
X82930599Y-69205212D01*
X82875524Y-69233274D01*
X82875521Y-69233276D01*
X82869643Y-69236271D01*
X82864515Y-69240424D01*
X82864513Y-69240425D01*
X82858707Y-69245127D01*
X82842410Y-69256327D01*
X82835949Y-69260057D01*
X82835945Y-69260060D01*
X82830229Y-69263360D01*
X82825323Y-69267777D01*
X82825318Y-69267781D01*
X82779404Y-69309122D01*
X82774389Y-69313406D01*
X82773714Y-69313953D01*
X82758432Y-69326328D01*
X82743917Y-69340843D01*
X82739132Y-69345384D01*
X82688307Y-69391147D01*
X82684428Y-69396486D01*
X82684427Y-69396487D01*
X82680033Y-69402535D01*
X82667192Y-69417568D01*
X79304795Y-72779965D01*
X79242483Y-72813991D01*
X79171668Y-72808926D01*
X79114832Y-72766379D01*
X79090021Y-72699859D01*
X79089700Y-72690870D01*
X79089700Y-67687703D01*
X79109702Y-67619582D01*
X79126605Y-67598608D01*
X79477232Y-67247981D01*
X79492265Y-67235140D01*
X79498313Y-67230746D01*
X79498314Y-67230745D01*
X79503653Y-67226866D01*
X79530920Y-67196583D01*
X84465589Y-67196583D01*
X84467112Y-67205007D01*
X84479492Y-67208400D01*
X85529085Y-67208400D01*
X85544324Y-67203925D01*
X85545529Y-67202535D01*
X85547200Y-67194852D01*
X85547200Y-67190285D01*
X86055200Y-67190285D01*
X86059675Y-67205524D01*
X86061065Y-67206729D01*
X86068748Y-67208400D01*
X87119544Y-67208400D01*
X87133075Y-67204427D01*
X87134380Y-67195347D01*
X87092414Y-67028275D01*
X87089094Y-67018524D01*
X87004172Y-66823214D01*
X86999305Y-66814139D01*
X86883626Y-66635326D01*
X86877336Y-66627157D01*
X86734006Y-66469640D01*
X86726473Y-66462615D01*
X86559339Y-66330622D01*
X86550752Y-66324917D01*
X86513316Y-66304251D01*
X86463346Y-66253819D01*
X86448574Y-66184376D01*
X86473690Y-66117971D01*
X86501042Y-66091364D01*
X86676527Y-65966192D01*
X86684400Y-65959539D01*
X86835252Y-65809212D01*
X86841930Y-65801365D01*
X86966203Y-65628420D01*
X86971513Y-65619583D01*
X87065870Y-65428667D01*
X87069669Y-65419072D01*
X87131577Y-65215310D01*
X87133755Y-65205237D01*
X87135186Y-65194362D01*
X87132975Y-65180178D01*
X87119817Y-65176400D01*
X86073315Y-65176400D01*
X86058076Y-65180875D01*
X86056871Y-65182265D01*
X86055200Y-65189948D01*
X86055200Y-67190285D01*
X85547200Y-67190285D01*
X85547200Y-65194515D01*
X85542725Y-65179276D01*
X85541335Y-65178071D01*
X85533652Y-65176400D01*
X84484425Y-65176400D01*
X84470894Y-65180373D01*
X84469457Y-65190366D01*
X84499765Y-65324846D01*
X84502845Y-65334675D01*
X84582970Y-65532003D01*
X84587613Y-65541194D01*
X84698894Y-65722788D01*
X84704977Y-65731099D01*
X84844413Y-65892067D01*
X84851780Y-65899283D01*
X85015634Y-66035316D01*
X85024081Y-66041231D01*
X85093679Y-66081901D01*
X85142403Y-66133540D01*
X85155474Y-66203323D01*
X85128743Y-66269094D01*
X85088287Y-66302453D01*
X85079662Y-66306942D01*
X85070938Y-66312436D01*
X84900633Y-66440305D01*
X84892926Y-66447148D01*
X84745790Y-66601117D01*
X84739304Y-66609127D01*
X84619298Y-66785049D01*
X84614200Y-66794023D01*
X84524538Y-66987183D01*
X84520975Y-66996870D01*
X84465589Y-67196583D01*
X79530920Y-67196583D01*
X79549416Y-67176041D01*
X79553957Y-67171256D01*
X79568472Y-67156741D01*
X79581394Y-67140784D01*
X79585678Y-67135769D01*
X79627019Y-67089855D01*
X79627023Y-67089850D01*
X79631440Y-67084944D01*
X79634740Y-67079228D01*
X79634743Y-67079224D01*
X79638473Y-67072763D01*
X79649673Y-67056466D01*
X79654375Y-67050660D01*
X79654376Y-67050658D01*
X79658529Y-67045530D01*
X79670673Y-67021697D01*
X79689588Y-66984574D01*
X79692736Y-66978777D01*
X79723624Y-66925277D01*
X79726927Y-66919556D01*
X79731275Y-66906174D01*
X79738838Y-66887915D01*
X79745230Y-66875370D01*
X79762937Y-66809288D01*
X79764809Y-66802969D01*
X79783901Y-66744210D01*
X79783901Y-66744209D01*
X79785942Y-66737928D01*
X79787414Y-66723925D01*
X79791015Y-66704496D01*
X79794657Y-66690903D01*
X79795003Y-66684304D01*
X79798236Y-66622616D01*
X79798753Y-66616041D01*
X79805214Y-66554566D01*
X79805214Y-66554565D01*
X79805904Y-66548000D01*
X79804433Y-66533999D01*
X79803916Y-66514241D01*
X79804307Y-66506782D01*
X79804307Y-66506778D01*
X79804652Y-66500190D01*
X79793950Y-66432615D01*
X79793091Y-66426092D01*
X79790469Y-66401138D01*
X79785942Y-66358072D01*
X79783904Y-66351801D01*
X79783902Y-66351790D01*
X79781596Y-66344694D01*
X79776980Y-66325471D01*
X79775810Y-66318085D01*
X79774778Y-66311567D01*
X79772413Y-66305406D01*
X79772412Y-66305402D01*
X79750263Y-66247703D01*
X79748061Y-66241486D01*
X79728968Y-66182725D01*
X79728968Y-66182724D01*
X79726927Y-66176444D01*
X79719893Y-66164260D01*
X79711384Y-66146420D01*
X79708708Y-66139448D01*
X79708703Y-66139439D01*
X79706338Y-66133277D01*
X79669078Y-66075901D01*
X79665635Y-66070282D01*
X79634742Y-66016773D01*
X79634736Y-66016765D01*
X79631440Y-66011056D01*
X79627028Y-66006156D01*
X79627025Y-66006152D01*
X79622028Y-66000603D01*
X79609992Y-65984917D01*
X79605924Y-65978653D01*
X79605922Y-65978651D01*
X79602326Y-65973113D01*
X79553957Y-65924744D01*
X79549416Y-65919959D01*
X79508073Y-65874043D01*
X79503653Y-65869134D01*
X79492265Y-65860860D01*
X79477232Y-65848019D01*
X79467287Y-65838074D01*
X79461747Y-65834476D01*
X79409922Y-65800820D01*
X79404487Y-65797085D01*
X79368559Y-65770982D01*
X79349152Y-65756882D01*
X79336294Y-65751157D01*
X79318929Y-65741729D01*
X79312660Y-65737658D01*
X79307123Y-65734062D01*
X79300957Y-65731695D01*
X79300955Y-65731694D01*
X79243263Y-65709548D01*
X79237168Y-65707024D01*
X79174688Y-65679206D01*
X79160923Y-65676280D01*
X79141973Y-65670666D01*
X79134999Y-65667989D01*
X79135000Y-65667989D01*
X79128833Y-65665622D01*
X79122317Y-65664590D01*
X79122313Y-65664589D01*
X79061254Y-65654919D01*
X79054800Y-65653723D01*
X78987887Y-65639500D01*
X78973817Y-65639500D01*
X78954107Y-65637949D01*
X78946727Y-65636780D01*
X78946726Y-65636780D01*
X78940210Y-65635748D01*
X78933623Y-65636093D01*
X78933618Y-65636093D01*
X78871920Y-65639327D01*
X78865326Y-65639500D01*
X78796913Y-65639500D01*
X78783148Y-65642426D01*
X78763543Y-65645007D01*
X78749497Y-65645743D01*
X78743124Y-65647451D01*
X78743122Y-65647451D01*
X78683427Y-65663446D01*
X78677013Y-65664986D01*
X78616571Y-65677833D01*
X78616570Y-65677833D01*
X78610112Y-65679206D01*
X78604074Y-65681894D01*
X78604075Y-65681894D01*
X78597260Y-65684928D01*
X78578627Y-65691527D01*
X78565030Y-65695170D01*
X78504052Y-65726240D01*
X78498170Y-65729045D01*
X78435648Y-65756882D01*
X78430301Y-65760767D01*
X78424266Y-65765152D01*
X78407409Y-65775482D01*
X78400758Y-65778871D01*
X78394870Y-65781871D01*
X78389740Y-65786025D01*
X78389731Y-65786031D01*
X78341709Y-65824919D01*
X78336481Y-65828931D01*
X78281147Y-65869134D01*
X78276727Y-65874043D01*
X78276725Y-65874045D01*
X78235384Y-65919959D01*
X78230843Y-65924744D01*
X77596368Y-66559219D01*
X77581335Y-66572060D01*
X77569947Y-66580334D01*
X77565527Y-66585243D01*
X77524184Y-66631159D01*
X77519643Y-66635944D01*
X77505128Y-66650459D01*
X77503052Y-66653023D01*
X77492206Y-66666416D01*
X77487922Y-66671431D01*
X77446581Y-66717345D01*
X77446577Y-66717350D01*
X77442160Y-66722256D01*
X77438860Y-66727972D01*
X77438857Y-66727976D01*
X77435127Y-66734437D01*
X77423927Y-66750733D01*
X77415071Y-66761670D01*
X77390547Y-66809801D01*
X77384015Y-66822621D01*
X77380869Y-66828415D01*
X77370196Y-66846900D01*
X77350369Y-66881243D01*
X77346673Y-66887644D01*
X77344632Y-66893926D01*
X77344631Y-66893928D01*
X77342325Y-66901026D01*
X77334760Y-66919292D01*
X77328371Y-66931830D01*
X77326421Y-66930836D01*
X77289512Y-66979178D01*
X77222759Y-67003356D01*
X77148849Y-66984857D01*
X77077090Y-66940624D01*
X77038968Y-66917125D01*
X77038966Y-66917124D01*
X77032738Y-66913285D01*
X76872254Y-66860055D01*
X76871389Y-66859768D01*
X76871387Y-66859768D01*
X76864861Y-66857603D01*
X76858025Y-66856903D01*
X76858022Y-66856902D01*
X76814969Y-66852491D01*
X76760400Y-66846900D01*
X75409600Y-66846900D01*
X75406354Y-66847237D01*
X75406350Y-66847237D01*
X75310692Y-66857162D01*
X75310688Y-66857163D01*
X75303834Y-66857874D01*
X75297298Y-66860055D01*
X75297296Y-66860055D01*
X75213826Y-66887903D01*
X75136054Y-66913850D01*
X74985652Y-67006922D01*
X74860695Y-67132097D01*
X74856855Y-67138327D01*
X74856854Y-67138328D01*
X74795966Y-67237107D01*
X74767885Y-67282662D01*
X74712203Y-67450539D01*
X74701500Y-67555000D01*
X74701500Y-68355800D01*
X74701837Y-68359046D01*
X74701837Y-68359050D01*
X74710718Y-68444641D01*
X74712474Y-68461566D01*
X74714655Y-68468102D01*
X74714655Y-68468104D01*
X74758728Y-68600206D01*
X74768450Y-68629346D01*
X74861522Y-68779748D01*
X74986697Y-68904705D01*
X74992927Y-68908545D01*
X74992928Y-68908546D01*
X75038236Y-68936474D01*
X75085729Y-68989246D01*
X75097153Y-69059318D01*
X75068879Y-69124442D01*
X75049955Y-69142818D01*
X75042080Y-69149004D01*
X75038148Y-69153535D01*
X75038145Y-69153538D01*
X74953253Y-69251368D01*
X74903448Y-69308763D01*
X74900448Y-69313949D01*
X74900445Y-69313953D01*
X74806661Y-69476065D01*
X74797527Y-69491854D01*
X74728139Y-69691671D01*
X74727278Y-69697606D01*
X74727278Y-69697608D01*
X74711742Y-69804761D01*
X74697787Y-69901004D01*
X74707567Y-70112299D01*
X74708971Y-70118124D01*
X74708971Y-70118125D01*
X74755295Y-70310339D01*
X74757125Y-70317934D01*
X74844674Y-70510487D01*
X74967054Y-70683011D01*
X75119850Y-70829281D01*
X75124888Y-70832534D01*
X75152163Y-70850146D01*
X75198540Y-70903901D01*
X75208493Y-70974197D01*
X75178861Y-71038714D01*
X75161649Y-71055081D01*
X75042080Y-71149004D01*
X75038148Y-71153535D01*
X75038145Y-71153538D01*
X74970287Y-71231738D01*
X74903448Y-71308763D01*
X74900448Y-71313949D01*
X74900445Y-71313953D01*
X74830302Y-71435200D01*
X74797527Y-71491854D01*
X74728139Y-71691671D01*
X74697787Y-71901004D01*
X74707567Y-72112299D01*
X74708971Y-72118124D01*
X74708971Y-72118125D01*
X74755688Y-72311970D01*
X74757125Y-72317934D01*
X74759607Y-72323392D01*
X74759608Y-72323396D01*
X74771669Y-72349922D01*
X74844674Y-72510487D01*
X74967054Y-72683011D01*
X75119850Y-72829281D01*
X75124888Y-72832534D01*
X75152163Y-72850146D01*
X75198540Y-72903901D01*
X75208493Y-72974197D01*
X75178861Y-73038714D01*
X75161649Y-73055081D01*
X75042080Y-73149004D01*
X75038148Y-73153535D01*
X75038145Y-73153538D01*
X74955588Y-73248677D01*
X74903448Y-73308763D01*
X74900448Y-73313949D01*
X74900445Y-73313953D01*
X74838117Y-73421692D01*
X74797527Y-73491854D01*
X74728139Y-73691671D01*
X74727278Y-73697606D01*
X74727278Y-73697608D01*
X74701737Y-73873764D01*
X74697787Y-73901004D01*
X74707567Y-74112299D01*
X74708971Y-74118124D01*
X74708971Y-74118125D01*
X74740642Y-74249538D01*
X74757125Y-74317934D01*
X74844674Y-74510487D01*
X74967054Y-74683011D01*
X75119850Y-74829281D01*
X75124888Y-74832534D01*
X75152163Y-74850146D01*
X75198540Y-74903901D01*
X75208493Y-74974197D01*
X75178861Y-75038714D01*
X75161649Y-75055081D01*
X75042080Y-75149004D01*
X75038148Y-75153535D01*
X75038145Y-75153538D01*
X74932038Y-75275816D01*
X74903448Y-75308763D01*
X74900448Y-75313949D01*
X74900445Y-75313953D01*
X74850421Y-75400423D01*
X74797527Y-75491854D01*
X74728139Y-75691671D01*
X74727278Y-75697606D01*
X74727278Y-75697608D01*
X74699747Y-75887488D01*
X74697787Y-75901004D01*
X74707567Y-76112299D01*
X74708971Y-76118124D01*
X74708971Y-76118125D01*
X74753584Y-76303239D01*
X74757125Y-76317934D01*
X74759607Y-76323392D01*
X74759608Y-76323396D01*
X74783787Y-76376574D01*
X74844674Y-76510487D01*
X74864653Y-76538652D01*
X74963541Y-76678058D01*
X74967054Y-76683011D01*
X75119850Y-76829281D01*
X75124888Y-76832534D01*
X75152163Y-76850146D01*
X75198540Y-76903901D01*
X75208493Y-76974197D01*
X75178861Y-77038714D01*
X75161649Y-77055081D01*
X75042080Y-77149004D01*
X75038148Y-77153535D01*
X75038145Y-77153538D01*
X74963728Y-77239296D01*
X74903448Y-77308763D01*
X74900448Y-77313949D01*
X74900445Y-77313953D01*
X74837521Y-77422722D01*
X74797527Y-77491854D01*
X74728139Y-77691671D01*
X74727278Y-77697606D01*
X74727278Y-77697608D01*
X74704619Y-77853888D01*
X74697787Y-77901004D01*
X74707567Y-78112299D01*
X74708971Y-78118124D01*
X74708971Y-78118125D01*
X74744656Y-78266194D01*
X74757125Y-78317934D01*
X74759607Y-78323392D01*
X74759608Y-78323396D01*
X74803023Y-78418881D01*
X74844674Y-78510487D01*
X74967054Y-78683011D01*
X75119850Y-78829281D01*
X75124888Y-78832534D01*
X75152163Y-78850146D01*
X75198540Y-78903901D01*
X75208493Y-78974197D01*
X75178861Y-79038714D01*
X75161649Y-79055081D01*
X75042080Y-79149004D01*
X75038148Y-79153535D01*
X75038145Y-79153538D01*
X74954109Y-79250381D01*
X74903448Y-79308763D01*
X74900448Y-79313949D01*
X74900445Y-79313953D01*
X74868147Y-79369783D01*
X74797527Y-79491854D01*
X74728139Y-79691671D01*
X74727278Y-79697606D01*
X74727278Y-79697608D01*
X74700131Y-79884841D01*
X74697787Y-79901004D01*
X69774200Y-79901004D01*
X69774200Y-63280534D01*
X84442700Y-63280534D01*
X84449455Y-63342716D01*
X84500585Y-63479105D01*
X84587939Y-63595661D01*
X84704495Y-63683015D01*
X84712904Y-63686167D01*
X84712905Y-63686168D01*
X84822160Y-63727126D01*
X84878925Y-63769767D01*
X84903625Y-63836329D01*
X84888418Y-63905678D01*
X84869025Y-63932159D01*
X84745790Y-64061117D01*
X84739304Y-64069127D01*
X84619298Y-64245049D01*
X84614200Y-64254023D01*
X84524538Y-64447183D01*
X84520975Y-64456870D01*
X84465589Y-64656583D01*
X84467112Y-64665007D01*
X84479492Y-64668400D01*
X87119544Y-64668400D01*
X87133075Y-64664427D01*
X87134380Y-64655347D01*
X87092414Y-64488275D01*
X87089094Y-64478524D01*
X87004172Y-64283214D01*
X86999305Y-64274139D01*
X86883626Y-64095326D01*
X86877336Y-64087157D01*
X86733493Y-63929077D01*
X86702441Y-63865231D01*
X86710835Y-63794733D01*
X86756012Y-63739964D01*
X86782456Y-63726295D01*
X86889497Y-63686167D01*
X86897905Y-63683015D01*
X87014461Y-63595661D01*
X87101815Y-63479105D01*
X87141716Y-63372670D01*
X87184358Y-63315906D01*
X87250919Y-63291206D01*
X87259698Y-63290900D01*
X92307697Y-63290900D01*
X92375818Y-63310902D01*
X92396792Y-63327805D01*
X93905795Y-64836808D01*
X93939821Y-64899120D01*
X93942700Y-64925903D01*
X93942700Y-65845534D01*
X93949455Y-65907716D01*
X94000585Y-66044105D01*
X94087939Y-66160661D01*
X94204495Y-66248015D01*
X94212904Y-66251167D01*
X94212905Y-66251168D01*
X94321651Y-66291935D01*
X94378416Y-66334576D01*
X94403116Y-66401138D01*
X94387909Y-66470487D01*
X94368516Y-66496968D01*
X94241829Y-66629538D01*
X94238915Y-66633810D01*
X94238914Y-66633811D01*
X94190703Y-66704486D01*
X94115943Y-66814080D01*
X94081796Y-66887644D01*
X94029144Y-67001074D01*
X94021888Y-67016705D01*
X93962189Y-67231970D01*
X93938451Y-67454095D01*
X93938748Y-67459248D01*
X93938748Y-67459251D01*
X93948338Y-67625571D01*
X93951310Y-67677115D01*
X93952447Y-67682161D01*
X93952448Y-67682167D01*
X93964211Y-67734362D01*
X94000422Y-67895039D01*
X94061873Y-68046376D01*
X94074233Y-68076814D01*
X94084466Y-68102016D01*
X94087165Y-68106420D01*
X94175652Y-68250818D01*
X94201187Y-68292488D01*
X94347450Y-68461338D01*
X94519326Y-68604032D01*
X94565547Y-68631041D01*
X94592645Y-68646876D01*
X94641369Y-68698514D01*
X94654440Y-68768297D01*
X94627709Y-68834069D01*
X94587255Y-68867427D01*
X94574807Y-68873907D01*
X94570674Y-68877010D01*
X94570671Y-68877012D01*
X94400300Y-69004930D01*
X94396165Y-69008035D01*
X94241829Y-69169538D01*
X94115943Y-69354080D01*
X94093451Y-69402535D01*
X94054403Y-69486658D01*
X94021888Y-69556705D01*
X93962189Y-69771970D01*
X93938451Y-69994095D01*
X93938748Y-69999248D01*
X93938748Y-69999251D01*
X93944211Y-70093990D01*
X93951310Y-70217115D01*
X93952447Y-70222161D01*
X93952448Y-70222167D01*
X93967990Y-70291128D01*
X94000422Y-70435039D01*
X94084466Y-70642016D01*
X94087165Y-70646420D01*
X94196682Y-70825136D01*
X94201187Y-70832488D01*
X94347450Y-71001338D01*
X94519326Y-71144032D01*
X94566005Y-71171309D01*
X94592645Y-71186876D01*
X94641369Y-71238514D01*
X94654440Y-71308297D01*
X94627709Y-71374069D01*
X94587255Y-71407427D01*
X94574807Y-71413907D01*
X94570674Y-71417010D01*
X94570671Y-71417012D01*
X94400300Y-71544930D01*
X94396165Y-71548035D01*
X94392593Y-71551773D01*
X94253230Y-71697608D01*
X94241829Y-71709538D01*
X94115943Y-71894080D01*
X94021888Y-72096705D01*
X93962189Y-72311970D01*
X93938451Y-72534095D01*
X93938748Y-72539248D01*
X93938748Y-72539251D01*
X93947037Y-72683011D01*
X93951310Y-72757115D01*
X93952447Y-72762161D01*
X93952448Y-72762167D01*
X93968957Y-72835420D01*
X94000422Y-72975039D01*
X94084466Y-73182016D01*
X94201187Y-73372488D01*
X94347450Y-73541338D01*
X94519326Y-73684032D01*
X94532399Y-73691671D01*
X94592645Y-73726876D01*
X94641369Y-73778514D01*
X94654440Y-73848297D01*
X94627709Y-73914069D01*
X94587255Y-73947427D01*
X94574807Y-73953907D01*
X94570674Y-73957010D01*
X94570671Y-73957012D01*
X94400300Y-74084930D01*
X94396165Y-74088035D01*
X94241829Y-74249538D01*
X94115943Y-74434080D01*
X94021888Y-74636705D01*
X93962189Y-74851970D01*
X93938451Y-75074095D01*
X93938748Y-75079248D01*
X93938748Y-75079251D01*
X93950082Y-75275816D01*
X93951310Y-75297115D01*
X93952447Y-75302161D01*
X93952448Y-75302167D01*
X93967990Y-75371128D01*
X94000422Y-75515039D01*
X94084466Y-75722016D01*
X94087165Y-75726420D01*
X94197825Y-75907001D01*
X94201187Y-75912488D01*
X94347450Y-76081338D01*
X94519326Y-76224032D01*
X94566005Y-76251309D01*
X94593155Y-76267174D01*
X94641879Y-76318812D01*
X94654950Y-76388595D01*
X94628219Y-76454367D01*
X94587762Y-76487727D01*
X94579657Y-76491946D01*
X94570938Y-76497436D01*
X94400633Y-76625305D01*
X94392926Y-76632148D01*
X94245790Y-76786117D01*
X94239304Y-76794127D01*
X94119298Y-76970049D01*
X94114200Y-76979023D01*
X94024538Y-77172183D01*
X94020975Y-77181870D01*
X93965589Y-77381583D01*
X93967112Y-77390007D01*
X93979492Y-77393400D01*
X96619544Y-77393400D01*
X96633075Y-77389427D01*
X96634380Y-77380347D01*
X96592414Y-77213275D01*
X96589094Y-77203524D01*
X96504172Y-77008214D01*
X96499305Y-76999139D01*
X96383626Y-76820326D01*
X96377336Y-76812157D01*
X96234006Y-76654640D01*
X96226473Y-76647615D01*
X96059339Y-76515622D01*
X96050756Y-76509920D01*
X96013802Y-76489520D01*
X95963831Y-76439087D01*
X95949059Y-76369645D01*
X95974175Y-76303239D01*
X96001527Y-76276632D01*
X96050253Y-76241876D01*
X96181060Y-76148573D01*
X96339296Y-75990889D01*
X96374007Y-75942584D01*
X96466635Y-75813677D01*
X96469653Y-75809477D01*
X96484302Y-75779838D01*
X96566336Y-75613853D01*
X96566337Y-75613851D01*
X96568630Y-75609211D01*
X96633570Y-75395469D01*
X96662729Y-75173990D01*
X96663229Y-75153538D01*
X96664274Y-75110765D01*
X96664274Y-75110761D01*
X96664356Y-75107400D01*
X96646052Y-74884761D01*
X96591631Y-74668102D01*
X96502554Y-74463240D01*
X96412085Y-74323396D01*
X96384022Y-74280017D01*
X96384020Y-74280014D01*
X96381214Y-74275677D01*
X96230870Y-74110451D01*
X96226819Y-74107252D01*
X96226815Y-74107248D01*
X96059614Y-73975200D01*
X96059610Y-73975198D01*
X96055559Y-73971998D01*
X96014253Y-73949196D01*
X95964284Y-73898764D01*
X95949512Y-73829321D01*
X95974628Y-73762916D01*
X96001980Y-73736309D01*
X96064560Y-73691671D01*
X96181060Y-73608573D01*
X96339296Y-73450889D01*
X96398794Y-73368089D01*
X96466635Y-73273677D01*
X96469653Y-73269477D01*
X96484302Y-73239838D01*
X96566336Y-73073853D01*
X96566337Y-73073851D01*
X96568630Y-73069211D01*
X96608920Y-72936603D01*
X96632065Y-72860423D01*
X96632065Y-72860421D01*
X96633570Y-72855469D01*
X96662729Y-72633990D01*
X96663510Y-72602037D01*
X96664274Y-72570765D01*
X96664274Y-72570761D01*
X96664356Y-72567400D01*
X96646052Y-72344761D01*
X96591631Y-72128102D01*
X96502554Y-71923240D01*
X96381214Y-71735677D01*
X96230870Y-71570451D01*
X96226819Y-71567252D01*
X96226815Y-71567248D01*
X96059614Y-71435200D01*
X96059610Y-71435198D01*
X96055559Y-71431998D01*
X96014253Y-71409196D01*
X95964284Y-71358764D01*
X95949512Y-71289321D01*
X95974628Y-71222916D01*
X96001980Y-71196309D01*
X96068299Y-71149004D01*
X96181060Y-71068573D01*
X96339296Y-70910889D01*
X96344318Y-70903901D01*
X96466635Y-70733677D01*
X96469653Y-70729477D01*
X96484302Y-70699838D01*
X96566336Y-70533853D01*
X96566337Y-70533851D01*
X96568630Y-70529211D01*
X96633570Y-70315469D01*
X96662729Y-70093990D01*
X96664356Y-70027400D01*
X96646052Y-69804761D01*
X96591631Y-69588102D01*
X96502554Y-69383240D01*
X96410163Y-69240425D01*
X96384022Y-69200017D01*
X96384020Y-69200014D01*
X96381214Y-69195677D01*
X96230870Y-69030451D01*
X96226819Y-69027252D01*
X96226815Y-69027248D01*
X96059614Y-68895200D01*
X96059610Y-68895198D01*
X96055559Y-68891998D01*
X96014253Y-68869196D01*
X95964284Y-68818764D01*
X95949512Y-68749321D01*
X95974628Y-68682916D01*
X96001980Y-68656309D01*
X96071131Y-68606984D01*
X96181060Y-68528573D01*
X96203520Y-68506192D01*
X96335635Y-68374537D01*
X96339296Y-68370889D01*
X96346687Y-68360604D01*
X96466635Y-68193677D01*
X96469653Y-68189477D01*
X96472326Y-68184070D01*
X96566336Y-67993853D01*
X96566337Y-67993851D01*
X96568630Y-67989211D01*
X96624767Y-67804443D01*
X96632065Y-67780423D01*
X96632065Y-67780421D01*
X96633570Y-67775469D01*
X96662729Y-67553990D01*
X96664356Y-67487400D01*
X96646052Y-67264761D01*
X96591631Y-67048102D01*
X96502554Y-66843240D01*
X96391406Y-66671431D01*
X96384022Y-66660017D01*
X96384020Y-66660014D01*
X96381214Y-66655677D01*
X96376466Y-66650459D01*
X96233998Y-66493888D01*
X96202946Y-66430042D01*
X96211341Y-66359543D01*
X96256517Y-66304775D01*
X96282961Y-66291106D01*
X96389497Y-66251167D01*
X96397905Y-66248015D01*
X96514461Y-66160661D01*
X96601815Y-66044105D01*
X96652945Y-65907716D01*
X96659700Y-65845534D01*
X96659700Y-64049266D01*
X96652945Y-63987084D01*
X96601815Y-63850695D01*
X96514461Y-63734139D01*
X96397905Y-63646785D01*
X96261516Y-63595655D01*
X96199334Y-63588900D01*
X95279703Y-63588900D01*
X95211582Y-63568898D01*
X95190608Y-63551995D01*
X93436181Y-61797568D01*
X93423340Y-61782535D01*
X93418946Y-61776487D01*
X93418945Y-61776486D01*
X93415066Y-61771147D01*
X93364241Y-61725384D01*
X93359456Y-61720843D01*
X93344941Y-61706328D01*
X93337482Y-61700288D01*
X93328984Y-61693406D01*
X93323969Y-61689122D01*
X93278055Y-61647781D01*
X93278050Y-61647777D01*
X93273144Y-61643360D01*
X93267428Y-61640060D01*
X93267424Y-61640057D01*
X93260963Y-61636327D01*
X93244666Y-61625127D01*
X93238860Y-61620425D01*
X93238858Y-61620424D01*
X93233730Y-61616271D01*
X93172777Y-61585214D01*
X93166982Y-61582067D01*
X93113479Y-61551177D01*
X93113478Y-61551176D01*
X93107756Y-61547873D01*
X93101474Y-61545832D01*
X93101472Y-61545831D01*
X93094374Y-61543525D01*
X93076107Y-61535959D01*
X93063570Y-61529571D01*
X92997499Y-61511867D01*
X92991197Y-61510000D01*
X92926128Y-61488858D01*
X92919563Y-61488168D01*
X92919554Y-61488166D01*
X92912125Y-61487385D01*
X92892691Y-61483783D01*
X92885486Y-61481853D01*
X92885484Y-61481853D01*
X92879103Y-61480143D01*
X92872512Y-61479798D01*
X92872508Y-61479797D01*
X92810816Y-61476564D01*
X92804242Y-61476047D01*
X92787084Y-61474244D01*
X92787082Y-61474244D01*
X92783810Y-61473900D01*
X92763274Y-61473900D01*
X92756680Y-61473727D01*
X92694982Y-61470493D01*
X92694977Y-61470493D01*
X92688390Y-61470148D01*
X92674492Y-61472349D01*
X92654783Y-61473900D01*
X87259698Y-61473900D01*
X87191577Y-61453898D01*
X87145084Y-61400242D01*
X87141716Y-61392130D01*
X87104967Y-61294103D01*
X87101815Y-61285695D01*
X87014461Y-61169139D01*
X86897905Y-61081785D01*
X86761516Y-61030655D01*
X86699334Y-61023900D01*
X84903066Y-61023900D01*
X84840884Y-61030655D01*
X84704495Y-61081785D01*
X84587939Y-61169139D01*
X84500585Y-61285695D01*
X84449455Y-61422084D01*
X84442700Y-61484266D01*
X84442700Y-63280534D01*
X69774200Y-63280534D01*
X69774200Y-59079400D01*
X69794202Y-59011279D01*
X69847858Y-58964786D01*
X69900200Y-58953400D01*
X97207200Y-58953400D01*
X97275321Y-58973402D01*
G37*
%TD.AperFunction*%
%TD*%
%TA.AperFunction,Conductor*%
%TO.N,/AD_DE_GND_3*%
G36*
X91991721Y-143631602D02*
G01*
X92038214Y-143685258D01*
X92049600Y-143737600D01*
X92049600Y-156693600D01*
X92029598Y-156761721D01*
X91975942Y-156808214D01*
X91923600Y-156819600D01*
X90360527Y-156819600D01*
X90292406Y-156799598D01*
X90245913Y-156745942D01*
X90235809Y-156675668D01*
X90265303Y-156611088D01*
X90324320Y-156572914D01*
X90484052Y-156524992D01*
X90493642Y-156521233D01*
X90684895Y-156427539D01*
X90693745Y-156422264D01*
X90867128Y-156298592D01*
X90875000Y-156291939D01*
X91025852Y-156141612D01*
X91032530Y-156133765D01*
X91156803Y-155960820D01*
X91162113Y-155951983D01*
X91256470Y-155761067D01*
X91260269Y-155751472D01*
X91322177Y-155547710D01*
X91324355Y-155537637D01*
X91325786Y-155526762D01*
X91323575Y-155512578D01*
X91310417Y-155508800D01*
X88675025Y-155508800D01*
X88661494Y-155512773D01*
X88660057Y-155522766D01*
X88690365Y-155657246D01*
X88693445Y-155667075D01*
X88773570Y-155864403D01*
X88778213Y-155873594D01*
X88889494Y-156055188D01*
X88895577Y-156063499D01*
X89035013Y-156224467D01*
X89042380Y-156231683D01*
X89206234Y-156367716D01*
X89214681Y-156373631D01*
X89398556Y-156481079D01*
X89407842Y-156485529D01*
X89606801Y-156561503D01*
X89616699Y-156564379D01*
X89644962Y-156570129D01*
X89707728Y-156603311D01*
X89742590Y-156665159D01*
X89738481Y-156736036D01*
X89696705Y-156793441D01*
X89630525Y-156819146D01*
X89619842Y-156819600D01*
X83978134Y-156819600D01*
X83910013Y-156799598D01*
X83863520Y-156745942D01*
X83853416Y-156675668D01*
X83882910Y-156611088D01*
X83941926Y-156572914D01*
X84083429Y-156530461D01*
X84083434Y-156530459D01*
X84088384Y-156528974D01*
X84288994Y-156430696D01*
X84470860Y-156300973D01*
X84567120Y-156205048D01*
X84629490Y-156171133D01*
X84656059Y-156168300D01*
X85603183Y-156168300D01*
X85622892Y-156169851D01*
X85636790Y-156172052D01*
X85643377Y-156171707D01*
X85643382Y-156171707D01*
X85705080Y-156168473D01*
X85711674Y-156168300D01*
X85732210Y-156168300D01*
X85735482Y-156167956D01*
X85735484Y-156167956D01*
X85752642Y-156166153D01*
X85759216Y-156165636D01*
X85820908Y-156162403D01*
X85820912Y-156162402D01*
X85827503Y-156162057D01*
X85833884Y-156160347D01*
X85833886Y-156160347D01*
X85841091Y-156158417D01*
X85860525Y-156154815D01*
X85867954Y-156154034D01*
X85867963Y-156154032D01*
X85874528Y-156153342D01*
X85939597Y-156132200D01*
X85945899Y-156130333D01*
X86011970Y-156112629D01*
X86024508Y-156106240D01*
X86042774Y-156098675D01*
X86049872Y-156096369D01*
X86049874Y-156096368D01*
X86056156Y-156094327D01*
X86115385Y-156060131D01*
X86121179Y-156056985D01*
X86124706Y-156055188D01*
X86182130Y-156025929D01*
X86193067Y-156017073D01*
X86209363Y-156005873D01*
X86215824Y-156002143D01*
X86215828Y-156002140D01*
X86221544Y-155998840D01*
X86226450Y-155994423D01*
X86226455Y-155994419D01*
X86272369Y-155953078D01*
X86277384Y-155948794D01*
X86290777Y-155937948D01*
X86293341Y-155935872D01*
X86307856Y-155921357D01*
X86312641Y-155916816D01*
X86358557Y-155875473D01*
X86363466Y-155871053D01*
X86371740Y-155859665D01*
X86384581Y-155844632D01*
X86894032Y-155335181D01*
X86909065Y-155322340D01*
X86915113Y-155317946D01*
X86915114Y-155317945D01*
X86920453Y-155314066D01*
X86966216Y-155263241D01*
X86970757Y-155258456D01*
X86985272Y-155243941D01*
X86998194Y-155227984D01*
X87002478Y-155222969D01*
X87043819Y-155177055D01*
X87043823Y-155177050D01*
X87048240Y-155172144D01*
X87051540Y-155166428D01*
X87051543Y-155166424D01*
X87055273Y-155159963D01*
X87066473Y-155143666D01*
X87071175Y-155137860D01*
X87071176Y-155137858D01*
X87075329Y-155132730D01*
X87106388Y-155071774D01*
X87109536Y-155065977D01*
X87140424Y-155012477D01*
X87143727Y-155006756D01*
X87148075Y-154993374D01*
X87155638Y-154975115D01*
X87162030Y-154962570D01*
X87164773Y-154952336D01*
X87179735Y-154896494D01*
X87181609Y-154890169D01*
X87200701Y-154831410D01*
X87200701Y-154831409D01*
X87202742Y-154825128D01*
X87204214Y-154811125D01*
X87207815Y-154791696D01*
X87211457Y-154778103D01*
X87215036Y-154709816D01*
X87215553Y-154703242D01*
X87217356Y-154686084D01*
X87217356Y-154686082D01*
X87217700Y-154682810D01*
X87217700Y-154662274D01*
X87217873Y-154655680D01*
X87221107Y-154593982D01*
X87221107Y-154593977D01*
X87221452Y-154587390D01*
X87219251Y-154573492D01*
X87217700Y-154553783D01*
X87217700Y-152777703D01*
X87237702Y-152709582D01*
X87254605Y-152688608D01*
X88823008Y-151120205D01*
X88885320Y-151086179D01*
X88912103Y-151083300D01*
X88923811Y-151083300D01*
X88991932Y-151103302D01*
X89019048Y-151126802D01*
X89034664Y-151144830D01*
X89034669Y-151144835D01*
X89038050Y-151148738D01*
X89209926Y-151291432D01*
X89280395Y-151332611D01*
X89283245Y-151334276D01*
X89331969Y-151385914D01*
X89345040Y-151455697D01*
X89318309Y-151521469D01*
X89277855Y-151554827D01*
X89265407Y-151561307D01*
X89261274Y-151564410D01*
X89261271Y-151564412D01*
X89125364Y-151666454D01*
X89086765Y-151695435D01*
X89083193Y-151699173D01*
X88942366Y-151846540D01*
X88932429Y-151856938D01*
X88929515Y-151861210D01*
X88929514Y-151861211D01*
X88890490Y-151918418D01*
X88806543Y-152041480D01*
X88782062Y-152094221D01*
X88726977Y-152212892D01*
X88712488Y-152244105D01*
X88652789Y-152459370D01*
X88629051Y-152681495D01*
X88629348Y-152686648D01*
X88629348Y-152686651D01*
X88638052Y-152837604D01*
X88641910Y-152904515D01*
X88643047Y-152909561D01*
X88643048Y-152909567D01*
X88660672Y-152987766D01*
X88691022Y-153122439D01*
X88775066Y-153329416D01*
X88891787Y-153519888D01*
X89038050Y-153688738D01*
X89209926Y-153831432D01*
X89222246Y-153838631D01*
X89283755Y-153874574D01*
X89332479Y-153926212D01*
X89345550Y-153995995D01*
X89318819Y-154061767D01*
X89278362Y-154095127D01*
X89270257Y-154099346D01*
X89261538Y-154104836D01*
X89091233Y-154232705D01*
X89083526Y-154239548D01*
X88936390Y-154393517D01*
X88929904Y-154401527D01*
X88809898Y-154577449D01*
X88804800Y-154586423D01*
X88715138Y-154779583D01*
X88711575Y-154789270D01*
X88656189Y-154988983D01*
X88657712Y-154997407D01*
X88670092Y-155000800D01*
X91310144Y-155000800D01*
X91323675Y-154996827D01*
X91324980Y-154987747D01*
X91283014Y-154820675D01*
X91279694Y-154810924D01*
X91194772Y-154615614D01*
X91189905Y-154606539D01*
X91074226Y-154427726D01*
X91067936Y-154419557D01*
X90924606Y-154262040D01*
X90917073Y-154255015D01*
X90749939Y-154123022D01*
X90741356Y-154117320D01*
X90704402Y-154096920D01*
X90654431Y-154046487D01*
X90639659Y-153977045D01*
X90664775Y-153910639D01*
X90692127Y-153884032D01*
X90755777Y-153838631D01*
X90871660Y-153755973D01*
X91029896Y-153598289D01*
X91076490Y-153533447D01*
X91157235Y-153421077D01*
X91160253Y-153416877D01*
X91187997Y-153360742D01*
X91256936Y-153221253D01*
X91256937Y-153221251D01*
X91259230Y-153216611D01*
X91324170Y-153002869D01*
X91353329Y-152781390D01*
X91354460Y-152735101D01*
X91354874Y-152718165D01*
X91354874Y-152718161D01*
X91354956Y-152714800D01*
X91336652Y-152492161D01*
X91282231Y-152275502D01*
X91193154Y-152070640D01*
X91141649Y-151991026D01*
X91074622Y-151887417D01*
X91074620Y-151887414D01*
X91071814Y-151883077D01*
X90921470Y-151717851D01*
X90917419Y-151714652D01*
X90917415Y-151714648D01*
X90750214Y-151582600D01*
X90750210Y-151582598D01*
X90746159Y-151579398D01*
X90704853Y-151556596D01*
X90654884Y-151506164D01*
X90640112Y-151436721D01*
X90665228Y-151370316D01*
X90692580Y-151343709D01*
X90736403Y-151312450D01*
X90871660Y-151215973D01*
X91029896Y-151058289D01*
X91036644Y-151048899D01*
X91157235Y-150881077D01*
X91160253Y-150876877D01*
X91259230Y-150676611D01*
X91324170Y-150462869D01*
X91353329Y-150241390D01*
X91354956Y-150174800D01*
X91336652Y-149952161D01*
X91282231Y-149735502D01*
X91193154Y-149530640D01*
X91153706Y-149469662D01*
X91074622Y-149347417D01*
X91074620Y-149347414D01*
X91071814Y-149343077D01*
X91068332Y-149339250D01*
X90924598Y-149181288D01*
X90893546Y-149117442D01*
X90901941Y-149046943D01*
X90947117Y-148992175D01*
X90973561Y-148978506D01*
X91080097Y-148938567D01*
X91088505Y-148935415D01*
X91205061Y-148848061D01*
X91292415Y-148731505D01*
X91343545Y-148595116D01*
X91350300Y-148532934D01*
X91350300Y-146736666D01*
X91343545Y-146674484D01*
X91292415Y-146538095D01*
X91205061Y-146421539D01*
X91088505Y-146334185D01*
X90952116Y-146283055D01*
X90889934Y-146276300D01*
X89093666Y-146276300D01*
X89031484Y-146283055D01*
X88895095Y-146334185D01*
X88778539Y-146421539D01*
X88691185Y-146538095D01*
X88688033Y-146546503D01*
X88651284Y-146644530D01*
X88608642Y-146701294D01*
X88542081Y-146725994D01*
X88533302Y-146726300D01*
X86736217Y-146726300D01*
X86716507Y-146724749D01*
X86709127Y-146723580D01*
X86709126Y-146723580D01*
X86702610Y-146722548D01*
X86696023Y-146722893D01*
X86696018Y-146722893D01*
X86634320Y-146726127D01*
X86627726Y-146726300D01*
X86607190Y-146726300D01*
X86603918Y-146726644D01*
X86603916Y-146726644D01*
X86586758Y-146728447D01*
X86580184Y-146728964D01*
X86518496Y-146732197D01*
X86518494Y-146732197D01*
X86511897Y-146732543D01*
X86498304Y-146736185D01*
X86478875Y-146739786D01*
X86464872Y-146741258D01*
X86399825Y-146762393D01*
X86393512Y-146764263D01*
X86372874Y-146769793D01*
X86333803Y-146780262D01*
X86333800Y-146780263D01*
X86327430Y-146781970D01*
X86314885Y-146788362D01*
X86296626Y-146795925D01*
X86283244Y-146800273D01*
X86277523Y-146803576D01*
X86224023Y-146834464D01*
X86218226Y-146837612D01*
X86163151Y-146865674D01*
X86163148Y-146865676D01*
X86157270Y-146868671D01*
X86152142Y-146872824D01*
X86152140Y-146872825D01*
X86146334Y-146877527D01*
X86130037Y-146888727D01*
X86123576Y-146892457D01*
X86123572Y-146892460D01*
X86117856Y-146895760D01*
X86112950Y-146900177D01*
X86112945Y-146900181D01*
X86067031Y-146941522D01*
X86062016Y-146945806D01*
X86053518Y-146952688D01*
X86046059Y-146958728D01*
X86031544Y-146973243D01*
X86026759Y-146977784D01*
X85975934Y-147023547D01*
X85972055Y-147028886D01*
X85972054Y-147028887D01*
X85967660Y-147034935D01*
X85954819Y-147049968D01*
X84220392Y-148784395D01*
X84158080Y-148818421D01*
X84131297Y-148821300D01*
X82692866Y-148821300D01*
X82630684Y-148828055D01*
X82494295Y-148879185D01*
X82377739Y-148966539D01*
X82290385Y-149083095D01*
X82239255Y-149219484D01*
X82232500Y-149281666D01*
X82232500Y-149857500D01*
X82212498Y-149925621D01*
X82158842Y-149972114D01*
X82106500Y-149983500D01*
X77166485Y-149983500D01*
X77098364Y-149963498D01*
X77051871Y-149909842D01*
X77041767Y-149839568D01*
X77071261Y-149774988D01*
X77077312Y-149768482D01*
X77125539Y-149720171D01*
X77134551Y-149708760D01*
X77219616Y-149570757D01*
X77225763Y-149557576D01*
X77276938Y-149403290D01*
X77279805Y-149389914D01*
X77289472Y-149295562D01*
X77289800Y-149289146D01*
X77289800Y-149164115D01*
X77285325Y-149148876D01*
X77283935Y-149147671D01*
X77276252Y-149146000D01*
X74541916Y-149146000D01*
X74526677Y-149150475D01*
X74525472Y-149151865D01*
X74523801Y-149159548D01*
X74523801Y-149289095D01*
X74524138Y-149295614D01*
X74534057Y-149391206D01*
X74536949Y-149404600D01*
X74588388Y-149558784D01*
X74594561Y-149571962D01*
X74679863Y-149709807D01*
X74688899Y-149721208D01*
X74803629Y-149835739D01*
X74815040Y-149844751D01*
X74860455Y-149872745D01*
X74907948Y-149925517D01*
X74919372Y-149995589D01*
X74891098Y-150060713D01*
X74872175Y-150079088D01*
X74863880Y-150085604D01*
X74859948Y-150090135D01*
X74859945Y-150090138D01*
X74741354Y-150226802D01*
X74725248Y-150245363D01*
X74722248Y-150250549D01*
X74722245Y-150250553D01*
X74628461Y-150412665D01*
X74619327Y-150428454D01*
X74549939Y-150628271D01*
X74549078Y-150634206D01*
X74549078Y-150634208D01*
X74542859Y-150677103D01*
X74519587Y-150837604D01*
X74529367Y-151048899D01*
X74530771Y-151054724D01*
X74530771Y-151054725D01*
X74568754Y-151212329D01*
X74578925Y-151254534D01*
X74581407Y-151259992D01*
X74581408Y-151259996D01*
X74596888Y-151294042D01*
X74666474Y-151447087D01*
X74788854Y-151619611D01*
X74941650Y-151765881D01*
X74946688Y-151769134D01*
X74973963Y-151786746D01*
X75020340Y-151840501D01*
X75030293Y-151910797D01*
X75000661Y-151975314D01*
X74983449Y-151991681D01*
X74863880Y-152085604D01*
X74859948Y-152090135D01*
X74859945Y-152090138D01*
X74794249Y-152165846D01*
X74725248Y-152245363D01*
X74722248Y-152250549D01*
X74722245Y-152250553D01*
X74675112Y-152332026D01*
X74619327Y-152428454D01*
X74549939Y-152628271D01*
X74549078Y-152634206D01*
X74549078Y-152634208D01*
X74527257Y-152784708D01*
X74519587Y-152837604D01*
X74529367Y-153048899D01*
X74530771Y-153054724D01*
X74530771Y-153054725D01*
X74569786Y-153216611D01*
X74578925Y-153254534D01*
X74581407Y-153259992D01*
X74581408Y-153259996D01*
X74624853Y-153355546D01*
X74666474Y-153447087D01*
X74788854Y-153619611D01*
X74941650Y-153765881D01*
X74946688Y-153769134D01*
X74973963Y-153786746D01*
X75020340Y-153840501D01*
X75030293Y-153910797D01*
X75000661Y-153975314D01*
X74983449Y-153991681D01*
X74863880Y-154085604D01*
X74859948Y-154090135D01*
X74859945Y-154090138D01*
X74791274Y-154169275D01*
X74725248Y-154245363D01*
X74722248Y-154250549D01*
X74722245Y-154250553D01*
X74696074Y-154295792D01*
X74619327Y-154428454D01*
X74549939Y-154628271D01*
X74549078Y-154634206D01*
X74549078Y-154634208D01*
X74522042Y-154820675D01*
X74519587Y-154837604D01*
X74529367Y-155048899D01*
X74530771Y-155054724D01*
X74530771Y-155054725D01*
X74572168Y-155226495D01*
X74578925Y-155254534D01*
X74581407Y-155259992D01*
X74581408Y-155259996D01*
X74624853Y-155355546D01*
X74666474Y-155447087D01*
X74788854Y-155619611D01*
X74941650Y-155765881D01*
X75119348Y-155880620D01*
X75124914Y-155882863D01*
X75309968Y-155957442D01*
X75309971Y-155957443D01*
X75315537Y-155959686D01*
X75523137Y-156000228D01*
X75528699Y-156000500D01*
X76234646Y-156000500D01*
X76392366Y-155985452D01*
X76595334Y-155925908D01*
X76600662Y-155923164D01*
X76778049Y-155831804D01*
X76778052Y-155831802D01*
X76783380Y-155829058D01*
X76949720Y-155698396D01*
X76953652Y-155693865D01*
X76953655Y-155693862D01*
X77084421Y-155543167D01*
X77088352Y-155538637D01*
X77091352Y-155533451D01*
X77091355Y-155533447D01*
X77191267Y-155360742D01*
X77194273Y-155355546D01*
X77263661Y-155155729D01*
X77266996Y-155132730D01*
X77293152Y-154952336D01*
X77293152Y-154952333D01*
X77294013Y-154946396D01*
X77284233Y-154735101D01*
X77242926Y-154563701D01*
X77236081Y-154535299D01*
X77236080Y-154535297D01*
X77234675Y-154529466D01*
X77191325Y-154434122D01*
X77149606Y-154342368D01*
X77147126Y-154336913D01*
X77024746Y-154164389D01*
X76871950Y-154018119D01*
X76866055Y-154014312D01*
X76839637Y-153997254D01*
X76793260Y-153943499D01*
X76783307Y-153873203D01*
X76812939Y-153808686D01*
X76830153Y-153792317D01*
X76837246Y-153786746D01*
X76949720Y-153698396D01*
X76953652Y-153693865D01*
X76953655Y-153693862D01*
X77084421Y-153543167D01*
X77088352Y-153538637D01*
X77091352Y-153533451D01*
X77091355Y-153533447D01*
X77191267Y-153360742D01*
X77194273Y-153355546D01*
X77263661Y-153155729D01*
X77284398Y-153012710D01*
X77293152Y-152952336D01*
X77293152Y-152952333D01*
X77294013Y-152946396D01*
X77284233Y-152735101D01*
X77234675Y-152529466D01*
X77217714Y-152492161D01*
X77149606Y-152342368D01*
X77147126Y-152336913D01*
X77024746Y-152164389D01*
X76871950Y-152018119D01*
X76873747Y-152016241D01*
X76839165Y-151967465D01*
X76835933Y-151896542D01*
X76871558Y-151835130D01*
X76934729Y-151802728D01*
X76958320Y-151800500D01*
X82335669Y-151800500D01*
X82403790Y-151820502D01*
X82450283Y-151874158D01*
X82460387Y-151944432D01*
X82439758Y-151997504D01*
X82409093Y-152042457D01*
X82404000Y-152051423D01*
X82314338Y-152244583D01*
X82310775Y-152254270D01*
X82255389Y-152453983D01*
X82256912Y-152462407D01*
X82269292Y-152465800D01*
X84909344Y-152465800D01*
X84922875Y-152461827D01*
X84924180Y-152452747D01*
X84882214Y-152285675D01*
X84878894Y-152275924D01*
X84793972Y-152080614D01*
X84789105Y-152071539D01*
X84673426Y-151892726D01*
X84667136Y-151884557D01*
X84523293Y-151726477D01*
X84492241Y-151662631D01*
X84500635Y-151592133D01*
X84545812Y-151537364D01*
X84572256Y-151523695D01*
X84679297Y-151483567D01*
X84687705Y-151480415D01*
X84804261Y-151393061D01*
X84891615Y-151276505D01*
X84942745Y-151140116D01*
X84949500Y-151077934D01*
X84949500Y-150677103D01*
X84969502Y-150608982D01*
X84986405Y-150588008D01*
X86994208Y-148580205D01*
X87056520Y-148546179D01*
X87083303Y-148543300D01*
X88533302Y-148543300D01*
X88601423Y-148563302D01*
X88647916Y-148616958D01*
X88651284Y-148625070D01*
X88685279Y-148715750D01*
X88691185Y-148731505D01*
X88778539Y-148848061D01*
X88895095Y-148935415D01*
X88903504Y-148938567D01*
X88903505Y-148938568D01*
X89012251Y-148979335D01*
X89069016Y-149021976D01*
X89093716Y-149088538D01*
X89078509Y-149157887D01*
X89059116Y-149184368D01*
X89018052Y-149227340D01*
X89018041Y-149227351D01*
X88956517Y-149262781D01*
X88926947Y-149266300D01*
X88565017Y-149266300D01*
X88545308Y-149264749D01*
X88531410Y-149262548D01*
X88524823Y-149262893D01*
X88524818Y-149262893D01*
X88463120Y-149266127D01*
X88456526Y-149266300D01*
X88435990Y-149266300D01*
X88432718Y-149266644D01*
X88432716Y-149266644D01*
X88415558Y-149268447D01*
X88408984Y-149268964D01*
X88347292Y-149272197D01*
X88347288Y-149272198D01*
X88340697Y-149272543D01*
X88334316Y-149274253D01*
X88334314Y-149274253D01*
X88327109Y-149276183D01*
X88307675Y-149279785D01*
X88300246Y-149280566D01*
X88300237Y-149280568D01*
X88293672Y-149281258D01*
X88228603Y-149302400D01*
X88222301Y-149304267D01*
X88156230Y-149321971D01*
X88143693Y-149328359D01*
X88125426Y-149335925D01*
X88118328Y-149338231D01*
X88118326Y-149338232D01*
X88112044Y-149340273D01*
X88106322Y-149343576D01*
X88106321Y-149343577D01*
X88052818Y-149374467D01*
X88047023Y-149377614D01*
X87986070Y-149408671D01*
X87980942Y-149412824D01*
X87980940Y-149412825D01*
X87975134Y-149417527D01*
X87958837Y-149428727D01*
X87952376Y-149432457D01*
X87952372Y-149432460D01*
X87946656Y-149435760D01*
X87941750Y-149440177D01*
X87941745Y-149440181D01*
X87895831Y-149481522D01*
X87890816Y-149485806D01*
X87882318Y-149492688D01*
X87874859Y-149498728D01*
X87860344Y-149513243D01*
X87855559Y-149517784D01*
X87804734Y-149563547D01*
X87800855Y-149568886D01*
X87800854Y-149568887D01*
X87796460Y-149574935D01*
X87783619Y-149589968D01*
X85724368Y-151649219D01*
X85709335Y-151662060D01*
X85697947Y-151670334D01*
X85693527Y-151675243D01*
X85652184Y-151721159D01*
X85647643Y-151725944D01*
X85633128Y-151740459D01*
X85631052Y-151743023D01*
X85620206Y-151756416D01*
X85615922Y-151761431D01*
X85574581Y-151807345D01*
X85574577Y-151807350D01*
X85570160Y-151812256D01*
X85566860Y-151817972D01*
X85566857Y-151817976D01*
X85563127Y-151824437D01*
X85551927Y-151840733D01*
X85543071Y-151851670D01*
X85512944Y-151910797D01*
X85512015Y-151912621D01*
X85508869Y-151918415D01*
X85474673Y-151977644D01*
X85472632Y-151983926D01*
X85472631Y-151983928D01*
X85470325Y-151991026D01*
X85462760Y-152009292D01*
X85456371Y-152021830D01*
X85443052Y-152071539D01*
X85438669Y-152087895D01*
X85436800Y-152094203D01*
X85415658Y-152159272D01*
X85414968Y-152165837D01*
X85414966Y-152165846D01*
X85414185Y-152173275D01*
X85410583Y-152192709D01*
X85408653Y-152199914D01*
X85406943Y-152206297D01*
X85406598Y-152212888D01*
X85406597Y-152212892D01*
X85403364Y-152274584D01*
X85402847Y-152281158D01*
X85401044Y-152298316D01*
X85400700Y-152301590D01*
X85400700Y-152322126D01*
X85400527Y-152328720D01*
X85396948Y-152397010D01*
X85397980Y-152403525D01*
X85399149Y-152410905D01*
X85400700Y-152430617D01*
X85400700Y-154206697D01*
X85380698Y-154274818D01*
X85363795Y-154295792D01*
X85345192Y-154314395D01*
X85282880Y-154348421D01*
X85256097Y-154351300D01*
X84656856Y-154351300D01*
X84588735Y-154331298D01*
X84563662Y-154310099D01*
X84524148Y-154266673D01*
X84524146Y-154266671D01*
X84520670Y-154262851D01*
X84395996Y-154164389D01*
X84349414Y-154127600D01*
X84349410Y-154127598D01*
X84345359Y-154124398D01*
X84303569Y-154101329D01*
X84253598Y-154050897D01*
X84238826Y-153981454D01*
X84263942Y-153915048D01*
X84291294Y-153888441D01*
X84466328Y-153763592D01*
X84474200Y-153756939D01*
X84625052Y-153606612D01*
X84631730Y-153598765D01*
X84756003Y-153425820D01*
X84761313Y-153416983D01*
X84855670Y-153226067D01*
X84859469Y-153216472D01*
X84921377Y-153012710D01*
X84923555Y-153002637D01*
X84924986Y-152991762D01*
X84922775Y-152977578D01*
X84909617Y-152973800D01*
X82274225Y-152973800D01*
X82260694Y-152977773D01*
X82259257Y-152987766D01*
X82289565Y-153122246D01*
X82292645Y-153132075D01*
X82372770Y-153329403D01*
X82377413Y-153338594D01*
X82488694Y-153520188D01*
X82494777Y-153528499D01*
X82634213Y-153689467D01*
X82641580Y-153696683D01*
X82805434Y-153832716D01*
X82813881Y-153838631D01*
X82882969Y-153879003D01*
X82931693Y-153930642D01*
X82944764Y-154000425D01*
X82918033Y-154066196D01*
X82877584Y-154099552D01*
X82864607Y-154106307D01*
X82860474Y-154109410D01*
X82860471Y-154109412D01*
X82696260Y-154232705D01*
X82685965Y-154240435D01*
X82682393Y-154244173D01*
X82598439Y-154332026D01*
X82531629Y-154401938D01*
X82528715Y-154406210D01*
X82528714Y-154406211D01*
X82448361Y-154524004D01*
X82405743Y-154586480D01*
X82373622Y-154655680D01*
X82348493Y-154709816D01*
X82311688Y-154789105D01*
X82251989Y-155004370D01*
X82228251Y-155226495D01*
X82228548Y-155231648D01*
X82228548Y-155231651D01*
X82233017Y-155309157D01*
X82241110Y-155449515D01*
X82242247Y-155454561D01*
X82242248Y-155454567D01*
X82266304Y-155561308D01*
X82290222Y-155667439D01*
X82374266Y-155874416D01*
X82410495Y-155933536D01*
X82487060Y-156058479D01*
X82490987Y-156064888D01*
X82637250Y-156233738D01*
X82707354Y-156291939D01*
X82798628Y-156367716D01*
X82809126Y-156376432D01*
X83002000Y-156489138D01*
X83210692Y-156568830D01*
X83217082Y-156570130D01*
X83217564Y-156570385D01*
X83220721Y-156571302D01*
X83220532Y-156571954D01*
X83279846Y-156603310D01*
X83314709Y-156665158D01*
X83310600Y-156736035D01*
X83268824Y-156793440D01*
X83202645Y-156819146D01*
X83191961Y-156819600D01*
X69823600Y-156819600D01*
X69755479Y-156799598D01*
X69708986Y-156745942D01*
X69697600Y-156693600D01*
X69697600Y-148619885D01*
X74523800Y-148619885D01*
X74528275Y-148635124D01*
X74529665Y-148636329D01*
X74537348Y-148638000D01*
X75634685Y-148638000D01*
X75649924Y-148633525D01*
X75651129Y-148632135D01*
X75652800Y-148624452D01*
X75652800Y-148619885D01*
X76160800Y-148619885D01*
X76165275Y-148635124D01*
X76166665Y-148636329D01*
X76174348Y-148638000D01*
X77271684Y-148638000D01*
X77286923Y-148633525D01*
X77288128Y-148632135D01*
X77289799Y-148624452D01*
X77289799Y-148494905D01*
X77289462Y-148488386D01*
X77279543Y-148392794D01*
X77276651Y-148379400D01*
X77225212Y-148225216D01*
X77219039Y-148212038D01*
X77133737Y-148074193D01*
X77124701Y-148062792D01*
X77009971Y-147948261D01*
X76998560Y-147939249D01*
X76860557Y-147854184D01*
X76847376Y-147848037D01*
X76693090Y-147796862D01*
X76679714Y-147793995D01*
X76585362Y-147784328D01*
X76578945Y-147784000D01*
X76178915Y-147784000D01*
X76163676Y-147788475D01*
X76162471Y-147789865D01*
X76160800Y-147797548D01*
X76160800Y-148619885D01*
X75652800Y-148619885D01*
X75652800Y-147802116D01*
X75648325Y-147786877D01*
X75646935Y-147785672D01*
X75639252Y-147784001D01*
X75234705Y-147784001D01*
X75228186Y-147784338D01*
X75132594Y-147794257D01*
X75119200Y-147797149D01*
X74965016Y-147848588D01*
X74951838Y-147854761D01*
X74813993Y-147940063D01*
X74802592Y-147949099D01*
X74688061Y-148063829D01*
X74679049Y-148075240D01*
X74593984Y-148213243D01*
X74587837Y-148226424D01*
X74536662Y-148380710D01*
X74533795Y-148394086D01*
X74524128Y-148488438D01*
X74523800Y-148494855D01*
X74523800Y-148619885D01*
X69697600Y-148619885D01*
X69697600Y-143737600D01*
X69717602Y-143669479D01*
X69771258Y-143622986D01*
X69823600Y-143611600D01*
X91923600Y-143611600D01*
X91991721Y-143631602D01*
G37*
%TD.AperFunction*%
%TD*%
M02*
