%TF.GenerationSoftware,KiCad,Pcbnew,(6.0.1)*%
%TF.CreationDate,2022-11-29T19:46:15+01:00*%
%TF.ProjectId,ESPRocks,45535052-6f63-46b7-932e-6b696361645f,rev?*%
%TF.SameCoordinates,Original*%
%TF.FileFunction,Legend,Bot*%
%TF.FilePolarity,Positive*%
%FSLAX46Y46*%
G04 Gerber Fmt 4.6, Leading zero omitted, Abs format (unit mm)*
G04 Created by KiCad (PCBNEW (6.0.1)) date 2022-11-29 19:46:15*
%MOMM*%
%LPD*%
G01*
G04 APERTURE LIST*
G04 Aperture macros list*
%AMRoundRect*
0 Rectangle with rounded corners*
0 $1 Rounding radius*
0 $2 $3 $4 $5 $6 $7 $8 $9 X,Y pos of 4 corners*
0 Add a 4 corners polygon primitive as box body*
4,1,4,$2,$3,$4,$5,$6,$7,$8,$9,$2,$3,0*
0 Add four circle primitives for the rounded corners*
1,1,$1+$1,$2,$3*
1,1,$1+$1,$4,$5*
1,1,$1+$1,$6,$7*
1,1,$1+$1,$8,$9*
0 Add four rect primitives between the rounded corners*
20,1,$1+$1,$2,$3,$4,$5,0*
20,1,$1+$1,$4,$5,$6,$7,0*
20,1,$1+$1,$6,$7,$8,$9,0*
20,1,$1+$1,$8,$9,$2,$3,0*%
G04 Aperture macros list end*
%ADD10R,1.700000X1.700000*%
%ADD11O,1.700000X1.700000*%
%ADD12O,1.750000X1.200000*%
%ADD13RoundRect,0.250000X-0.625000X0.350000X-0.625000X-0.350000X0.625000X-0.350000X0.625000X0.350000X0*%
G04 APERTURE END LIST*
%TO.C,kibuzzard-633DF0B5*%
G36*
X88116569Y-144785556D02*
G01*
X87916544Y-144785556D01*
X87822881Y-144750631D01*
X87776844Y-144645856D01*
X87822881Y-144540287D01*
X87918131Y-144504569D01*
X88116569Y-144504569D01*
X88116569Y-144785556D01*
G37*
G36*
X90959844Y-143649745D02*
G01*
X91070093Y-143666099D01*
X91178207Y-143693180D01*
X91283147Y-143730728D01*
X91383901Y-143778381D01*
X91479498Y-143835680D01*
X91569020Y-143902074D01*
X91651602Y-143976922D01*
X91726450Y-144059504D01*
X91792844Y-144149026D01*
X91850143Y-144244623D01*
X91897796Y-144345377D01*
X91935344Y-144450317D01*
X91962425Y-144558431D01*
X91978779Y-144668680D01*
X91984248Y-144780000D01*
X91978779Y-144891320D01*
X91962425Y-145001569D01*
X91935344Y-145109683D01*
X91897796Y-145214623D01*
X91850143Y-145315377D01*
X91792844Y-145410974D01*
X91726450Y-145500496D01*
X91651602Y-145583078D01*
X91569020Y-145657926D01*
X91479498Y-145724320D01*
X91383901Y-145781619D01*
X91283147Y-145829272D01*
X91178207Y-145866820D01*
X91070093Y-145893901D01*
X90959844Y-145910255D01*
X90848524Y-145915724D01*
X82582676Y-145915724D01*
X82471356Y-145910255D01*
X82361107Y-145893901D01*
X82252993Y-145866820D01*
X82148053Y-145829272D01*
X82047299Y-145781619D01*
X81951702Y-145724320D01*
X81862180Y-145657926D01*
X81779598Y-145583078D01*
X81704750Y-145500496D01*
X81638356Y-145410974D01*
X81581057Y-145315377D01*
X81533404Y-145214623D01*
X81501437Y-145125281D01*
X83095306Y-145125281D01*
X83103045Y-145201680D01*
X83126262Y-145265775D01*
X83212781Y-145352294D01*
X83286247Y-145379634D01*
X83371178Y-145396038D01*
X83467575Y-145401506D01*
X83568381Y-145391628D01*
X83666542Y-145361995D01*
X83762056Y-145312606D01*
X83792219Y-145252281D01*
X83784851Y-145226881D01*
X83855719Y-145226881D01*
X83904931Y-145330069D01*
X84000181Y-145396744D01*
X84097019Y-145350706D01*
X84112894Y-145339594D01*
X84159328Y-145298120D01*
X84225606Y-145234025D01*
X84292678Y-145169533D01*
X84341494Y-145126869D01*
X84341494Y-145249106D01*
X84343875Y-145303875D01*
X84358956Y-145345944D01*
X84399834Y-145376900D01*
X84481194Y-145387219D01*
X84561759Y-145376503D01*
X84603431Y-145344356D01*
X84616925Y-145302288D01*
X84619306Y-145247519D01*
X84619306Y-145218944D01*
X84722494Y-145218944D01*
X84744322Y-145277284D01*
X84809806Y-145331656D01*
X84910612Y-145379281D01*
X85032056Y-145395156D01*
X85129247Y-145383338D01*
X85223967Y-145347884D01*
X85316219Y-145288794D01*
X85375353Y-145229461D01*
X85422581Y-145153063D01*
X85453537Y-145063766D01*
X85463605Y-144968119D01*
X85543231Y-144968119D01*
X85560297Y-145092539D01*
X85611494Y-145202275D01*
X85687098Y-145291175D01*
X85777387Y-145353088D01*
X85876805Y-145389402D01*
X85979794Y-145401506D01*
X86082981Y-145388608D01*
X86182994Y-145349913D01*
X86273680Y-145286016D01*
X86284809Y-145272919D01*
X86479856Y-145272919D01*
X86504462Y-145328481D01*
X86578281Y-145374519D01*
X86660037Y-145396744D01*
X86710837Y-145381663D01*
X86740206Y-145350706D01*
X86761020Y-145305374D01*
X86802295Y-145209595D01*
X86864031Y-145063369D01*
X86913244Y-145066544D01*
X87113269Y-145066544D01*
X87113269Y-145245931D01*
X87115650Y-145300700D01*
X87130731Y-145342769D01*
X87172800Y-145374916D01*
X87254556Y-145385631D01*
X87342663Y-145370947D01*
X87384731Y-145326894D01*
X87394256Y-145244344D01*
X87394256Y-144645856D01*
X87497444Y-144645856D01*
X87507763Y-144744083D01*
X87538719Y-144832388D01*
X87585947Y-144907198D01*
X87645081Y-144964944D01*
X87733981Y-145021388D01*
X87824998Y-145055255D01*
X87918131Y-145066544D01*
X88116569Y-145066544D01*
X88116569Y-145245931D01*
X88118950Y-145300700D01*
X88134031Y-145342769D01*
X88176100Y-145374916D01*
X88257856Y-145385631D01*
X88345963Y-145370947D01*
X88388031Y-145326894D01*
X88397556Y-145244344D01*
X88397556Y-145015744D01*
X88500744Y-145015744D01*
X88511063Y-145112780D01*
X88542019Y-145197513D01*
X88589644Y-145267164D01*
X88649969Y-145318956D01*
X88737634Y-145365699D01*
X88829180Y-145393745D01*
X88924606Y-145403094D01*
X88997234Y-145398530D01*
X89065894Y-145384838D01*
X89173844Y-145339594D01*
X89245281Y-145289588D01*
X89285281Y-145247519D01*
X89426256Y-145247519D01*
X89440941Y-145335625D01*
X89484994Y-145377694D01*
X89567544Y-145387219D01*
X90196194Y-145387219D01*
X90284300Y-145372138D01*
X90326369Y-145326894D01*
X90335894Y-145245931D01*
X90335894Y-144363281D01*
X90305731Y-144252950D01*
X90191431Y-144223581D01*
X89565956Y-144223581D01*
X89511188Y-144225962D01*
X89469119Y-144241044D01*
X89436972Y-144283112D01*
X89426256Y-144364869D01*
X89440941Y-144452975D01*
X89484994Y-144495044D01*
X89567544Y-144504569D01*
X90054906Y-144504569D01*
X90054906Y-144664906D01*
X89740581Y-144664906D01*
X89685813Y-144667287D01*
X89643744Y-144682369D01*
X89611597Y-144724437D01*
X89600881Y-144806194D01*
X89615963Y-144894300D01*
X89661206Y-144936369D01*
X89743756Y-144945894D01*
X90054906Y-144945894D01*
X90054906Y-145106231D01*
X89565956Y-145106231D01*
X89511188Y-145108613D01*
X89469119Y-145123694D01*
X89436972Y-145165763D01*
X89426256Y-145247519D01*
X89285281Y-145247519D01*
X89291319Y-145241169D01*
X89305606Y-145223706D01*
X89346881Y-145132425D01*
X89329816Y-145085395D01*
X89278619Y-145025269D01*
X89194481Y-144987169D01*
X89141300Y-145007013D01*
X89070656Y-145066544D01*
X89007156Y-145118138D01*
X88930956Y-145142744D01*
X88848935Y-145129338D01*
X88799723Y-145089122D01*
X88783319Y-145022094D01*
X88823800Y-144960975D01*
X88924606Y-144925256D01*
X88987313Y-144910770D01*
X89054781Y-144889538D01*
X89122250Y-144862748D01*
X89184956Y-144831594D01*
X89240320Y-144788533D01*
X89285763Y-144726025D01*
X89316123Y-144646452D01*
X89326244Y-144552194D01*
X89314690Y-144463029D01*
X89280030Y-144381802D01*
X89222263Y-144308512D01*
X89144563Y-144250745D01*
X89050107Y-144216085D01*
X88938894Y-144204531D01*
X88847811Y-144210683D01*
X88765063Y-144229137D01*
X88656319Y-144279144D01*
X88616631Y-144309306D01*
X88567419Y-144387094D01*
X88605519Y-144474406D01*
X88660288Y-144533937D01*
X88716644Y-144553781D01*
X88799194Y-144522031D01*
X88817450Y-144506156D01*
X88842056Y-144485519D01*
X88926988Y-144464881D01*
X89012713Y-144489487D01*
X89046844Y-144557750D01*
X89006363Y-144628394D01*
X88905556Y-144664906D01*
X88842453Y-144677011D01*
X88773794Y-144694275D01*
X88705134Y-144716302D01*
X88642031Y-144742694D01*
X88586667Y-144781786D01*
X88541225Y-144841913D01*
X88510864Y-144920692D01*
X88500744Y-145015744D01*
X88397556Y-145015744D01*
X88397556Y-144363281D01*
X88395175Y-144308512D01*
X88380094Y-144266444D01*
X88338025Y-144234297D01*
X88256269Y-144223581D01*
X87916544Y-144223581D01*
X87824292Y-144234870D01*
X87733805Y-144268737D01*
X87645081Y-144325181D01*
X87585947Y-144383125D01*
X87538719Y-144458531D01*
X87507763Y-144547431D01*
X87497444Y-144645856D01*
X87394256Y-144645856D01*
X87394256Y-144363281D01*
X87391875Y-144308512D01*
X87376794Y-144266444D01*
X87334725Y-144234297D01*
X87252969Y-144223581D01*
X86910069Y-144223581D01*
X86817817Y-144234870D01*
X86727330Y-144268737D01*
X86638606Y-144325181D01*
X86580662Y-144383125D01*
X86533831Y-144458531D01*
X86502875Y-144547431D01*
X86492556Y-144645856D01*
X86505785Y-144758392D01*
X86545473Y-144856817D01*
X86611619Y-144941131D01*
X86584102Y-145006219D01*
X86548119Y-145089298D01*
X86503669Y-145190369D01*
X86479856Y-145272919D01*
X86284809Y-145272919D01*
X86348887Y-145197513D01*
X86399489Y-145090158D01*
X86416356Y-144969706D01*
X86401540Y-144850115D01*
X86357090Y-144745340D01*
X86283006Y-144655381D01*
X86189873Y-144586590D01*
X86088273Y-144545315D01*
X85978206Y-144531556D01*
X85868316Y-144545226D01*
X85767245Y-144586237D01*
X85674994Y-144654587D01*
X85601792Y-144744105D01*
X85557872Y-144848615D01*
X85543231Y-144968119D01*
X85463605Y-144968119D01*
X85463856Y-144965738D01*
X85453537Y-144868106D01*
X85422581Y-144780000D01*
X85375353Y-144704792D01*
X85316219Y-144645856D01*
X85226437Y-144587648D01*
X85132774Y-144552723D01*
X85035231Y-144541081D01*
X84917756Y-144557750D01*
X84833619Y-144590294D01*
X84808219Y-144606169D01*
X84763769Y-144636331D01*
X84722494Y-144708562D01*
X84755831Y-144799844D01*
X84811791Y-144865328D01*
X84865369Y-144887156D01*
X84951094Y-144852231D01*
X85032850Y-144825244D01*
X85132069Y-144863344D01*
X85178106Y-144968913D01*
X85133656Y-145073688D01*
X85039200Y-145110994D01*
X84945537Y-145081625D01*
X84874894Y-145052256D01*
X84822109Y-145073291D01*
X84759006Y-145136394D01*
X84722494Y-145218944D01*
X84619306Y-145218944D01*
X84619306Y-144296606D01*
X84616925Y-144241837D01*
X84603431Y-144199769D01*
X84561362Y-144167622D01*
X84479606Y-144156906D01*
X84371656Y-144183894D01*
X84343081Y-144253744D01*
X84341494Y-144298194D01*
X84341494Y-144801431D01*
X84254975Y-144720469D01*
X84168456Y-144639506D01*
X84149406Y-144626806D01*
X84054156Y-144583944D01*
X83962875Y-144648237D01*
X83911281Y-144749044D01*
X83970019Y-144834769D01*
X84127181Y-144968119D01*
X83916044Y-145142744D01*
X83866037Y-145193544D01*
X83855719Y-145226881D01*
X83784851Y-145226881D01*
X83777137Y-145200291D01*
X83731894Y-145126869D01*
X83675537Y-145099881D01*
X83569969Y-145138775D01*
X83449319Y-145177669D01*
X83376691Y-145168144D01*
X83352481Y-145139569D01*
X83379072Y-145113375D01*
X83458844Y-145095119D01*
X83558459Y-145069322D01*
X83657281Y-145020506D01*
X83733481Y-144930813D01*
X83756103Y-144863939D01*
X83763644Y-144785556D01*
X83749864Y-144695259D01*
X83708526Y-144625028D01*
X83639628Y-144574863D01*
X83543172Y-144544764D01*
X83419156Y-144534731D01*
X83304856Y-144548225D01*
X83187381Y-144588706D01*
X83131819Y-144652206D01*
X83166744Y-144745869D01*
X83238181Y-144801431D01*
X83308825Y-144777619D01*
X83420744Y-144753806D01*
X83514406Y-144788731D01*
X83487419Y-144828022D01*
X83406456Y-144850644D01*
X83303269Y-144871281D01*
X83203256Y-144910969D01*
X83126262Y-144987963D01*
X83103045Y-145049677D01*
X83095306Y-145125281D01*
X81501437Y-145125281D01*
X81495856Y-145109683D01*
X81468775Y-145001569D01*
X81452421Y-144891320D01*
X81446952Y-144780000D01*
X81452421Y-144668680D01*
X81468775Y-144558431D01*
X81495856Y-144450317D01*
X81533404Y-144345377D01*
X81581057Y-144244623D01*
X81638356Y-144149026D01*
X81704750Y-144059504D01*
X81779598Y-143976922D01*
X81862180Y-143902074D01*
X81951702Y-143835680D01*
X82047299Y-143778381D01*
X82148053Y-143730728D01*
X82252993Y-143693180D01*
X82361107Y-143666099D01*
X82471356Y-143649745D01*
X82582676Y-143644276D01*
X90848524Y-143644276D01*
X90959844Y-143649745D01*
G37*
G36*
X86086156Y-144850644D02*
G01*
X86123066Y-144899658D01*
X86135369Y-144967325D01*
X86122669Y-145034794D01*
X86084569Y-145083213D01*
X85981381Y-145122106D01*
X85876606Y-145082419D01*
X85837316Y-145033206D01*
X85824219Y-144964944D01*
X85836522Y-144897078D01*
X85873431Y-144849056D01*
X85979794Y-144810956D01*
X86086156Y-144850644D01*
G37*
G36*
X87113269Y-144785556D02*
G01*
X86910069Y-144785556D01*
X86817994Y-144750631D01*
X86771956Y-144645856D01*
X86817994Y-144540287D01*
X86913244Y-144504569D01*
X87113269Y-144504569D01*
X87113269Y-144785556D01*
G37*
%TO.C,kibuzzard-633DF18E*%
G36*
X82323592Y-87597908D02*
G01*
X82458034Y-87617850D01*
X82589875Y-87650875D01*
X82717843Y-87696663D01*
X82840708Y-87754773D01*
X82957285Y-87824647D01*
X83066452Y-87905610D01*
X83167157Y-87996884D01*
X83258431Y-88097590D01*
X83339395Y-88206757D01*
X83409268Y-88323334D01*
X83467379Y-88446198D01*
X83513167Y-88574167D01*
X83546191Y-88706007D01*
X83566134Y-88840450D01*
X83572803Y-88976200D01*
X83566134Y-89111950D01*
X83546191Y-89246393D01*
X83513167Y-89378233D01*
X83467379Y-89506202D01*
X83409268Y-89629066D01*
X83339395Y-89745643D01*
X83258431Y-89854810D01*
X83167157Y-89955516D01*
X83066452Y-90046790D01*
X82957285Y-90127753D01*
X82840708Y-90197627D01*
X82717843Y-90255737D01*
X82589875Y-90301525D01*
X82458034Y-90334550D01*
X82323592Y-90354492D01*
X82187842Y-90361161D01*
X71025759Y-90361161D01*
X70890009Y-90354492D01*
X70755566Y-90334550D01*
X70623726Y-90301525D01*
X70495757Y-90255738D01*
X70372892Y-90197627D01*
X70256315Y-90127753D01*
X70147148Y-90046790D01*
X70046443Y-89955516D01*
X69955169Y-89854810D01*
X69874205Y-89745643D01*
X69804332Y-89629066D01*
X69746221Y-89506202D01*
X69729544Y-89459594D01*
X71538389Y-89459594D01*
X71549224Y-89566552D01*
X71581728Y-89656285D01*
X71702854Y-89777411D01*
X71805706Y-89815688D01*
X71924610Y-89838653D01*
X72059565Y-89846309D01*
X72200694Y-89832480D01*
X72338118Y-89790993D01*
X72471839Y-89721849D01*
X72514066Y-89637394D01*
X72503751Y-89601834D01*
X72602966Y-89601834D01*
X72671864Y-89746296D01*
X72805214Y-89839641D01*
X72940786Y-89775189D01*
X72963011Y-89759631D01*
X73028019Y-89701568D01*
X73120809Y-89611835D01*
X73214709Y-89521546D01*
X73283051Y-89461816D01*
X73283051Y-89632949D01*
X73286385Y-89709625D01*
X73307499Y-89768521D01*
X73364728Y-89811860D01*
X73478631Y-89826306D01*
X73591423Y-89811304D01*
X73649764Y-89766299D01*
X73668655Y-89707403D01*
X73671989Y-89630726D01*
X73671989Y-89590721D01*
X73816451Y-89590721D01*
X73847011Y-89672398D01*
X73938689Y-89748519D01*
X74079818Y-89815194D01*
X74249839Y-89837419D01*
X74385905Y-89820873D01*
X74518514Y-89771238D01*
X74647666Y-89688511D01*
X74730454Y-89605445D01*
X74796574Y-89498488D01*
X74839913Y-89373472D01*
X74854008Y-89239566D01*
X74965484Y-89239566D01*
X74989376Y-89413755D01*
X75061051Y-89567385D01*
X75166898Y-89691845D01*
X75293303Y-89778523D01*
X75432487Y-89829362D01*
X75576671Y-89846309D01*
X75721134Y-89828251D01*
X75861151Y-89774078D01*
X75988112Y-89684622D01*
X76003694Y-89666286D01*
X76276759Y-89666286D01*
X76311208Y-89744074D01*
X76414554Y-89808526D01*
X76529013Y-89839641D01*
X76600133Y-89818528D01*
X76641249Y-89775189D01*
X76670388Y-89711724D01*
X76728173Y-89577633D01*
X76814604Y-89372916D01*
X76883501Y-89377361D01*
X77163536Y-89377361D01*
X77163536Y-89628504D01*
X77166870Y-89705180D01*
X77187984Y-89764076D01*
X77246880Y-89809082D01*
X77361339Y-89824084D01*
X77484688Y-89803526D01*
X77543584Y-89741851D01*
X77556919Y-89626281D01*
X77556919Y-88788399D01*
X77701381Y-88788399D01*
X77715828Y-88925916D01*
X77759166Y-89049543D01*
X77825286Y-89154278D01*
X77908074Y-89235121D01*
X78032534Y-89314143D01*
X78159957Y-89361557D01*
X78290344Y-89377361D01*
X78568156Y-89377361D01*
X78568156Y-89628504D01*
X78571490Y-89705180D01*
X78592604Y-89764076D01*
X78651500Y-89809082D01*
X78765959Y-89824084D01*
X78889308Y-89803526D01*
X78948204Y-89741851D01*
X78961539Y-89626281D01*
X78961539Y-89306241D01*
X79106001Y-89306241D01*
X79120448Y-89442092D01*
X79163786Y-89560718D01*
X79230461Y-89658230D01*
X79314916Y-89730739D01*
X79437648Y-89796179D01*
X79565812Y-89835443D01*
X79699409Y-89848531D01*
X79801088Y-89842142D01*
X79897211Y-89822973D01*
X80048341Y-89759631D01*
X80148354Y-89689623D01*
X80204353Y-89630726D01*
X80401719Y-89630726D01*
X80422277Y-89754075D01*
X80483951Y-89812971D01*
X80599521Y-89826306D01*
X81479631Y-89826306D01*
X81602980Y-89805193D01*
X81661876Y-89741851D01*
X81675211Y-89628504D01*
X81675211Y-88392794D01*
X81632984Y-88238330D01*
X81472964Y-88197214D01*
X80597299Y-88197214D01*
X80520623Y-88200547D01*
X80461726Y-88221661D01*
X80416721Y-88280557D01*
X80401719Y-88395016D01*
X80422277Y-88518365D01*
X80483951Y-88577261D01*
X80599521Y-88590596D01*
X81281829Y-88590596D01*
X81281829Y-88815069D01*
X80841774Y-88815069D01*
X80765098Y-88818402D01*
X80706201Y-88839516D01*
X80661196Y-88898412D01*
X80646194Y-89012871D01*
X80667308Y-89136220D01*
X80730649Y-89195116D01*
X80846219Y-89208451D01*
X81281829Y-89208451D01*
X81281829Y-89432924D01*
X80597299Y-89432924D01*
X80520623Y-89436258D01*
X80461726Y-89457371D01*
X80416721Y-89516268D01*
X80401719Y-89630726D01*
X80204353Y-89630726D01*
X80212806Y-89621836D01*
X80232809Y-89597389D01*
X80290594Y-89469595D01*
X80266702Y-89403753D01*
X80195026Y-89319576D01*
X80077234Y-89266236D01*
X80002780Y-89294018D01*
X79903879Y-89377361D01*
X79814979Y-89449593D01*
X79708299Y-89484041D01*
X79593470Y-89465273D01*
X79524572Y-89408970D01*
X79501606Y-89315131D01*
X79558280Y-89229565D01*
X79699409Y-89179559D01*
X79787198Y-89159278D01*
X79881654Y-89129553D01*
X79976110Y-89092048D01*
X80063899Y-89048431D01*
X80141409Y-88988146D01*
X80205028Y-88900635D01*
X80247533Y-88789232D01*
X80261701Y-88657271D01*
X80245526Y-88532441D01*
X80197002Y-88418723D01*
X80116128Y-88316117D01*
X80007349Y-88235243D01*
X79875110Y-88186719D01*
X79719411Y-88170544D01*
X79591895Y-88179156D01*
X79476048Y-88204992D01*
X79323806Y-88275001D01*
X79268244Y-88317229D01*
X79199346Y-88426131D01*
X79252686Y-88548369D01*
X79329363Y-88631712D01*
X79408261Y-88659494D01*
X79523831Y-88615044D01*
X79549390Y-88592819D01*
X79583839Y-88563926D01*
X79702743Y-88535034D01*
X79822758Y-88569482D01*
X79870541Y-88665050D01*
X79813868Y-88763951D01*
X79672739Y-88815069D01*
X79584394Y-88832015D01*
X79488271Y-88856185D01*
X79392148Y-88887022D01*
X79303804Y-88923971D01*
X79226294Y-88978700D01*
X79162675Y-89062878D01*
X79120170Y-89173169D01*
X79106001Y-89306241D01*
X78961539Y-89306241D01*
X78961539Y-88392794D01*
X78958205Y-88316117D01*
X78937091Y-88257221D01*
X78878195Y-88212216D01*
X78763736Y-88197214D01*
X78288121Y-88197214D01*
X78158969Y-88213018D01*
X78032287Y-88260432D01*
X77908074Y-88339454D01*
X77825286Y-88420575D01*
X77759166Y-88526144D01*
X77715828Y-88650604D01*
X77701381Y-88788399D01*
X77556919Y-88788399D01*
X77556919Y-88392794D01*
X77553585Y-88316117D01*
X77532471Y-88257221D01*
X77473575Y-88212216D01*
X77359116Y-88197214D01*
X76879056Y-88197214D01*
X76749904Y-88213018D01*
X76623222Y-88260432D01*
X76499009Y-88339454D01*
X76417888Y-88420575D01*
X76352324Y-88526144D01*
X76308985Y-88650604D01*
X76294539Y-88788399D01*
X76313060Y-88945949D01*
X76368622Y-89083744D01*
X76461226Y-89201784D01*
X76422703Y-89292906D01*
X76372326Y-89409217D01*
X76310096Y-89550716D01*
X76276759Y-89666286D01*
X76003694Y-89666286D01*
X76093403Y-89560718D01*
X76164245Y-89410421D01*
X76187859Y-89241789D01*
X76167116Y-89074360D01*
X76104886Y-88927675D01*
X76001169Y-88801734D01*
X75870782Y-88705425D01*
X75728542Y-88647640D01*
X75574449Y-88628379D01*
X75420602Y-88647517D01*
X75279103Y-88704932D01*
X75149951Y-88800622D01*
X75047469Y-88925947D01*
X74985980Y-89072261D01*
X74965484Y-89239566D01*
X74854008Y-89239566D01*
X74854359Y-89236233D01*
X74839913Y-89099549D01*
X74796574Y-88976200D01*
X74730454Y-88870909D01*
X74647666Y-88788399D01*
X74521972Y-88706907D01*
X74390844Y-88658012D01*
X74254284Y-88641714D01*
X74089819Y-88665050D01*
X73972026Y-88710611D01*
X73936466Y-88732836D01*
X73874236Y-88775064D01*
X73816451Y-88876187D01*
X73863124Y-89003981D01*
X73941467Y-89095659D01*
X74016476Y-89126219D01*
X74136491Y-89077324D01*
X74250950Y-89039541D01*
X74389856Y-89092881D01*
X74454309Y-89240678D01*
X74392079Y-89387363D01*
X74259840Y-89439591D01*
X74128713Y-89398475D01*
X74029811Y-89357359D01*
X73955913Y-89386807D01*
X73867569Y-89475151D01*
X73816451Y-89590721D01*
X73671989Y-89590721D01*
X73671989Y-88299449D01*
X73668655Y-88222772D01*
X73649764Y-88163876D01*
X73590868Y-88118871D01*
X73476409Y-88103869D01*
X73325279Y-88141651D01*
X73285274Y-88239441D01*
X73283051Y-88301671D01*
X73283051Y-89006204D01*
X73161925Y-88892856D01*
X73040799Y-88779509D01*
X73014129Y-88761729D01*
X72880779Y-88701721D01*
X72752985Y-88791732D01*
X72680754Y-88932861D01*
X72762986Y-89052876D01*
X72983014Y-89239566D01*
X72687421Y-89484041D01*
X72617413Y-89555161D01*
X72602966Y-89601834D01*
X72503751Y-89601834D01*
X72492953Y-89564607D01*
X72429611Y-89461816D01*
X72350713Y-89424034D01*
X72202916Y-89478485D01*
X72034006Y-89532936D01*
X71932327Y-89519601D01*
X71898434Y-89479596D01*
X71935661Y-89442925D01*
X72047341Y-89417366D01*
X72186803Y-89381251D01*
X72325154Y-89312909D01*
X72431834Y-89187338D01*
X72463504Y-89093715D01*
X72474061Y-88983979D01*
X72454770Y-88857563D01*
X72396896Y-88759240D01*
X72300440Y-88689009D01*
X72165401Y-88646870D01*
X71991779Y-88632824D01*
X71831759Y-88651715D01*
X71667294Y-88708389D01*
X71589506Y-88797289D01*
X71638401Y-88928416D01*
X71738414Y-89006204D01*
X71837315Y-88972866D01*
X71994001Y-88939529D01*
X72125129Y-88988424D01*
X72087346Y-89043431D01*
X71973999Y-89075101D01*
X71829536Y-89103994D01*
X71689519Y-89159556D01*
X71581728Y-89267348D01*
X71549224Y-89353747D01*
X71538389Y-89459594D01*
X69729544Y-89459594D01*
X69700433Y-89378233D01*
X69667409Y-89246393D01*
X69647466Y-89111950D01*
X69640797Y-88976200D01*
X69647466Y-88840450D01*
X69667409Y-88706007D01*
X69700433Y-88574167D01*
X69746221Y-88446198D01*
X69804332Y-88323334D01*
X69874205Y-88206757D01*
X69955169Y-88097590D01*
X70046443Y-87996884D01*
X70147148Y-87905610D01*
X70256315Y-87824647D01*
X70372892Y-87754773D01*
X70495757Y-87696662D01*
X70623726Y-87650875D01*
X70755566Y-87617850D01*
X70890009Y-87597908D01*
X71025759Y-87591239D01*
X82187842Y-87591239D01*
X82323592Y-87597908D01*
G37*
G36*
X75725579Y-89075101D02*
G01*
X75777252Y-89143721D01*
X75794476Y-89238455D01*
X75776696Y-89332911D01*
X75723356Y-89400698D01*
X75578894Y-89455149D01*
X75432209Y-89399586D01*
X75377202Y-89330689D01*
X75358866Y-89235121D01*
X75376091Y-89140109D01*
X75427764Y-89072879D01*
X75576671Y-89019539D01*
X75725579Y-89075101D01*
G37*
G36*
X77163536Y-88983979D02*
G01*
X76879056Y-88983979D01*
X76750151Y-88935084D01*
X76685699Y-88788399D01*
X76750151Y-88640602D01*
X76883501Y-88590596D01*
X77163536Y-88590596D01*
X77163536Y-88983979D01*
G37*
G36*
X78568156Y-88983979D02*
G01*
X78288121Y-88983979D01*
X78156994Y-88935084D01*
X78092541Y-88788399D01*
X78156994Y-88640602D01*
X78290344Y-88590596D01*
X78568156Y-88590596D01*
X78568156Y-88983979D01*
G37*
%TO.C,kibuzzard-633DF0B5*%
G36*
X88193169Y-127183356D02*
G01*
X87993144Y-127183356D01*
X87899481Y-127148431D01*
X87853444Y-127043656D01*
X87899481Y-126938087D01*
X87994731Y-126902369D01*
X88193169Y-126902369D01*
X88193169Y-127183356D01*
G37*
G36*
X91036444Y-126047545D02*
G01*
X91146693Y-126063899D01*
X91254807Y-126090980D01*
X91359747Y-126128528D01*
X91460501Y-126176181D01*
X91556098Y-126233480D01*
X91645620Y-126299874D01*
X91728202Y-126374722D01*
X91803050Y-126457304D01*
X91869444Y-126546826D01*
X91926743Y-126642423D01*
X91974396Y-126743177D01*
X92011944Y-126848117D01*
X92039025Y-126956231D01*
X92055379Y-127066480D01*
X92060848Y-127177800D01*
X92055379Y-127289120D01*
X92039025Y-127399369D01*
X92011944Y-127507483D01*
X91974396Y-127612423D01*
X91926743Y-127713177D01*
X91869444Y-127808774D01*
X91803050Y-127898296D01*
X91728202Y-127980878D01*
X91645620Y-128055726D01*
X91556098Y-128122120D01*
X91460501Y-128179419D01*
X91359747Y-128227072D01*
X91254807Y-128264620D01*
X91146693Y-128291701D01*
X91036444Y-128308055D01*
X90925124Y-128313524D01*
X82659276Y-128313524D01*
X82547956Y-128308055D01*
X82437707Y-128291701D01*
X82329593Y-128264620D01*
X82224653Y-128227072D01*
X82123899Y-128179419D01*
X82028302Y-128122120D01*
X81938780Y-128055726D01*
X81856198Y-127980878D01*
X81781350Y-127898296D01*
X81714956Y-127808774D01*
X81657657Y-127713177D01*
X81610004Y-127612423D01*
X81578037Y-127523081D01*
X83171906Y-127523081D01*
X83179645Y-127599480D01*
X83202862Y-127663575D01*
X83289381Y-127750094D01*
X83362847Y-127777434D01*
X83447778Y-127793838D01*
X83544175Y-127799306D01*
X83644981Y-127789428D01*
X83743142Y-127759795D01*
X83838656Y-127710406D01*
X83868819Y-127650081D01*
X83861451Y-127624681D01*
X83932319Y-127624681D01*
X83981531Y-127727869D01*
X84076781Y-127794544D01*
X84173619Y-127748506D01*
X84189494Y-127737394D01*
X84235928Y-127695920D01*
X84302206Y-127631825D01*
X84369278Y-127567333D01*
X84418094Y-127524669D01*
X84418094Y-127646906D01*
X84420475Y-127701675D01*
X84435556Y-127743744D01*
X84476434Y-127774700D01*
X84557794Y-127785019D01*
X84638359Y-127774303D01*
X84680031Y-127742156D01*
X84693525Y-127700088D01*
X84695906Y-127645319D01*
X84695906Y-127616744D01*
X84799094Y-127616744D01*
X84820922Y-127675084D01*
X84886406Y-127729456D01*
X84987212Y-127777081D01*
X85108656Y-127792956D01*
X85205847Y-127781138D01*
X85300567Y-127745684D01*
X85392819Y-127686594D01*
X85451953Y-127627261D01*
X85499181Y-127550863D01*
X85530137Y-127461566D01*
X85540205Y-127365919D01*
X85619831Y-127365919D01*
X85636897Y-127490339D01*
X85688094Y-127600075D01*
X85763698Y-127688975D01*
X85853987Y-127750888D01*
X85953405Y-127787202D01*
X86056394Y-127799306D01*
X86159581Y-127786408D01*
X86259594Y-127747713D01*
X86350280Y-127683816D01*
X86361409Y-127670719D01*
X86556456Y-127670719D01*
X86581062Y-127726281D01*
X86654881Y-127772319D01*
X86736637Y-127794544D01*
X86787437Y-127779463D01*
X86816806Y-127748506D01*
X86837620Y-127703174D01*
X86878895Y-127607395D01*
X86940631Y-127461169D01*
X86989844Y-127464344D01*
X87189869Y-127464344D01*
X87189869Y-127643731D01*
X87192250Y-127698500D01*
X87207331Y-127740569D01*
X87249400Y-127772716D01*
X87331156Y-127783431D01*
X87419263Y-127768747D01*
X87461331Y-127724694D01*
X87470856Y-127642144D01*
X87470856Y-127043656D01*
X87574044Y-127043656D01*
X87584363Y-127141883D01*
X87615319Y-127230188D01*
X87662547Y-127304998D01*
X87721681Y-127362744D01*
X87810581Y-127419188D01*
X87901598Y-127453055D01*
X87994731Y-127464344D01*
X88193169Y-127464344D01*
X88193169Y-127643731D01*
X88195550Y-127698500D01*
X88210631Y-127740569D01*
X88252700Y-127772716D01*
X88334456Y-127783431D01*
X88422563Y-127768747D01*
X88464631Y-127724694D01*
X88474156Y-127642144D01*
X88474156Y-127413544D01*
X88577344Y-127413544D01*
X88587663Y-127510580D01*
X88618619Y-127595313D01*
X88666244Y-127664964D01*
X88726569Y-127716756D01*
X88814234Y-127763499D01*
X88905780Y-127791545D01*
X89001206Y-127800894D01*
X89073834Y-127796330D01*
X89142494Y-127782638D01*
X89250444Y-127737394D01*
X89321881Y-127687388D01*
X89361881Y-127645319D01*
X89502856Y-127645319D01*
X89517541Y-127733425D01*
X89561594Y-127775494D01*
X89644144Y-127785019D01*
X90272794Y-127785019D01*
X90360900Y-127769938D01*
X90402969Y-127724694D01*
X90412494Y-127643731D01*
X90412494Y-126761081D01*
X90382331Y-126650750D01*
X90268031Y-126621381D01*
X89642556Y-126621381D01*
X89587788Y-126623762D01*
X89545719Y-126638844D01*
X89513572Y-126680912D01*
X89502856Y-126762669D01*
X89517541Y-126850775D01*
X89561594Y-126892844D01*
X89644144Y-126902369D01*
X90131506Y-126902369D01*
X90131506Y-127062706D01*
X89817181Y-127062706D01*
X89762413Y-127065087D01*
X89720344Y-127080169D01*
X89688197Y-127122237D01*
X89677481Y-127203994D01*
X89692563Y-127292100D01*
X89737806Y-127334169D01*
X89820356Y-127343694D01*
X90131506Y-127343694D01*
X90131506Y-127504031D01*
X89642556Y-127504031D01*
X89587788Y-127506413D01*
X89545719Y-127521494D01*
X89513572Y-127563563D01*
X89502856Y-127645319D01*
X89361881Y-127645319D01*
X89367919Y-127638969D01*
X89382206Y-127621506D01*
X89423481Y-127530225D01*
X89406416Y-127483195D01*
X89355219Y-127423069D01*
X89271081Y-127384969D01*
X89217900Y-127404813D01*
X89147256Y-127464344D01*
X89083756Y-127515938D01*
X89007556Y-127540544D01*
X88925535Y-127527138D01*
X88876323Y-127486922D01*
X88859919Y-127419894D01*
X88900400Y-127358775D01*
X89001206Y-127323056D01*
X89063913Y-127308570D01*
X89131381Y-127287338D01*
X89198850Y-127260548D01*
X89261556Y-127229394D01*
X89316920Y-127186333D01*
X89362363Y-127123825D01*
X89392723Y-127044252D01*
X89402844Y-126949994D01*
X89391290Y-126860829D01*
X89356630Y-126779602D01*
X89298863Y-126706312D01*
X89221163Y-126648545D01*
X89126707Y-126613885D01*
X89015494Y-126602331D01*
X88924411Y-126608483D01*
X88841663Y-126626937D01*
X88732919Y-126676944D01*
X88693231Y-126707106D01*
X88644019Y-126784894D01*
X88682119Y-126872206D01*
X88736888Y-126931737D01*
X88793244Y-126951581D01*
X88875794Y-126919831D01*
X88894050Y-126903956D01*
X88918656Y-126883319D01*
X89003588Y-126862681D01*
X89089313Y-126887287D01*
X89123444Y-126955550D01*
X89082963Y-127026194D01*
X88982156Y-127062706D01*
X88919053Y-127074811D01*
X88850394Y-127092075D01*
X88781734Y-127114102D01*
X88718631Y-127140494D01*
X88663267Y-127179586D01*
X88617825Y-127239713D01*
X88587464Y-127318492D01*
X88577344Y-127413544D01*
X88474156Y-127413544D01*
X88474156Y-126761081D01*
X88471775Y-126706312D01*
X88456694Y-126664244D01*
X88414625Y-126632097D01*
X88332869Y-126621381D01*
X87993144Y-126621381D01*
X87900892Y-126632670D01*
X87810405Y-126666537D01*
X87721681Y-126722981D01*
X87662547Y-126780925D01*
X87615319Y-126856331D01*
X87584363Y-126945231D01*
X87574044Y-127043656D01*
X87470856Y-127043656D01*
X87470856Y-126761081D01*
X87468475Y-126706312D01*
X87453394Y-126664244D01*
X87411325Y-126632097D01*
X87329569Y-126621381D01*
X86986669Y-126621381D01*
X86894417Y-126632670D01*
X86803930Y-126666537D01*
X86715206Y-126722981D01*
X86657262Y-126780925D01*
X86610431Y-126856331D01*
X86579475Y-126945231D01*
X86569156Y-127043656D01*
X86582385Y-127156192D01*
X86622073Y-127254617D01*
X86688219Y-127338931D01*
X86660702Y-127404019D01*
X86624719Y-127487098D01*
X86580269Y-127588169D01*
X86556456Y-127670719D01*
X86361409Y-127670719D01*
X86425487Y-127595313D01*
X86476089Y-127487958D01*
X86492956Y-127367506D01*
X86478140Y-127247915D01*
X86433690Y-127143140D01*
X86359606Y-127053181D01*
X86266473Y-126984390D01*
X86164873Y-126943115D01*
X86054806Y-126929356D01*
X85944916Y-126943026D01*
X85843845Y-126984037D01*
X85751594Y-127052387D01*
X85678392Y-127141905D01*
X85634472Y-127246415D01*
X85619831Y-127365919D01*
X85540205Y-127365919D01*
X85540456Y-127363538D01*
X85530137Y-127265906D01*
X85499181Y-127177800D01*
X85451953Y-127102592D01*
X85392819Y-127043656D01*
X85303037Y-126985448D01*
X85209374Y-126950523D01*
X85111831Y-126938881D01*
X84994356Y-126955550D01*
X84910219Y-126988094D01*
X84884819Y-127003969D01*
X84840369Y-127034131D01*
X84799094Y-127106362D01*
X84832431Y-127197644D01*
X84888391Y-127263128D01*
X84941969Y-127284956D01*
X85027694Y-127250031D01*
X85109450Y-127223044D01*
X85208669Y-127261144D01*
X85254706Y-127366713D01*
X85210256Y-127471488D01*
X85115800Y-127508794D01*
X85022137Y-127479425D01*
X84951494Y-127450056D01*
X84898709Y-127471091D01*
X84835606Y-127534194D01*
X84799094Y-127616744D01*
X84695906Y-127616744D01*
X84695906Y-126694406D01*
X84693525Y-126639637D01*
X84680031Y-126597569D01*
X84637962Y-126565422D01*
X84556206Y-126554706D01*
X84448256Y-126581694D01*
X84419681Y-126651544D01*
X84418094Y-126695994D01*
X84418094Y-127199231D01*
X84331575Y-127118269D01*
X84245056Y-127037306D01*
X84226006Y-127024606D01*
X84130756Y-126981744D01*
X84039475Y-127046037D01*
X83987881Y-127146844D01*
X84046619Y-127232569D01*
X84203781Y-127365919D01*
X83992644Y-127540544D01*
X83942637Y-127591344D01*
X83932319Y-127624681D01*
X83861451Y-127624681D01*
X83853737Y-127598091D01*
X83808494Y-127524669D01*
X83752137Y-127497681D01*
X83646569Y-127536575D01*
X83525919Y-127575469D01*
X83453291Y-127565944D01*
X83429081Y-127537369D01*
X83455672Y-127511175D01*
X83535444Y-127492919D01*
X83635059Y-127467122D01*
X83733881Y-127418306D01*
X83810081Y-127328613D01*
X83832703Y-127261739D01*
X83840244Y-127183356D01*
X83826464Y-127093059D01*
X83785126Y-127022828D01*
X83716228Y-126972663D01*
X83619772Y-126942564D01*
X83495756Y-126932531D01*
X83381456Y-126946025D01*
X83263981Y-126986506D01*
X83208419Y-127050006D01*
X83243344Y-127143669D01*
X83314781Y-127199231D01*
X83385425Y-127175419D01*
X83497344Y-127151606D01*
X83591006Y-127186531D01*
X83564019Y-127225822D01*
X83483056Y-127248444D01*
X83379869Y-127269081D01*
X83279856Y-127308769D01*
X83202862Y-127385763D01*
X83179645Y-127447477D01*
X83171906Y-127523081D01*
X81578037Y-127523081D01*
X81572456Y-127507483D01*
X81545375Y-127399369D01*
X81529021Y-127289120D01*
X81523552Y-127177800D01*
X81529021Y-127066480D01*
X81545375Y-126956231D01*
X81572456Y-126848117D01*
X81610004Y-126743177D01*
X81657657Y-126642423D01*
X81714956Y-126546826D01*
X81781350Y-126457304D01*
X81856198Y-126374722D01*
X81938780Y-126299874D01*
X82028302Y-126233480D01*
X82123899Y-126176181D01*
X82224653Y-126128528D01*
X82329593Y-126090980D01*
X82437707Y-126063899D01*
X82547956Y-126047545D01*
X82659276Y-126042076D01*
X90925124Y-126042076D01*
X91036444Y-126047545D01*
G37*
G36*
X86162756Y-127248444D02*
G01*
X86199666Y-127297458D01*
X86211969Y-127365125D01*
X86199269Y-127432594D01*
X86161169Y-127481013D01*
X86057981Y-127519906D01*
X85953206Y-127480219D01*
X85913916Y-127431006D01*
X85900819Y-127362744D01*
X85913122Y-127294878D01*
X85950031Y-127246856D01*
X86056394Y-127208756D01*
X86162756Y-127248444D01*
G37*
G36*
X87189869Y-127183356D02*
G01*
X86986669Y-127183356D01*
X86894594Y-127148431D01*
X86848556Y-127043656D01*
X86894594Y-126938087D01*
X86989844Y-126902369D01*
X87189869Y-126902369D01*
X87189869Y-127183356D01*
G37*
%TO.C,kibuzzard-633DF18E*%
G36*
X77112736Y-60434379D02*
G01*
X76828256Y-60434379D01*
X76699351Y-60385484D01*
X76634899Y-60238799D01*
X76699351Y-60091002D01*
X76832701Y-60040996D01*
X77112736Y-60040996D01*
X77112736Y-60434379D01*
G37*
G36*
X78517356Y-60434379D02*
G01*
X78237321Y-60434379D01*
X78106194Y-60385484D01*
X78041741Y-60238799D01*
X78106194Y-60091002D01*
X78239544Y-60040996D01*
X78517356Y-60040996D01*
X78517356Y-60434379D01*
G37*
G36*
X75674779Y-60525501D02*
G01*
X75726452Y-60594121D01*
X75743676Y-60688855D01*
X75725896Y-60783311D01*
X75672556Y-60851098D01*
X75528094Y-60905549D01*
X75381409Y-60849986D01*
X75326402Y-60781089D01*
X75308066Y-60685521D01*
X75325291Y-60590509D01*
X75376964Y-60523279D01*
X75525871Y-60469939D01*
X75674779Y-60525501D01*
G37*
G36*
X82272792Y-59048308D02*
G01*
X82407234Y-59068250D01*
X82539075Y-59101275D01*
X82667043Y-59147063D01*
X82789908Y-59205173D01*
X82906485Y-59275047D01*
X83015652Y-59356010D01*
X83116357Y-59447284D01*
X83207631Y-59547990D01*
X83288595Y-59657157D01*
X83358468Y-59773734D01*
X83416579Y-59896598D01*
X83462367Y-60024567D01*
X83495391Y-60156407D01*
X83515334Y-60290850D01*
X83522003Y-60426600D01*
X83515334Y-60562350D01*
X83495391Y-60696793D01*
X83462367Y-60828633D01*
X83416579Y-60956602D01*
X83358468Y-61079466D01*
X83288595Y-61196043D01*
X83207631Y-61305210D01*
X83116357Y-61405916D01*
X83015652Y-61497190D01*
X82906485Y-61578153D01*
X82789908Y-61648027D01*
X82667043Y-61706137D01*
X82539075Y-61751925D01*
X82407234Y-61784950D01*
X82272792Y-61804892D01*
X82137042Y-61811561D01*
X70974959Y-61811561D01*
X70839209Y-61804892D01*
X70704766Y-61784950D01*
X70572926Y-61751925D01*
X70444957Y-61706138D01*
X70322092Y-61648027D01*
X70205515Y-61578153D01*
X70096348Y-61497190D01*
X69995643Y-61405916D01*
X69904369Y-61305210D01*
X69823405Y-61196043D01*
X69753532Y-61079466D01*
X69695421Y-60956602D01*
X69678744Y-60909994D01*
X71487589Y-60909994D01*
X71498424Y-61016952D01*
X71530928Y-61106685D01*
X71652054Y-61227811D01*
X71754906Y-61266088D01*
X71873810Y-61289053D01*
X72008765Y-61296709D01*
X72149894Y-61282880D01*
X72287318Y-61241393D01*
X72421039Y-61172249D01*
X72463266Y-61087794D01*
X72452951Y-61052234D01*
X72552166Y-61052234D01*
X72621064Y-61196696D01*
X72754414Y-61290041D01*
X72889986Y-61225589D01*
X72912211Y-61210031D01*
X72977219Y-61151968D01*
X73070009Y-61062235D01*
X73163909Y-60971946D01*
X73232251Y-60912216D01*
X73232251Y-61083349D01*
X73235585Y-61160025D01*
X73256699Y-61218921D01*
X73313928Y-61262260D01*
X73427831Y-61276706D01*
X73540623Y-61261704D01*
X73598964Y-61216699D01*
X73617855Y-61157803D01*
X73621189Y-61081126D01*
X73621189Y-61041121D01*
X73765651Y-61041121D01*
X73796211Y-61122798D01*
X73887889Y-61198919D01*
X74029018Y-61265594D01*
X74199039Y-61287819D01*
X74335105Y-61271273D01*
X74467714Y-61221638D01*
X74596866Y-61138911D01*
X74679654Y-61055845D01*
X74745774Y-60948888D01*
X74789113Y-60823872D01*
X74803208Y-60689966D01*
X74914684Y-60689966D01*
X74938576Y-60864155D01*
X75010251Y-61017785D01*
X75116098Y-61142245D01*
X75242503Y-61228923D01*
X75381687Y-61279762D01*
X75525871Y-61296709D01*
X75670334Y-61278651D01*
X75810351Y-61224478D01*
X75937312Y-61135022D01*
X75952894Y-61116686D01*
X76225959Y-61116686D01*
X76260408Y-61194474D01*
X76363754Y-61258926D01*
X76478213Y-61290041D01*
X76549333Y-61268928D01*
X76590449Y-61225589D01*
X76619588Y-61162124D01*
X76677373Y-61028033D01*
X76763804Y-60823316D01*
X76832701Y-60827761D01*
X77112736Y-60827761D01*
X77112736Y-61078904D01*
X77116070Y-61155580D01*
X77137184Y-61214476D01*
X77196080Y-61259482D01*
X77310539Y-61274484D01*
X77433888Y-61253926D01*
X77492784Y-61192251D01*
X77506119Y-61076681D01*
X77506119Y-60238799D01*
X77650581Y-60238799D01*
X77665028Y-60376316D01*
X77708366Y-60499943D01*
X77774486Y-60604678D01*
X77857274Y-60685521D01*
X77981734Y-60764543D01*
X78109157Y-60811957D01*
X78239544Y-60827761D01*
X78517356Y-60827761D01*
X78517356Y-61078904D01*
X78520690Y-61155580D01*
X78541804Y-61214476D01*
X78600700Y-61259482D01*
X78715159Y-61274484D01*
X78838508Y-61253926D01*
X78897404Y-61192251D01*
X78910739Y-61076681D01*
X78910739Y-60756641D01*
X79055201Y-60756641D01*
X79069648Y-60892492D01*
X79112986Y-61011118D01*
X79179661Y-61108630D01*
X79264116Y-61181139D01*
X79386848Y-61246579D01*
X79515012Y-61285843D01*
X79648609Y-61298931D01*
X79750288Y-61292542D01*
X79846411Y-61273373D01*
X79997541Y-61210031D01*
X80097554Y-61140023D01*
X80153553Y-61081126D01*
X80350919Y-61081126D01*
X80371477Y-61204475D01*
X80433151Y-61263371D01*
X80548721Y-61276706D01*
X81428831Y-61276706D01*
X81552180Y-61255593D01*
X81611076Y-61192251D01*
X81624411Y-61078904D01*
X81624411Y-59843194D01*
X81582184Y-59688730D01*
X81422164Y-59647614D01*
X80546499Y-59647614D01*
X80469823Y-59650947D01*
X80410926Y-59672061D01*
X80365921Y-59730957D01*
X80350919Y-59845416D01*
X80371477Y-59968765D01*
X80433151Y-60027661D01*
X80548721Y-60040996D01*
X81231029Y-60040996D01*
X81231029Y-60265469D01*
X80790974Y-60265469D01*
X80714298Y-60268802D01*
X80655401Y-60289916D01*
X80610396Y-60348812D01*
X80595394Y-60463271D01*
X80616508Y-60586620D01*
X80679849Y-60645516D01*
X80795419Y-60658851D01*
X81231029Y-60658851D01*
X81231029Y-60883324D01*
X80546499Y-60883324D01*
X80469823Y-60886658D01*
X80410926Y-60907771D01*
X80365921Y-60966668D01*
X80350919Y-61081126D01*
X80153553Y-61081126D01*
X80162006Y-61072236D01*
X80182009Y-61047789D01*
X80239794Y-60919995D01*
X80215902Y-60854153D01*
X80144226Y-60769976D01*
X80026434Y-60716636D01*
X79951980Y-60744418D01*
X79853079Y-60827761D01*
X79764179Y-60899993D01*
X79657499Y-60934441D01*
X79542670Y-60915673D01*
X79473772Y-60859370D01*
X79450806Y-60765531D01*
X79507480Y-60679965D01*
X79648609Y-60629959D01*
X79736398Y-60609678D01*
X79830854Y-60579953D01*
X79925310Y-60542448D01*
X80013099Y-60498831D01*
X80090609Y-60438546D01*
X80154228Y-60351035D01*
X80196733Y-60239632D01*
X80210901Y-60107671D01*
X80194726Y-59982841D01*
X80146202Y-59869123D01*
X80065328Y-59766517D01*
X79956549Y-59685643D01*
X79824310Y-59637119D01*
X79668611Y-59620944D01*
X79541095Y-59629556D01*
X79425248Y-59655392D01*
X79273006Y-59725401D01*
X79217444Y-59767629D01*
X79148546Y-59876531D01*
X79201886Y-59998769D01*
X79278563Y-60082112D01*
X79357461Y-60109894D01*
X79473031Y-60065444D01*
X79498590Y-60043219D01*
X79533039Y-60014326D01*
X79651943Y-59985434D01*
X79771958Y-60019882D01*
X79819741Y-60115450D01*
X79763068Y-60214351D01*
X79621939Y-60265469D01*
X79533594Y-60282415D01*
X79437471Y-60306585D01*
X79341348Y-60337422D01*
X79253004Y-60374371D01*
X79175494Y-60429100D01*
X79111875Y-60513278D01*
X79069370Y-60623569D01*
X79055201Y-60756641D01*
X78910739Y-60756641D01*
X78910739Y-59843194D01*
X78907405Y-59766517D01*
X78886291Y-59707621D01*
X78827395Y-59662616D01*
X78712936Y-59647614D01*
X78237321Y-59647614D01*
X78108169Y-59663418D01*
X77981487Y-59710832D01*
X77857274Y-59789854D01*
X77774486Y-59870975D01*
X77708366Y-59976544D01*
X77665028Y-60101004D01*
X77650581Y-60238799D01*
X77506119Y-60238799D01*
X77506119Y-59843194D01*
X77502785Y-59766517D01*
X77481671Y-59707621D01*
X77422775Y-59662616D01*
X77308316Y-59647614D01*
X76828256Y-59647614D01*
X76699104Y-59663418D01*
X76572422Y-59710832D01*
X76448209Y-59789854D01*
X76367088Y-59870975D01*
X76301524Y-59976544D01*
X76258185Y-60101004D01*
X76243739Y-60238799D01*
X76262260Y-60396349D01*
X76317822Y-60534144D01*
X76410426Y-60652184D01*
X76371903Y-60743306D01*
X76321526Y-60859617D01*
X76259296Y-61001116D01*
X76225959Y-61116686D01*
X75952894Y-61116686D01*
X76042603Y-61011118D01*
X76113445Y-60860821D01*
X76137059Y-60692189D01*
X76116316Y-60524760D01*
X76054086Y-60378075D01*
X75950369Y-60252134D01*
X75819982Y-60155825D01*
X75677742Y-60098040D01*
X75523649Y-60078779D01*
X75369802Y-60097917D01*
X75228303Y-60155332D01*
X75099151Y-60251022D01*
X74996669Y-60376347D01*
X74935180Y-60522661D01*
X74914684Y-60689966D01*
X74803208Y-60689966D01*
X74803559Y-60686633D01*
X74789113Y-60549949D01*
X74745774Y-60426600D01*
X74679654Y-60321309D01*
X74596866Y-60238799D01*
X74471172Y-60157307D01*
X74340044Y-60108412D01*
X74203484Y-60092114D01*
X74039019Y-60115450D01*
X73921226Y-60161011D01*
X73885666Y-60183236D01*
X73823436Y-60225464D01*
X73765651Y-60326587D01*
X73812324Y-60454381D01*
X73890667Y-60546059D01*
X73965676Y-60576619D01*
X74085691Y-60527724D01*
X74200150Y-60489941D01*
X74339056Y-60543281D01*
X74403509Y-60691078D01*
X74341279Y-60837763D01*
X74209040Y-60889991D01*
X74077913Y-60848875D01*
X73979011Y-60807759D01*
X73905113Y-60837207D01*
X73816769Y-60925551D01*
X73765651Y-61041121D01*
X73621189Y-61041121D01*
X73621189Y-59749849D01*
X73617855Y-59673172D01*
X73598964Y-59614276D01*
X73540068Y-59569271D01*
X73425609Y-59554269D01*
X73274479Y-59592051D01*
X73234474Y-59689841D01*
X73232251Y-59752071D01*
X73232251Y-60456604D01*
X73111125Y-60343256D01*
X72989999Y-60229909D01*
X72963329Y-60212129D01*
X72829979Y-60152121D01*
X72702185Y-60242132D01*
X72629954Y-60383261D01*
X72712186Y-60503276D01*
X72932214Y-60689966D01*
X72636621Y-60934441D01*
X72566613Y-61005561D01*
X72552166Y-61052234D01*
X72452951Y-61052234D01*
X72442153Y-61015007D01*
X72378811Y-60912216D01*
X72299913Y-60874434D01*
X72152116Y-60928885D01*
X71983206Y-60983336D01*
X71881527Y-60970001D01*
X71847634Y-60929996D01*
X71884861Y-60893325D01*
X71996541Y-60867766D01*
X72136003Y-60831651D01*
X72274354Y-60763309D01*
X72381034Y-60637738D01*
X72412704Y-60544115D01*
X72423261Y-60434379D01*
X72403970Y-60307963D01*
X72346096Y-60209640D01*
X72249640Y-60139409D01*
X72114601Y-60097270D01*
X71940979Y-60083224D01*
X71780959Y-60102115D01*
X71616494Y-60158789D01*
X71538706Y-60247689D01*
X71587601Y-60378816D01*
X71687614Y-60456604D01*
X71786515Y-60423266D01*
X71943201Y-60389929D01*
X72074329Y-60438824D01*
X72036546Y-60493831D01*
X71923199Y-60525501D01*
X71778736Y-60554394D01*
X71638719Y-60609956D01*
X71530928Y-60717748D01*
X71498424Y-60804147D01*
X71487589Y-60909994D01*
X69678744Y-60909994D01*
X69649633Y-60828633D01*
X69616609Y-60696793D01*
X69596666Y-60562350D01*
X69589997Y-60426600D01*
X69596666Y-60290850D01*
X69616609Y-60156407D01*
X69649633Y-60024567D01*
X69695421Y-59896598D01*
X69753532Y-59773734D01*
X69823405Y-59657157D01*
X69904369Y-59547990D01*
X69995643Y-59447284D01*
X70096348Y-59356010D01*
X70205515Y-59275047D01*
X70322092Y-59205173D01*
X70444957Y-59147062D01*
X70572926Y-59101275D01*
X70704766Y-59068250D01*
X70839209Y-59048308D01*
X70974959Y-59041639D01*
X82137042Y-59041639D01*
X82272792Y-59048308D01*
G37*
%TO.C,kibuzzard-633DF0B5*%
G36*
X88167769Y-109276356D02*
G01*
X87967744Y-109276356D01*
X87874081Y-109241431D01*
X87828044Y-109136656D01*
X87874081Y-109031087D01*
X87969331Y-108995369D01*
X88167769Y-108995369D01*
X88167769Y-109276356D01*
G37*
G36*
X91011044Y-108140545D02*
G01*
X91121293Y-108156899D01*
X91229407Y-108183980D01*
X91334347Y-108221528D01*
X91435101Y-108269181D01*
X91530698Y-108326480D01*
X91620220Y-108392874D01*
X91702802Y-108467722D01*
X91777650Y-108550304D01*
X91844044Y-108639826D01*
X91901343Y-108735423D01*
X91948996Y-108836177D01*
X91986544Y-108941117D01*
X92013625Y-109049231D01*
X92029979Y-109159480D01*
X92035448Y-109270800D01*
X92029979Y-109382120D01*
X92013625Y-109492369D01*
X91986544Y-109600483D01*
X91948996Y-109705423D01*
X91901343Y-109806177D01*
X91844044Y-109901774D01*
X91777650Y-109991296D01*
X91702802Y-110073878D01*
X91620220Y-110148726D01*
X91530698Y-110215120D01*
X91435101Y-110272419D01*
X91334347Y-110320072D01*
X91229407Y-110357620D01*
X91121293Y-110384701D01*
X91011044Y-110401055D01*
X90899724Y-110406524D01*
X82633876Y-110406524D01*
X82522556Y-110401055D01*
X82412307Y-110384701D01*
X82304193Y-110357620D01*
X82199253Y-110320072D01*
X82098499Y-110272419D01*
X82002902Y-110215120D01*
X81913380Y-110148726D01*
X81830798Y-110073878D01*
X81755950Y-109991296D01*
X81689556Y-109901774D01*
X81632257Y-109806177D01*
X81584604Y-109705423D01*
X81552637Y-109616081D01*
X83146506Y-109616081D01*
X83154245Y-109692480D01*
X83177462Y-109756575D01*
X83263981Y-109843094D01*
X83337447Y-109870434D01*
X83422378Y-109886838D01*
X83518775Y-109892306D01*
X83619581Y-109882428D01*
X83717742Y-109852795D01*
X83813256Y-109803406D01*
X83843419Y-109743081D01*
X83836051Y-109717681D01*
X83906919Y-109717681D01*
X83956131Y-109820869D01*
X84051381Y-109887544D01*
X84148219Y-109841506D01*
X84164094Y-109830394D01*
X84210528Y-109788920D01*
X84276806Y-109724825D01*
X84343878Y-109660333D01*
X84392694Y-109617669D01*
X84392694Y-109739906D01*
X84395075Y-109794675D01*
X84410156Y-109836744D01*
X84451034Y-109867700D01*
X84532394Y-109878019D01*
X84612959Y-109867303D01*
X84654631Y-109835156D01*
X84668125Y-109793088D01*
X84670506Y-109738319D01*
X84670506Y-109709744D01*
X84773694Y-109709744D01*
X84795522Y-109768084D01*
X84861006Y-109822456D01*
X84961812Y-109870081D01*
X85083256Y-109885956D01*
X85180447Y-109874138D01*
X85275167Y-109838684D01*
X85367419Y-109779594D01*
X85426553Y-109720261D01*
X85473781Y-109643863D01*
X85504737Y-109554566D01*
X85514805Y-109458919D01*
X85594431Y-109458919D01*
X85611497Y-109583339D01*
X85662694Y-109693075D01*
X85738298Y-109781975D01*
X85828587Y-109843888D01*
X85928005Y-109880202D01*
X86030994Y-109892306D01*
X86134181Y-109879408D01*
X86234194Y-109840713D01*
X86324880Y-109776816D01*
X86336009Y-109763719D01*
X86531056Y-109763719D01*
X86555662Y-109819281D01*
X86629481Y-109865319D01*
X86711237Y-109887544D01*
X86762037Y-109872463D01*
X86791406Y-109841506D01*
X86812220Y-109796174D01*
X86853495Y-109700395D01*
X86915231Y-109554169D01*
X86964444Y-109557344D01*
X87164469Y-109557344D01*
X87164469Y-109736731D01*
X87166850Y-109791500D01*
X87181931Y-109833569D01*
X87224000Y-109865716D01*
X87305756Y-109876431D01*
X87393863Y-109861747D01*
X87435931Y-109817694D01*
X87445456Y-109735144D01*
X87445456Y-109136656D01*
X87548644Y-109136656D01*
X87558963Y-109234883D01*
X87589919Y-109323188D01*
X87637147Y-109397998D01*
X87696281Y-109455744D01*
X87785181Y-109512188D01*
X87876198Y-109546055D01*
X87969331Y-109557344D01*
X88167769Y-109557344D01*
X88167769Y-109736731D01*
X88170150Y-109791500D01*
X88185231Y-109833569D01*
X88227300Y-109865716D01*
X88309056Y-109876431D01*
X88397163Y-109861747D01*
X88439231Y-109817694D01*
X88448756Y-109735144D01*
X88448756Y-109506544D01*
X88551944Y-109506544D01*
X88562263Y-109603580D01*
X88593219Y-109688313D01*
X88640844Y-109757964D01*
X88701169Y-109809756D01*
X88788834Y-109856499D01*
X88880380Y-109884545D01*
X88975806Y-109893894D01*
X89048434Y-109889330D01*
X89117094Y-109875638D01*
X89225044Y-109830394D01*
X89296481Y-109780388D01*
X89336481Y-109738319D01*
X89477456Y-109738319D01*
X89492141Y-109826425D01*
X89536194Y-109868494D01*
X89618744Y-109878019D01*
X90247394Y-109878019D01*
X90335500Y-109862938D01*
X90377569Y-109817694D01*
X90387094Y-109736731D01*
X90387094Y-108854081D01*
X90356931Y-108743750D01*
X90242631Y-108714381D01*
X89617156Y-108714381D01*
X89562388Y-108716762D01*
X89520319Y-108731844D01*
X89488172Y-108773912D01*
X89477456Y-108855669D01*
X89492141Y-108943775D01*
X89536194Y-108985844D01*
X89618744Y-108995369D01*
X90106106Y-108995369D01*
X90106106Y-109155706D01*
X89791781Y-109155706D01*
X89737013Y-109158087D01*
X89694944Y-109173169D01*
X89662797Y-109215237D01*
X89652081Y-109296994D01*
X89667163Y-109385100D01*
X89712406Y-109427169D01*
X89794956Y-109436694D01*
X90106106Y-109436694D01*
X90106106Y-109597031D01*
X89617156Y-109597031D01*
X89562388Y-109599413D01*
X89520319Y-109614494D01*
X89488172Y-109656563D01*
X89477456Y-109738319D01*
X89336481Y-109738319D01*
X89342519Y-109731969D01*
X89356806Y-109714506D01*
X89398081Y-109623225D01*
X89381016Y-109576195D01*
X89329819Y-109516069D01*
X89245681Y-109477969D01*
X89192500Y-109497813D01*
X89121856Y-109557344D01*
X89058356Y-109608938D01*
X88982156Y-109633544D01*
X88900135Y-109620138D01*
X88850923Y-109579922D01*
X88834519Y-109512894D01*
X88875000Y-109451775D01*
X88975806Y-109416056D01*
X89038513Y-109401570D01*
X89105981Y-109380338D01*
X89173450Y-109353548D01*
X89236156Y-109322394D01*
X89291520Y-109279333D01*
X89336963Y-109216825D01*
X89367323Y-109137252D01*
X89377444Y-109042994D01*
X89365890Y-108953829D01*
X89331230Y-108872602D01*
X89273463Y-108799312D01*
X89195763Y-108741545D01*
X89101307Y-108706885D01*
X88990094Y-108695331D01*
X88899011Y-108701483D01*
X88816263Y-108719937D01*
X88707519Y-108769944D01*
X88667831Y-108800106D01*
X88618619Y-108877894D01*
X88656719Y-108965206D01*
X88711488Y-109024737D01*
X88767844Y-109044581D01*
X88850394Y-109012831D01*
X88868650Y-108996956D01*
X88893256Y-108976319D01*
X88978188Y-108955681D01*
X89063913Y-108980287D01*
X89098044Y-109048550D01*
X89057563Y-109119194D01*
X88956756Y-109155706D01*
X88893653Y-109167811D01*
X88824994Y-109185075D01*
X88756334Y-109207102D01*
X88693231Y-109233494D01*
X88637867Y-109272586D01*
X88592425Y-109332713D01*
X88562064Y-109411492D01*
X88551944Y-109506544D01*
X88448756Y-109506544D01*
X88448756Y-108854081D01*
X88446375Y-108799312D01*
X88431294Y-108757244D01*
X88389225Y-108725097D01*
X88307469Y-108714381D01*
X87967744Y-108714381D01*
X87875492Y-108725670D01*
X87785005Y-108759537D01*
X87696281Y-108815981D01*
X87637147Y-108873925D01*
X87589919Y-108949331D01*
X87558963Y-109038231D01*
X87548644Y-109136656D01*
X87445456Y-109136656D01*
X87445456Y-108854081D01*
X87443075Y-108799312D01*
X87427994Y-108757244D01*
X87385925Y-108725097D01*
X87304169Y-108714381D01*
X86961269Y-108714381D01*
X86869017Y-108725670D01*
X86778530Y-108759537D01*
X86689806Y-108815981D01*
X86631862Y-108873925D01*
X86585031Y-108949331D01*
X86554075Y-109038231D01*
X86543756Y-109136656D01*
X86556985Y-109249192D01*
X86596673Y-109347617D01*
X86662819Y-109431931D01*
X86635302Y-109497019D01*
X86599319Y-109580098D01*
X86554869Y-109681169D01*
X86531056Y-109763719D01*
X86336009Y-109763719D01*
X86400087Y-109688313D01*
X86450689Y-109580958D01*
X86467556Y-109460506D01*
X86452740Y-109340915D01*
X86408290Y-109236140D01*
X86334206Y-109146181D01*
X86241073Y-109077390D01*
X86139473Y-109036115D01*
X86029406Y-109022356D01*
X85919516Y-109036026D01*
X85818445Y-109077037D01*
X85726194Y-109145387D01*
X85652992Y-109234905D01*
X85609072Y-109339415D01*
X85594431Y-109458919D01*
X85514805Y-109458919D01*
X85515056Y-109456538D01*
X85504737Y-109358906D01*
X85473781Y-109270800D01*
X85426553Y-109195592D01*
X85367419Y-109136656D01*
X85277637Y-109078448D01*
X85183974Y-109043523D01*
X85086431Y-109031881D01*
X84968956Y-109048550D01*
X84884819Y-109081094D01*
X84859419Y-109096969D01*
X84814969Y-109127131D01*
X84773694Y-109199362D01*
X84807031Y-109290644D01*
X84862991Y-109356128D01*
X84916569Y-109377956D01*
X85002294Y-109343031D01*
X85084050Y-109316044D01*
X85183269Y-109354144D01*
X85229306Y-109459713D01*
X85184856Y-109564488D01*
X85090400Y-109601794D01*
X84996737Y-109572425D01*
X84926094Y-109543056D01*
X84873309Y-109564091D01*
X84810206Y-109627194D01*
X84773694Y-109709744D01*
X84670506Y-109709744D01*
X84670506Y-108787406D01*
X84668125Y-108732637D01*
X84654631Y-108690569D01*
X84612562Y-108658422D01*
X84530806Y-108647706D01*
X84422856Y-108674694D01*
X84394281Y-108744544D01*
X84392694Y-108788994D01*
X84392694Y-109292231D01*
X84306175Y-109211269D01*
X84219656Y-109130306D01*
X84200606Y-109117606D01*
X84105356Y-109074744D01*
X84014075Y-109139037D01*
X83962481Y-109239844D01*
X84021219Y-109325569D01*
X84178381Y-109458919D01*
X83967244Y-109633544D01*
X83917237Y-109684344D01*
X83906919Y-109717681D01*
X83836051Y-109717681D01*
X83828337Y-109691091D01*
X83783094Y-109617669D01*
X83726737Y-109590681D01*
X83621169Y-109629575D01*
X83500519Y-109668469D01*
X83427891Y-109658944D01*
X83403681Y-109630369D01*
X83430272Y-109604175D01*
X83510044Y-109585919D01*
X83609659Y-109560122D01*
X83708481Y-109511306D01*
X83784681Y-109421613D01*
X83807303Y-109354739D01*
X83814844Y-109276356D01*
X83801064Y-109186059D01*
X83759726Y-109115828D01*
X83690828Y-109065663D01*
X83594372Y-109035564D01*
X83470356Y-109025531D01*
X83356056Y-109039025D01*
X83238581Y-109079506D01*
X83183019Y-109143006D01*
X83217944Y-109236669D01*
X83289381Y-109292231D01*
X83360025Y-109268419D01*
X83471944Y-109244606D01*
X83565606Y-109279531D01*
X83538619Y-109318822D01*
X83457656Y-109341444D01*
X83354469Y-109362081D01*
X83254456Y-109401769D01*
X83177462Y-109478763D01*
X83154245Y-109540477D01*
X83146506Y-109616081D01*
X81552637Y-109616081D01*
X81547056Y-109600483D01*
X81519975Y-109492369D01*
X81503621Y-109382120D01*
X81498152Y-109270800D01*
X81503621Y-109159480D01*
X81519975Y-109049231D01*
X81547056Y-108941117D01*
X81584604Y-108836177D01*
X81632257Y-108735423D01*
X81689556Y-108639826D01*
X81755950Y-108550304D01*
X81830798Y-108467722D01*
X81913380Y-108392874D01*
X82002902Y-108326480D01*
X82098499Y-108269181D01*
X82199253Y-108221528D01*
X82304193Y-108183980D01*
X82412307Y-108156899D01*
X82522556Y-108140545D01*
X82633876Y-108135076D01*
X90899724Y-108135076D01*
X91011044Y-108140545D01*
G37*
G36*
X87164469Y-109276356D02*
G01*
X86961269Y-109276356D01*
X86869194Y-109241431D01*
X86823156Y-109136656D01*
X86869194Y-109031087D01*
X86964444Y-108995369D01*
X87164469Y-108995369D01*
X87164469Y-109276356D01*
G37*
G36*
X86137356Y-109341444D02*
G01*
X86174266Y-109390458D01*
X86186569Y-109458125D01*
X86173869Y-109525594D01*
X86135769Y-109574013D01*
X86032581Y-109612906D01*
X85927806Y-109573219D01*
X85888516Y-109524006D01*
X85875419Y-109455744D01*
X85887722Y-109387878D01*
X85924631Y-109339856D01*
X86030994Y-109301756D01*
X86137356Y-109341444D01*
G37*
%TD*%
%LPC*%
D10*
%TO.C,CN14*%
X85801200Y-62382400D03*
D11*
X85801200Y-64922400D03*
X85801200Y-67462400D03*
X85801200Y-70002400D03*
X85801200Y-72542400D03*
X85801200Y-75082400D03*
X85801200Y-77622400D03*
X85801200Y-80162400D03*
X85801200Y-82702400D03*
%TD*%
D10*
%TO.C,CN3*%
X83591000Y-150179800D03*
D11*
X83591000Y-152719800D03*
X83591000Y-155259800D03*
%TD*%
D10*
%TO.C,CN2*%
X89991800Y-147634800D03*
D11*
X89991800Y-150174800D03*
X89991800Y-152714800D03*
X89991800Y-155254800D03*
%TD*%
D12*
%TO.C,CN1*%
X75906800Y-154892000D03*
X75906800Y-152892000D03*
X75906800Y-150892000D03*
D13*
X75906800Y-148892000D03*
%TD*%
%TO.C,CN11*%
X76161200Y-93180400D03*
D12*
X76161200Y-95180400D03*
X76161200Y-97180400D03*
X76161200Y-99180400D03*
X76161200Y-101180400D03*
%TD*%
D13*
%TO.C,CN13*%
X75997200Y-113230400D03*
D12*
X75997200Y-115230400D03*
X75997200Y-117230400D03*
X75997200Y-119230400D03*
%TD*%
D10*
%TO.C,CN17*%
X85191200Y-91495400D03*
D11*
X85191200Y-94035400D03*
X85191200Y-96575400D03*
X85191200Y-99115400D03*
X85191200Y-101655400D03*
%TD*%
D10*
%TO.C,CN21*%
X90221200Y-132628400D03*
D11*
X90221200Y-135168400D03*
X90221200Y-137708400D03*
%TD*%
D10*
%TO.C,CN16*%
X94056200Y-91495400D03*
D11*
X94056200Y-94035400D03*
X94056200Y-96575400D03*
X94056200Y-99115400D03*
X94056200Y-101655400D03*
%TD*%
D10*
%TO.C,CN19*%
X90246600Y-112420400D03*
D11*
X90246600Y-114960400D03*
X90246600Y-117500400D03*
X90246600Y-120040400D03*
%TD*%
D10*
%TO.C,CN20*%
X83236200Y-132613400D03*
D11*
X83236200Y-135153400D03*
X83236200Y-137693400D03*
%TD*%
D10*
%TO.C,CN18*%
X83159200Y-112410000D03*
D11*
X83159200Y-114950000D03*
X83159200Y-117490000D03*
X83159200Y-120030000D03*
%TD*%
D10*
%TO.C,CN15*%
X95301200Y-64947400D03*
D11*
X95301200Y-67487400D03*
X95301200Y-70027400D03*
X95301200Y-72567400D03*
X95301200Y-75107400D03*
X95301200Y-77647400D03*
%TD*%
D13*
%TO.C,CN10*%
X76085000Y-67955400D03*
D12*
X76085000Y-69955400D03*
X76085000Y-71955400D03*
X76085000Y-73955400D03*
X76085000Y-75955400D03*
X76085000Y-77955400D03*
X76085000Y-79955400D03*
X76085000Y-81955400D03*
%TD*%
D13*
%TO.C,CN12*%
X76288200Y-131137400D03*
D12*
X76288200Y-133137400D03*
X76288200Y-135137400D03*
X76288200Y-137137400D03*
%TD*%
M02*
