M48
; DRILL file {KiCad (6.0.1)} date Tue Nov 29 19:46:15 2022
; FORMAT={-:-/ absolute / inch / decimal}
; #@! TF.CreationDate,2022-11-29T19:46:15+01:00
; #@! TF.GenerationSoftware,Kicad,Pcbnew,(6.0.1)
; #@! TF.FileFunction,Plated,1,2,PTH
FMAT,2
INCH
; #@! TA.AperFunction,Plated,PTH,ViaDrill
T1C0.0157
; #@! TA.AperFunction,Plated,PTH,ComponentDrill
T2C0.0295
; #@! TA.AperFunction,Plated,PTH,ComponentDrill
T3C0.0394
%
G90
G05
T1
X3.0703Y-4.618
X3.106Y-2.62
X3.116Y-3.156
X3.1303Y-4.634
X3.1383Y-3.814
X3.1403Y-2.992
X3.1783Y-2.912
X3.1963Y-3.754
X3.2223Y-2.916
X3.2683Y-3.054
X3.484Y-2.696
X3.5443Y-2.564
T2
X2.9885Y-5.8619
X2.9885Y-5.9406
X2.9885Y-6.0194
X2.9885Y-6.0981
X2.992Y-4.4579
X2.992Y-4.5366
X2.992Y-4.6154
X2.992Y-4.6941
X2.9955Y-2.6754
X2.9955Y-2.7541
X2.9955Y-2.8329
X2.9955Y-2.9116
X2.9955Y-2.9904
X2.9955Y-3.0691
X2.9955Y-3.1479
X2.9955Y-3.2266
X2.9985Y-3.6685
X2.9985Y-3.7473
X2.9985Y-3.826
X2.9985Y-3.9047
X2.9985Y-3.9835
X3.0035Y-5.1629
X3.0035Y-5.2416
X3.0035Y-5.3204
X3.0035Y-5.3991
T3
X3.274Y-4.4256
X3.274Y-4.5256
X3.274Y-4.6256
X3.274Y-4.7256
X3.277Y-5.221
X3.277Y-5.321
X3.277Y-5.421
X3.291Y-5.9126
X3.291Y-6.0126
X3.291Y-6.1126
X3.354Y-3.6022
X3.354Y-3.7022
X3.354Y-3.8022
X3.354Y-3.9022
X3.354Y-4.0022
X3.378Y-2.456
X3.378Y-2.556
X3.378Y-2.656
X3.378Y-2.756
X3.378Y-2.856
X3.378Y-2.956
X3.378Y-3.056
X3.378Y-3.156
X3.378Y-3.256
X3.543Y-5.8124
X3.543Y-5.9124
X3.543Y-6.0124
X3.543Y-6.1124
X3.552Y-5.2216
X3.552Y-5.3216
X3.552Y-5.4216
X3.553Y-4.426
X3.553Y-4.526
X3.553Y-4.626
X3.553Y-4.726
X3.703Y-3.6022
X3.703Y-3.7022
X3.703Y-3.8022
X3.703Y-3.9022
X3.703Y-4.0022
X3.752Y-2.557
X3.752Y-2.657
X3.752Y-2.757
X3.752Y-2.857
X3.752Y-2.957
X3.752Y-3.057
T0
M30
