%TF.GenerationSoftware,KiCad,Pcbnew,(6.0.1)*%
%TF.CreationDate,2022-11-29T19:46:15+01:00*%
%TF.ProjectId,ESPRocks,45535052-6f63-46b7-932e-6b696361645f,rev?*%
%TF.SameCoordinates,Original*%
%TF.FileFunction,Profile,NP*%
%FSLAX46Y46*%
G04 Gerber Fmt 4.6, Leading zero omitted, Abs format (unit mm)*
G04 Created by KiCad (PCBNEW (6.0.1)) date 2022-11-29 19:46:15*
%MOMM*%
%LPD*%
G01*
G04 APERTURE LIST*
%TA.AperFunction,Profile*%
%ADD10C,0.100000*%
%TD*%
G04 APERTURE END LIST*
D10*
X69189600Y-143103600D02*
X92557600Y-143103600D01*
X92557600Y-157327600D02*
X69189600Y-157327600D01*
X69189600Y-143103600D02*
X69189600Y-157327600D01*
X92557600Y-143103600D02*
X92557600Y-157327600D01*
X69266200Y-58445400D02*
X69266200Y-85115400D01*
X96571200Y-104165400D02*
X69266200Y-104165400D01*
X92634200Y-121945400D02*
X69266200Y-121945400D01*
X92634200Y-125501400D02*
X92634200Y-139725400D01*
X69266200Y-125501400D02*
X69266200Y-139725400D01*
X69266200Y-107721400D02*
X69266200Y-121945400D01*
X69266200Y-87020400D02*
X96571200Y-87020400D01*
X97841200Y-85115400D02*
X69266200Y-85115400D01*
X69266200Y-87020400D02*
X69266200Y-104165400D01*
X92634200Y-139725400D02*
X69266200Y-139725400D01*
X69266200Y-107721400D02*
X92634200Y-107721400D01*
X69266200Y-58445400D02*
X97841200Y-58445400D01*
X69266200Y-125501400D02*
X92634200Y-125501400D01*
X96571200Y-87020400D02*
X96571200Y-104165400D01*
X92634200Y-107721400D02*
X92634200Y-121945400D01*
X97841200Y-58445400D02*
X97841200Y-85115400D01*
M02*
