%TF.GenerationSoftware,KiCad,Pcbnew,(6.0.1)*%
%TF.CreationDate,2022-10-31T16:46:04+01:00*%
%TF.ProjectId,ESPRocks,45535052-6f63-46b7-932e-6b696361645f,rev?*%
%TF.SameCoordinates,Original*%
%TF.FileFunction,Copper,L2,Bot*%
%TF.FilePolarity,Positive*%
%FSLAX46Y46*%
G04 Gerber Fmt 4.6, Leading zero omitted, Abs format (unit mm)*
G04 Created by KiCad (PCBNEW (6.0.1)) date 2022-10-31 16:46:04*
%MOMM*%
%LPD*%
G01*
G04 APERTURE LIST*
G04 Aperture macros list*
%AMRoundRect*
0 Rectangle with rounded corners*
0 $1 Rounding radius*
0 $2 $3 $4 $5 $6 $7 $8 $9 X,Y pos of 4 corners*
0 Add a 4 corners polygon primitive as box body*
4,1,4,$2,$3,$4,$5,$6,$7,$8,$9,$2,$3,0*
0 Add four circle primitives for the rounded corners*
1,1,$1+$1,$2,$3*
1,1,$1+$1,$4,$5*
1,1,$1+$1,$6,$7*
1,1,$1+$1,$8,$9*
0 Add four rect primitives between the rounded corners*
20,1,$1+$1,$2,$3,$4,$5,0*
20,1,$1+$1,$4,$5,$6,$7,0*
20,1,$1+$1,$6,$7,$8,$9,0*
20,1,$1+$1,$8,$9,$2,$3,0*%
G04 Aperture macros list end*
%TA.AperFunction,ComponentPad*%
%ADD10R,2.600000X2.600000*%
%TD*%
%TA.AperFunction,ComponentPad*%
%ADD11C,2.600000*%
%TD*%
%TA.AperFunction,ComponentPad*%
%ADD12R,1.700000X1.700000*%
%TD*%
%TA.AperFunction,ComponentPad*%
%ADD13O,1.700000X1.700000*%
%TD*%
%TA.AperFunction,ComponentPad*%
%ADD14RoundRect,0.250000X-0.625000X0.350000X-0.625000X-0.350000X0.625000X-0.350000X0.625000X0.350000X0*%
%TD*%
%TA.AperFunction,ComponentPad*%
%ADD15O,1.750000X1.200000*%
%TD*%
%TA.AperFunction,ComponentPad*%
%ADD16O,1.000000X2.100000*%
%TD*%
%TA.AperFunction,ComponentPad*%
%ADD17O,1.000000X1.600000*%
%TD*%
%TA.AperFunction,ComponentPad*%
%ADD18RoundRect,0.250000X0.625000X-0.350000X0.625000X0.350000X-0.625000X0.350000X-0.625000X-0.350000X0*%
%TD*%
%TA.AperFunction,ViaPad*%
%ADD19C,0.800000*%
%TD*%
%TA.AperFunction,Conductor*%
%ADD20C,0.400000*%
%TD*%
%TA.AperFunction,Conductor*%
%ADD21C,0.600000*%
%TD*%
%TA.AperFunction,Conductor*%
%ADD22C,0.250000*%
%TD*%
%TA.AperFunction,Conductor*%
%ADD23C,0.800000*%
%TD*%
%TA.AperFunction,Conductor*%
%ADD24C,1.000000*%
%TD*%
%TA.AperFunction,Conductor*%
%ADD25C,0.200000*%
%TD*%
G04 APERTURE END LIST*
D10*
%TO.P,CN5,1,Pin_1*%
%TO.N,Net-(CN5-Pad1)*%
X131868800Y-116768800D03*
D11*
%TO.P,CN5,2,Pin_2*%
%TO.N,GND*%
X131868800Y-111688800D03*
%TD*%
D12*
%TO.P,JP1,1,A*%
%TO.N,/3V3*%
X113671800Y-90347800D03*
D13*
%TO.P,JP1,2,C*%
%TO.N,/C_Vcc*%
X116211800Y-90347800D03*
%TO.P,JP1,3,B*%
%TO.N,/5V*%
X118751800Y-90347800D03*
%TD*%
D14*
%TO.P,CN7,1,Pin_1*%
%TO.N,/GPIO13*%
X104893800Y-61645800D03*
D15*
%TO.P,CN7,2,Pin_2*%
%TO.N,/GPIO15*%
X104893800Y-63645800D03*
%TO.P,CN7,3,Pin_3*%
%TO.N,/E_Vcc*%
X104893800Y-65645800D03*
%TO.P,CN7,4,Pin_4*%
%TO.N,GND*%
X104893800Y-67645800D03*
%TD*%
D12*
%TO.P,JP3,1,A*%
%TO.N,/3V3*%
X113671800Y-78155800D03*
D13*
%TO.P,JP3,2,C*%
%TO.N,/E_Vcc*%
X116211800Y-78155800D03*
%TO.P,JP3,3,B*%
%TO.N,/5V*%
X118751800Y-78155800D03*
%TD*%
D16*
%TO.P,CN1,S1,SHIELD*%
%TO.N,GND*%
X114924800Y-128873800D03*
X123564800Y-128873800D03*
D17*
X114924800Y-133053800D03*
X123564800Y-133053800D03*
%TD*%
D14*
%TO.P,CN4,1,Pin_1*%
%TO.N,GND*%
X104893800Y-86537800D03*
D15*
%TO.P,CN4,2,Pin_2*%
%TO.N,/C_Vcc*%
X104893800Y-88537800D03*
%TO.P,CN4,3,Pin_3*%
%TO.N,/GPIO27*%
X104893800Y-90537800D03*
%TO.P,CN4,4,Pin_4*%
%TO.N,/GPIO14*%
X104893800Y-92537800D03*
%TO.P,CN4,5,Pin_5*%
%TO.N,/GPIO12*%
X104893800Y-94537800D03*
%TD*%
D10*
%TO.P,CN8,1,Pin_1*%
%TO.N,/GPIO0{slash}FLASH*%
X131944800Y-88828800D03*
D11*
%TO.P,CN8,2,Pin_2*%
%TO.N,/GPIO4*%
X131944800Y-83748800D03*
%TO.P,CN8,3,Pin_3*%
%TO.N,GND*%
X131944800Y-78668800D03*
%TD*%
D10*
%TO.P,CN3,1,Pin_1*%
%TO.N,/GPIO2*%
X106493800Y-101137800D03*
D11*
%TO.P,CN3,2,Pin_2*%
%TO.N,/5V*%
X106493800Y-106217800D03*
%TO.P,CN3,3,Pin_3*%
%TO.N,GND*%
X106493800Y-111297800D03*
%TD*%
D14*
%TO.P,CN6,1,Pin_1*%
%TO.N,/GPIO32*%
X104935800Y-73933800D03*
D15*
%TO.P,CN6,2,Pin_2*%
%TO.N,/GPIO33*%
X104935800Y-75933800D03*
%TO.P,CN6,3,Pin_3*%
%TO.N,/D_Vcc*%
X104935800Y-77933800D03*
%TO.P,CN6,4,Pin_4*%
%TO.N,GND*%
X104935800Y-79933800D03*
%TD*%
D18*
%TO.P,CN2,1,Pin_1*%
%TO.N,GND*%
X133604600Y-72735200D03*
D15*
%TO.P,CN2,2,Pin_2*%
%TO.N,/A_Vcc*%
X133604600Y-70735200D03*
%TO.P,CN2,3,Pin_3*%
%TO.N,/GPIO5*%
X133604600Y-68735200D03*
%TO.P,CN2,4,Pin_4*%
%TO.N,/GPIO22*%
X133604600Y-66735200D03*
%TO.P,CN2,5,Pin_5*%
%TO.N,/GPIO21*%
X133604600Y-64735200D03*
%TO.P,CN2,6,Pin_6*%
%TO.N,/GPIO23{slash}SPI_MOSI*%
X133604600Y-62735200D03*
%TO.P,CN2,7,Pin_7*%
%TO.N,/GPIO18{slash}SPI_SCK*%
X133604600Y-60735200D03*
%TO.P,CN2,8,Pin_8*%
%TO.N,/GPIO19{slash}SPI_MISO*%
X133604600Y-58735200D03*
%TD*%
D10*
%TO.P,CN9,1,Pin_1*%
%TO.N,/GPIO34*%
X131868800Y-105211800D03*
D11*
%TO.P,CN9,2,Pin_2*%
%TO.N,/GPIO35*%
X131868800Y-100131800D03*
%TO.P,CN9,3,Pin_3*%
%TO.N,GND*%
X131868800Y-95051800D03*
%TD*%
D12*
%TO.P,JP2,1,A*%
%TO.N,/3V3*%
X113671800Y-86283800D03*
D13*
%TO.P,JP2,2,C*%
%TO.N,/D_Vcc*%
X116211800Y-86283800D03*
%TO.P,JP2,3,B*%
%TO.N,/5V*%
X118751800Y-86283800D03*
%TD*%
D12*
%TO.P,JP4,1,A*%
%TO.N,/3V3*%
X113671800Y-82219800D03*
D13*
%TO.P,JP4,2,C*%
%TO.N,/A_Vcc*%
X116211800Y-82219800D03*
%TO.P,JP4,3,B*%
%TO.N,/5V*%
X118751800Y-82219800D03*
%TD*%
D19*
%TO.N,/3V3*%
X105071600Y-70789800D03*
X106290800Y-119049800D03*
X107027400Y-120650000D03*
X111320000Y-128244600D03*
X109034000Y-119253000D03*
X112005800Y-123538300D03*
%TO.N,GND*%
X116374800Y-65079800D03*
X113580800Y-57713800D03*
X121835800Y-59618800D03*
X125848800Y-63931800D03*
X120565800Y-67873800D03*
X119930800Y-99623800D03*
X121835800Y-103433800D03*
X116755800Y-59618800D03*
X123816800Y-65963800D03*
X108576800Y-93903800D03*
X109465800Y-81330800D03*
X109491200Y-125755400D03*
X125848800Y-69011800D03*
X115688800Y-94919800D03*
X119295800Y-69143800D03*
X123740800Y-57713800D03*
X119930800Y-105338800D03*
X116374800Y-62539800D03*
X108576800Y-69011800D03*
X119930800Y-59618800D03*
X121835800Y-57713800D03*
X115155400Y-123494800D03*
X117466800Y-84124800D03*
X115688800Y-92887800D03*
X121835800Y-105338800D03*
X119930800Y-63809800D03*
X116755800Y-97718800D03*
X109465800Y-84759800D03*
X123816800Y-69011800D03*
X119930800Y-62539800D03*
X119930800Y-57713800D03*
X110543100Y-119950500D03*
X113580800Y-97718800D03*
X113580800Y-100893800D03*
X123740800Y-59618800D03*
X109465800Y-79933800D03*
X117212800Y-93903800D03*
X125848800Y-67487800D03*
X116120800Y-105338800D03*
X116374800Y-63809800D03*
X119295800Y-76128800D03*
X125848800Y-65963800D03*
X113910800Y-126669800D03*
X118025800Y-105338800D03*
X109465800Y-82981800D03*
X123816800Y-67487800D03*
X123816800Y-70535800D03*
X111624800Y-86385400D03*
X124832800Y-93395800D03*
X103141200Y-125095000D03*
X119930800Y-103433800D03*
X133722800Y-125552200D03*
X119295800Y-72318800D03*
X124832800Y-95427800D03*
X119930800Y-101528800D03*
X119930800Y-65079800D03*
X117390800Y-76128800D03*
X109592800Y-94919800D03*
X118025800Y-103433800D03*
X125848800Y-70535800D03*
X115485800Y-57713800D03*
X124832800Y-87807800D03*
X121835800Y-101528800D03*
X106290800Y-117830600D03*
%TO.N,/5V*%
X107814800Y-115163600D03*
X116171400Y-125577600D03*
X102328400Y-116611400D03*
X116816501Y-117652800D03*
X123435800Y-126161800D03*
X113656800Y-119049800D03*
X121759400Y-126441200D03*
%TO.N,/D_P*%
X118940000Y-129413000D03*
X116417000Y-119405400D03*
X120239011Y-129395440D03*
X119235032Y-125257168D03*
%TO.N,/D_N*%
X115367000Y-119405400D03*
X118492568Y-125999632D03*
%TO.N,/GPIO18{slash}SPI_SCK*%
X130039800Y-66598800D03*
%TO.N,/GPIO19{slash}SPI_MISO*%
X129404800Y-65328800D03*
%TO.N,/GPIO21*%
X130725800Y-62793800D03*
%TO.N,/GPIO1{slash}TX0*%
X123105600Y-78816200D03*
X124172400Y-107772200D03*
X123512000Y-115443000D03*
X121022800Y-71805800D03*
%TO.N,/GPIO3{slash}RX0*%
X125224300Y-107823000D03*
X123410400Y-116560600D03*
X121920017Y-71869887D03*
X124121600Y-78867000D03*
%TO.N,/EN*%
X112640800Y-121349500D03*
X111167600Y-101168200D03*
X107855664Y-122107736D03*
X104764036Y-122125964D03*
%TO.N,/GPIO23{slash}SPI_MOSI*%
X130090800Y-57713800D03*
%TO.N,/GPIO0{slash}FLASH*%
X128134800Y-74853800D03*
X125493200Y-120878600D03*
X125340800Y-104419400D03*
X136237400Y-91744800D03*
X125899600Y-75615800D03*
%TO.N,/GPIO2*%
X121124400Y-84099400D03*
X110354800Y-100203000D03*
%TO.N,/GPIO34*%
X126763200Y-76479400D03*
X114038000Y-62819200D03*
%TO.N,/GPIO35*%
X125468000Y-72141000D03*
X112514000Y-64063800D03*
%TO.N,/GPIO13*%
X117390800Y-70159800D03*
X107662600Y-61727000D03*
%TO.N,/GPIO26{slash}LED*%
X122165800Y-84124800D03*
X122089600Y-78816200D03*
X126763200Y-128397000D03*
X113504400Y-69265800D03*
%TO.N,/GPIO15*%
X123690000Y-71912400D03*
X106646600Y-63682800D03*
%TD*%
D20*
%TO.N,/3V3*%
X113671800Y-78155800D02*
X113671800Y-73852800D01*
D21*
X113671800Y-95184200D02*
X113671800Y-90347800D01*
D20*
X112005800Y-123538300D02*
X112005800Y-125083738D01*
X106290800Y-119049800D02*
X106290800Y-119913400D01*
X113671800Y-73852800D02*
X112437600Y-72618600D01*
X106290800Y-119913400D02*
X107027400Y-120650000D01*
X110608800Y-70789800D02*
X105071600Y-70789800D01*
X112437600Y-72618600D02*
X110608800Y-70789800D01*
D21*
X109034000Y-99822000D02*
X113671800Y-95184200D01*
X109034000Y-119253000D02*
X109034000Y-99822000D01*
D20*
X111320000Y-125769538D02*
X111320000Y-128244600D01*
X112005800Y-125083738D02*
X111320000Y-125769538D01*
D22*
%TO.N,GND*%
X110543100Y-119950500D02*
X109491200Y-121002400D01*
D23*
X105478000Y-117830600D02*
X103750800Y-119557800D01*
D24*
X104935800Y-86495800D02*
X104893800Y-86537800D01*
X103750800Y-79933800D02*
X104935800Y-79933800D01*
D22*
X113910800Y-124739400D02*
X115155400Y-123494800D01*
X109491200Y-121002400D02*
X109491200Y-125755400D01*
D23*
X111574000Y-86436200D02*
X104995400Y-86436200D01*
D24*
X104893800Y-67995800D02*
X102480800Y-70408800D01*
D22*
X113910800Y-126669800D02*
X113910800Y-124739400D01*
D24*
X132965800Y-111688800D02*
X131868800Y-111688800D01*
D23*
X103141200Y-120167400D02*
X103141200Y-125095000D01*
D24*
X104893800Y-67645800D02*
X104893800Y-67995800D01*
D23*
X103750800Y-119557800D02*
X103141200Y-120167400D01*
X104995400Y-86436200D02*
X104893800Y-86537800D01*
D24*
X133604600Y-72735200D02*
X133604600Y-77009000D01*
X134942000Y-122453400D02*
X134942000Y-113665000D01*
D23*
X111624800Y-86385400D02*
X111574000Y-86436200D01*
D24*
X102480800Y-70408800D02*
X102480800Y-78663800D01*
X104935800Y-79933800D02*
X104935800Y-86495800D01*
X133604600Y-77009000D02*
X131944800Y-78668800D01*
X133722800Y-125552200D02*
X133722800Y-123672600D01*
D23*
X106290800Y-117830600D02*
X105478000Y-117830600D01*
D24*
X102480800Y-78663800D02*
X103750800Y-79933800D01*
X133722800Y-123672600D02*
X134942000Y-122453400D01*
X134942000Y-113665000D02*
X132965800Y-111688800D01*
%TO.N,/5V*%
X117840489Y-127246689D02*
X116171400Y-125577600D01*
D21*
X103776200Y-115163600D02*
X102328400Y-116611400D01*
X115638000Y-117703600D02*
X115688800Y-117652800D01*
D24*
X117840489Y-129868433D02*
X117840489Y-127246689D01*
X125340800Y-129844800D02*
X123689800Y-131495800D01*
D21*
X121759400Y-126441200D02*
X121301457Y-126899143D01*
D24*
X123689800Y-131495800D02*
X119467856Y-131495800D01*
D21*
X107814800Y-115163600D02*
X103776200Y-115163600D01*
X121301457Y-126899143D02*
X117492943Y-126899143D01*
X117492943Y-126899143D02*
X116171400Y-125577600D01*
X113656800Y-119049800D02*
X114291800Y-119049800D01*
D24*
X119467856Y-131495800D02*
X117840489Y-129868433D01*
X123435800Y-126161800D02*
X125340800Y-128066800D01*
X125340800Y-128066800D02*
X125340800Y-129844800D01*
D21*
X114291800Y-119049800D02*
X115638000Y-117703600D01*
X115688800Y-117652800D02*
X116816501Y-117652800D01*
D25*
%TO.N,/D_P*%
X118957560Y-129395440D02*
X118940000Y-129413000D01*
X120239011Y-129395440D02*
X118957560Y-129395440D01*
X118810767Y-125257168D02*
X119235032Y-125257168D01*
X116417000Y-119405400D02*
X116117001Y-119705399D01*
X116117001Y-122563402D02*
X118810767Y-125257168D01*
X116117001Y-119705399D02*
X116117001Y-122563402D01*
%TO.N,/D_N*%
X115367000Y-119405400D02*
X115666999Y-119705399D01*
X115666999Y-119705399D02*
X115666999Y-122749798D01*
X118492568Y-125575367D02*
X118492568Y-125999632D01*
X115666999Y-122749798D02*
X118492568Y-125575367D01*
D22*
%TO.N,/GPIO18{slash}SPI_SCK*%
X130039800Y-61645800D02*
X130039800Y-66598800D01*
X133604600Y-60735200D02*
X130950400Y-60735200D01*
X130950400Y-60735200D02*
X130293800Y-61391800D01*
X130293800Y-61391800D02*
X130039800Y-61645800D01*
%TO.N,/GPIO19{slash}SPI_MISO*%
X129404800Y-61264800D02*
X129404800Y-65328800D01*
X133604600Y-58735200D02*
X131934400Y-58735200D01*
X130039800Y-60629800D02*
X129404800Y-61264800D01*
X131934400Y-58735200D02*
X130039800Y-60629800D01*
%TO.N,/GPIO21*%
X132667200Y-64735200D02*
X133604600Y-64735200D01*
X130725800Y-62793800D02*
X132667200Y-64735200D01*
%TO.N,/GPIO1{slash}TX0*%
X121022800Y-74807800D02*
X123105600Y-76890600D01*
X124172400Y-107772200D02*
X124172400Y-114782600D01*
X123105600Y-76890600D02*
X123105600Y-78816200D01*
X121022800Y-71805800D02*
X121022800Y-74807800D01*
X124172400Y-114782600D02*
X123512000Y-115443000D01*
%TO.N,/GPIO3{slash}RX0*%
X125224300Y-114746700D02*
X125224300Y-107823000D01*
X124121600Y-78867000D02*
X124121600Y-76509600D01*
X121920017Y-74308017D02*
X121920017Y-71869887D01*
X124121600Y-76509600D02*
X121920017Y-74308017D01*
X123410400Y-116560600D02*
X125224300Y-114746700D01*
%TO.N,/EN*%
X104764036Y-122125964D02*
X107837436Y-122125964D01*
X107837436Y-122125964D02*
X107855664Y-122107736D01*
X111167600Y-119876300D02*
X111167600Y-101168200D01*
X112640800Y-121349500D02*
X111167600Y-119876300D01*
%TO.N,/GPIO23{slash}SPI_MOSI*%
X134535800Y-57586800D02*
X130217800Y-57586800D01*
X133604600Y-62735200D02*
X134467400Y-62735200D01*
X130217800Y-57586800D02*
X130090800Y-57713800D01*
X135170800Y-62031800D02*
X135170800Y-58221800D01*
X135170800Y-58221800D02*
X134535800Y-57586800D01*
X134467400Y-62735200D02*
X135170800Y-62031800D01*
%TO.N,/GPIO0{slash}FLASH*%
X125848800Y-104927400D02*
X125848800Y-120523000D01*
X136237400Y-91744800D02*
X134860800Y-91744800D01*
X125340800Y-104419400D02*
X125848800Y-104927400D01*
X125848800Y-120523000D02*
X125493200Y-120878600D01*
X134860800Y-91744800D02*
X131944800Y-88828800D01*
X127372800Y-75615800D02*
X125899600Y-75615800D01*
X128134800Y-74853800D02*
X127372800Y-75615800D01*
%TO.N,/GPIO2*%
X121124400Y-84099400D02*
X121124400Y-95631000D01*
X121124400Y-95631000D02*
X117771600Y-98983800D01*
X111574000Y-98983800D02*
X110354800Y-100203000D01*
X117771600Y-98983800D02*
X111574000Y-98983800D01*
D24*
%TO.N,/C_Vcc*%
X116211800Y-89145719D02*
X115603881Y-88537800D01*
X116211800Y-90347800D02*
X116211800Y-89145719D01*
X115603881Y-88537800D02*
X104893800Y-88537800D01*
%TO.N,/D_Vcc*%
X111929600Y-77952600D02*
X104954600Y-77952600D01*
X116211800Y-86283800D02*
X116211800Y-85081719D01*
X116211800Y-85081719D02*
X114899392Y-83769311D01*
X104954600Y-77952600D02*
X104935800Y-77933800D01*
X111929600Y-83576622D02*
X111929600Y-77952600D01*
X114899392Y-83769311D02*
X112122289Y-83769311D01*
X112122289Y-83769311D02*
X111929600Y-83576622D01*
D22*
%TO.N,/GPIO34*%
X115562000Y-61295200D02*
X120896000Y-61295200D01*
X120896000Y-61295200D02*
X124629800Y-65029000D01*
X124629800Y-75722400D02*
X125386800Y-76479400D01*
X124629800Y-65029000D02*
X124629800Y-75722400D01*
X125386800Y-76479400D02*
X126763200Y-76479400D01*
X114038000Y-62819200D02*
X115562000Y-61295200D01*
%TO.N,/GPIO35*%
X113199800Y-64063800D02*
X113250600Y-64013000D01*
X121175400Y-60812600D02*
X125224289Y-64861489D01*
X113250600Y-64013000D02*
X113250600Y-61269800D01*
X113250600Y-61269800D02*
X113707800Y-60812600D01*
X112514000Y-64063800D02*
X113199800Y-64063800D01*
X113707800Y-60812600D02*
X121175400Y-60812600D01*
X125224289Y-64861489D02*
X125224289Y-71897289D01*
X125224289Y-71897289D02*
X125468000Y-72141000D01*
D24*
%TO.N,/E_Vcc*%
X116211800Y-78155800D02*
X116211800Y-73979800D01*
X116211800Y-73979800D02*
X107877800Y-65645800D01*
X107877800Y-65645800D02*
X104893800Y-65645800D01*
D22*
%TO.N,/GPIO13*%
X117269607Y-68000800D02*
X114323207Y-65054400D01*
X117390800Y-68051600D02*
X117340000Y-68000800D01*
X117340000Y-68000800D02*
X117269607Y-68000800D01*
X117390800Y-70159800D02*
X117390800Y-68051600D01*
X110990000Y-65054400D02*
X107662600Y-61727000D01*
X112793400Y-65054400D02*
X110990000Y-65054400D01*
X114323207Y-65054400D02*
X112793400Y-65054400D01*
%TO.N,/GPIO26{slash}LED*%
X122089600Y-78816200D02*
X122089600Y-77380096D01*
X126356800Y-104552207D02*
X126356800Y-127990600D01*
X126356800Y-127990600D02*
X126763200Y-128397000D01*
X122165800Y-84124800D02*
X122242000Y-84201000D01*
X122242000Y-100437407D02*
X126356800Y-104552207D01*
X122242000Y-84201000D02*
X122242000Y-100437407D01*
X122089600Y-77380096D02*
X113975304Y-69265800D01*
X113975304Y-69265800D02*
X113504400Y-69265800D01*
%TO.N,/GPIO15*%
X108653200Y-64495600D02*
X107840400Y-63682800D01*
X115155600Y-67035600D02*
X113682400Y-67035600D01*
X122775600Y-70998000D02*
X118813200Y-70998000D01*
X123690000Y-71912400D02*
X122775600Y-70998000D01*
X116933600Y-70998000D02*
X116324000Y-70388400D01*
X116298600Y-68178600D02*
X115155600Y-67035600D01*
X116324000Y-70388400D02*
X116298600Y-70363000D01*
X111193200Y-67035600D02*
X108653200Y-64495600D01*
X118813200Y-70998000D02*
X116933600Y-70998000D01*
X113682400Y-67035600D02*
X111193200Y-67035600D01*
X116298600Y-70363000D02*
X116298600Y-68178600D01*
X107840400Y-63682800D02*
X106646600Y-63682800D01*
D24*
%TO.N,/A_Vcc*%
X116211800Y-82219800D02*
X118116800Y-80314800D01*
X125975800Y-80314800D02*
X131436800Y-74853800D01*
X118116800Y-80314800D02*
X125975800Y-80314800D01*
X133286776Y-70735200D02*
X133604600Y-70735200D01*
X131436800Y-72585176D02*
X133286776Y-70735200D01*
X131436800Y-74853800D02*
X131436800Y-72585176D01*
%TD*%
%TA.AperFunction,Conductor*%
%TO.N,GND*%
G36*
X136458921Y-55315802D02*
G01*
X136505414Y-55369458D01*
X136516800Y-55421800D01*
X136516800Y-90719794D01*
X136496798Y-90787915D01*
X136443142Y-90834408D01*
X136372868Y-90844512D01*
X136364605Y-90843041D01*
X136339349Y-90837673D01*
X136339344Y-90837672D01*
X136332887Y-90836300D01*
X136141913Y-90836300D01*
X136135461Y-90837672D01*
X136135456Y-90837672D01*
X136057451Y-90854253D01*
X135955112Y-90876006D01*
X135949082Y-90878691D01*
X135949081Y-90878691D01*
X135786678Y-90950997D01*
X135786676Y-90950998D01*
X135780648Y-90953682D01*
X135775307Y-90957562D01*
X135775306Y-90957563D01*
X135723194Y-90995425D01*
X135626147Y-91065934D01*
X135621732Y-91070837D01*
X135616820Y-91075260D01*
X135615695Y-91074011D01*
X135562386Y-91106851D01*
X135529200Y-91111300D01*
X135175394Y-91111300D01*
X135107273Y-91091298D01*
X135086299Y-91074395D01*
X133790205Y-89778300D01*
X133756179Y-89715988D01*
X133753300Y-89689205D01*
X133753300Y-87480666D01*
X133746545Y-87418484D01*
X133695415Y-87282095D01*
X133608061Y-87165539D01*
X133491505Y-87078185D01*
X133355116Y-87027055D01*
X133292934Y-87020300D01*
X130596666Y-87020300D01*
X130534484Y-87027055D01*
X130398095Y-87078185D01*
X130281539Y-87165539D01*
X130194185Y-87282095D01*
X130143055Y-87418484D01*
X130136300Y-87480666D01*
X130136300Y-90176934D01*
X130143055Y-90239116D01*
X130194185Y-90375505D01*
X130281539Y-90492061D01*
X130398095Y-90579415D01*
X130534484Y-90630545D01*
X130596666Y-90637300D01*
X132805206Y-90637300D01*
X132873327Y-90657302D01*
X132894301Y-90674205D01*
X133627631Y-91407536D01*
X134357148Y-92137053D01*
X134364688Y-92145339D01*
X134368800Y-92151818D01*
X134374577Y-92157243D01*
X134418451Y-92198443D01*
X134421293Y-92201198D01*
X134441030Y-92220935D01*
X134444227Y-92223415D01*
X134453247Y-92231118D01*
X134485479Y-92261386D01*
X134492425Y-92265205D01*
X134492428Y-92265207D01*
X134503234Y-92271148D01*
X134519753Y-92281999D01*
X134535759Y-92294414D01*
X134543028Y-92297559D01*
X134543032Y-92297562D01*
X134576337Y-92311974D01*
X134586987Y-92317191D01*
X134625740Y-92338495D01*
X134633415Y-92340466D01*
X134633416Y-92340466D01*
X134645362Y-92343533D01*
X134664067Y-92349937D01*
X134682655Y-92357981D01*
X134690478Y-92359220D01*
X134690488Y-92359223D01*
X134726324Y-92364899D01*
X134737944Y-92367305D01*
X134768201Y-92375073D01*
X134780770Y-92378300D01*
X134801024Y-92378300D01*
X134820734Y-92379851D01*
X134840743Y-92383020D01*
X134848635Y-92382274D01*
X134860063Y-92381194D01*
X134884762Y-92378859D01*
X134896619Y-92378300D01*
X135529200Y-92378300D01*
X135597321Y-92398302D01*
X135616547Y-92414643D01*
X135616820Y-92414340D01*
X135621732Y-92418763D01*
X135626147Y-92423666D01*
X135780648Y-92535918D01*
X135786676Y-92538602D01*
X135786678Y-92538603D01*
X135949081Y-92610909D01*
X135955112Y-92613594D01*
X136048513Y-92633447D01*
X136135456Y-92651928D01*
X136135461Y-92651928D01*
X136141913Y-92653300D01*
X136332887Y-92653300D01*
X136339344Y-92651928D01*
X136339349Y-92651927D01*
X136364605Y-92646559D01*
X136435396Y-92651962D01*
X136492027Y-92694779D01*
X136516520Y-92761417D01*
X136516800Y-92769806D01*
X136516800Y-132589472D01*
X136515300Y-132608856D01*
X136511614Y-132632530D01*
X136513254Y-132645070D01*
X136513450Y-132646567D01*
X136514125Y-132672789D01*
X136500379Y-132847454D01*
X136497286Y-132866981D01*
X136461556Y-133015809D01*
X136450741Y-133060855D01*
X136444633Y-133079654D01*
X136368329Y-133263867D01*
X136359355Y-133281478D01*
X136255174Y-133451485D01*
X136243559Y-133467473D01*
X136150222Y-133576757D01*
X136114068Y-133619088D01*
X136100090Y-133633066D01*
X135948473Y-133762559D01*
X135932485Y-133774174D01*
X135762478Y-133878355D01*
X135744867Y-133887329D01*
X135560654Y-133963633D01*
X135541859Y-133969740D01*
X135347982Y-134016286D01*
X135328453Y-134019379D01*
X135160787Y-134032574D01*
X135143919Y-134031933D01*
X135143917Y-134032105D01*
X135134941Y-134031995D01*
X135126070Y-134030614D01*
X135117168Y-134031778D01*
X135117165Y-134031778D01*
X135094549Y-134034736D01*
X135078211Y-134035800D01*
X124553252Y-134035800D01*
X124485131Y-134015798D01*
X124438638Y-133962142D01*
X124428534Y-133891868D01*
X124442838Y-133849099D01*
X124492802Y-133758215D01*
X124497634Y-133746942D01*
X124553680Y-133570262D01*
X124556230Y-133558268D01*
X124572407Y-133414039D01*
X124572800Y-133407015D01*
X124572800Y-133325915D01*
X124568325Y-133310676D01*
X124566935Y-133309471D01*
X124559252Y-133307800D01*
X122574915Y-133307800D01*
X122559676Y-133312275D01*
X122558471Y-133313665D01*
X122556800Y-133321348D01*
X122556800Y-133400457D01*
X122557101Y-133406605D01*
X122570612Y-133544403D01*
X122572995Y-133556438D01*
X122626567Y-133733876D01*
X122631241Y-133745216D01*
X122687299Y-133850647D01*
X122701618Y-133920185D01*
X122676070Y-133986425D01*
X122618765Y-134028338D01*
X122576047Y-134035800D01*
X115913252Y-134035800D01*
X115845131Y-134015798D01*
X115798638Y-133962142D01*
X115788534Y-133891868D01*
X115802838Y-133849099D01*
X115852802Y-133758215D01*
X115857634Y-133746942D01*
X115913680Y-133570262D01*
X115916230Y-133558268D01*
X115932407Y-133414039D01*
X115932800Y-133407015D01*
X115932800Y-133325915D01*
X115928325Y-133310676D01*
X115926935Y-133309471D01*
X115919252Y-133307800D01*
X113934915Y-133307800D01*
X113919676Y-133312275D01*
X113918471Y-133313665D01*
X113916800Y-133321348D01*
X113916800Y-133400457D01*
X113917101Y-133406605D01*
X113930612Y-133544403D01*
X113932995Y-133556438D01*
X113986567Y-133733876D01*
X113991241Y-133745216D01*
X114047299Y-133850647D01*
X114061618Y-133920185D01*
X114036070Y-133986425D01*
X113978765Y-134028338D01*
X113936047Y-134035800D01*
X103419128Y-134035800D01*
X103399743Y-134034300D01*
X103384942Y-134031995D01*
X103384939Y-134031995D01*
X103376070Y-134030614D01*
X103362031Y-134032450D01*
X103335811Y-134033125D01*
X103161146Y-134019379D01*
X103141618Y-134016286D01*
X102947741Y-133969740D01*
X102928946Y-133963633D01*
X102744733Y-133887329D01*
X102727122Y-133878355D01*
X102557115Y-133774174D01*
X102541127Y-133762559D01*
X102389510Y-133633066D01*
X102375532Y-133619088D01*
X102339378Y-133576757D01*
X102246041Y-133467473D01*
X102234426Y-133451485D01*
X102130245Y-133281478D01*
X102121271Y-133263867D01*
X102044967Y-133079654D01*
X102038859Y-133060855D01*
X102028045Y-133015809D01*
X101992314Y-132866981D01*
X101989221Y-132847453D01*
X101976026Y-132679787D01*
X101976667Y-132662919D01*
X101976495Y-132662917D01*
X101976605Y-132653941D01*
X101977986Y-132645070D01*
X101976347Y-132632530D01*
X101973864Y-132613549D01*
X101972800Y-132597211D01*
X101972800Y-131416204D01*
X102376741Y-131416204D01*
X102402891Y-131715092D01*
X102403801Y-131719164D01*
X102403802Y-131719169D01*
X102467428Y-132003816D01*
X102468340Y-132007895D01*
X102571940Y-132289471D01*
X102573884Y-132293159D01*
X102573888Y-132293167D01*
X102685472Y-132504805D01*
X102711869Y-132554871D01*
X102885671Y-132799433D01*
X103090290Y-133018861D01*
X103322133Y-133209298D01*
X103577125Y-133367400D01*
X103850788Y-133490389D01*
X103869694Y-133496025D01*
X104134314Y-133574912D01*
X104134316Y-133574912D01*
X104138313Y-133576104D01*
X104142433Y-133576757D01*
X104142435Y-133576757D01*
X104261309Y-133595585D01*
X104434648Y-133623039D01*
X104477377Y-133624979D01*
X104527062Y-133627236D01*
X104527081Y-133627236D01*
X104528481Y-133627300D01*
X104715907Y-133627300D01*
X104939170Y-133612471D01*
X104943264Y-133611646D01*
X104943268Y-133611645D01*
X105084313Y-133583205D01*
X105233280Y-133553168D01*
X105516963Y-133455488D01*
X105520696Y-133453619D01*
X105520700Y-133453617D01*
X105781491Y-133323022D01*
X105781493Y-133323021D01*
X105785235Y-133321147D01*
X106033384Y-133152506D01*
X106257048Y-132952526D01*
X106347107Y-132847453D01*
X106403477Y-132781685D01*
X113916800Y-132781685D01*
X113921275Y-132796924D01*
X113922665Y-132798129D01*
X113930348Y-132799800D01*
X114652685Y-132799800D01*
X114667924Y-132795325D01*
X114669129Y-132793935D01*
X114670800Y-132786252D01*
X114670800Y-132781685D01*
X115178800Y-132781685D01*
X115183275Y-132796924D01*
X115184665Y-132798129D01*
X115192348Y-132799800D01*
X115914685Y-132799800D01*
X115929924Y-132795325D01*
X115931129Y-132793935D01*
X115932800Y-132786252D01*
X115932800Y-132707143D01*
X115932499Y-132700995D01*
X115918988Y-132563197D01*
X115916605Y-132551162D01*
X115863033Y-132373724D01*
X115858359Y-132362384D01*
X115771340Y-132198723D01*
X115764551Y-132188506D01*
X115647403Y-132044867D01*
X115638759Y-132036163D01*
X115495944Y-131918016D01*
X115485773Y-131911156D01*
X115322724Y-131822996D01*
X115311419Y-131818244D01*
X115196108Y-131782550D01*
X115182005Y-131782344D01*
X115178800Y-131789099D01*
X115178800Y-132781685D01*
X114670800Y-132781685D01*
X114670800Y-131795876D01*
X114666827Y-131782345D01*
X114659032Y-131781225D01*
X114551279Y-131812938D01*
X114539911Y-131817531D01*
X114375646Y-131903407D01*
X114365385Y-131910121D01*
X114220927Y-132026268D01*
X114212168Y-132034846D01*
X114093022Y-132176839D01*
X114086092Y-132186959D01*
X113996798Y-132349385D01*
X113991966Y-132360658D01*
X113935920Y-132537338D01*
X113933370Y-132549332D01*
X113917193Y-132693561D01*
X113916800Y-132700585D01*
X113916800Y-132781685D01*
X106403477Y-132781685D01*
X106449579Y-132727897D01*
X106449582Y-132727893D01*
X106452299Y-132724723D01*
X106454573Y-132721221D01*
X106454577Y-132721216D01*
X106613428Y-132476607D01*
X106613431Y-132476602D01*
X106615707Y-132473097D01*
X106622445Y-132458908D01*
X106711491Y-132271376D01*
X106744400Y-132202070D01*
X106752987Y-132175327D01*
X106834838Y-131920391D01*
X106834838Y-131920390D01*
X106836118Y-131916404D01*
X106857804Y-131795876D01*
X106888509Y-131625225D01*
X106888510Y-131625220D01*
X106889248Y-131621116D01*
X106902859Y-131321396D01*
X106876709Y-131022508D01*
X106832632Y-130825315D01*
X106812172Y-130733784D01*
X106812171Y-130733781D01*
X106811260Y-130729705D01*
X106707660Y-130448129D01*
X106705716Y-130444441D01*
X106705712Y-130444433D01*
X106569684Y-130186433D01*
X106569683Y-130186432D01*
X106567731Y-130182729D01*
X106393929Y-129938167D01*
X106189310Y-129718739D01*
X105957467Y-129528302D01*
X105864173Y-129470457D01*
X113916800Y-129470457D01*
X113917101Y-129476605D01*
X113930612Y-129614403D01*
X113932995Y-129626438D01*
X113986567Y-129803876D01*
X113991241Y-129815216D01*
X114078260Y-129978877D01*
X114085049Y-129989094D01*
X114202197Y-130132733D01*
X114210841Y-130141437D01*
X114353656Y-130259584D01*
X114363827Y-130266444D01*
X114526876Y-130354604D01*
X114538181Y-130359356D01*
X114653492Y-130395050D01*
X114667595Y-130395256D01*
X114670800Y-130388501D01*
X114670800Y-129145915D01*
X114666325Y-129130676D01*
X114664935Y-129129471D01*
X114657252Y-129127800D01*
X113934915Y-129127800D01*
X113919676Y-129132275D01*
X113918471Y-129133665D01*
X113916800Y-129141348D01*
X113916800Y-129470457D01*
X105864173Y-129470457D01*
X105702475Y-129370200D01*
X105673100Y-129356998D01*
X105510633Y-129283983D01*
X105428812Y-129247211D01*
X105197769Y-129178334D01*
X105145286Y-129162688D01*
X105145284Y-129162688D01*
X105141287Y-129161496D01*
X105137167Y-129160843D01*
X105137165Y-129160843D01*
X104980015Y-129135953D01*
X104844952Y-129114561D01*
X104802223Y-129112621D01*
X104752538Y-129110364D01*
X104752519Y-129110364D01*
X104751119Y-129110300D01*
X104563693Y-129110300D01*
X104340430Y-129125129D01*
X104336336Y-129125954D01*
X104336332Y-129125955D01*
X104237343Y-129145915D01*
X104046320Y-129184432D01*
X103762637Y-129282112D01*
X103758904Y-129283981D01*
X103758900Y-129283983D01*
X103536327Y-129395440D01*
X103494365Y-129416453D01*
X103246216Y-129585094D01*
X103022552Y-129785074D01*
X103019835Y-129788244D01*
X103019834Y-129788245D01*
X102833416Y-130005743D01*
X102827301Y-130012877D01*
X102825027Y-130016379D01*
X102825023Y-130016384D01*
X102667087Y-130259584D01*
X102663893Y-130264503D01*
X102662099Y-130268282D01*
X102662098Y-130268283D01*
X102618515Y-130360069D01*
X102535200Y-130535530D01*
X102533921Y-130539513D01*
X102533920Y-130539516D01*
X102474117Y-130725780D01*
X102443482Y-130821196D01*
X102390352Y-131116484D01*
X102376741Y-131416204D01*
X101972800Y-131416204D01*
X101972800Y-128244600D01*
X110406496Y-128244600D01*
X110426458Y-128434528D01*
X110485473Y-128616156D01*
X110488776Y-128621878D01*
X110488777Y-128621879D01*
X110495531Y-128633577D01*
X110580960Y-128781544D01*
X110585378Y-128786451D01*
X110585379Y-128786452D01*
X110704325Y-128918555D01*
X110708747Y-128923466D01*
X110863248Y-129035718D01*
X110869276Y-129038402D01*
X110869278Y-129038403D01*
X111030906Y-129110364D01*
X111037712Y-129113394D01*
X111096807Y-129125955D01*
X111218056Y-129151728D01*
X111218061Y-129151728D01*
X111224513Y-129153100D01*
X111415487Y-129153100D01*
X111421939Y-129151728D01*
X111421944Y-129151728D01*
X111543193Y-129125955D01*
X111602288Y-129113394D01*
X111609094Y-129110364D01*
X111770722Y-129038403D01*
X111770724Y-129038402D01*
X111776752Y-129035718D01*
X111931253Y-128923466D01*
X111935675Y-128918555D01*
X112054621Y-128786452D01*
X112054622Y-128786451D01*
X112059040Y-128781544D01*
X112144469Y-128633577D01*
X112151223Y-128621879D01*
X112151224Y-128621878D01*
X112154527Y-128616156D01*
X112159229Y-128601685D01*
X113916800Y-128601685D01*
X113921275Y-128616924D01*
X113922665Y-128618129D01*
X113930348Y-128619800D01*
X114652685Y-128619800D01*
X114667924Y-128615325D01*
X114669129Y-128613935D01*
X114670800Y-128606252D01*
X114670800Y-127365876D01*
X114666827Y-127352345D01*
X114659032Y-127351225D01*
X114551279Y-127382938D01*
X114539911Y-127387531D01*
X114375646Y-127473407D01*
X114365385Y-127480121D01*
X114220927Y-127596268D01*
X114212168Y-127604846D01*
X114093022Y-127746839D01*
X114086092Y-127756959D01*
X113996798Y-127919385D01*
X113991966Y-127930658D01*
X113935920Y-128107338D01*
X113933370Y-128119332D01*
X113917193Y-128263561D01*
X113916800Y-128270585D01*
X113916800Y-128601685D01*
X112159229Y-128601685D01*
X112213542Y-128434528D01*
X112233504Y-128244600D01*
X112232814Y-128238035D01*
X112214232Y-128061235D01*
X112214232Y-128061233D01*
X112213542Y-128054672D01*
X112154527Y-127873044D01*
X112147029Y-127860056D01*
X112062342Y-127713375D01*
X112062341Y-127713374D01*
X112059040Y-127707656D01*
X112054621Y-127702748D01*
X112052564Y-127699917D01*
X112028705Y-127633049D01*
X112028500Y-127625856D01*
X112028500Y-126115198D01*
X112048502Y-126047077D01*
X112065405Y-126026103D01*
X112486320Y-125605188D01*
X112492585Y-125599334D01*
X112520375Y-125575091D01*
X112536185Y-125561299D01*
X112572914Y-125509038D01*
X112576846Y-125503743D01*
X112611591Y-125459432D01*
X112616277Y-125453456D01*
X112619402Y-125446534D01*
X112620764Y-125444286D01*
X112629168Y-125429553D01*
X112630422Y-125427214D01*
X112634790Y-125420999D01*
X112637549Y-125413923D01*
X112637551Y-125413919D01*
X112658000Y-125361469D01*
X112660549Y-125355404D01*
X112686845Y-125297165D01*
X112688229Y-125289700D01*
X112689026Y-125287156D01*
X112693659Y-125270890D01*
X112694321Y-125268310D01*
X112697082Y-125261229D01*
X112701689Y-125226238D01*
X112705421Y-125197885D01*
X112706453Y-125191367D01*
X112707166Y-125187523D01*
X112718096Y-125128551D01*
X112714509Y-125066340D01*
X112714300Y-125059087D01*
X112714300Y-124157044D01*
X112734302Y-124088923D01*
X112738364Y-124082983D01*
X112740421Y-124080152D01*
X112744840Y-124075244D01*
X112840327Y-123909856D01*
X112899342Y-123728228D01*
X112919304Y-123538300D01*
X112899342Y-123348372D01*
X112840327Y-123166744D01*
X112831740Y-123151870D01*
X112748141Y-123007074D01*
X112744840Y-123001356D01*
X112740135Y-122996130D01*
X112621475Y-122864345D01*
X112621474Y-122864344D01*
X112617053Y-122859434D01*
X112462552Y-122747182D01*
X112456524Y-122744498D01*
X112456522Y-122744497D01*
X112294119Y-122672191D01*
X112294118Y-122672191D01*
X112288088Y-122669506D01*
X112171292Y-122644680D01*
X112107744Y-122631172D01*
X112107739Y-122631172D01*
X112101287Y-122629800D01*
X111910313Y-122629800D01*
X111903861Y-122631172D01*
X111903856Y-122631172D01*
X111840308Y-122644680D01*
X111723512Y-122669506D01*
X111717482Y-122672191D01*
X111717481Y-122672191D01*
X111555078Y-122744497D01*
X111555076Y-122744498D01*
X111549048Y-122747182D01*
X111394547Y-122859434D01*
X111390126Y-122864344D01*
X111390125Y-122864345D01*
X111271466Y-122996130D01*
X111266760Y-123001356D01*
X111263459Y-123007074D01*
X111179861Y-123151870D01*
X111171273Y-123166744D01*
X111112258Y-123348372D01*
X111092296Y-123538300D01*
X111112258Y-123728228D01*
X111171273Y-123909856D01*
X111266760Y-124075244D01*
X111271179Y-124080152D01*
X111273236Y-124082983D01*
X111297095Y-124149851D01*
X111297300Y-124157044D01*
X111297300Y-124738076D01*
X111277298Y-124806197D01*
X111260396Y-124827171D01*
X110839465Y-125248103D01*
X110833198Y-125253957D01*
X110795340Y-125286982D01*
X110795337Y-125286985D01*
X110789615Y-125291977D01*
X110770160Y-125319659D01*
X110752872Y-125344257D01*
X110748939Y-125349552D01*
X110709524Y-125399820D01*
X110706401Y-125406736D01*
X110705017Y-125409022D01*
X110696643Y-125423703D01*
X110695378Y-125426063D01*
X110691010Y-125432277D01*
X110688250Y-125439356D01*
X110688249Y-125439358D01*
X110667798Y-125491813D01*
X110665247Y-125497882D01*
X110638955Y-125556111D01*
X110637571Y-125563578D01*
X110636770Y-125566133D01*
X110632141Y-125582386D01*
X110631478Y-125584966D01*
X110628718Y-125592047D01*
X110627727Y-125599578D01*
X110627726Y-125599580D01*
X110620379Y-125655390D01*
X110619348Y-125661897D01*
X110607704Y-125724724D01*
X110608141Y-125732304D01*
X110608141Y-125732305D01*
X110611291Y-125786930D01*
X110611500Y-125794184D01*
X110611500Y-127625856D01*
X110591498Y-127693977D01*
X110587436Y-127699917D01*
X110585379Y-127702748D01*
X110580960Y-127707656D01*
X110577659Y-127713374D01*
X110577658Y-127713375D01*
X110492972Y-127860056D01*
X110485473Y-127873044D01*
X110426458Y-128054672D01*
X110425768Y-128061233D01*
X110425768Y-128061235D01*
X110407186Y-128238035D01*
X110406496Y-128244600D01*
X101972800Y-128244600D01*
X101972800Y-122125964D01*
X103850532Y-122125964D01*
X103851222Y-122132529D01*
X103867347Y-122285946D01*
X103870494Y-122315892D01*
X103929509Y-122497520D01*
X104024996Y-122662908D01*
X104029414Y-122667815D01*
X104029415Y-122667816D01*
X104139867Y-122790485D01*
X104152783Y-122804830D01*
X104222594Y-122855551D01*
X104284409Y-122900462D01*
X104307284Y-122917082D01*
X104313312Y-122919766D01*
X104313314Y-122919767D01*
X104475717Y-122992073D01*
X104481748Y-122994758D01*
X104575149Y-123014611D01*
X104662092Y-123033092D01*
X104662097Y-123033092D01*
X104668549Y-123034464D01*
X104859523Y-123034464D01*
X104865975Y-123033092D01*
X104865980Y-123033092D01*
X104952923Y-123014611D01*
X105046324Y-122994758D01*
X105052355Y-122992073D01*
X105214758Y-122919767D01*
X105214760Y-122919766D01*
X105220788Y-122917082D01*
X105243664Y-122900462D01*
X105353707Y-122820510D01*
X105375289Y-122804830D01*
X105379704Y-122799927D01*
X105384616Y-122795504D01*
X105385741Y-122796753D01*
X105439050Y-122763913D01*
X105472236Y-122759464D01*
X107166936Y-122759464D01*
X107235057Y-122779466D01*
X107244408Y-122786606D01*
X107244411Y-122786602D01*
X107351415Y-122864345D01*
X107398912Y-122898854D01*
X107404940Y-122901538D01*
X107404942Y-122901539D01*
X107567345Y-122973845D01*
X107573376Y-122976530D01*
X107646500Y-122992073D01*
X107753720Y-123014864D01*
X107753725Y-123014864D01*
X107760177Y-123016236D01*
X107951151Y-123016236D01*
X107957603Y-123014864D01*
X107957608Y-123014864D01*
X108064828Y-122992073D01*
X108137952Y-122976530D01*
X108143983Y-122973845D01*
X108306386Y-122901539D01*
X108306388Y-122901538D01*
X108312416Y-122898854D01*
X108466917Y-122786602D01*
X108492682Y-122757987D01*
X108590285Y-122649588D01*
X108590286Y-122649587D01*
X108594704Y-122644680D01*
X108690191Y-122479292D01*
X108749206Y-122297664D01*
X108769168Y-122107736D01*
X108749206Y-121917808D01*
X108690191Y-121736180D01*
X108677831Y-121714771D01*
X108598005Y-121576510D01*
X108594704Y-121570792D01*
X108586202Y-121561349D01*
X108471339Y-121433781D01*
X108471338Y-121433780D01*
X108466917Y-121428870D01*
X108312416Y-121316618D01*
X108306388Y-121313934D01*
X108306386Y-121313933D01*
X108143983Y-121241627D01*
X108143982Y-121241627D01*
X108137952Y-121238942D01*
X107951151Y-121199236D01*
X107951653Y-121196876D01*
X107896137Y-121174030D01*
X107855511Y-121115806D01*
X107852813Y-121044861D01*
X107859313Y-121026084D01*
X107861927Y-121021556D01*
X107920942Y-120839928D01*
X107940904Y-120650000D01*
X107931275Y-120558382D01*
X107921632Y-120466635D01*
X107921632Y-120466633D01*
X107920942Y-120460072D01*
X107861927Y-120278444D01*
X107851761Y-120260835D01*
X107816484Y-120199734D01*
X107766440Y-120113056D01*
X107748699Y-120093352D01*
X107643075Y-119976045D01*
X107643074Y-119976044D01*
X107638653Y-119971134D01*
X107521832Y-119886258D01*
X107489494Y-119862763D01*
X107489493Y-119862762D01*
X107484152Y-119858882D01*
X107478124Y-119856198D01*
X107478122Y-119856197D01*
X107315719Y-119783891D01*
X107315718Y-119783891D01*
X107309688Y-119781206D01*
X107156831Y-119748715D01*
X107093933Y-119714563D01*
X107074880Y-119695510D01*
X107040854Y-119633198D01*
X107045919Y-119562383D01*
X107054856Y-119543415D01*
X107122023Y-119427079D01*
X107122024Y-119427078D01*
X107125327Y-119421356D01*
X107184342Y-119239728D01*
X107186892Y-119215472D01*
X107203614Y-119056365D01*
X107204304Y-119049800D01*
X107186609Y-118881444D01*
X107185032Y-118866435D01*
X107185032Y-118866433D01*
X107184342Y-118859872D01*
X107125327Y-118678244D01*
X107117027Y-118663867D01*
X107057809Y-118561300D01*
X107029840Y-118512856D01*
X106902053Y-118370934D01*
X106747552Y-118258682D01*
X106741524Y-118255998D01*
X106741522Y-118255997D01*
X106579119Y-118183691D01*
X106579118Y-118183691D01*
X106573088Y-118181006D01*
X106479688Y-118161153D01*
X106392744Y-118142672D01*
X106392739Y-118142672D01*
X106386287Y-118141300D01*
X106195313Y-118141300D01*
X106188861Y-118142672D01*
X106188856Y-118142672D01*
X106101912Y-118161153D01*
X106008512Y-118181006D01*
X106002482Y-118183691D01*
X106002481Y-118183691D01*
X105840078Y-118255997D01*
X105840076Y-118255998D01*
X105834048Y-118258682D01*
X105679547Y-118370934D01*
X105551760Y-118512856D01*
X105523791Y-118561300D01*
X105464574Y-118663867D01*
X105456273Y-118678244D01*
X105397258Y-118859872D01*
X105396568Y-118866433D01*
X105396568Y-118866435D01*
X105394991Y-118881444D01*
X105377296Y-119049800D01*
X105377986Y-119056365D01*
X105394709Y-119215472D01*
X105397258Y-119239728D01*
X105456273Y-119421356D01*
X105459576Y-119427078D01*
X105459577Y-119427079D01*
X105472352Y-119449206D01*
X105551760Y-119586744D01*
X105556179Y-119591652D01*
X105558236Y-119594483D01*
X105582095Y-119661351D01*
X105582300Y-119668544D01*
X105582300Y-119884488D01*
X105582008Y-119893058D01*
X105579038Y-119936629D01*
X105578075Y-119950752D01*
X105579380Y-119958229D01*
X105579380Y-119958230D01*
X105581132Y-119968270D01*
X105588382Y-120009806D01*
X105589061Y-120013699D01*
X105590023Y-120020221D01*
X105597698Y-120083642D01*
X105600381Y-120090743D01*
X105601022Y-120093352D01*
X105605485Y-120109662D01*
X105606250Y-120112198D01*
X105607557Y-120119684D01*
X105612039Y-120129893D01*
X105633242Y-120178195D01*
X105635733Y-120184299D01*
X105658313Y-120244056D01*
X105662617Y-120250319D01*
X105663854Y-120252685D01*
X105672099Y-120267497D01*
X105673432Y-120269751D01*
X105676485Y-120276705D01*
X105692072Y-120297017D01*
X105715379Y-120327391D01*
X105719259Y-120332732D01*
X105751139Y-120379120D01*
X105751144Y-120379125D01*
X105755443Y-120385381D01*
X105761113Y-120390432D01*
X105761114Y-120390434D01*
X105801970Y-120426835D01*
X105807246Y-120431816D01*
X106092735Y-120717305D01*
X106126761Y-120779617D01*
X106128950Y-120793228D01*
X106133858Y-120839928D01*
X106135898Y-120846205D01*
X106135898Y-120846207D01*
X106167634Y-120943880D01*
X106192873Y-121021556D01*
X106288360Y-121186944D01*
X106292778Y-121191851D01*
X106292779Y-121191852D01*
X106374087Y-121282154D01*
X106404805Y-121346161D01*
X106396040Y-121416615D01*
X106350577Y-121471146D01*
X106280451Y-121492464D01*
X105472236Y-121492464D01*
X105404115Y-121472462D01*
X105384889Y-121456121D01*
X105384616Y-121456424D01*
X105379704Y-121452001D01*
X105375289Y-121447098D01*
X105256227Y-121360594D01*
X105226130Y-121338727D01*
X105226129Y-121338726D01*
X105220788Y-121334846D01*
X105214760Y-121332162D01*
X105214758Y-121332161D01*
X105052355Y-121259855D01*
X105052354Y-121259855D01*
X105046324Y-121257170D01*
X104952924Y-121237317D01*
X104865980Y-121218836D01*
X104865975Y-121218836D01*
X104859523Y-121217464D01*
X104668549Y-121217464D01*
X104662097Y-121218836D01*
X104662092Y-121218836D01*
X104575148Y-121237317D01*
X104481748Y-121257170D01*
X104475718Y-121259855D01*
X104475717Y-121259855D01*
X104313314Y-121332161D01*
X104313312Y-121332162D01*
X104307284Y-121334846D01*
X104301943Y-121338726D01*
X104301942Y-121338727D01*
X104278079Y-121356065D01*
X104152783Y-121447098D01*
X104148362Y-121452008D01*
X104148361Y-121452009D01*
X104041409Y-121570792D01*
X104024996Y-121589020D01*
X104021695Y-121594738D01*
X103933559Y-121747394D01*
X103929509Y-121754408D01*
X103870494Y-121936036D01*
X103850532Y-122125964D01*
X101972800Y-122125964D01*
X101972800Y-117620209D01*
X101992802Y-117552088D01*
X102046458Y-117505595D01*
X102116732Y-117495491D01*
X102124997Y-117496962D01*
X102226456Y-117518528D01*
X102226461Y-117518528D01*
X102232913Y-117519900D01*
X102423887Y-117519900D01*
X102430339Y-117518528D01*
X102430344Y-117518528D01*
X102531801Y-117496962D01*
X102610688Y-117480194D01*
X102616719Y-117477509D01*
X102779122Y-117405203D01*
X102779124Y-117405202D01*
X102785152Y-117402518D01*
X102939653Y-117290266D01*
X102944075Y-117285355D01*
X103063021Y-117153252D01*
X103063022Y-117153251D01*
X103067440Y-117148344D01*
X103162927Y-116982956D01*
X103165859Y-116973934D01*
X103183754Y-116918858D01*
X103214492Y-116868700D01*
X104074187Y-116009005D01*
X104136499Y-115974979D01*
X104163282Y-115972100D01*
X107370306Y-115972100D01*
X107421555Y-115982993D01*
X107525736Y-116029377D01*
X107532512Y-116032394D01*
X107625913Y-116052247D01*
X107712856Y-116070728D01*
X107712861Y-116070728D01*
X107719313Y-116072100D01*
X107910287Y-116072100D01*
X107916739Y-116070728D01*
X107916744Y-116070728D01*
X108073303Y-116037450D01*
X108144094Y-116042852D01*
X108200727Y-116085669D01*
X108225220Y-116152307D01*
X108225500Y-116160697D01*
X108225500Y-118802603D01*
X108208620Y-118865602D01*
X108199473Y-118881444D01*
X108140458Y-119063072D01*
X108139768Y-119069633D01*
X108139768Y-119069635D01*
X108122581Y-119233165D01*
X108120496Y-119253000D01*
X108140458Y-119442928D01*
X108199473Y-119624556D01*
X108202776Y-119630278D01*
X108202777Y-119630279D01*
X108236686Y-119689010D01*
X108294960Y-119789944D01*
X108299378Y-119794851D01*
X108299379Y-119794852D01*
X108383948Y-119888775D01*
X108422747Y-119931866D01*
X108457242Y-119956928D01*
X108564832Y-120035097D01*
X108577248Y-120044118D01*
X108583276Y-120046802D01*
X108583278Y-120046803D01*
X108705441Y-120101193D01*
X108751712Y-120121794D01*
X108821919Y-120136717D01*
X108932056Y-120160128D01*
X108932061Y-120160128D01*
X108938513Y-120161500D01*
X109129487Y-120161500D01*
X109135939Y-120160128D01*
X109135944Y-120160128D01*
X109246081Y-120136717D01*
X109316288Y-120121794D01*
X109362559Y-120101193D01*
X109484722Y-120046803D01*
X109484724Y-120046802D01*
X109490752Y-120044118D01*
X109503169Y-120035097D01*
X109610758Y-119956928D01*
X109645253Y-119931866D01*
X109684052Y-119888775D01*
X109768621Y-119794852D01*
X109768622Y-119794851D01*
X109773040Y-119789944D01*
X109831314Y-119689010D01*
X109865223Y-119630279D01*
X109865224Y-119630278D01*
X109868527Y-119624556D01*
X109927542Y-119442928D01*
X109947504Y-119253000D01*
X109945419Y-119233165D01*
X109928232Y-119069635D01*
X109928232Y-119069633D01*
X109927542Y-119063072D01*
X109868527Y-118881444D01*
X109859380Y-118865602D01*
X109842500Y-118802603D01*
X109842500Y-101163410D01*
X109862502Y-101095289D01*
X109916158Y-101048796D01*
X109986432Y-101038692D01*
X110019748Y-101048303D01*
X110066477Y-101069108D01*
X110066485Y-101069111D01*
X110072512Y-101071794D01*
X110078964Y-101073166D01*
X110078969Y-101073167D01*
X110158337Y-101090037D01*
X110220811Y-101123766D01*
X110255132Y-101185915D01*
X110257450Y-101200113D01*
X110274058Y-101358128D01*
X110333073Y-101539756D01*
X110428560Y-101705144D01*
X110501737Y-101786415D01*
X110532453Y-101850421D01*
X110534100Y-101870724D01*
X110534100Y-119797533D01*
X110533573Y-119808716D01*
X110531898Y-119816209D01*
X110532147Y-119824135D01*
X110532147Y-119824136D01*
X110534038Y-119884286D01*
X110534100Y-119888245D01*
X110534100Y-119916156D01*
X110534597Y-119920090D01*
X110534597Y-119920091D01*
X110534605Y-119920156D01*
X110535538Y-119931993D01*
X110536927Y-119976189D01*
X110542578Y-119995639D01*
X110546587Y-120015000D01*
X110549126Y-120035097D01*
X110552045Y-120042468D01*
X110552045Y-120042470D01*
X110565404Y-120076212D01*
X110569249Y-120087442D01*
X110578352Y-120118774D01*
X110581582Y-120129893D01*
X110585615Y-120136712D01*
X110585617Y-120136717D01*
X110591893Y-120147328D01*
X110600588Y-120165076D01*
X110608048Y-120183917D01*
X110612710Y-120190333D01*
X110612710Y-120190334D01*
X110634036Y-120219687D01*
X110640552Y-120229607D01*
X110654201Y-120252685D01*
X110663058Y-120267662D01*
X110677379Y-120281983D01*
X110690219Y-120297016D01*
X110702128Y-120313407D01*
X110708234Y-120318458D01*
X110736205Y-120341598D01*
X110744984Y-120349588D01*
X111693678Y-121298282D01*
X111727704Y-121360594D01*
X111729892Y-121374203D01*
X111747258Y-121539428D01*
X111806273Y-121721056D01*
X111809576Y-121726778D01*
X111809577Y-121726779D01*
X111819929Y-121744709D01*
X111901760Y-121886444D01*
X111906178Y-121891351D01*
X111906179Y-121891352D01*
X111940760Y-121929758D01*
X112029547Y-122028366D01*
X112128643Y-122100364D01*
X112163879Y-122125964D01*
X112184048Y-122140618D01*
X112190076Y-122143302D01*
X112190078Y-122143303D01*
X112352481Y-122215609D01*
X112358512Y-122218294D01*
X112451912Y-122238147D01*
X112538856Y-122256628D01*
X112538861Y-122256628D01*
X112545313Y-122258000D01*
X112736287Y-122258000D01*
X112742739Y-122256628D01*
X112742744Y-122256628D01*
X112829688Y-122238147D01*
X112923088Y-122218294D01*
X112929119Y-122215609D01*
X113091522Y-122143303D01*
X113091524Y-122143302D01*
X113097552Y-122140618D01*
X113117722Y-122125964D01*
X113152957Y-122100364D01*
X113252053Y-122028366D01*
X113340840Y-121929758D01*
X113375421Y-121891352D01*
X113375422Y-121891351D01*
X113379840Y-121886444D01*
X113461671Y-121744709D01*
X113472023Y-121726779D01*
X113472024Y-121726778D01*
X113475327Y-121721056D01*
X113534342Y-121539428D01*
X113554304Y-121349500D01*
X113534342Y-121159572D01*
X113475327Y-120977944D01*
X113379840Y-120812556D01*
X113268295Y-120688672D01*
X113256475Y-120675545D01*
X113256474Y-120675544D01*
X113252053Y-120670634D01*
X113097552Y-120558382D01*
X113091524Y-120555698D01*
X113091522Y-120555697D01*
X112929119Y-120483391D01*
X112929118Y-120483391D01*
X112923088Y-120480706D01*
X112826013Y-120460072D01*
X112742744Y-120442372D01*
X112742739Y-120442372D01*
X112736287Y-120441000D01*
X112680395Y-120441000D01*
X112612274Y-120420998D01*
X112591300Y-120404095D01*
X111838005Y-119650800D01*
X111803979Y-119588488D01*
X111801100Y-119561705D01*
X111801100Y-101870724D01*
X111821102Y-101802603D01*
X111833458Y-101786421D01*
X111906640Y-101705144D01*
X112002127Y-101539756D01*
X112061142Y-101358128D01*
X112081104Y-101168200D01*
X112071116Y-101073167D01*
X112061832Y-100984835D01*
X112061832Y-100984833D01*
X112061142Y-100978272D01*
X112002127Y-100796644D01*
X111906640Y-100631256D01*
X111828889Y-100544904D01*
X111783275Y-100494245D01*
X111783274Y-100494244D01*
X111778853Y-100489334D01*
X111624352Y-100377082D01*
X111618324Y-100374398D01*
X111618322Y-100374397D01*
X111455919Y-100302091D01*
X111455918Y-100302091D01*
X111449888Y-100299406D01*
X111433107Y-100295839D01*
X111370633Y-100262112D01*
X111336311Y-100199963D01*
X111341037Y-100129124D01*
X111370207Y-100083497D01*
X111799499Y-99654205D01*
X111861811Y-99620179D01*
X111888594Y-99617300D01*
X117692833Y-99617300D01*
X117704016Y-99617827D01*
X117711509Y-99619502D01*
X117719435Y-99619253D01*
X117719436Y-99619253D01*
X117779586Y-99617362D01*
X117783545Y-99617300D01*
X117811456Y-99617300D01*
X117815391Y-99616803D01*
X117815456Y-99616795D01*
X117827293Y-99615862D01*
X117859551Y-99614848D01*
X117863570Y-99614722D01*
X117871489Y-99614473D01*
X117890943Y-99608821D01*
X117910300Y-99604813D01*
X117922530Y-99603268D01*
X117922531Y-99603268D01*
X117930397Y-99602274D01*
X117937768Y-99599355D01*
X117937770Y-99599355D01*
X117971512Y-99585996D01*
X117982742Y-99582151D01*
X118017583Y-99572029D01*
X118017584Y-99572029D01*
X118025193Y-99569818D01*
X118032012Y-99565785D01*
X118032017Y-99565783D01*
X118042628Y-99559507D01*
X118060376Y-99550812D01*
X118079217Y-99543352D01*
X118114987Y-99517364D01*
X118124907Y-99510848D01*
X118156135Y-99492380D01*
X118156138Y-99492378D01*
X118162962Y-99488342D01*
X118177283Y-99474021D01*
X118192317Y-99461180D01*
X118202294Y-99453931D01*
X118208707Y-99449272D01*
X118236898Y-99415195D01*
X118244888Y-99406416D01*
X121393405Y-96257899D01*
X121455717Y-96223873D01*
X121526532Y-96228938D01*
X121583368Y-96271485D01*
X121608179Y-96338005D01*
X121608500Y-96346994D01*
X121608500Y-100358640D01*
X121607973Y-100369823D01*
X121606298Y-100377316D01*
X121606547Y-100385242D01*
X121606547Y-100385243D01*
X121608438Y-100445393D01*
X121608500Y-100449352D01*
X121608500Y-100477263D01*
X121608997Y-100481197D01*
X121608997Y-100481198D01*
X121609005Y-100481263D01*
X121609938Y-100493100D01*
X121611327Y-100537296D01*
X121616978Y-100556746D01*
X121620987Y-100576107D01*
X121623526Y-100596204D01*
X121626445Y-100603575D01*
X121626445Y-100603577D01*
X121639804Y-100637319D01*
X121643649Y-100648549D01*
X121655982Y-100691000D01*
X121660015Y-100697819D01*
X121660017Y-100697824D01*
X121666293Y-100708435D01*
X121674988Y-100726183D01*
X121682448Y-100745024D01*
X121687110Y-100751440D01*
X121687110Y-100751441D01*
X121708436Y-100780794D01*
X121714952Y-100790714D01*
X121737458Y-100828769D01*
X121751779Y-100843090D01*
X121764619Y-100858123D01*
X121776528Y-100874514D01*
X121782634Y-100879565D01*
X121810605Y-100902705D01*
X121819384Y-100910695D01*
X124606941Y-103698253D01*
X124640967Y-103760565D01*
X124635902Y-103831381D01*
X124611480Y-103871660D01*
X124601760Y-103882456D01*
X124506273Y-104047844D01*
X124447258Y-104229472D01*
X124446568Y-104236033D01*
X124446568Y-104236035D01*
X124430802Y-104386038D01*
X124427296Y-104419400D01*
X124427986Y-104425965D01*
X124439432Y-104534863D01*
X124447258Y-104609328D01*
X124506273Y-104790956D01*
X124601760Y-104956344D01*
X124729547Y-105098266D01*
X124884048Y-105210518D01*
X124890076Y-105213202D01*
X124890078Y-105213203D01*
X124918089Y-105225674D01*
X125058512Y-105288194D01*
X125114824Y-105300164D01*
X125115498Y-105300307D01*
X125177971Y-105334035D01*
X125212292Y-105396185D01*
X125215300Y-105423553D01*
X125215300Y-106794083D01*
X125195298Y-106862204D01*
X125141642Y-106908697D01*
X125115497Y-106917330D01*
X125038115Y-106933779D01*
X124942012Y-106954206D01*
X124935982Y-106956891D01*
X124935981Y-106956891D01*
X124791547Y-107021197D01*
X124721180Y-107030631D01*
X124666237Y-107008026D01*
X124634494Y-106984963D01*
X124634493Y-106984962D01*
X124629152Y-106981082D01*
X124623124Y-106978398D01*
X124623122Y-106978397D01*
X124460719Y-106906091D01*
X124460718Y-106906091D01*
X124454688Y-106903406D01*
X124361288Y-106883553D01*
X124274344Y-106865072D01*
X124274339Y-106865072D01*
X124267887Y-106863700D01*
X124076913Y-106863700D01*
X124070461Y-106865072D01*
X124070456Y-106865072D01*
X123983512Y-106883553D01*
X123890112Y-106903406D01*
X123884082Y-106906091D01*
X123884081Y-106906091D01*
X123721678Y-106978397D01*
X123721676Y-106978398D01*
X123715648Y-106981082D01*
X123561147Y-107093334D01*
X123433360Y-107235256D01*
X123337873Y-107400644D01*
X123278858Y-107582272D01*
X123278168Y-107588833D01*
X123278168Y-107588835D01*
X123268377Y-107681992D01*
X123258896Y-107772200D01*
X123259586Y-107778765D01*
X123270489Y-107882497D01*
X123278858Y-107962128D01*
X123337873Y-108143756D01*
X123433360Y-108309144D01*
X123506537Y-108390415D01*
X123537253Y-108454421D01*
X123538900Y-108474724D01*
X123538900Y-114408880D01*
X123518898Y-114477001D01*
X123465242Y-114523494D01*
X123426067Y-114534190D01*
X123423116Y-114534500D01*
X123416513Y-114534500D01*
X123410060Y-114535872D01*
X123410057Y-114535872D01*
X123347487Y-114549172D01*
X123229712Y-114574206D01*
X123223682Y-114576891D01*
X123223681Y-114576891D01*
X123061278Y-114649197D01*
X123061276Y-114649198D01*
X123055248Y-114651882D01*
X123049907Y-114655762D01*
X123049906Y-114655763D01*
X122999843Y-114692136D01*
X122900747Y-114764134D01*
X122772960Y-114906056D01*
X122769659Y-114911774D01*
X122705113Y-115023571D01*
X122677473Y-115071444D01*
X122618458Y-115253072D01*
X122617768Y-115259633D01*
X122617768Y-115259635D01*
X122607379Y-115358484D01*
X122598496Y-115443000D01*
X122599186Y-115449565D01*
X122607473Y-115528407D01*
X122618458Y-115632928D01*
X122677473Y-115814556D01*
X122680776Y-115820277D01*
X122680777Y-115820279D01*
X122702870Y-115858545D01*
X122719608Y-115927540D01*
X122696387Y-115994632D01*
X122687388Y-116005855D01*
X122671360Y-116023656D01*
X122575873Y-116189044D01*
X122516858Y-116370672D01*
X122496896Y-116560600D01*
X122516858Y-116750528D01*
X122575873Y-116932156D01*
X122671360Y-117097544D01*
X122675778Y-117102451D01*
X122675779Y-117102452D01*
X122731337Y-117164155D01*
X122799147Y-117239466D01*
X122953648Y-117351718D01*
X122959676Y-117354402D01*
X122959678Y-117354403D01*
X123122081Y-117426709D01*
X123128112Y-117429394D01*
X123213548Y-117447554D01*
X123308456Y-117467728D01*
X123308461Y-117467728D01*
X123314913Y-117469100D01*
X123505887Y-117469100D01*
X123512339Y-117467728D01*
X123512344Y-117467728D01*
X123607252Y-117447554D01*
X123692688Y-117429394D01*
X123698719Y-117426709D01*
X123861122Y-117354403D01*
X123861124Y-117354402D01*
X123867152Y-117351718D01*
X124021653Y-117239466D01*
X124089463Y-117164155D01*
X124145021Y-117102452D01*
X124145022Y-117102451D01*
X124149440Y-117097544D01*
X124244927Y-116932156D01*
X124303942Y-116750528D01*
X124321307Y-116585308D01*
X124348320Y-116519651D01*
X124357522Y-116509382D01*
X125000205Y-115866700D01*
X125062517Y-115832675D01*
X125133333Y-115837740D01*
X125190168Y-115880287D01*
X125214979Y-115946807D01*
X125215300Y-115955796D01*
X125215300Y-119926026D01*
X125195298Y-119994147D01*
X125140549Y-120041133D01*
X125042478Y-120084797D01*
X125042476Y-120084798D01*
X125036448Y-120087482D01*
X125031107Y-120091362D01*
X125031106Y-120091363D01*
X124993378Y-120118774D01*
X124881947Y-120199734D01*
X124877526Y-120204644D01*
X124877525Y-120204645D01*
X124775048Y-120318458D01*
X124754160Y-120341656D01*
X124658673Y-120507044D01*
X124599658Y-120688672D01*
X124598968Y-120695233D01*
X124598968Y-120695235D01*
X124584450Y-120833365D01*
X124579696Y-120878600D01*
X124580386Y-120885165D01*
X124597171Y-121044861D01*
X124599658Y-121068528D01*
X124658673Y-121250156D01*
X124661976Y-121255878D01*
X124661977Y-121255879D01*
X124664273Y-121259855D01*
X124754160Y-121415544D01*
X124758578Y-121420451D01*
X124758579Y-121420452D01*
X124871358Y-121545706D01*
X124881947Y-121557466D01*
X125036448Y-121669718D01*
X125042476Y-121672402D01*
X125042478Y-121672403D01*
X125199841Y-121742465D01*
X125210912Y-121747394D01*
X125273479Y-121760693D01*
X125391256Y-121785728D01*
X125391261Y-121785728D01*
X125397713Y-121787100D01*
X125588687Y-121787100D01*
X125588687Y-121787718D01*
X125653971Y-121799659D01*
X125705816Y-121848162D01*
X125723300Y-121912195D01*
X125723300Y-126718876D01*
X125703298Y-126786997D01*
X125649642Y-126833490D01*
X125579368Y-126843594D01*
X125514788Y-126814100D01*
X125508205Y-126807971D01*
X124113725Y-125413491D01*
X124108285Y-125409022D01*
X124068686Y-125376495D01*
X123999539Y-125319697D01*
X123870678Y-125250603D01*
X123830670Y-125229151D01*
X123830669Y-125229151D01*
X123825237Y-125226238D01*
X123698607Y-125187523D01*
X123642000Y-125170216D01*
X123641998Y-125170216D01*
X123636102Y-125168413D01*
X123578249Y-125162536D01*
X123445466Y-125149048D01*
X123445461Y-125149048D01*
X123439338Y-125148426D01*
X123315275Y-125160154D01*
X123248571Y-125166459D01*
X123248569Y-125166459D01*
X123242438Y-125167039D01*
X123173725Y-125187523D01*
X123058807Y-125221781D01*
X123058805Y-125221782D01*
X123052904Y-125223541D01*
X122877954Y-125315782D01*
X122873168Y-125319658D01*
X122873166Y-125319659D01*
X122759710Y-125411534D01*
X122724253Y-125440247D01*
X122720308Y-125444982D01*
X122619236Y-125566293D01*
X122597654Y-125592196D01*
X122535456Y-125706273D01*
X122485288Y-125756504D01*
X122415923Y-125771639D01*
X122350773Y-125747890D01*
X122232426Y-125661906D01*
X122221494Y-125653963D01*
X122221493Y-125653962D01*
X122216152Y-125650082D01*
X122210124Y-125647398D01*
X122210122Y-125647397D01*
X122047719Y-125575091D01*
X122047718Y-125575091D01*
X122041688Y-125572406D01*
X121948287Y-125552553D01*
X121861344Y-125534072D01*
X121861339Y-125534072D01*
X121854887Y-125532700D01*
X121663913Y-125532700D01*
X121657461Y-125534072D01*
X121657456Y-125534072D01*
X121570513Y-125552553D01*
X121477112Y-125572406D01*
X121471082Y-125575091D01*
X121471081Y-125575091D01*
X121308678Y-125647397D01*
X121308676Y-125647398D01*
X121302648Y-125650082D01*
X121297307Y-125653962D01*
X121297306Y-125653963D01*
X121286374Y-125661906D01*
X121148147Y-125762334D01*
X121143726Y-125767244D01*
X121143725Y-125767245D01*
X121122738Y-125790554D01*
X121020360Y-125904256D01*
X121017061Y-125909969D01*
X121017058Y-125909974D01*
X120949122Y-126027643D01*
X120897739Y-126076636D01*
X120840003Y-126090643D01*
X119990074Y-126090643D01*
X119921953Y-126070641D01*
X119875460Y-126016985D01*
X119865356Y-125946711D01*
X119896437Y-125880335D01*
X119974072Y-125794112D01*
X120069559Y-125628724D01*
X120128574Y-125447096D01*
X120131746Y-125416921D01*
X120147846Y-125263733D01*
X120148536Y-125257168D01*
X120128574Y-125067240D01*
X120069559Y-124885612D01*
X119974072Y-124720224D01*
X119846285Y-124578302D01*
X119691784Y-124466050D01*
X119685756Y-124463366D01*
X119685754Y-124463365D01*
X119523351Y-124391059D01*
X119523350Y-124391059D01*
X119517320Y-124388374D01*
X119423920Y-124368521D01*
X119336976Y-124350040D01*
X119336971Y-124350040D01*
X119330519Y-124348668D01*
X119139545Y-124348668D01*
X119133093Y-124350040D01*
X119133088Y-124350040D01*
X119023101Y-124373419D01*
X118952744Y-124388374D01*
X118946711Y-124391060D01*
X118946708Y-124391061D01*
X118936326Y-124395683D01*
X118927911Y-124399430D01*
X118857545Y-124408865D01*
X118793247Y-124378759D01*
X118787567Y-124373419D01*
X116762406Y-122348258D01*
X116728380Y-122285946D01*
X116725501Y-122259163D01*
X116725501Y-120344349D01*
X116745503Y-120276228D01*
X116800252Y-120229242D01*
X116855498Y-120204645D01*
X116873752Y-120196518D01*
X116894814Y-120181216D01*
X116976600Y-120121794D01*
X117028253Y-120084266D01*
X117061985Y-120046803D01*
X117151621Y-119947252D01*
X117151622Y-119947251D01*
X117156040Y-119942344D01*
X117228864Y-119816209D01*
X117248223Y-119782679D01*
X117248224Y-119782678D01*
X117251527Y-119776956D01*
X117310542Y-119595328D01*
X117327250Y-119436365D01*
X117329814Y-119411965D01*
X117330504Y-119405400D01*
X117313751Y-119246006D01*
X117311232Y-119222035D01*
X117311232Y-119222033D01*
X117310542Y-119215472D01*
X117251527Y-119033844D01*
X117156040Y-118868456D01*
X117030728Y-118729283D01*
X117000011Y-118665276D01*
X117008775Y-118594822D01*
X117054238Y-118540291D01*
X117086576Y-118526631D01*
X117086049Y-118525008D01*
X117092333Y-118522966D01*
X117098789Y-118521594D01*
X117105572Y-118518574D01*
X117267223Y-118446603D01*
X117267225Y-118446602D01*
X117273253Y-118443918D01*
X117282167Y-118437442D01*
X117379051Y-118367051D01*
X117427754Y-118331666D01*
X117435835Y-118322691D01*
X117551122Y-118194652D01*
X117551123Y-118194651D01*
X117555541Y-118189744D01*
X117651028Y-118024356D01*
X117710043Y-117842728D01*
X117730005Y-117652800D01*
X117713626Y-117496962D01*
X117710733Y-117469435D01*
X117710733Y-117469433D01*
X117710043Y-117462872D01*
X117651028Y-117281244D01*
X117555541Y-117115856D01*
X117491052Y-117044233D01*
X117432176Y-116978845D01*
X117432175Y-116978844D01*
X117427754Y-116973934D01*
X117325994Y-116900001D01*
X117278595Y-116865563D01*
X117278594Y-116865562D01*
X117273253Y-116861682D01*
X117267225Y-116858998D01*
X117267223Y-116858997D01*
X117104820Y-116786691D01*
X117104819Y-116786691D01*
X117098789Y-116784006D01*
X117005388Y-116764153D01*
X116918445Y-116745672D01*
X116918440Y-116745672D01*
X116911988Y-116744300D01*
X116721014Y-116744300D01*
X116714562Y-116745672D01*
X116714557Y-116745672D01*
X116627614Y-116764153D01*
X116534213Y-116784006D01*
X116528183Y-116786691D01*
X116528182Y-116786691D01*
X116423256Y-116833407D01*
X116372007Y-116844300D01*
X115698014Y-116844300D01*
X115696694Y-116844293D01*
X115695619Y-116844282D01*
X115606579Y-116843349D01*
X115564203Y-116852511D01*
X115551637Y-116854569D01*
X115508545Y-116859403D01*
X115501894Y-116861719D01*
X115501890Y-116861720D01*
X115476870Y-116870433D01*
X115462057Y-116874596D01*
X115429290Y-116881681D01*
X115389987Y-116900008D01*
X115378211Y-116904790D01*
X115337248Y-116919055D01*
X115331273Y-116922789D01*
X115331270Y-116922790D01*
X115308805Y-116936827D01*
X115295288Y-116944166D01*
X115271286Y-116955359D01*
X115264898Y-116958338D01*
X115259333Y-116962655D01*
X115259331Y-116962656D01*
X115230647Y-116984906D01*
X115220188Y-116992202D01*
X115189396Y-117011442D01*
X115189393Y-117011444D01*
X115183424Y-117015174D01*
X115178429Y-117020134D01*
X115178428Y-117020135D01*
X115154621Y-117043776D01*
X115153996Y-117044361D01*
X115153330Y-117044878D01*
X115127340Y-117070868D01*
X115054718Y-117142985D01*
X115054060Y-117144022D01*
X115052957Y-117145251D01*
X115034053Y-117164155D01*
X115034049Y-117164160D01*
X114051884Y-118146324D01*
X113989572Y-118180350D01*
X113936592Y-118180475D01*
X113758753Y-118142673D01*
X113758740Y-118142672D01*
X113752287Y-118141300D01*
X113561313Y-118141300D01*
X113554861Y-118142672D01*
X113554856Y-118142672D01*
X113467912Y-118161153D01*
X113374512Y-118181006D01*
X113368482Y-118183691D01*
X113368481Y-118183691D01*
X113206078Y-118255997D01*
X113206076Y-118255998D01*
X113200048Y-118258682D01*
X113045547Y-118370934D01*
X112917760Y-118512856D01*
X112889791Y-118561300D01*
X112830574Y-118663867D01*
X112822273Y-118678244D01*
X112763258Y-118859872D01*
X112762568Y-118866433D01*
X112762568Y-118866435D01*
X112760991Y-118881444D01*
X112743296Y-119049800D01*
X112743986Y-119056365D01*
X112760709Y-119215472D01*
X112763258Y-119239728D01*
X112822273Y-119421356D01*
X112825576Y-119427078D01*
X112825577Y-119427079D01*
X112838352Y-119449206D01*
X112917760Y-119586744D01*
X112922178Y-119591651D01*
X112922179Y-119591652D01*
X113041125Y-119723755D01*
X113045547Y-119728666D01*
X113129889Y-119789944D01*
X113176950Y-119824136D01*
X113200048Y-119840918D01*
X113206076Y-119843602D01*
X113206078Y-119843603D01*
X113368481Y-119915909D01*
X113374512Y-119918594D01*
X113459360Y-119936629D01*
X113554856Y-119956928D01*
X113554861Y-119956928D01*
X113561313Y-119958300D01*
X113752287Y-119958300D01*
X113758739Y-119956928D01*
X113758744Y-119956928D01*
X113854240Y-119936629D01*
X113939088Y-119918594D01*
X113953468Y-119912192D01*
X114050045Y-119869193D01*
X114101294Y-119858300D01*
X114282586Y-119858300D01*
X114283906Y-119858307D01*
X114374021Y-119859251D01*
X114416397Y-119850089D01*
X114428963Y-119848031D01*
X114448309Y-119845861D01*
X114465059Y-119843982D01*
X114465061Y-119843982D01*
X114471583Y-119843250D01*
X114472056Y-119843197D01*
X114472089Y-119843487D01*
X114539139Y-119847663D01*
X114596364Y-119889686D01*
X114605313Y-119903117D01*
X114627960Y-119942344D01*
X114632378Y-119947251D01*
X114632379Y-119947252D01*
X114722015Y-120046803D01*
X114755747Y-120084266D01*
X114807400Y-120121794D01*
X114889187Y-120181216D01*
X114910248Y-120196518D01*
X114928502Y-120204645D01*
X114983748Y-120229242D01*
X115037844Y-120275222D01*
X115058499Y-120344349D01*
X115058499Y-122701662D01*
X115057421Y-122718105D01*
X115053249Y-122749798D01*
X115058499Y-122789678D01*
X115058499Y-122789683D01*
X115061005Y-122808713D01*
X115071608Y-122889253D01*
X115071608Y-122889255D01*
X115072872Y-122898854D01*
X115074161Y-122908649D01*
X115135475Y-123056674D01*
X115140502Y-123063225D01*
X115140503Y-123063227D01*
X115208519Y-123151867D01*
X115208525Y-123151873D01*
X115233012Y-123183785D01*
X115239567Y-123188815D01*
X115258378Y-123203250D01*
X115270769Y-123214117D01*
X116421088Y-124364436D01*
X116455114Y-124426748D01*
X116450049Y-124497563D01*
X116407502Y-124554399D01*
X116340982Y-124579210D01*
X116319260Y-124578886D01*
X116181066Y-124564848D01*
X116181061Y-124564848D01*
X116174938Y-124564226D01*
X116050875Y-124575954D01*
X115984171Y-124582259D01*
X115984169Y-124582259D01*
X115978038Y-124582839D01*
X115883271Y-124611090D01*
X115794407Y-124637581D01*
X115794405Y-124637582D01*
X115788504Y-124639341D01*
X115613554Y-124731582D01*
X115608768Y-124735458D01*
X115608766Y-124735459D01*
X115541084Y-124790267D01*
X115459853Y-124856047D01*
X115333254Y-125007996D01*
X115238578Y-125181641D01*
X115213637Y-125261229D01*
X115182224Y-125361469D01*
X115179435Y-125370368D01*
X115178770Y-125376491D01*
X115178769Y-125376495D01*
X115158741Y-125560863D01*
X115158076Y-125566988D01*
X115175313Y-125764013D01*
X115177032Y-125769930D01*
X115177033Y-125769935D01*
X115185482Y-125799015D01*
X115230491Y-125953936D01*
X115321508Y-126129526D01*
X115325348Y-126134336D01*
X115415942Y-126247823D01*
X115415949Y-126247830D01*
X115418138Y-126250573D01*
X115420633Y-126253068D01*
X116795084Y-127627518D01*
X116829109Y-127689830D01*
X116831989Y-127716613D01*
X116831989Y-128508859D01*
X116811987Y-128576980D01*
X116758331Y-128623473D01*
X116688057Y-128633577D01*
X116652738Y-128623053D01*
X116631173Y-128612997D01*
X116631171Y-128612996D01*
X116624992Y-128610115D01*
X116618344Y-128608629D01*
X116618341Y-128608628D01*
X116453294Y-128571736D01*
X116453295Y-128571736D01*
X116448257Y-128570610D01*
X116442712Y-128570300D01*
X116309556Y-128570300D01*
X116174763Y-128584943D01*
X116168299Y-128587118D01*
X116168296Y-128587119D01*
X116117180Y-128604322D01*
X116099967Y-128610115D01*
X116098989Y-128610444D01*
X116028047Y-128613214D01*
X115966868Y-128577191D01*
X115934877Y-128513810D01*
X115932800Y-128491025D01*
X115932800Y-128277143D01*
X115932499Y-128270995D01*
X115918988Y-128133197D01*
X115916605Y-128121162D01*
X115863033Y-127943724D01*
X115858359Y-127932384D01*
X115771340Y-127768723D01*
X115764551Y-127758506D01*
X115647403Y-127614867D01*
X115638759Y-127606163D01*
X115495944Y-127488016D01*
X115485773Y-127481156D01*
X115322724Y-127392996D01*
X115311419Y-127388244D01*
X115196108Y-127352550D01*
X115182005Y-127352344D01*
X115178800Y-127359099D01*
X115178800Y-130381724D01*
X115182773Y-130395255D01*
X115190568Y-130396375D01*
X115298321Y-130364662D01*
X115309689Y-130360069D01*
X115473954Y-130274193D01*
X115484215Y-130267479D01*
X115628673Y-130151332D01*
X115637432Y-130142754D01*
X115681800Y-130089879D01*
X115740910Y-130050552D01*
X115811898Y-130049426D01*
X115854848Y-130070772D01*
X115920478Y-130120950D01*
X116001041Y-130158517D01*
X116078431Y-130194605D01*
X116078434Y-130194606D01*
X116084608Y-130197485D01*
X116091256Y-130198971D01*
X116091259Y-130198972D01*
X116191503Y-130221379D01*
X116261343Y-130236990D01*
X116266888Y-130237300D01*
X116400044Y-130237300D01*
X116534837Y-130222657D01*
X116634124Y-130189243D01*
X116700005Y-130167072D01*
X116700010Y-130167070D01*
X116706475Y-130164894D01*
X116712326Y-130161378D01*
X116718518Y-130158517D01*
X116719234Y-130160067D01*
X116779562Y-130144308D01*
X116847051Y-130166350D01*
X116891909Y-130221379D01*
X116896770Y-130235098D01*
X116899580Y-130244769D01*
X116902033Y-130249501D01*
X116903573Y-130254602D01*
X116906467Y-130260045D01*
X116947220Y-130336693D01*
X116947832Y-130337859D01*
X116986885Y-130413198D01*
X116990597Y-130420359D01*
X116993920Y-130424522D01*
X116996423Y-130429229D01*
X117055244Y-130501351D01*
X117055935Y-130502207D01*
X117087227Y-130541406D01*
X117089731Y-130543910D01*
X117090373Y-130544628D01*
X117094074Y-130548961D01*
X117121424Y-130582495D01*
X117126171Y-130586422D01*
X117126173Y-130586424D01*
X117156751Y-130611720D01*
X117165531Y-130619710D01*
X118711005Y-132165184D01*
X118720107Y-132175327D01*
X118743824Y-132204825D01*
X118782302Y-132237112D01*
X118785918Y-132240267D01*
X118787744Y-132241923D01*
X118789930Y-132244109D01*
X118792310Y-132246064D01*
X118792320Y-132246073D01*
X118823124Y-132271376D01*
X118824139Y-132272218D01*
X118840029Y-132285551D01*
X118895330Y-132331954D01*
X118900004Y-132334523D01*
X118904117Y-132337902D01*
X118909554Y-132340817D01*
X118909555Y-132340818D01*
X118985903Y-132381755D01*
X118987033Y-132382368D01*
X119068643Y-132427233D01*
X119073725Y-132428845D01*
X119078419Y-132431362D01*
X119167387Y-132458562D01*
X119168415Y-132458882D01*
X119257162Y-132487035D01*
X119262458Y-132487629D01*
X119267554Y-132489187D01*
X119360078Y-132498585D01*
X119361198Y-132498705D01*
X119394520Y-132502442D01*
X119407586Y-132503908D01*
X119407590Y-132503908D01*
X119411083Y-132504300D01*
X119414610Y-132504300D01*
X119415613Y-132504356D01*
X119421297Y-132504803D01*
X119446713Y-132507385D01*
X119458192Y-132508551D01*
X119458194Y-132508551D01*
X119464318Y-132509173D01*
X119509957Y-132504859D01*
X119521813Y-132504300D01*
X122437498Y-132504300D01*
X122505619Y-132524302D01*
X122552112Y-132577958D01*
X122562713Y-132644345D01*
X122557193Y-132693561D01*
X122556800Y-132700585D01*
X122556800Y-132781685D01*
X122561275Y-132796924D01*
X122562665Y-132798129D01*
X122570348Y-132799800D01*
X124554685Y-132799800D01*
X124569924Y-132795325D01*
X124571129Y-132793935D01*
X124572800Y-132786252D01*
X124572800Y-132707143D01*
X124572499Y-132700995D01*
X124558988Y-132563197D01*
X124556605Y-132551162D01*
X124503033Y-132373724D01*
X124498356Y-132362376D01*
X124455726Y-132282201D01*
X124441406Y-132212664D01*
X124466954Y-132146423D01*
X124477882Y-132133953D01*
X125195631Y-131416204D01*
X131586741Y-131416204D01*
X131612891Y-131715092D01*
X131613801Y-131719164D01*
X131613802Y-131719169D01*
X131677428Y-132003816D01*
X131678340Y-132007895D01*
X131781940Y-132289471D01*
X131783884Y-132293159D01*
X131783888Y-132293167D01*
X131895472Y-132504805D01*
X131921869Y-132554871D01*
X132095671Y-132799433D01*
X132300290Y-133018861D01*
X132532133Y-133209298D01*
X132787125Y-133367400D01*
X133060788Y-133490389D01*
X133079694Y-133496025D01*
X133344314Y-133574912D01*
X133344316Y-133574912D01*
X133348313Y-133576104D01*
X133352433Y-133576757D01*
X133352435Y-133576757D01*
X133471309Y-133595585D01*
X133644648Y-133623039D01*
X133687377Y-133624979D01*
X133737062Y-133627236D01*
X133737081Y-133627236D01*
X133738481Y-133627300D01*
X133925907Y-133627300D01*
X134149170Y-133612471D01*
X134153264Y-133611646D01*
X134153268Y-133611645D01*
X134294313Y-133583205D01*
X134443280Y-133553168D01*
X134726963Y-133455488D01*
X134730696Y-133453619D01*
X134730700Y-133453617D01*
X134991491Y-133323022D01*
X134991493Y-133323021D01*
X134995235Y-133321147D01*
X135243384Y-133152506D01*
X135467048Y-132952526D01*
X135557107Y-132847453D01*
X135659579Y-132727897D01*
X135659582Y-132727893D01*
X135662299Y-132724723D01*
X135664573Y-132721221D01*
X135664577Y-132721216D01*
X135823428Y-132476607D01*
X135823431Y-132476602D01*
X135825707Y-132473097D01*
X135832445Y-132458908D01*
X135921491Y-132271376D01*
X135954400Y-132202070D01*
X135962987Y-132175327D01*
X136044838Y-131920391D01*
X136044838Y-131920390D01*
X136046118Y-131916404D01*
X136067804Y-131795876D01*
X136098509Y-131625225D01*
X136098510Y-131625220D01*
X136099248Y-131621116D01*
X136112859Y-131321396D01*
X136086709Y-131022508D01*
X136042632Y-130825315D01*
X136022172Y-130733784D01*
X136022171Y-130733781D01*
X136021260Y-130729705D01*
X135917660Y-130448129D01*
X135915716Y-130444441D01*
X135915712Y-130444433D01*
X135779684Y-130186433D01*
X135779683Y-130186432D01*
X135777731Y-130182729D01*
X135603929Y-129938167D01*
X135399310Y-129718739D01*
X135167467Y-129528302D01*
X134912475Y-129370200D01*
X134883100Y-129356998D01*
X134720633Y-129283983D01*
X134638812Y-129247211D01*
X134407769Y-129178334D01*
X134355286Y-129162688D01*
X134355284Y-129162688D01*
X134351287Y-129161496D01*
X134347167Y-129160843D01*
X134347165Y-129160843D01*
X134190015Y-129135953D01*
X134054952Y-129114561D01*
X134012223Y-129112621D01*
X133962538Y-129110364D01*
X133962519Y-129110364D01*
X133961119Y-129110300D01*
X133773693Y-129110300D01*
X133550430Y-129125129D01*
X133546336Y-129125954D01*
X133546332Y-129125955D01*
X133447343Y-129145915D01*
X133256320Y-129184432D01*
X132972637Y-129282112D01*
X132968904Y-129283981D01*
X132968900Y-129283983D01*
X132746327Y-129395440D01*
X132704365Y-129416453D01*
X132456216Y-129585094D01*
X132232552Y-129785074D01*
X132229835Y-129788244D01*
X132229834Y-129788245D01*
X132043416Y-130005743D01*
X132037301Y-130012877D01*
X132035027Y-130016379D01*
X132035023Y-130016384D01*
X131877087Y-130259584D01*
X131873893Y-130264503D01*
X131872099Y-130268282D01*
X131872098Y-130268283D01*
X131828515Y-130360069D01*
X131745200Y-130535530D01*
X131743921Y-130539513D01*
X131743920Y-130539516D01*
X131684117Y-130725780D01*
X131653482Y-130821196D01*
X131600352Y-131116484D01*
X131586741Y-131416204D01*
X125195631Y-131416204D01*
X126010179Y-130601655D01*
X126020322Y-130592553D01*
X126045018Y-130572697D01*
X126049825Y-130568832D01*
X126082092Y-130530378D01*
X126085273Y-130526730D01*
X126086917Y-130524917D01*
X126089109Y-130522725D01*
X126116380Y-130489524D01*
X126117162Y-130488582D01*
X126121888Y-130482951D01*
X126167312Y-130428817D01*
X126172993Y-130422047D01*
X126172995Y-130422044D01*
X126176954Y-130417326D01*
X126179523Y-130412653D01*
X126182903Y-130408538D01*
X126190026Y-130395255D01*
X126226828Y-130326620D01*
X126227457Y-130325462D01*
X126269265Y-130249412D01*
X126269265Y-130249411D01*
X126272233Y-130244013D01*
X126273844Y-130238935D01*
X126276363Y-130234237D01*
X126303553Y-130145302D01*
X126303936Y-130144072D01*
X126312585Y-130116809D01*
X126332035Y-130055494D01*
X126332628Y-130050203D01*
X126334188Y-130045102D01*
X126343595Y-129952489D01*
X126343715Y-129951369D01*
X126349300Y-129901573D01*
X126349300Y-129898044D01*
X126349355Y-129897061D01*
X126349804Y-129891356D01*
X126353552Y-129854464D01*
X126353552Y-129854461D01*
X126354174Y-129848337D01*
X126349859Y-129802688D01*
X126349300Y-129790831D01*
X126349300Y-129393417D01*
X126369302Y-129325296D01*
X126422958Y-129278803D01*
X126493232Y-129268699D01*
X126501497Y-129270170D01*
X126661256Y-129304128D01*
X126661261Y-129304128D01*
X126667713Y-129305500D01*
X126858687Y-129305500D01*
X126865139Y-129304128D01*
X126865144Y-129304128D01*
X126968718Y-129282112D01*
X127045488Y-129265794D01*
X127051519Y-129263109D01*
X127213922Y-129190803D01*
X127213924Y-129190802D01*
X127219952Y-129188118D01*
X127233419Y-129178334D01*
X127305512Y-129125955D01*
X127374453Y-129075866D01*
X127408185Y-129038403D01*
X127497821Y-128938852D01*
X127497822Y-128938851D01*
X127502240Y-128933944D01*
X127587395Y-128786452D01*
X127594423Y-128774279D01*
X127594424Y-128774278D01*
X127597727Y-128768556D01*
X127656742Y-128586928D01*
X127657766Y-128577191D01*
X127676014Y-128403565D01*
X127676704Y-128397000D01*
X127664107Y-128277143D01*
X127657432Y-128213635D01*
X127657432Y-128213633D01*
X127656742Y-128207072D01*
X127597727Y-128025444D01*
X127502240Y-127860056D01*
X127420004Y-127768723D01*
X127378875Y-127723045D01*
X127378874Y-127723044D01*
X127374453Y-127718134D01*
X127257344Y-127633049D01*
X127225294Y-127609763D01*
X127225293Y-127609762D01*
X127219952Y-127605882D01*
X127213924Y-127603198D01*
X127213922Y-127603197D01*
X127065051Y-127536916D01*
X127010955Y-127490936D01*
X126990300Y-127421809D01*
X126990300Y-118116934D01*
X130060300Y-118116934D01*
X130067055Y-118179116D01*
X130118185Y-118315505D01*
X130205539Y-118432061D01*
X130322095Y-118519415D01*
X130458484Y-118570545D01*
X130520666Y-118577300D01*
X133216934Y-118577300D01*
X133279116Y-118570545D01*
X133415505Y-118519415D01*
X133532061Y-118432061D01*
X133619415Y-118315505D01*
X133670545Y-118179116D01*
X133677300Y-118116934D01*
X133677300Y-115420666D01*
X133670545Y-115358484D01*
X133619415Y-115222095D01*
X133532061Y-115105539D01*
X133415505Y-115018185D01*
X133279116Y-114967055D01*
X133216934Y-114960300D01*
X130520666Y-114960300D01*
X130458484Y-114967055D01*
X130322095Y-115018185D01*
X130205539Y-115105539D01*
X130118185Y-115222095D01*
X130067055Y-115358484D01*
X130060300Y-115420666D01*
X130060300Y-118116934D01*
X126990300Y-118116934D01*
X126990300Y-113133706D01*
X130788639Y-113133706D01*
X130797353Y-113145227D01*
X130904252Y-113223609D01*
X130912151Y-113228545D01*
X131141705Y-113349319D01*
X131150254Y-113353036D01*
X131395127Y-113438549D01*
X131404136Y-113440963D01*
X131658966Y-113489344D01*
X131668223Y-113490398D01*
X131927407Y-113500583D01*
X131936721Y-113500257D01*
X132194553Y-113472020D01*
X132203730Y-113470319D01*
X132454558Y-113404281D01*
X132463374Y-113401245D01*
X132701680Y-113298862D01*
X132709967Y-113294548D01*
X132930518Y-113158066D01*
X132938068Y-113152580D01*
X132943359Y-113148101D01*
X132951797Y-113135297D01*
X132945735Y-113124945D01*
X131881612Y-112060822D01*
X131867668Y-112053208D01*
X131865835Y-112053339D01*
X131859220Y-112057590D01*
X130795297Y-113121513D01*
X130788639Y-113133706D01*
X126990300Y-113133706D01*
X126990300Y-111646011D01*
X130056575Y-111646011D01*
X130069020Y-111905088D01*
X130070156Y-111914343D01*
X130120761Y-112168745D01*
X130123249Y-112177717D01*
X130210895Y-112421833D01*
X130214695Y-112430368D01*
X130337458Y-112658842D01*
X130342466Y-112666704D01*
X130412520Y-112760516D01*
X130423779Y-112768965D01*
X130436197Y-112762193D01*
X131496778Y-111701612D01*
X131503156Y-111689932D01*
X132233208Y-111689932D01*
X132233339Y-111691765D01*
X132237590Y-111698380D01*
X133304894Y-112765684D01*
X133317274Y-112772444D01*
X133325615Y-112766200D01*
X133459632Y-112557848D01*
X133464075Y-112549664D01*
X133570607Y-112313170D01*
X133573797Y-112304405D01*
X133644202Y-112054772D01*
X133646062Y-112045630D01*
X133678987Y-111786819D01*
X133679468Y-111780533D01*
X133681787Y-111691960D01*
X133681636Y-111685651D01*
X133662301Y-111425463D01*
X133660925Y-111416257D01*
X133603678Y-111163267D01*
X133600954Y-111154356D01*
X133506943Y-110912606D01*
X133502932Y-110904197D01*
X133374222Y-110679002D01*
X133369011Y-110671276D01*
X133325796Y-110616458D01*
X133313871Y-110607987D01*
X133302337Y-110614473D01*
X132240822Y-111675988D01*
X132233208Y-111689932D01*
X131503156Y-111689932D01*
X131504392Y-111687668D01*
X131504261Y-111685835D01*
X131500010Y-111679220D01*
X130434616Y-110613826D01*
X130421307Y-110606558D01*
X130411272Y-110613678D01*
X130395737Y-110632356D01*
X130390331Y-110639935D01*
X130255765Y-110861691D01*
X130251536Y-110869992D01*
X130151232Y-111109189D01*
X130148271Y-111118039D01*
X130084428Y-111369425D01*
X130082806Y-111378622D01*
X130056820Y-111636685D01*
X130056575Y-111646011D01*
X126990300Y-111646011D01*
X126990300Y-110241489D01*
X130785902Y-110241489D01*
X130790475Y-110251265D01*
X131855988Y-111316778D01*
X131869932Y-111324392D01*
X131871765Y-111324261D01*
X131878380Y-111320010D01*
X132943149Y-110255241D01*
X132949533Y-110243551D01*
X132940121Y-110231441D01*
X132792845Y-110129271D01*
X132784810Y-110124538D01*
X132552176Y-110009816D01*
X132543543Y-110006328D01*
X132296503Y-109927250D01*
X132287443Y-109925074D01*
X132031430Y-109883380D01*
X132022143Y-109882568D01*
X131762792Y-109879173D01*
X131753481Y-109879743D01*
X131496482Y-109914719D01*
X131487346Y-109916660D01*
X131238343Y-109989239D01*
X131229600Y-109992507D01*
X130994052Y-110101096D01*
X130985897Y-110105616D01*
X130795040Y-110230747D01*
X130785902Y-110241489D01*
X126990300Y-110241489D01*
X126990300Y-106559934D01*
X130060300Y-106559934D01*
X130067055Y-106622116D01*
X130118185Y-106758505D01*
X130205539Y-106875061D01*
X130322095Y-106962415D01*
X130458484Y-107013545D01*
X130520666Y-107020300D01*
X133216934Y-107020300D01*
X133279116Y-107013545D01*
X133415505Y-106962415D01*
X133532061Y-106875061D01*
X133619415Y-106758505D01*
X133670545Y-106622116D01*
X133677300Y-106559934D01*
X133677300Y-103863666D01*
X133670545Y-103801484D01*
X133619415Y-103665095D01*
X133532061Y-103548539D01*
X133415505Y-103461185D01*
X133279116Y-103410055D01*
X133216934Y-103403300D01*
X130520666Y-103403300D01*
X130458484Y-103410055D01*
X130322095Y-103461185D01*
X130205539Y-103548539D01*
X130118185Y-103665095D01*
X130067055Y-103801484D01*
X130060300Y-103863666D01*
X130060300Y-106559934D01*
X126990300Y-106559934D01*
X126990300Y-104630974D01*
X126990827Y-104619791D01*
X126992502Y-104612298D01*
X126992203Y-104602765D01*
X126990362Y-104544208D01*
X126990300Y-104540250D01*
X126990300Y-104512351D01*
X126989796Y-104508360D01*
X126988863Y-104496518D01*
X126987723Y-104460243D01*
X126987474Y-104452318D01*
X126985262Y-104444704D01*
X126985261Y-104444699D01*
X126981823Y-104432866D01*
X126977812Y-104413502D01*
X126976267Y-104401271D01*
X126975274Y-104393410D01*
X126972357Y-104386043D01*
X126972356Y-104386038D01*
X126958998Y-104352299D01*
X126955154Y-104341072D01*
X126945030Y-104306229D01*
X126942818Y-104298614D01*
X126932507Y-104281179D01*
X126923812Y-104263431D01*
X126916352Y-104244590D01*
X126890364Y-104208820D01*
X126883848Y-104198900D01*
X126865380Y-104167672D01*
X126865378Y-104167669D01*
X126861342Y-104160845D01*
X126847021Y-104146524D01*
X126834180Y-104131490D01*
X126826931Y-104121513D01*
X126822272Y-104115100D01*
X126788195Y-104086909D01*
X126779416Y-104078919D01*
X122912405Y-100211907D01*
X122878379Y-100149595D01*
X122875500Y-100122812D01*
X122875500Y-100084326D01*
X130055850Y-100084326D01*
X130056074Y-100088992D01*
X130056074Y-100088997D01*
X130060785Y-100187074D01*
X130068747Y-100352819D01*
X130121188Y-100616456D01*
X130212020Y-100869446D01*
X130339250Y-101106231D01*
X130342041Y-101109968D01*
X130342045Y-101109975D01*
X130409355Y-101200113D01*
X130500081Y-101321610D01*
X130503390Y-101324890D01*
X130503395Y-101324896D01*
X130687663Y-101507562D01*
X130690980Y-101510850D01*
X130694742Y-101513608D01*
X130694745Y-101513611D01*
X130738208Y-101545479D01*
X130907754Y-101669795D01*
X130911889Y-101671971D01*
X130911893Y-101671973D01*
X131129406Y-101786413D01*
X131145640Y-101794954D01*
X131399413Y-101883575D01*
X131404006Y-101884447D01*
X131658909Y-101932842D01*
X131658912Y-101932842D01*
X131663498Y-101933713D01*
X131791170Y-101938729D01*
X131927425Y-101944083D01*
X131927430Y-101944083D01*
X131932093Y-101944266D01*
X132036407Y-101932842D01*
X132194644Y-101915513D01*
X132194650Y-101915512D01*
X132199297Y-101915003D01*
X132203821Y-101913812D01*
X132454718Y-101847756D01*
X132454720Y-101847755D01*
X132459241Y-101846565D01*
X132463538Y-101844719D01*
X132701920Y-101742302D01*
X132701922Y-101742301D01*
X132706214Y-101740457D01*
X132824871Y-101667030D01*
X132930817Y-101601469D01*
X132930821Y-101601466D01*
X132934790Y-101599010D01*
X133139949Y-101425330D01*
X133317182Y-101223234D01*
X133341187Y-101185915D01*
X133460069Y-101001091D01*
X133462597Y-100997161D01*
X133572999Y-100752078D01*
X133603808Y-100642838D01*
X133644693Y-100497872D01*
X133644694Y-100497869D01*
X133645963Y-100493368D01*
X133663843Y-100352819D01*
X133679488Y-100229845D01*
X133679488Y-100229841D01*
X133679886Y-100226715D01*
X133680587Y-100199963D01*
X133682288Y-100134960D01*
X133682371Y-100131800D01*
X133662450Y-99863737D01*
X133644921Y-99786269D01*
X133604161Y-99606131D01*
X133604160Y-99606126D01*
X133603127Y-99601563D01*
X133505702Y-99351038D01*
X133372318Y-99117664D01*
X133205905Y-98906569D01*
X133010117Y-98722391D01*
X132789257Y-98569174D01*
X132785064Y-98567106D01*
X132552364Y-98452351D01*
X132552361Y-98452350D01*
X132548176Y-98450286D01*
X132500545Y-98435039D01*
X132446421Y-98417714D01*
X132292170Y-98368338D01*
X132287563Y-98367588D01*
X132287560Y-98367587D01*
X132031474Y-98325881D01*
X132031475Y-98325881D01*
X132026863Y-98325130D01*
X131896519Y-98323424D01*
X131762761Y-98321673D01*
X131762758Y-98321673D01*
X131758084Y-98321612D01*
X131491737Y-98357860D01*
X131233674Y-98433078D01*
X130989563Y-98545615D01*
X130985654Y-98548178D01*
X130768681Y-98690431D01*
X130768676Y-98690435D01*
X130764768Y-98692997D01*
X130564226Y-98871988D01*
X130392344Y-99078654D01*
X130252896Y-99308456D01*
X130251087Y-99312770D01*
X130251085Y-99312774D01*
X130189249Y-99460238D01*
X130148948Y-99556345D01*
X130082781Y-99816877D01*
X130055850Y-100084326D01*
X122875500Y-100084326D01*
X122875500Y-96496706D01*
X130788639Y-96496706D01*
X130797353Y-96508227D01*
X130904252Y-96586609D01*
X130912151Y-96591545D01*
X131141705Y-96712319D01*
X131150254Y-96716036D01*
X131395127Y-96801549D01*
X131404136Y-96803963D01*
X131658966Y-96852344D01*
X131668223Y-96853398D01*
X131927407Y-96863583D01*
X131936721Y-96863257D01*
X132194553Y-96835020D01*
X132203730Y-96833319D01*
X132454558Y-96767281D01*
X132463374Y-96764245D01*
X132701680Y-96661862D01*
X132709967Y-96657548D01*
X132930518Y-96521066D01*
X132938068Y-96515580D01*
X132943359Y-96511101D01*
X132951797Y-96498297D01*
X132945735Y-96487945D01*
X131881612Y-95423822D01*
X131867668Y-95416208D01*
X131865835Y-95416339D01*
X131859220Y-95420590D01*
X130795297Y-96484513D01*
X130788639Y-96496706D01*
X122875500Y-96496706D01*
X122875500Y-95009011D01*
X130056575Y-95009011D01*
X130069020Y-95268088D01*
X130070156Y-95277343D01*
X130120761Y-95531745D01*
X130123249Y-95540717D01*
X130210895Y-95784833D01*
X130214695Y-95793368D01*
X130337458Y-96021842D01*
X130342466Y-96029704D01*
X130412520Y-96123516D01*
X130423779Y-96131965D01*
X130436197Y-96125193D01*
X131496778Y-95064612D01*
X131503156Y-95052932D01*
X132233208Y-95052932D01*
X132233339Y-95054765D01*
X132237590Y-95061380D01*
X133304894Y-96128684D01*
X133317274Y-96135444D01*
X133325615Y-96129200D01*
X133459632Y-95920848D01*
X133464075Y-95912664D01*
X133570607Y-95676170D01*
X133573797Y-95667405D01*
X133644202Y-95417772D01*
X133646062Y-95408630D01*
X133678987Y-95149819D01*
X133679468Y-95143533D01*
X133681787Y-95054960D01*
X133681636Y-95048651D01*
X133662301Y-94788463D01*
X133660925Y-94779257D01*
X133603678Y-94526267D01*
X133600954Y-94517356D01*
X133506943Y-94275606D01*
X133502932Y-94267197D01*
X133374222Y-94042002D01*
X133369011Y-94034276D01*
X133325796Y-93979458D01*
X133313871Y-93970987D01*
X133302337Y-93977473D01*
X132240822Y-95038988D01*
X132233208Y-95052932D01*
X131503156Y-95052932D01*
X131504392Y-95050668D01*
X131504261Y-95048835D01*
X131500010Y-95042220D01*
X130434616Y-93976826D01*
X130421307Y-93969558D01*
X130411272Y-93976678D01*
X130395737Y-93995356D01*
X130390331Y-94002935D01*
X130255765Y-94224691D01*
X130251536Y-94232992D01*
X130151232Y-94472189D01*
X130148271Y-94481039D01*
X130084428Y-94732425D01*
X130082806Y-94741622D01*
X130056820Y-94999685D01*
X130056575Y-95009011D01*
X122875500Y-95009011D01*
X122875500Y-93604489D01*
X130785902Y-93604489D01*
X130790475Y-93614265D01*
X131855988Y-94679778D01*
X131869932Y-94687392D01*
X131871765Y-94687261D01*
X131878380Y-94683010D01*
X132943149Y-93618241D01*
X132949533Y-93606551D01*
X132940121Y-93594441D01*
X132792845Y-93492271D01*
X132784810Y-93487538D01*
X132552176Y-93372816D01*
X132543543Y-93369328D01*
X132296503Y-93290250D01*
X132287443Y-93288074D01*
X132031430Y-93246380D01*
X132022143Y-93245568D01*
X131762792Y-93242173D01*
X131753481Y-93242743D01*
X131496482Y-93277719D01*
X131487346Y-93279660D01*
X131238343Y-93352239D01*
X131229600Y-93355507D01*
X130994052Y-93464096D01*
X130985897Y-93468616D01*
X130795040Y-93593747D01*
X130785902Y-93604489D01*
X122875500Y-93604489D01*
X122875500Y-84741893D01*
X122899563Y-84667834D01*
X122900426Y-84666646D01*
X122904840Y-84661744D01*
X122908581Y-84655266D01*
X122997023Y-84502079D01*
X122997024Y-84502078D01*
X123000327Y-84496356D01*
X123059342Y-84314728D01*
X123062702Y-84282765D01*
X123078614Y-84131365D01*
X123079304Y-84124800D01*
X123063015Y-83969819D01*
X123060032Y-83941435D01*
X123060032Y-83941433D01*
X123059342Y-83934872D01*
X123000327Y-83753244D01*
X122970352Y-83701326D01*
X130131850Y-83701326D01*
X130132074Y-83705992D01*
X130132074Y-83705997D01*
X130134646Y-83759529D01*
X130144747Y-83969819D01*
X130197188Y-84233456D01*
X130288020Y-84486446D01*
X130290232Y-84490562D01*
X130290233Y-84490565D01*
X130349844Y-84601505D01*
X130415250Y-84723231D01*
X130418041Y-84726968D01*
X130418045Y-84726975D01*
X130499687Y-84836306D01*
X130576081Y-84938610D01*
X130579390Y-84941890D01*
X130579395Y-84941896D01*
X130737328Y-85098456D01*
X130766980Y-85127850D01*
X130770742Y-85130608D01*
X130770745Y-85130611D01*
X130847780Y-85187095D01*
X130983754Y-85286795D01*
X130987889Y-85288971D01*
X130987893Y-85288973D01*
X131217046Y-85409537D01*
X131221640Y-85411954D01*
X131475413Y-85500575D01*
X131480006Y-85501447D01*
X131734909Y-85549842D01*
X131734912Y-85549842D01*
X131739498Y-85550713D01*
X131867170Y-85555729D01*
X132003425Y-85561083D01*
X132003430Y-85561083D01*
X132008093Y-85561266D01*
X132112407Y-85549842D01*
X132270644Y-85532513D01*
X132270650Y-85532512D01*
X132275297Y-85532003D01*
X132279821Y-85530812D01*
X132530718Y-85464756D01*
X132530720Y-85464755D01*
X132535241Y-85463565D01*
X132551869Y-85456421D01*
X132777920Y-85359302D01*
X132777922Y-85359301D01*
X132782214Y-85357457D01*
X132901488Y-85283648D01*
X133006817Y-85218469D01*
X133006821Y-85218466D01*
X133010790Y-85216010D01*
X133215949Y-85042330D01*
X133393182Y-84840234D01*
X133421649Y-84795978D01*
X133536069Y-84618091D01*
X133538597Y-84614161D01*
X133648999Y-84369078D01*
X133670001Y-84294612D01*
X133720693Y-84114872D01*
X133720694Y-84114869D01*
X133721963Y-84110368D01*
X133740045Y-83968234D01*
X133755488Y-83846845D01*
X133755488Y-83846841D01*
X133755886Y-83843715D01*
X133758371Y-83748800D01*
X133738450Y-83480737D01*
X133731717Y-83450981D01*
X133680161Y-83223131D01*
X133680160Y-83223126D01*
X133679127Y-83218563D01*
X133581702Y-82968038D01*
X133448318Y-82734664D01*
X133441688Y-82726253D01*
X133382216Y-82650814D01*
X133281905Y-82523569D01*
X133086117Y-82339391D01*
X132865257Y-82186174D01*
X132861064Y-82184106D01*
X132628364Y-82069351D01*
X132628361Y-82069350D01*
X132624176Y-82067286D01*
X132576545Y-82052039D01*
X132405105Y-81997161D01*
X132368170Y-81985338D01*
X132363563Y-81984588D01*
X132363560Y-81984587D01*
X132107474Y-81942881D01*
X132107475Y-81942881D01*
X132102863Y-81942130D01*
X131972519Y-81940424D01*
X131838761Y-81938673D01*
X131838758Y-81938673D01*
X131834084Y-81938612D01*
X131567737Y-81974860D01*
X131309674Y-82050078D01*
X131065563Y-82162615D01*
X131061654Y-82165178D01*
X130844681Y-82307431D01*
X130844676Y-82307435D01*
X130840768Y-82309997D01*
X130640226Y-82488988D01*
X130468344Y-82695654D01*
X130328896Y-82925456D01*
X130327087Y-82929770D01*
X130327085Y-82929774D01*
X130256085Y-83099092D01*
X130224948Y-83173345D01*
X130158781Y-83433877D01*
X130131850Y-83701326D01*
X122970352Y-83701326D01*
X122904840Y-83587856D01*
X122894512Y-83576385D01*
X122781475Y-83450845D01*
X122781474Y-83450844D01*
X122777053Y-83445934D01*
X122669020Y-83367443D01*
X122627894Y-83337563D01*
X122627893Y-83337562D01*
X122622552Y-83333682D01*
X122616524Y-83330998D01*
X122616522Y-83330997D01*
X122454119Y-83258691D01*
X122454118Y-83258691D01*
X122448088Y-83256006D01*
X122341223Y-83233291D01*
X122267744Y-83217672D01*
X122267739Y-83217672D01*
X122261287Y-83216300D01*
X122070313Y-83216300D01*
X122063861Y-83217672D01*
X122063856Y-83217672D01*
X121990377Y-83233291D01*
X121883512Y-83256006D01*
X121877485Y-83258689D01*
X121877477Y-83258692D01*
X121717880Y-83329749D01*
X121647513Y-83339183D01*
X121592573Y-83316580D01*
X121581152Y-83308282D01*
X121575124Y-83305598D01*
X121575122Y-83305597D01*
X121412719Y-83233291D01*
X121412718Y-83233291D01*
X121406688Y-83230606D01*
X121313288Y-83210753D01*
X121226344Y-83192272D01*
X121226339Y-83192272D01*
X121219887Y-83190900D01*
X121028913Y-83190900D01*
X121022461Y-83192272D01*
X121022456Y-83192272D01*
X120935512Y-83210753D01*
X120842112Y-83230606D01*
X120836082Y-83233291D01*
X120836081Y-83233291D01*
X120673678Y-83305597D01*
X120673676Y-83305598D01*
X120667648Y-83308282D01*
X120662307Y-83312162D01*
X120662306Y-83312163D01*
X120633452Y-83333127D01*
X120513147Y-83420534D01*
X120508726Y-83425444D01*
X120508725Y-83425445D01*
X120428289Y-83514779D01*
X120385360Y-83562456D01*
X120370339Y-83588473D01*
X120296640Y-83716124D01*
X120289873Y-83727844D01*
X120230858Y-83909472D01*
X120230168Y-83916033D01*
X120230168Y-83916035D01*
X120225790Y-83957690D01*
X120210896Y-84099400D01*
X120211586Y-84105965D01*
X120227073Y-84253312D01*
X120230858Y-84289328D01*
X120289873Y-84470956D01*
X120293176Y-84476678D01*
X120293177Y-84476679D01*
X120318957Y-84521331D01*
X120385360Y-84636344D01*
X120458537Y-84717615D01*
X120489253Y-84781621D01*
X120490900Y-84801924D01*
X120490900Y-95316405D01*
X120470898Y-95384526D01*
X120453995Y-95405500D01*
X117546100Y-98313395D01*
X117483788Y-98347421D01*
X117457005Y-98350300D01*
X111953282Y-98350300D01*
X111885161Y-98330298D01*
X111838668Y-98276642D01*
X111828564Y-98206368D01*
X111858058Y-98141788D01*
X111864187Y-98135205D01*
X114236910Y-95762481D01*
X114237847Y-95761553D01*
X114297274Y-95703358D01*
X114297275Y-95703356D01*
X114302307Y-95698429D01*
X114306122Y-95692509D01*
X114306127Y-95692503D01*
X114325794Y-95661986D01*
X114333227Y-95651641D01*
X114360276Y-95617757D01*
X114374873Y-95587562D01*
X114382402Y-95574145D01*
X114396748Y-95551884D01*
X114400565Y-95545962D01*
X114402973Y-95539345D01*
X114402976Y-95539340D01*
X114415392Y-95505227D01*
X114420353Y-95493484D01*
X114436153Y-95460800D01*
X114436156Y-95460791D01*
X114439221Y-95454451D01*
X114446766Y-95421772D01*
X114451134Y-95407025D01*
X114462603Y-95375515D01*
X114463485Y-95368530D01*
X114463487Y-95368523D01*
X114468037Y-95332508D01*
X114470272Y-95319957D01*
X114478440Y-95284578D01*
X114480025Y-95277715D01*
X114480054Y-95269553D01*
X114480167Y-95237126D01*
X114480196Y-95236257D01*
X114480300Y-95235431D01*
X114480300Y-95198914D01*
X114480658Y-95096330D01*
X114480389Y-95095127D01*
X114480300Y-95093483D01*
X114480300Y-91829091D01*
X114500302Y-91760970D01*
X114553958Y-91714477D01*
X114592692Y-91703828D01*
X114604886Y-91702503D01*
X114632116Y-91699545D01*
X114768505Y-91648415D01*
X114885061Y-91561061D01*
X114972415Y-91444505D01*
X115008630Y-91347902D01*
X115016398Y-91327182D01*
X115059040Y-91270418D01*
X115125602Y-91245718D01*
X115194950Y-91260926D01*
X115229617Y-91288914D01*
X115258050Y-91321738D01*
X115429926Y-91464432D01*
X115622800Y-91577138D01*
X115627625Y-91578980D01*
X115627626Y-91578981D01*
X115700412Y-91606775D01*
X115831492Y-91656830D01*
X115836560Y-91657861D01*
X115836563Y-91657862D01*
X115943817Y-91679683D01*
X116050397Y-91701367D01*
X116055572Y-91701557D01*
X116055574Y-91701557D01*
X116268473Y-91709364D01*
X116268477Y-91709364D01*
X116273637Y-91709553D01*
X116278757Y-91708897D01*
X116278759Y-91708897D01*
X116490088Y-91681825D01*
X116490089Y-91681825D01*
X116495216Y-91681168D01*
X116538894Y-91668064D01*
X116704229Y-91618461D01*
X116704234Y-91618459D01*
X116709184Y-91616974D01*
X116909794Y-91518696D01*
X117091660Y-91388973D01*
X117249896Y-91231289D01*
X117283563Y-91184437D01*
X117380253Y-91049877D01*
X117381576Y-91050828D01*
X117428445Y-91007657D01*
X117498380Y-90995425D01*
X117563826Y-91022944D01*
X117591675Y-91054794D01*
X117651787Y-91152888D01*
X117798050Y-91321738D01*
X117969926Y-91464432D01*
X118162800Y-91577138D01*
X118167625Y-91578980D01*
X118167626Y-91578981D01*
X118240412Y-91606775D01*
X118371492Y-91656830D01*
X118376560Y-91657861D01*
X118376563Y-91657862D01*
X118483817Y-91679683D01*
X118590397Y-91701367D01*
X118595572Y-91701557D01*
X118595574Y-91701557D01*
X118808473Y-91709364D01*
X118808477Y-91709364D01*
X118813637Y-91709553D01*
X118818757Y-91708897D01*
X118818759Y-91708897D01*
X119030088Y-91681825D01*
X119030089Y-91681825D01*
X119035216Y-91681168D01*
X119078894Y-91668064D01*
X119244229Y-91618461D01*
X119244234Y-91618459D01*
X119249184Y-91616974D01*
X119449794Y-91518696D01*
X119631660Y-91388973D01*
X119789896Y-91231289D01*
X119823563Y-91184437D01*
X119917235Y-91054077D01*
X119920253Y-91049877D01*
X119941120Y-91007657D01*
X120016936Y-90854253D01*
X120016937Y-90854251D01*
X120019230Y-90849611D01*
X120084170Y-90635869D01*
X120113329Y-90414390D01*
X120114956Y-90347800D01*
X120096652Y-90125161D01*
X120042231Y-89908502D01*
X119953154Y-89703640D01*
X119858028Y-89556597D01*
X119834622Y-89520417D01*
X119834620Y-89520414D01*
X119831814Y-89516077D01*
X119681470Y-89350851D01*
X119677419Y-89347652D01*
X119677415Y-89347648D01*
X119510214Y-89215600D01*
X119510210Y-89215598D01*
X119506159Y-89212398D01*
X119310589Y-89104438D01*
X119305720Y-89102714D01*
X119305716Y-89102712D01*
X119104887Y-89031595D01*
X119104883Y-89031594D01*
X119100012Y-89029869D01*
X119094919Y-89028962D01*
X119094916Y-89028961D01*
X118885173Y-88991600D01*
X118885167Y-88991599D01*
X118880084Y-88990694D01*
X118806252Y-88989792D01*
X118661881Y-88988028D01*
X118661879Y-88988028D01*
X118656711Y-88987965D01*
X118435891Y-89021755D01*
X118223556Y-89091157D01*
X118025407Y-89194307D01*
X118021274Y-89197410D01*
X118021271Y-89197412D01*
X117850900Y-89325330D01*
X117846765Y-89328435D01*
X117692429Y-89489938D01*
X117585001Y-89647421D01*
X117530093Y-89692421D01*
X117459568Y-89700592D01*
X117395821Y-89669338D01*
X117375124Y-89644854D01*
X117294625Y-89520421D01*
X117294620Y-89520415D01*
X117291814Y-89516077D01*
X117288332Y-89512250D01*
X117253106Y-89473537D01*
X117222054Y-89409691D01*
X117220300Y-89388738D01*
X117220300Y-89207561D01*
X117221037Y-89193954D01*
X117224459Y-89162456D01*
X117224459Y-89162451D01*
X117225124Y-89156330D01*
X117220750Y-89106328D01*
X117220421Y-89101503D01*
X117220300Y-89099032D01*
X117220300Y-89095950D01*
X117216109Y-89053208D01*
X117215987Y-89051893D01*
X117210627Y-88990631D01*
X117207887Y-88959306D01*
X117206400Y-88954187D01*
X117205880Y-88948886D01*
X117179018Y-88859913D01*
X117178662Y-88858713D01*
X117152709Y-88769382D01*
X117150255Y-88764648D01*
X117148716Y-88759550D01*
X117105116Y-88677550D01*
X117104502Y-88676382D01*
X117064526Y-88599260D01*
X117064525Y-88599259D01*
X117061692Y-88593793D01*
X117058369Y-88589630D01*
X117055866Y-88584923D01*
X116997045Y-88512801D01*
X116996354Y-88511945D01*
X116965062Y-88472746D01*
X116962558Y-88470242D01*
X116961916Y-88469524D01*
X116958215Y-88465191D01*
X116930865Y-88431657D01*
X116895536Y-88402431D01*
X116886755Y-88394440D01*
X116360736Y-87868421D01*
X116351634Y-87858277D01*
X116330266Y-87831700D01*
X116303170Y-87766077D01*
X116315854Y-87696223D01*
X116364291Y-87644315D01*
X116412452Y-87627770D01*
X116451144Y-87622814D01*
X116490089Y-87617825D01*
X116490092Y-87617824D01*
X116495216Y-87617168D01*
X116500166Y-87615683D01*
X116704229Y-87554461D01*
X116704234Y-87554459D01*
X116709184Y-87552974D01*
X116909794Y-87454696D01*
X117091660Y-87324973D01*
X117249896Y-87167289D01*
X117348671Y-87029829D01*
X117380253Y-86985877D01*
X117381576Y-86986828D01*
X117428445Y-86943657D01*
X117498380Y-86931425D01*
X117563826Y-86958944D01*
X117591675Y-86990794D01*
X117651787Y-87088888D01*
X117798050Y-87257738D01*
X117969926Y-87400432D01*
X118162800Y-87513138D01*
X118371492Y-87592830D01*
X118376560Y-87593861D01*
X118376563Y-87593862D01*
X118410380Y-87600742D01*
X118590397Y-87637367D01*
X118595572Y-87637557D01*
X118595574Y-87637557D01*
X118808473Y-87645364D01*
X118808477Y-87645364D01*
X118813637Y-87645553D01*
X118818757Y-87644897D01*
X118818759Y-87644897D01*
X119030088Y-87617825D01*
X119030089Y-87617825D01*
X119035216Y-87617168D01*
X119040166Y-87615683D01*
X119244229Y-87554461D01*
X119244234Y-87554459D01*
X119249184Y-87552974D01*
X119449794Y-87454696D01*
X119631660Y-87324973D01*
X119789896Y-87167289D01*
X119920253Y-86985877D01*
X119941120Y-86943657D01*
X120016936Y-86790253D01*
X120016937Y-86790251D01*
X120019230Y-86785611D01*
X120084170Y-86571869D01*
X120113329Y-86350390D01*
X120114956Y-86283800D01*
X120096652Y-86061161D01*
X120042231Y-85844502D01*
X119953154Y-85639640D01*
X119895061Y-85549842D01*
X119834622Y-85456417D01*
X119834620Y-85456414D01*
X119831814Y-85452077D01*
X119681470Y-85286851D01*
X119677419Y-85283652D01*
X119677415Y-85283648D01*
X119510214Y-85151600D01*
X119510210Y-85151598D01*
X119506159Y-85148398D01*
X119310589Y-85040438D01*
X119305720Y-85038714D01*
X119305716Y-85038712D01*
X119104887Y-84967595D01*
X119104883Y-84967594D01*
X119100012Y-84965869D01*
X119094919Y-84964962D01*
X119094916Y-84964961D01*
X118885173Y-84927600D01*
X118885167Y-84927599D01*
X118880084Y-84926694D01*
X118806252Y-84925792D01*
X118661881Y-84924028D01*
X118661879Y-84924028D01*
X118656711Y-84923965D01*
X118435891Y-84957755D01*
X118223556Y-85027157D01*
X118025407Y-85130307D01*
X118021274Y-85133410D01*
X118021271Y-85133412D01*
X117911261Y-85216010D01*
X117846765Y-85264435D01*
X117692429Y-85425938D01*
X117585001Y-85583421D01*
X117530093Y-85628421D01*
X117459568Y-85636592D01*
X117395821Y-85605338D01*
X117375124Y-85580854D01*
X117294625Y-85456421D01*
X117294620Y-85456415D01*
X117291814Y-85452077D01*
X117288028Y-85447916D01*
X117253106Y-85409537D01*
X117222054Y-85345691D01*
X117220300Y-85324738D01*
X117220300Y-85143561D01*
X117221037Y-85129954D01*
X117224459Y-85098456D01*
X117224459Y-85098451D01*
X117225124Y-85092330D01*
X117220750Y-85042328D01*
X117220421Y-85037503D01*
X117220300Y-85035032D01*
X117220300Y-85031950D01*
X117216109Y-84989208D01*
X117215987Y-84987893D01*
X117210511Y-84925300D01*
X117207887Y-84895306D01*
X117206400Y-84890187D01*
X117205880Y-84884886D01*
X117179018Y-84795913D01*
X117178662Y-84794713D01*
X117152709Y-84705382D01*
X117150255Y-84700648D01*
X117148716Y-84695550D01*
X117105116Y-84613550D01*
X117104502Y-84612382D01*
X117064526Y-84535260D01*
X117064525Y-84535259D01*
X117061692Y-84529793D01*
X117058369Y-84525630D01*
X117055866Y-84520923D01*
X116997045Y-84448801D01*
X116996354Y-84447945D01*
X116965062Y-84408746D01*
X116962558Y-84406242D01*
X116961916Y-84405524D01*
X116958215Y-84401191D01*
X116930865Y-84367657D01*
X116895533Y-84338428D01*
X116886763Y-84330447D01*
X116334752Y-83778436D01*
X116300727Y-83716124D01*
X116305791Y-83645309D01*
X116348338Y-83588473D01*
X116407836Y-83564362D01*
X116490090Y-83553825D01*
X116490094Y-83553824D01*
X116495216Y-83553168D01*
X116500166Y-83551683D01*
X116704229Y-83490461D01*
X116704234Y-83490459D01*
X116709184Y-83488974D01*
X116909794Y-83390696D01*
X117091660Y-83260973D01*
X117096645Y-83256006D01*
X117246235Y-83106937D01*
X117249896Y-83103289D01*
X117343955Y-82972392D01*
X117380253Y-82921877D01*
X117381576Y-82922828D01*
X117428445Y-82879657D01*
X117498380Y-82867425D01*
X117563826Y-82894944D01*
X117591675Y-82926794D01*
X117651787Y-83024888D01*
X117798050Y-83193738D01*
X117876288Y-83258692D01*
X117963380Y-83330997D01*
X117969926Y-83336432D01*
X118162800Y-83449138D01*
X118371492Y-83528830D01*
X118376560Y-83529861D01*
X118376563Y-83529862D01*
X118483817Y-83551683D01*
X118590397Y-83573367D01*
X118595572Y-83573557D01*
X118595574Y-83573557D01*
X118808473Y-83581364D01*
X118808477Y-83581364D01*
X118813637Y-83581553D01*
X118818757Y-83580897D01*
X118818759Y-83580897D01*
X119030088Y-83553825D01*
X119030089Y-83553825D01*
X119035216Y-83553168D01*
X119040166Y-83551683D01*
X119244229Y-83490461D01*
X119244234Y-83490459D01*
X119249184Y-83488974D01*
X119449794Y-83390696D01*
X119631660Y-83260973D01*
X119636645Y-83256006D01*
X119786235Y-83106937D01*
X119789896Y-83103289D01*
X119883955Y-82972392D01*
X119917235Y-82926077D01*
X119920253Y-82921877D01*
X119941120Y-82879657D01*
X120016936Y-82726253D01*
X120016937Y-82726251D01*
X120019230Y-82721611D01*
X120084170Y-82507869D01*
X120113329Y-82286390D01*
X120114956Y-82219800D01*
X120096652Y-81997161D01*
X120042231Y-81780502D01*
X119953154Y-81575640D01*
X119915697Y-81517740D01*
X119895490Y-81449680D01*
X119915286Y-81381499D01*
X119968802Y-81334845D01*
X120021489Y-81323300D01*
X125913957Y-81323300D01*
X125927564Y-81324037D01*
X125959062Y-81327459D01*
X125959067Y-81327459D01*
X125965188Y-81328124D01*
X125991438Y-81325827D01*
X126015188Y-81323750D01*
X126020014Y-81323421D01*
X126022486Y-81323300D01*
X126025569Y-81323300D01*
X126037538Y-81322126D01*
X126068306Y-81319110D01*
X126069619Y-81318988D01*
X126113884Y-81315115D01*
X126162213Y-81310887D01*
X126167332Y-81309400D01*
X126172633Y-81308880D01*
X126261634Y-81282009D01*
X126262767Y-81281674D01*
X126346214Y-81257430D01*
X126346218Y-81257428D01*
X126352136Y-81255709D01*
X126356868Y-81253256D01*
X126361969Y-81251716D01*
X126380162Y-81242043D01*
X126444060Y-81208069D01*
X126445226Y-81207457D01*
X126522253Y-81167529D01*
X126527726Y-81164692D01*
X126531889Y-81161369D01*
X126536596Y-81158866D01*
X126608718Y-81100045D01*
X126609574Y-81099354D01*
X126648773Y-81068062D01*
X126651277Y-81065558D01*
X126651995Y-81064916D01*
X126656328Y-81061215D01*
X126689862Y-81033865D01*
X126694506Y-81028252D01*
X126719087Y-80998538D01*
X126727077Y-80989758D01*
X127603129Y-80113706D01*
X130864639Y-80113706D01*
X130873353Y-80125227D01*
X130980252Y-80203609D01*
X130988151Y-80208545D01*
X131217705Y-80329319D01*
X131226254Y-80333036D01*
X131471127Y-80418549D01*
X131480136Y-80420963D01*
X131734966Y-80469344D01*
X131744223Y-80470398D01*
X132003407Y-80480583D01*
X132012721Y-80480257D01*
X132270553Y-80452020D01*
X132279730Y-80450319D01*
X132530558Y-80384281D01*
X132539374Y-80381245D01*
X132777680Y-80278862D01*
X132785967Y-80274548D01*
X133006518Y-80138066D01*
X133014068Y-80132580D01*
X133019359Y-80128101D01*
X133027797Y-80115297D01*
X133021735Y-80104945D01*
X131957612Y-79040822D01*
X131943668Y-79033208D01*
X131941835Y-79033339D01*
X131935220Y-79037590D01*
X130871297Y-80101513D01*
X130864639Y-80113706D01*
X127603129Y-80113706D01*
X130343216Y-77373619D01*
X130405528Y-77339593D01*
X130476343Y-77344658D01*
X130533179Y-77387205D01*
X130557990Y-77453725D01*
X130542899Y-77523099D01*
X130529185Y-77543284D01*
X130471736Y-77612358D01*
X130466329Y-77619938D01*
X130331765Y-77841691D01*
X130327536Y-77849992D01*
X130227232Y-78089189D01*
X130224271Y-78098039D01*
X130160428Y-78349425D01*
X130158806Y-78358622D01*
X130132820Y-78616685D01*
X130132575Y-78626011D01*
X130145020Y-78885088D01*
X130146156Y-78894343D01*
X130196761Y-79148745D01*
X130199249Y-79157717D01*
X130286895Y-79401833D01*
X130290695Y-79410368D01*
X130413458Y-79638842D01*
X130418466Y-79646704D01*
X130488520Y-79740516D01*
X130499779Y-79748965D01*
X130512197Y-79742193D01*
X131584458Y-78669932D01*
X132309208Y-78669932D01*
X132309339Y-78671765D01*
X132313590Y-78678380D01*
X133380894Y-79745684D01*
X133393274Y-79752444D01*
X133401615Y-79746200D01*
X133535632Y-79537848D01*
X133540075Y-79529664D01*
X133646607Y-79293170D01*
X133649797Y-79284405D01*
X133720202Y-79034772D01*
X133722062Y-79025630D01*
X133754987Y-78766819D01*
X133755468Y-78760533D01*
X133757787Y-78671960D01*
X133757636Y-78665651D01*
X133738301Y-78405463D01*
X133736925Y-78396257D01*
X133679678Y-78143267D01*
X133676954Y-78134356D01*
X133582943Y-77892606D01*
X133578932Y-77884197D01*
X133450222Y-77659002D01*
X133445011Y-77651276D01*
X133401796Y-77596458D01*
X133389871Y-77587987D01*
X133378337Y-77594473D01*
X132316822Y-78655988D01*
X132309208Y-78669932D01*
X131584458Y-78669932D01*
X133019149Y-77235241D01*
X133025533Y-77223551D01*
X133016121Y-77211441D01*
X132868845Y-77109271D01*
X132860810Y-77104538D01*
X132628176Y-76989816D01*
X132619543Y-76986328D01*
X132372503Y-76907250D01*
X132363443Y-76905074D01*
X132107430Y-76863380D01*
X132098143Y-76862568D01*
X131838792Y-76859173D01*
X131829481Y-76859743D01*
X131572482Y-76894719D01*
X131563346Y-76896660D01*
X131314343Y-76969239D01*
X131305600Y-76972507D01*
X131070052Y-77081096D01*
X131061897Y-77085616D01*
X130844987Y-77227829D01*
X130840159Y-77231534D01*
X130773940Y-77257138D01*
X130704390Y-77242878D01*
X130653591Y-77193279D01*
X130637672Y-77124091D01*
X130661685Y-77057279D01*
X130674354Y-77042481D01*
X132106179Y-75610655D01*
X132116322Y-75601553D01*
X132141018Y-75581697D01*
X132145825Y-75577832D01*
X132178120Y-75539344D01*
X132181278Y-75535725D01*
X132182924Y-75533910D01*
X132185109Y-75531725D01*
X132187064Y-75529345D01*
X132187073Y-75529335D01*
X132212349Y-75498564D01*
X132213191Y-75497549D01*
X132268994Y-75431045D01*
X132272954Y-75426326D01*
X132275523Y-75421652D01*
X132278902Y-75417539D01*
X132322775Y-75335715D01*
X132323384Y-75334593D01*
X132343051Y-75298820D01*
X132368233Y-75253013D01*
X132369845Y-75247931D01*
X132372362Y-75243237D01*
X132399562Y-75154269D01*
X132399908Y-75153158D01*
X132426173Y-75070363D01*
X132428035Y-75064494D01*
X132428629Y-75059198D01*
X132430187Y-75054102D01*
X132439590Y-74961543D01*
X132439711Y-74960407D01*
X132445300Y-74910573D01*
X132445300Y-74907046D01*
X132445355Y-74906061D01*
X132445802Y-74900381D01*
X132450174Y-74857338D01*
X132445859Y-74811691D01*
X132445300Y-74799833D01*
X132445300Y-73872000D01*
X132465302Y-73803879D01*
X132518958Y-73757386D01*
X132589232Y-73747282D01*
X132637416Y-73764740D01*
X132650843Y-73773016D01*
X132664024Y-73779163D01*
X132818310Y-73830338D01*
X132831686Y-73833205D01*
X132926038Y-73842872D01*
X132932454Y-73843200D01*
X133332485Y-73843200D01*
X133347724Y-73838725D01*
X133348929Y-73837335D01*
X133350600Y-73829652D01*
X133350600Y-73825084D01*
X133858600Y-73825084D01*
X133863075Y-73840323D01*
X133864465Y-73841528D01*
X133872148Y-73843199D01*
X134276695Y-73843199D01*
X134283214Y-73842862D01*
X134378806Y-73832943D01*
X134392200Y-73830051D01*
X134546384Y-73778612D01*
X134559562Y-73772439D01*
X134697407Y-73687137D01*
X134708808Y-73678101D01*
X134823339Y-73563371D01*
X134832351Y-73551960D01*
X134917416Y-73413957D01*
X134923563Y-73400776D01*
X134974738Y-73246490D01*
X134977605Y-73233114D01*
X134987272Y-73138762D01*
X134987600Y-73132346D01*
X134987600Y-73007315D01*
X134983125Y-72992076D01*
X134981735Y-72990871D01*
X134974052Y-72989200D01*
X133876715Y-72989200D01*
X133861476Y-72993675D01*
X133860271Y-72995065D01*
X133858600Y-73002748D01*
X133858600Y-73825084D01*
X133350600Y-73825084D01*
X133350600Y-72607200D01*
X133370602Y-72539079D01*
X133424258Y-72492586D01*
X133476600Y-72481200D01*
X134969484Y-72481200D01*
X134984723Y-72476725D01*
X134985928Y-72475335D01*
X134987599Y-72467652D01*
X134987599Y-72338105D01*
X134987262Y-72331586D01*
X134977343Y-72235994D01*
X134974451Y-72222600D01*
X134923012Y-72068416D01*
X134916839Y-72055238D01*
X134831537Y-71917393D01*
X134822501Y-71905992D01*
X134707771Y-71791461D01*
X134696360Y-71782449D01*
X134650945Y-71754455D01*
X134603452Y-71701683D01*
X134592028Y-71631611D01*
X134620302Y-71566487D01*
X134639225Y-71548112D01*
X134647520Y-71541596D01*
X134651452Y-71537065D01*
X134651455Y-71537062D01*
X134782221Y-71386367D01*
X134786152Y-71381837D01*
X134789152Y-71376651D01*
X134789155Y-71376647D01*
X134889067Y-71203942D01*
X134892073Y-71198746D01*
X134961461Y-70998929D01*
X134963335Y-70986006D01*
X134990952Y-70795536D01*
X134990952Y-70795533D01*
X134991813Y-70789596D01*
X134982033Y-70578301D01*
X134938292Y-70396801D01*
X134933881Y-70378499D01*
X134933880Y-70378497D01*
X134932475Y-70372666D01*
X134928763Y-70364500D01*
X134847406Y-70185568D01*
X134844926Y-70180113D01*
X134722546Y-70007589D01*
X134592056Y-69882672D01*
X134574080Y-69865464D01*
X134569750Y-69861319D01*
X134553343Y-69850725D01*
X134537437Y-69840454D01*
X134491060Y-69786699D01*
X134481107Y-69716403D01*
X134510739Y-69651886D01*
X134527953Y-69635517D01*
X134535046Y-69629946D01*
X134647520Y-69541596D01*
X134651452Y-69537065D01*
X134651455Y-69537062D01*
X134782221Y-69386367D01*
X134786152Y-69381837D01*
X134789152Y-69376651D01*
X134789155Y-69376647D01*
X134889067Y-69203942D01*
X134892073Y-69198746D01*
X134961461Y-68998929D01*
X134981242Y-68862505D01*
X134990952Y-68795536D01*
X134990952Y-68795533D01*
X134991813Y-68789596D01*
X134982033Y-68578301D01*
X134932475Y-68372666D01*
X134926113Y-68358672D01*
X134847406Y-68185568D01*
X134844926Y-68180113D01*
X134722546Y-68007589D01*
X134569750Y-67861319D01*
X134563855Y-67857512D01*
X134537437Y-67840454D01*
X134491060Y-67786699D01*
X134481107Y-67716403D01*
X134510739Y-67651886D01*
X134527953Y-67635517D01*
X134533858Y-67630879D01*
X134647520Y-67541596D01*
X134651452Y-67537065D01*
X134651455Y-67537062D01*
X134776810Y-67392603D01*
X134786152Y-67381837D01*
X134789152Y-67376651D01*
X134789155Y-67376647D01*
X134889067Y-67203942D01*
X134892073Y-67198746D01*
X134961461Y-66998929D01*
X134979964Y-66871318D01*
X134990952Y-66795536D01*
X134990952Y-66795533D01*
X134991813Y-66789596D01*
X134982033Y-66578301D01*
X134932475Y-66372666D01*
X134929079Y-66365195D01*
X134848233Y-66187387D01*
X134844926Y-66180113D01*
X134722546Y-66007589D01*
X134569750Y-65861319D01*
X134563855Y-65857512D01*
X134537437Y-65840454D01*
X134491060Y-65786699D01*
X134481107Y-65716403D01*
X134510739Y-65651886D01*
X134527953Y-65635517D01*
X134535046Y-65629946D01*
X134647520Y-65541596D01*
X134651452Y-65537065D01*
X134651455Y-65537062D01*
X134782221Y-65386367D01*
X134786152Y-65381837D01*
X134789152Y-65376651D01*
X134789155Y-65376647D01*
X134889067Y-65203942D01*
X134892073Y-65198746D01*
X134961461Y-64998929D01*
X134972676Y-64921581D01*
X134990952Y-64795536D01*
X134990952Y-64795533D01*
X134991813Y-64789596D01*
X134982033Y-64578301D01*
X134936219Y-64388201D01*
X134933881Y-64378499D01*
X134933880Y-64378497D01*
X134932475Y-64372666D01*
X134929238Y-64365545D01*
X134847406Y-64185568D01*
X134844926Y-64180113D01*
X134722546Y-64007589D01*
X134569750Y-63861319D01*
X134563855Y-63857512D01*
X134537437Y-63840454D01*
X134491060Y-63786699D01*
X134481107Y-63716403D01*
X134510739Y-63651886D01*
X134527953Y-63635517D01*
X134584112Y-63591404D01*
X134647520Y-63541596D01*
X134651452Y-63537065D01*
X134651455Y-63537062D01*
X134782221Y-63386367D01*
X134786152Y-63381837D01*
X134867753Y-63240785D01*
X134893587Y-63212115D01*
X134892314Y-63210760D01*
X134898097Y-63205330D01*
X134904507Y-63200672D01*
X134932688Y-63166607D01*
X134940678Y-63157826D01*
X135563058Y-62535447D01*
X135571337Y-62527913D01*
X135577818Y-62523800D01*
X135624444Y-62474148D01*
X135627198Y-62471307D01*
X135646935Y-62451570D01*
X135649415Y-62448373D01*
X135657120Y-62439351D01*
X135687386Y-62407121D01*
X135691205Y-62400175D01*
X135691207Y-62400172D01*
X135697148Y-62389366D01*
X135707999Y-62372847D01*
X135715558Y-62363101D01*
X135720414Y-62356841D01*
X135723559Y-62349572D01*
X135723562Y-62349568D01*
X135737974Y-62316263D01*
X135743191Y-62305613D01*
X135764495Y-62266860D01*
X135769533Y-62247237D01*
X135775937Y-62228534D01*
X135780833Y-62217220D01*
X135780833Y-62217219D01*
X135783981Y-62209945D01*
X135785220Y-62202122D01*
X135785223Y-62202112D01*
X135790899Y-62166276D01*
X135793305Y-62154656D01*
X135802328Y-62119511D01*
X135802328Y-62119510D01*
X135804300Y-62111830D01*
X135804300Y-62091576D01*
X135805851Y-62071865D01*
X135807780Y-62059686D01*
X135809020Y-62051857D01*
X135804859Y-62007838D01*
X135804300Y-61995981D01*
X135804300Y-58300568D01*
X135804827Y-58289385D01*
X135806502Y-58281892D01*
X135804362Y-58213801D01*
X135804300Y-58209844D01*
X135804300Y-58181944D01*
X135803796Y-58177953D01*
X135802863Y-58166111D01*
X135801723Y-58129836D01*
X135801474Y-58121911D01*
X135795821Y-58102452D01*
X135791812Y-58083093D01*
X135791304Y-58079071D01*
X135789274Y-58063003D01*
X135786358Y-58055637D01*
X135786356Y-58055631D01*
X135773000Y-58021898D01*
X135769155Y-58010668D01*
X135759030Y-57975817D01*
X135759030Y-57975816D01*
X135756819Y-57968207D01*
X135746505Y-57950766D01*
X135737808Y-57933013D01*
X135733272Y-57921558D01*
X135730352Y-57914183D01*
X135704363Y-57878412D01*
X135697847Y-57868492D01*
X135679378Y-57837263D01*
X135675342Y-57830438D01*
X135661021Y-57816117D01*
X135648180Y-57801083D01*
X135640932Y-57791107D01*
X135636272Y-57784693D01*
X135602207Y-57756512D01*
X135593426Y-57748522D01*
X135039447Y-57194542D01*
X135031913Y-57186263D01*
X135027800Y-57179782D01*
X134978148Y-57133156D01*
X134975307Y-57130402D01*
X134955570Y-57110665D01*
X134952373Y-57108185D01*
X134943351Y-57100480D01*
X134916900Y-57075641D01*
X134911121Y-57070214D01*
X134904175Y-57066395D01*
X134904172Y-57066393D01*
X134893366Y-57060452D01*
X134876847Y-57049601D01*
X134876383Y-57049241D01*
X134860841Y-57037186D01*
X134853572Y-57034041D01*
X134853568Y-57034038D01*
X134820263Y-57019626D01*
X134809613Y-57014409D01*
X134770860Y-56993105D01*
X134751237Y-56988067D01*
X134732534Y-56981663D01*
X134721220Y-56976767D01*
X134721219Y-56976767D01*
X134713945Y-56973619D01*
X134706122Y-56972380D01*
X134706112Y-56972377D01*
X134670276Y-56966701D01*
X134658656Y-56964295D01*
X134623511Y-56955272D01*
X134623510Y-56955272D01*
X134615830Y-56953300D01*
X134595576Y-56953300D01*
X134575865Y-56951749D01*
X134563686Y-56949820D01*
X134555857Y-56948580D01*
X134547965Y-56949326D01*
X134511839Y-56952741D01*
X134499981Y-56953300D01*
X130630634Y-56953300D01*
X130556574Y-56929237D01*
X130552893Y-56926562D01*
X130552890Y-56926560D01*
X130547552Y-56922682D01*
X130541524Y-56919998D01*
X130541522Y-56919997D01*
X130379119Y-56847691D01*
X130379118Y-56847691D01*
X130373088Y-56845006D01*
X130279687Y-56825153D01*
X130192744Y-56806672D01*
X130192739Y-56806672D01*
X130186287Y-56805300D01*
X129995313Y-56805300D01*
X129988861Y-56806672D01*
X129988856Y-56806672D01*
X129901913Y-56825153D01*
X129808512Y-56845006D01*
X129802482Y-56847691D01*
X129802481Y-56847691D01*
X129640078Y-56919997D01*
X129640076Y-56919998D01*
X129634048Y-56922682D01*
X129628707Y-56926562D01*
X129628706Y-56926563D01*
X129591906Y-56953300D01*
X129479547Y-57034934D01*
X129475126Y-57039844D01*
X129475125Y-57039845D01*
X129411359Y-57110665D01*
X129351760Y-57176856D01*
X129256273Y-57342244D01*
X129197258Y-57523872D01*
X129177296Y-57713800D01*
X129177986Y-57720365D01*
X129194093Y-57873610D01*
X129197258Y-57903728D01*
X129256273Y-58085356D01*
X129259576Y-58091078D01*
X129259577Y-58091079D01*
X129266143Y-58102452D01*
X129351760Y-58250744D01*
X129356178Y-58255651D01*
X129356179Y-58255652D01*
X129390670Y-58293958D01*
X129479547Y-58392666D01*
X129634048Y-58504918D01*
X129640076Y-58507602D01*
X129640078Y-58507603D01*
X129802481Y-58579909D01*
X129808512Y-58582594D01*
X129901913Y-58602447D01*
X129988856Y-58620928D01*
X129988861Y-58620928D01*
X129995313Y-58622300D01*
X130186287Y-58622300D01*
X130192739Y-58620928D01*
X130192744Y-58620928D01*
X130279687Y-58602447D01*
X130373088Y-58582594D01*
X130379119Y-58579909D01*
X130541522Y-58507603D01*
X130541524Y-58507602D01*
X130547552Y-58504918D01*
X130702053Y-58392666D01*
X130819714Y-58261990D01*
X130880160Y-58224750D01*
X130913350Y-58220300D01*
X131249206Y-58220300D01*
X131317327Y-58240302D01*
X131363820Y-58293958D01*
X131373924Y-58364232D01*
X131344430Y-58428812D01*
X131338301Y-58435395D01*
X129563665Y-60210030D01*
X129563662Y-60210033D01*
X129012542Y-60761152D01*
X129004262Y-60768687D01*
X128997782Y-60772800D01*
X128987662Y-60783577D01*
X128951157Y-60822451D01*
X128948402Y-60825293D01*
X128928665Y-60845030D01*
X128926185Y-60848227D01*
X128918482Y-60857247D01*
X128888214Y-60889479D01*
X128884395Y-60896425D01*
X128884393Y-60896428D01*
X128878452Y-60907234D01*
X128867601Y-60923753D01*
X128855186Y-60939759D01*
X128852041Y-60947028D01*
X128852038Y-60947032D01*
X128837626Y-60980337D01*
X128832409Y-60990987D01*
X128811105Y-61029740D01*
X128809134Y-61037415D01*
X128809134Y-61037416D01*
X128806067Y-61049362D01*
X128799663Y-61068066D01*
X128791619Y-61086655D01*
X128790380Y-61094478D01*
X128790377Y-61094488D01*
X128784701Y-61130324D01*
X128782295Y-61141944D01*
X128773272Y-61177089D01*
X128771300Y-61184770D01*
X128771300Y-61205024D01*
X128769749Y-61224734D01*
X128766580Y-61244743D01*
X128767326Y-61252635D01*
X128770741Y-61288761D01*
X128771300Y-61300619D01*
X128771300Y-64626276D01*
X128751298Y-64694397D01*
X128738942Y-64710579D01*
X128665760Y-64791856D01*
X128632460Y-64849533D01*
X128585176Y-64931432D01*
X128570273Y-64957244D01*
X128511258Y-65138872D01*
X128510568Y-65145433D01*
X128510568Y-65145435D01*
X128497224Y-65272399D01*
X128491296Y-65328800D01*
X128511258Y-65518728D01*
X128570273Y-65700356D01*
X128573576Y-65706078D01*
X128573577Y-65706079D01*
X128579538Y-65716403D01*
X128665760Y-65865744D01*
X128670178Y-65870651D01*
X128670179Y-65870652D01*
X128722539Y-65928804D01*
X128793547Y-66007666D01*
X128948048Y-66119918D01*
X128954074Y-66122601D01*
X128954081Y-66122605D01*
X129099586Y-66187387D01*
X129153682Y-66233367D01*
X129174332Y-66301294D01*
X129168171Y-66341430D01*
X129158022Y-66372666D01*
X129146258Y-66408872D01*
X129145568Y-66415433D01*
X129145568Y-66415435D01*
X129127821Y-66584291D01*
X129126296Y-66598800D01*
X129126986Y-66605365D01*
X129142640Y-66754300D01*
X129146258Y-66788728D01*
X129205273Y-66970356D01*
X129300760Y-67135744D01*
X129428547Y-67277666D01*
X129583048Y-67389918D01*
X129589076Y-67392602D01*
X129589078Y-67392603D01*
X129751481Y-67464909D01*
X129757512Y-67467594D01*
X129835703Y-67484214D01*
X129937856Y-67505928D01*
X129937861Y-67505928D01*
X129944313Y-67507300D01*
X130135287Y-67507300D01*
X130141739Y-67505928D01*
X130141744Y-67505928D01*
X130243897Y-67484214D01*
X130322088Y-67467594D01*
X130328119Y-67464909D01*
X130490522Y-67392603D01*
X130490524Y-67392602D01*
X130496552Y-67389918D01*
X130651053Y-67277666D01*
X130778840Y-67135744D01*
X130874327Y-66970356D01*
X130933342Y-66788728D01*
X130936961Y-66754300D01*
X130952614Y-66605365D01*
X130953304Y-66598800D01*
X130951779Y-66584291D01*
X130934032Y-66415435D01*
X130934032Y-66415433D01*
X130933342Y-66408872D01*
X130874327Y-66227244D01*
X130778840Y-66061856D01*
X130705663Y-65980585D01*
X130674947Y-65916579D01*
X130673300Y-65896276D01*
X130673300Y-63941394D01*
X130693302Y-63873273D01*
X130746958Y-63826780D01*
X130817232Y-63816676D01*
X130881812Y-63846170D01*
X130888395Y-63852299D01*
X132163543Y-65127447D01*
X132171087Y-65135737D01*
X132175200Y-65142218D01*
X132180977Y-65147643D01*
X132224867Y-65188858D01*
X132227709Y-65191613D01*
X132247430Y-65211334D01*
X132250625Y-65213812D01*
X132259647Y-65221518D01*
X132291879Y-65251786D01*
X132298828Y-65255606D01*
X132309632Y-65261546D01*
X132326156Y-65272399D01*
X132342159Y-65284813D01*
X132349180Y-65287851D01*
X132387686Y-65323291D01*
X132486654Y-65462811D01*
X132639450Y-65609081D01*
X132644488Y-65612334D01*
X132671763Y-65629946D01*
X132718140Y-65683701D01*
X132728093Y-65753997D01*
X132698461Y-65818514D01*
X132681249Y-65834881D01*
X132561680Y-65928804D01*
X132557748Y-65933335D01*
X132557745Y-65933338D01*
X132450478Y-66056953D01*
X132423048Y-66088563D01*
X132420048Y-66093749D01*
X132420045Y-66093753D01*
X132349032Y-66216504D01*
X132317127Y-66271654D01*
X132247739Y-66471471D01*
X132246878Y-66477406D01*
X132246878Y-66477408D01*
X132218330Y-66674302D01*
X132217387Y-66680804D01*
X132227167Y-66892099D01*
X132228571Y-66897924D01*
X132228571Y-66897925D01*
X132251948Y-66994923D01*
X132276725Y-67097734D01*
X132279207Y-67103192D01*
X132279208Y-67103196D01*
X132322653Y-67198746D01*
X132364274Y-67290287D01*
X132486654Y-67462811D01*
X132639450Y-67609081D01*
X132644488Y-67612334D01*
X132671763Y-67629946D01*
X132718140Y-67683701D01*
X132728093Y-67753997D01*
X132698461Y-67818514D01*
X132681249Y-67834881D01*
X132561680Y-67928804D01*
X132557748Y-67933335D01*
X132557745Y-67933338D01*
X132493179Y-68007744D01*
X132423048Y-68088563D01*
X132420048Y-68093749D01*
X132420045Y-68093753D01*
X132372912Y-68175226D01*
X132317127Y-68271654D01*
X132247739Y-68471471D01*
X132246878Y-68477406D01*
X132246878Y-68477408D01*
X132223200Y-68640715D01*
X132217387Y-68680804D01*
X132227167Y-68892099D01*
X132276725Y-69097734D01*
X132279207Y-69103192D01*
X132279208Y-69103196D01*
X132322653Y-69198746D01*
X132364274Y-69290287D01*
X132486654Y-69462811D01*
X132639450Y-69609081D01*
X132644488Y-69612334D01*
X132671763Y-69629946D01*
X132718140Y-69683701D01*
X132728093Y-69753997D01*
X132698461Y-69818514D01*
X132681249Y-69834881D01*
X132561680Y-69928804D01*
X132557748Y-69933335D01*
X132557745Y-69933338D01*
X132489074Y-70012475D01*
X132423048Y-70088563D01*
X132420048Y-70093749D01*
X132420045Y-70093753D01*
X132317127Y-70271654D01*
X132316065Y-70271040D01*
X132296373Y-70299368D01*
X130767421Y-71828321D01*
X130757278Y-71837423D01*
X130727775Y-71861144D01*
X130723808Y-71865872D01*
X130695509Y-71899597D01*
X130692328Y-71903245D01*
X130690685Y-71905057D01*
X130688491Y-71907251D01*
X130661158Y-71940525D01*
X130660496Y-71941323D01*
X130600646Y-72012650D01*
X130598078Y-72017320D01*
X130594697Y-72021437D01*
X130576573Y-72055238D01*
X130550823Y-72103262D01*
X130550194Y-72104421D01*
X130508338Y-72180557D01*
X130508335Y-72180565D01*
X130505367Y-72185963D01*
X130503755Y-72191045D01*
X130501238Y-72195739D01*
X130474038Y-72284707D01*
X130473718Y-72285735D01*
X130445565Y-72374482D01*
X130444971Y-72379778D01*
X130443413Y-72384874D01*
X130434083Y-72476725D01*
X130434018Y-72477363D01*
X130433889Y-72478569D01*
X130428300Y-72528403D01*
X130428300Y-72531930D01*
X130428245Y-72532915D01*
X130427798Y-72538595D01*
X130423426Y-72581638D01*
X130427423Y-72623917D01*
X130427741Y-72627285D01*
X130428300Y-72639143D01*
X130428300Y-74383875D01*
X130408298Y-74451996D01*
X130391395Y-74472970D01*
X127993508Y-76870858D01*
X127706639Y-77157727D01*
X127644327Y-77191753D01*
X127573512Y-77186688D01*
X127516676Y-77144141D01*
X127491865Y-77077621D01*
X127508425Y-77005632D01*
X127594423Y-76856679D01*
X127594424Y-76856678D01*
X127597727Y-76850956D01*
X127656742Y-76669328D01*
X127676704Y-76479400D01*
X127667484Y-76391678D01*
X127657433Y-76296042D01*
X127657432Y-76296038D01*
X127656742Y-76289472D01*
X127655358Y-76285213D01*
X127660700Y-76215209D01*
X127704484Y-76157867D01*
X127716186Y-76149365D01*
X127726107Y-76142848D01*
X127757335Y-76124380D01*
X127757338Y-76124378D01*
X127764162Y-76120342D01*
X127778483Y-76106021D01*
X127793517Y-76093180D01*
X127803493Y-76085932D01*
X127809907Y-76081272D01*
X127838093Y-76047201D01*
X127846082Y-76038422D01*
X128085299Y-75799205D01*
X128147611Y-75765179D01*
X128174394Y-75762300D01*
X128230287Y-75762300D01*
X128236739Y-75760928D01*
X128236744Y-75760928D01*
X128323688Y-75742447D01*
X128417088Y-75722594D01*
X128423119Y-75719909D01*
X128585522Y-75647603D01*
X128585524Y-75647602D01*
X128591552Y-75644918D01*
X128746053Y-75532666D01*
X128777201Y-75498073D01*
X128869421Y-75395652D01*
X128869422Y-75395651D01*
X128873840Y-75390744D01*
X128956610Y-75247383D01*
X128966023Y-75231079D01*
X128966024Y-75231078D01*
X128969327Y-75225356D01*
X129028342Y-75043728D01*
X129036339Y-74967646D01*
X129047614Y-74860365D01*
X129048304Y-74853800D01*
X129037080Y-74747006D01*
X129029032Y-74670435D01*
X129029032Y-74670433D01*
X129028342Y-74663872D01*
X128969327Y-74482244D01*
X128948693Y-74446504D01*
X128932114Y-74417790D01*
X128873840Y-74316856D01*
X128746053Y-74174934D01*
X128646957Y-74102936D01*
X128596894Y-74066563D01*
X128596893Y-74066562D01*
X128591552Y-74062682D01*
X128585524Y-74059998D01*
X128585522Y-74059997D01*
X128423119Y-73987691D01*
X128423118Y-73987691D01*
X128417088Y-73985006D01*
X128323688Y-73965153D01*
X128236744Y-73946672D01*
X128236739Y-73946672D01*
X128230287Y-73945300D01*
X128039313Y-73945300D01*
X128032861Y-73946672D01*
X128032856Y-73946672D01*
X127945912Y-73965153D01*
X127852512Y-73985006D01*
X127846482Y-73987691D01*
X127846481Y-73987691D01*
X127684078Y-74059997D01*
X127684076Y-74059998D01*
X127678048Y-74062682D01*
X127672707Y-74066562D01*
X127672706Y-74066563D01*
X127622643Y-74102936D01*
X127523547Y-74174934D01*
X127395760Y-74316856D01*
X127337486Y-74417790D01*
X127320908Y-74446504D01*
X127300273Y-74482244D01*
X127241258Y-74663872D01*
X127240568Y-74670433D01*
X127240568Y-74670435D01*
X127236549Y-74708672D01*
X127223949Y-74828563D01*
X127223893Y-74829092D01*
X127196880Y-74894749D01*
X127187677Y-74905019D01*
X127147298Y-74945397D01*
X127084986Y-74979421D01*
X127058204Y-74982300D01*
X126607800Y-74982300D01*
X126539679Y-74962298D01*
X126520453Y-74945957D01*
X126520180Y-74946260D01*
X126515268Y-74941837D01*
X126510853Y-74936934D01*
X126429647Y-74877934D01*
X126361694Y-74828563D01*
X126361693Y-74828562D01*
X126356352Y-74824682D01*
X126350324Y-74821998D01*
X126350322Y-74821997D01*
X126187919Y-74749691D01*
X126187918Y-74749691D01*
X126181888Y-74747006D01*
X126088488Y-74727153D01*
X126001544Y-74708672D01*
X126001539Y-74708672D01*
X125995087Y-74707300D01*
X125804113Y-74707300D01*
X125797661Y-74708672D01*
X125797656Y-74708672D01*
X125710712Y-74727153D01*
X125617312Y-74747006D01*
X125611282Y-74749691D01*
X125611281Y-74749691D01*
X125536935Y-74782792D01*
X125442848Y-74824682D01*
X125441898Y-74822548D01*
X125383291Y-74836759D01*
X125316202Y-74813531D01*
X125272321Y-74757719D01*
X125263300Y-74710902D01*
X125263300Y-73175500D01*
X125283302Y-73107379D01*
X125336958Y-73060886D01*
X125389300Y-73049500D01*
X125563487Y-73049500D01*
X125569939Y-73048128D01*
X125569944Y-73048128D01*
X125656887Y-73029647D01*
X125750288Y-73009794D01*
X125786492Y-72993675D01*
X125918722Y-72934803D01*
X125918724Y-72934802D01*
X125924752Y-72932118D01*
X126079253Y-72819866D01*
X126112838Y-72782566D01*
X126202621Y-72682852D01*
X126202622Y-72682851D01*
X126207040Y-72677944D01*
X126287477Y-72538623D01*
X126299223Y-72518279D01*
X126299224Y-72518278D01*
X126302527Y-72512556D01*
X126361542Y-72330928D01*
X126381504Y-72141000D01*
X126369508Y-72026867D01*
X126362232Y-71957635D01*
X126362232Y-71957633D01*
X126361542Y-71951072D01*
X126302527Y-71769444D01*
X126207040Y-71604056D01*
X126186207Y-71580918D01*
X126083675Y-71467045D01*
X126083674Y-71467044D01*
X126079253Y-71462134D01*
X125961591Y-71376647D01*
X125930097Y-71353765D01*
X125930094Y-71353764D01*
X125924752Y-71349882D01*
X125920336Y-71347916D01*
X125871796Y-71297009D01*
X125857789Y-71239272D01*
X125857789Y-64940257D01*
X125858316Y-64929074D01*
X125859991Y-64921581D01*
X125857851Y-64853490D01*
X125857789Y-64849533D01*
X125857789Y-64821633D01*
X125857285Y-64817642D01*
X125856352Y-64805800D01*
X125856094Y-64797574D01*
X125854963Y-64761600D01*
X125852751Y-64753986D01*
X125852750Y-64753981D01*
X125849312Y-64742148D01*
X125845301Y-64722784D01*
X125843756Y-64710553D01*
X125842763Y-64702692D01*
X125839846Y-64695325D01*
X125839845Y-64695320D01*
X125826487Y-64661581D01*
X125822643Y-64650354D01*
X125815647Y-64626276D01*
X125810307Y-64607896D01*
X125799996Y-64590461D01*
X125791301Y-64572713D01*
X125783841Y-64553872D01*
X125757853Y-64518102D01*
X125751337Y-64508182D01*
X125732869Y-64476954D01*
X125732867Y-64476951D01*
X125728831Y-64470127D01*
X125714510Y-64455806D01*
X125701669Y-64440772D01*
X125701091Y-64439977D01*
X125689761Y-64424382D01*
X125655684Y-64396191D01*
X125646905Y-64388201D01*
X121679052Y-60420347D01*
X121671512Y-60412061D01*
X121667400Y-60405582D01*
X121617748Y-60358956D01*
X121614907Y-60356202D01*
X121595170Y-60336465D01*
X121591973Y-60333985D01*
X121582951Y-60326280D01*
X121569516Y-60313664D01*
X121550721Y-60296014D01*
X121543775Y-60292195D01*
X121543772Y-60292193D01*
X121532966Y-60286252D01*
X121516447Y-60275401D01*
X121515983Y-60275041D01*
X121500441Y-60262986D01*
X121493172Y-60259841D01*
X121493168Y-60259838D01*
X121459863Y-60245426D01*
X121449213Y-60240209D01*
X121410460Y-60218905D01*
X121390837Y-60213867D01*
X121372134Y-60207463D01*
X121360820Y-60202567D01*
X121360819Y-60202567D01*
X121353545Y-60199419D01*
X121345722Y-60198180D01*
X121345712Y-60198177D01*
X121309876Y-60192501D01*
X121298256Y-60190095D01*
X121263111Y-60181072D01*
X121263110Y-60181072D01*
X121255430Y-60179100D01*
X121235176Y-60179100D01*
X121215465Y-60177549D01*
X121212934Y-60177148D01*
X121195457Y-60174380D01*
X121187565Y-60175126D01*
X121151439Y-60178541D01*
X121139581Y-60179100D01*
X113786563Y-60179100D01*
X113775379Y-60178573D01*
X113767891Y-60176899D01*
X113759968Y-60177148D01*
X113699833Y-60179038D01*
X113695875Y-60179100D01*
X113667944Y-60179100D01*
X113664029Y-60179595D01*
X113664025Y-60179595D01*
X113663967Y-60179603D01*
X113663938Y-60179606D01*
X113652096Y-60180539D01*
X113607910Y-60181927D01*
X113590544Y-60186972D01*
X113588458Y-60187578D01*
X113569106Y-60191586D01*
X113556868Y-60193132D01*
X113556866Y-60193133D01*
X113549003Y-60194126D01*
X113507886Y-60210406D01*
X113496685Y-60214241D01*
X113454206Y-60226582D01*
X113447387Y-60230615D01*
X113447382Y-60230617D01*
X113436771Y-60236893D01*
X113419021Y-60245590D01*
X113400183Y-60253048D01*
X113393767Y-60257709D01*
X113393766Y-60257710D01*
X113364425Y-60279028D01*
X113354501Y-60285547D01*
X113323260Y-60304022D01*
X113323255Y-60304026D01*
X113316437Y-60308058D01*
X113302113Y-60322382D01*
X113287081Y-60335221D01*
X113270693Y-60347128D01*
X113242512Y-60381193D01*
X113234522Y-60389973D01*
X112858347Y-60766148D01*
X112850061Y-60773688D01*
X112843582Y-60777800D01*
X112838157Y-60783577D01*
X112796957Y-60827451D01*
X112794202Y-60830293D01*
X112774465Y-60850030D01*
X112771985Y-60853227D01*
X112764282Y-60862247D01*
X112734014Y-60894479D01*
X112730195Y-60901425D01*
X112730193Y-60901428D01*
X112724252Y-60912234D01*
X112713401Y-60928753D01*
X112700986Y-60944759D01*
X112697841Y-60952028D01*
X112697838Y-60952032D01*
X112683426Y-60985337D01*
X112678209Y-60995987D01*
X112656905Y-61034740D01*
X112654934Y-61042415D01*
X112654934Y-61042416D01*
X112651867Y-61054362D01*
X112645463Y-61073066D01*
X112637419Y-61091655D01*
X112636180Y-61099478D01*
X112636177Y-61099488D01*
X112630501Y-61135324D01*
X112628095Y-61146944D01*
X112617100Y-61189770D01*
X112617100Y-61210024D01*
X112615549Y-61229734D01*
X112612380Y-61249743D01*
X112613126Y-61257635D01*
X112616541Y-61293761D01*
X112617100Y-61305619D01*
X112617100Y-63029300D01*
X112597098Y-63097421D01*
X112543442Y-63143914D01*
X112491100Y-63155300D01*
X112418513Y-63155300D01*
X112412061Y-63156672D01*
X112412056Y-63156672D01*
X112325113Y-63175153D01*
X112231712Y-63195006D01*
X112225682Y-63197691D01*
X112225681Y-63197691D01*
X112063278Y-63269997D01*
X112063276Y-63269998D01*
X112057248Y-63272682D01*
X112051907Y-63276562D01*
X112051906Y-63276563D01*
X112044529Y-63281923D01*
X111902747Y-63384934D01*
X111898326Y-63389844D01*
X111898325Y-63389845D01*
X111800883Y-63498066D01*
X111774960Y-63526856D01*
X111679473Y-63692244D01*
X111620458Y-63873872D01*
X111600496Y-64063800D01*
X111601186Y-64070365D01*
X111616791Y-64218834D01*
X111620458Y-64253728D01*
X111622497Y-64260005D01*
X111623871Y-64266466D01*
X111621495Y-64266971D01*
X111623219Y-64326908D01*
X111586568Y-64387713D01*
X111522862Y-64419050D01*
X111501352Y-64420900D01*
X111304595Y-64420900D01*
X111236474Y-64400898D01*
X111215500Y-64383995D01*
X108609722Y-61778217D01*
X108575696Y-61715905D01*
X108573507Y-61702292D01*
X108573191Y-61699280D01*
X108556142Y-61537072D01*
X108497127Y-61355444D01*
X108468361Y-61305619D01*
X108436100Y-61249743D01*
X108401640Y-61190056D01*
X108396881Y-61184770D01*
X108278275Y-61053045D01*
X108278274Y-61053044D01*
X108273853Y-61048134D01*
X108160288Y-60965624D01*
X108124694Y-60939763D01*
X108124693Y-60939762D01*
X108119352Y-60935882D01*
X108113324Y-60933198D01*
X108113322Y-60933197D01*
X107950919Y-60860891D01*
X107950918Y-60860891D01*
X107944888Y-60858206D01*
X107851487Y-60838353D01*
X107764544Y-60819872D01*
X107764539Y-60819872D01*
X107758087Y-60818500D01*
X107567113Y-60818500D01*
X107560661Y-60819872D01*
X107560656Y-60819872D01*
X107473713Y-60838353D01*
X107380312Y-60858206D01*
X107374282Y-60860891D01*
X107374281Y-60860891D01*
X107211878Y-60933197D01*
X107211876Y-60933198D01*
X107205848Y-60935882D01*
X107200507Y-60939762D01*
X107200506Y-60939763D01*
X107164912Y-60965624D01*
X107051347Y-61048134D01*
X107046926Y-61053044D01*
X107046925Y-61053045D01*
X106928320Y-61184770D01*
X106923560Y-61190056D01*
X106889100Y-61249743D01*
X106856840Y-61305619D01*
X106828073Y-61355444D01*
X106769058Y-61537072D01*
X106768368Y-61543633D01*
X106768368Y-61543635D01*
X106753647Y-61683701D01*
X106749096Y-61727000D01*
X106749786Y-61733565D01*
X106766872Y-61896126D01*
X106769058Y-61916928D01*
X106828073Y-62098556D01*
X106923560Y-62263944D01*
X106927978Y-62268851D01*
X106927979Y-62268852D01*
X107028672Y-62380683D01*
X107051347Y-62405866D01*
X107205848Y-62518118D01*
X107211876Y-62520802D01*
X107211878Y-62520803D01*
X107365268Y-62589096D01*
X107380312Y-62595794D01*
X107473712Y-62615647D01*
X107560656Y-62634128D01*
X107560661Y-62634128D01*
X107567113Y-62635500D01*
X107623006Y-62635500D01*
X107691127Y-62655502D01*
X107712101Y-62672405D01*
X107873901Y-62834205D01*
X107907927Y-62896517D01*
X107902862Y-62967332D01*
X107860315Y-63024168D01*
X107793795Y-63048979D01*
X107784806Y-63049300D01*
X107354800Y-63049300D01*
X107286679Y-63029298D01*
X107267453Y-63012957D01*
X107267180Y-63013260D01*
X107262268Y-63008837D01*
X107257853Y-63003934D01*
X107135192Y-62914815D01*
X107108694Y-62895563D01*
X107108693Y-62895562D01*
X107103352Y-62891682D01*
X107097324Y-62888998D01*
X107097322Y-62888997D01*
X106934919Y-62816691D01*
X106934918Y-62816691D01*
X106928888Y-62814006D01*
X106833827Y-62793800D01*
X106748544Y-62775672D01*
X106748539Y-62775672D01*
X106742087Y-62774300D01*
X106551113Y-62774300D01*
X106544661Y-62775672D01*
X106544656Y-62775672D01*
X106459373Y-62793800D01*
X106364312Y-62814006D01*
X106358282Y-62816691D01*
X106358281Y-62816691D01*
X106195878Y-62888997D01*
X106195876Y-62888998D01*
X106189848Y-62891682D01*
X106184507Y-62895562D01*
X106184506Y-62895563D01*
X106158008Y-62914815D01*
X106091140Y-62938674D01*
X106021988Y-62922593D01*
X105996816Y-62903897D01*
X105988111Y-62895563D01*
X105916482Y-62826994D01*
X105881106Y-62765439D01*
X105884625Y-62694529D01*
X105925922Y-62636779D01*
X105937304Y-62628835D01*
X105993148Y-62594278D01*
X106118105Y-62469103D01*
X106128913Y-62451570D01*
X106207075Y-62324768D01*
X106207076Y-62324766D01*
X106210915Y-62318538D01*
X106240768Y-62228534D01*
X106264432Y-62157189D01*
X106264432Y-62157187D01*
X106266597Y-62150661D01*
X106269755Y-62119845D01*
X106272651Y-62091576D01*
X106277300Y-62046200D01*
X106277300Y-61245400D01*
X106276963Y-61242150D01*
X106267038Y-61146492D01*
X106267037Y-61146488D01*
X106266326Y-61139634D01*
X106231331Y-61034740D01*
X106212668Y-60978802D01*
X106210350Y-60971854D01*
X106117278Y-60821452D01*
X105992103Y-60696495D01*
X105985872Y-60692654D01*
X105847768Y-60607525D01*
X105847766Y-60607524D01*
X105841538Y-60603685D01*
X105681054Y-60550455D01*
X105680189Y-60550168D01*
X105680187Y-60550168D01*
X105673661Y-60548003D01*
X105666825Y-60547303D01*
X105666822Y-60547302D01*
X105623769Y-60542891D01*
X105569200Y-60537300D01*
X104218400Y-60537300D01*
X104215154Y-60537637D01*
X104215150Y-60537637D01*
X104119492Y-60547562D01*
X104119488Y-60547563D01*
X104112634Y-60548274D01*
X104106098Y-60550455D01*
X104106096Y-60550455D01*
X103973994Y-60594528D01*
X103944854Y-60604250D01*
X103794452Y-60697322D01*
X103669495Y-60822497D01*
X103665655Y-60828727D01*
X103665654Y-60828728D01*
X103603998Y-60928753D01*
X103576685Y-60973062D01*
X103574381Y-60980009D01*
X103534752Y-61099488D01*
X103521003Y-61140939D01*
X103510300Y-61245400D01*
X103510300Y-62046200D01*
X103510637Y-62049446D01*
X103510637Y-62049450D01*
X103517907Y-62119511D01*
X103521274Y-62151966D01*
X103523455Y-62158502D01*
X103523455Y-62158504D01*
X103546819Y-62228534D01*
X103577250Y-62319746D01*
X103670322Y-62470148D01*
X103795497Y-62595105D01*
X103801727Y-62598945D01*
X103801728Y-62598946D01*
X103847036Y-62626874D01*
X103894529Y-62679646D01*
X103905953Y-62749718D01*
X103877679Y-62814842D01*
X103858755Y-62833218D01*
X103850880Y-62839404D01*
X103846948Y-62843935D01*
X103846945Y-62843938D01*
X103778692Y-62922593D01*
X103712248Y-62999163D01*
X103709248Y-63004349D01*
X103709245Y-63004353D01*
X103655404Y-63097421D01*
X103606327Y-63182254D01*
X103536939Y-63382071D01*
X103536078Y-63388006D01*
X103536078Y-63388008D01*
X103513272Y-63545302D01*
X103506587Y-63591404D01*
X103516367Y-63802699D01*
X103517771Y-63808524D01*
X103517771Y-63808525D01*
X103559850Y-63983125D01*
X103565925Y-64008334D01*
X103568407Y-64013792D01*
X103568408Y-64013796D01*
X103591144Y-64063800D01*
X103653474Y-64200887D01*
X103686936Y-64248060D01*
X103759472Y-64350316D01*
X103775854Y-64373411D01*
X103928650Y-64519681D01*
X103933688Y-64522934D01*
X103960963Y-64540546D01*
X104007340Y-64594301D01*
X104017293Y-64664597D01*
X103987661Y-64729114D01*
X103970449Y-64745481D01*
X103850880Y-64839404D01*
X103846948Y-64843935D01*
X103846945Y-64843938D01*
X103743170Y-64963529D01*
X103712248Y-64999163D01*
X103709248Y-65004349D01*
X103709245Y-65004353D01*
X103638034Y-65127447D01*
X103606327Y-65182254D01*
X103536939Y-65382071D01*
X103536078Y-65388006D01*
X103536078Y-65388008D01*
X103513272Y-65545302D01*
X103506587Y-65591404D01*
X103516367Y-65802699D01*
X103565925Y-66008334D01*
X103653474Y-66200887D01*
X103775854Y-66373411D01*
X103928650Y-66519681D01*
X103933681Y-66522930D01*
X103933688Y-66522935D01*
X103961407Y-66540833D01*
X104007784Y-66594589D01*
X104017737Y-66664885D01*
X103988104Y-66729402D01*
X103970891Y-66745770D01*
X103855943Y-66836062D01*
X103847294Y-66844299D01*
X103716588Y-66994923D01*
X103709653Y-67004647D01*
X103609790Y-67177267D01*
X103604816Y-67188131D01*
X103539393Y-67376527D01*
X103539152Y-67377516D01*
X103540620Y-67387808D01*
X103554185Y-67391800D01*
X106229202Y-67391800D01*
X106242733Y-67387827D01*
X106244088Y-67378401D01*
X106222606Y-67289263D01*
X106218717Y-67277968D01*
X106136171Y-67096418D01*
X106130224Y-67086076D01*
X106014832Y-66923403D01*
X106007034Y-66914369D01*
X105962062Y-66871318D01*
X105926685Y-66809763D01*
X105930204Y-66738854D01*
X105971500Y-66681103D01*
X106037463Y-66654847D01*
X106049192Y-66654300D01*
X107407875Y-66654300D01*
X107475996Y-66674302D01*
X107496970Y-66691205D01*
X109209867Y-68404101D01*
X110671971Y-69866205D01*
X110705997Y-69928517D01*
X110700932Y-69999332D01*
X110658385Y-70056168D01*
X110591865Y-70080979D01*
X110582876Y-70081300D01*
X105683005Y-70081300D01*
X105614884Y-70061298D01*
X105608944Y-70057236D01*
X105533694Y-70002563D01*
X105533693Y-70002562D01*
X105528352Y-69998682D01*
X105522324Y-69995998D01*
X105522322Y-69995997D01*
X105359919Y-69923691D01*
X105359918Y-69923691D01*
X105353888Y-69921006D01*
X105260488Y-69901153D01*
X105173544Y-69882672D01*
X105173539Y-69882672D01*
X105167087Y-69881300D01*
X104976113Y-69881300D01*
X104969661Y-69882672D01*
X104969656Y-69882672D01*
X104882712Y-69901153D01*
X104789312Y-69921006D01*
X104783282Y-69923691D01*
X104783281Y-69923691D01*
X104620878Y-69995997D01*
X104620876Y-69995998D01*
X104614848Y-69998682D01*
X104609507Y-70002562D01*
X104609506Y-70002563D01*
X104559443Y-70038936D01*
X104460347Y-70110934D01*
X104332560Y-70252856D01*
X104321707Y-70271654D01*
X104242918Y-70408121D01*
X104237073Y-70418244D01*
X104178058Y-70599872D01*
X104158096Y-70789800D01*
X104178058Y-70979728D01*
X104237073Y-71161356D01*
X104332560Y-71326744D01*
X104336978Y-71331651D01*
X104336979Y-71331652D01*
X104455925Y-71463755D01*
X104460347Y-71468666D01*
X104501135Y-71498300D01*
X104594986Y-71566487D01*
X104614848Y-71580918D01*
X104620876Y-71583602D01*
X104620878Y-71583603D01*
X104773383Y-71651502D01*
X104789312Y-71658594D01*
X104853596Y-71672258D01*
X104969656Y-71696928D01*
X104969661Y-71696928D01*
X104976113Y-71698300D01*
X105167087Y-71698300D01*
X105173539Y-71696928D01*
X105173544Y-71696928D01*
X105289604Y-71672258D01*
X105353888Y-71658594D01*
X105369817Y-71651502D01*
X105522322Y-71583603D01*
X105522324Y-71583602D01*
X105528352Y-71580918D01*
X105548215Y-71566487D01*
X105608944Y-71522364D01*
X105675811Y-71498506D01*
X105683005Y-71498300D01*
X110263140Y-71498300D01*
X110331261Y-71518302D01*
X110352235Y-71535205D01*
X111903589Y-73086559D01*
X112926395Y-74109366D01*
X112960421Y-74171678D01*
X112963300Y-74198461D01*
X112963300Y-76671300D01*
X112943298Y-76739421D01*
X112889642Y-76785914D01*
X112837300Y-76797300D01*
X112773666Y-76797300D01*
X112711484Y-76804055D01*
X112575095Y-76855185D01*
X112458539Y-76942539D01*
X112444606Y-76961130D01*
X112439989Y-76967290D01*
X112383129Y-77009804D01*
X112312310Y-77014828D01*
X112301906Y-77012088D01*
X112231599Y-76990325D01*
X112230758Y-76990062D01*
X112146165Y-76963227D01*
X112146161Y-76963226D01*
X112140294Y-76961365D01*
X112136763Y-76960969D01*
X112133368Y-76959918D01*
X112038893Y-76949989D01*
X112038179Y-76949911D01*
X111986373Y-76944100D01*
X111983800Y-76944100D01*
X111979824Y-76943780D01*
X111942804Y-76939889D01*
X111942802Y-76939889D01*
X111936675Y-76939245D01*
X111900480Y-76942539D01*
X111889030Y-76943581D01*
X111877610Y-76944100D01*
X106077943Y-76944100D01*
X106009822Y-76924098D01*
X105963329Y-76870442D01*
X105953225Y-76800168D01*
X105982776Y-76735522D01*
X106117352Y-76580437D01*
X106120352Y-76575251D01*
X106120355Y-76575247D01*
X106220267Y-76402542D01*
X106223273Y-76397346D01*
X106292661Y-76197529D01*
X106298412Y-76157867D01*
X106322152Y-75994136D01*
X106322152Y-75994133D01*
X106323013Y-75988196D01*
X106313233Y-75776901D01*
X106273168Y-75610655D01*
X106265081Y-75577099D01*
X106265080Y-75577097D01*
X106263675Y-75571266D01*
X106249178Y-75539380D01*
X106193779Y-75417539D01*
X106176126Y-75378713D01*
X106053746Y-75206189D01*
X106049419Y-75202047D01*
X106049414Y-75202041D01*
X105958483Y-75114994D01*
X105923106Y-75053439D01*
X105926625Y-74982530D01*
X105967921Y-74924779D01*
X105979304Y-74916835D01*
X106035148Y-74882278D01*
X106160105Y-74757103D01*
X106188584Y-74710902D01*
X106249075Y-74612768D01*
X106249076Y-74612766D01*
X106252915Y-74606538D01*
X106294985Y-74479701D01*
X106306432Y-74445189D01*
X106306432Y-74445187D01*
X106308597Y-74438661D01*
X106319300Y-74334200D01*
X106319300Y-73533400D01*
X106316973Y-73510971D01*
X106309038Y-73434492D01*
X106309037Y-73434488D01*
X106308326Y-73427634D01*
X106299366Y-73400776D01*
X106254668Y-73266802D01*
X106252350Y-73259854D01*
X106159278Y-73109452D01*
X106034103Y-72984495D01*
X105934824Y-72923298D01*
X105889768Y-72895525D01*
X105889766Y-72895524D01*
X105883538Y-72891685D01*
X105803795Y-72865236D01*
X105722189Y-72838168D01*
X105722187Y-72838168D01*
X105715661Y-72836003D01*
X105708825Y-72835303D01*
X105708822Y-72835302D01*
X105665769Y-72830891D01*
X105611200Y-72825300D01*
X104260400Y-72825300D01*
X104257154Y-72825637D01*
X104257150Y-72825637D01*
X104161492Y-72835562D01*
X104161488Y-72835563D01*
X104154634Y-72836274D01*
X104148098Y-72838455D01*
X104148096Y-72838455D01*
X104015994Y-72882528D01*
X103986854Y-72892250D01*
X103836452Y-72985322D01*
X103711495Y-73110497D01*
X103618685Y-73261062D01*
X103563003Y-73428939D01*
X103552300Y-73533400D01*
X103552300Y-74334200D01*
X103552637Y-74337446D01*
X103552637Y-74337450D01*
X103561508Y-74422941D01*
X103563274Y-74439966D01*
X103565455Y-74446502D01*
X103565455Y-74446504D01*
X103577379Y-74482244D01*
X103619250Y-74607746D01*
X103712322Y-74758148D01*
X103837497Y-74883105D01*
X103887732Y-74914070D01*
X103889036Y-74914874D01*
X103936529Y-74967646D01*
X103947953Y-75037718D01*
X103919679Y-75102842D01*
X103900755Y-75121218D01*
X103892880Y-75127404D01*
X103888948Y-75131935D01*
X103888945Y-75131938D01*
X103784477Y-75252327D01*
X103754248Y-75287163D01*
X103751248Y-75292349D01*
X103751245Y-75292353D01*
X103726809Y-75334593D01*
X103648327Y-75470254D01*
X103578939Y-75670071D01*
X103578078Y-75676006D01*
X103578078Y-75676008D01*
X103571125Y-75723966D01*
X103548587Y-75879404D01*
X103558367Y-76090699D01*
X103559771Y-76096524D01*
X103559771Y-76096525D01*
X103605435Y-76286000D01*
X103607925Y-76296334D01*
X103610407Y-76301792D01*
X103610408Y-76301796D01*
X103653853Y-76397346D01*
X103695474Y-76488887D01*
X103817854Y-76661411D01*
X103970650Y-76807681D01*
X103975688Y-76810934D01*
X104002963Y-76828546D01*
X104049340Y-76882301D01*
X104059293Y-76952597D01*
X104029661Y-77017114D01*
X104012449Y-77033481D01*
X103892880Y-77127404D01*
X103888948Y-77131935D01*
X103888945Y-77131938D01*
X103834835Y-77194295D01*
X103754248Y-77287163D01*
X103751248Y-77292349D01*
X103751245Y-77292353D01*
X103718147Y-77349566D01*
X103648327Y-77470254D01*
X103578939Y-77670071D01*
X103578078Y-77676006D01*
X103578078Y-77676008D01*
X103552852Y-77849992D01*
X103548587Y-77879404D01*
X103558367Y-78090699D01*
X103559771Y-78096524D01*
X103559771Y-78096525D01*
X103602628Y-78274353D01*
X103607925Y-78296334D01*
X103610407Y-78301792D01*
X103610408Y-78301796D01*
X103625857Y-78335774D01*
X103695474Y-78488887D01*
X103817854Y-78661411D01*
X103970650Y-78807681D01*
X103975681Y-78810930D01*
X103975688Y-78810935D01*
X104003407Y-78828833D01*
X104049784Y-78882589D01*
X104059737Y-78952885D01*
X104030104Y-79017402D01*
X104012891Y-79033770D01*
X103897943Y-79124062D01*
X103889294Y-79132299D01*
X103758588Y-79282923D01*
X103751653Y-79292647D01*
X103651790Y-79465267D01*
X103646816Y-79476131D01*
X103581393Y-79664527D01*
X103581152Y-79665516D01*
X103582620Y-79675808D01*
X103596185Y-79679800D01*
X106271202Y-79679800D01*
X106284733Y-79675827D01*
X106286088Y-79666401D01*
X106264606Y-79577263D01*
X106260717Y-79565968D01*
X106178171Y-79384418D01*
X106172224Y-79374076D01*
X106056832Y-79211403D01*
X106049039Y-79202375D01*
X106023700Y-79178118D01*
X105988324Y-79116563D01*
X105991843Y-79045653D01*
X106033140Y-78987903D01*
X106099103Y-78961647D01*
X106110831Y-78961100D01*
X110795100Y-78961100D01*
X110863221Y-78981102D01*
X110909714Y-79034758D01*
X110921100Y-79087100D01*
X110921100Y-83514779D01*
X110920363Y-83528386D01*
X110917600Y-83553825D01*
X110916276Y-83566010D01*
X110917619Y-83581364D01*
X110920650Y-83616010D01*
X110920979Y-83620836D01*
X110921100Y-83623308D01*
X110921100Y-83626391D01*
X110921401Y-83629459D01*
X110925290Y-83669128D01*
X110925412Y-83670441D01*
X110933513Y-83763035D01*
X110935000Y-83768154D01*
X110935520Y-83773455D01*
X110962391Y-83862456D01*
X110962726Y-83863589D01*
X110977964Y-83916035D01*
X110988691Y-83952958D01*
X110991144Y-83957690D01*
X110992684Y-83962791D01*
X110995578Y-83968234D01*
X111036331Y-84044882D01*
X111036943Y-84046048D01*
X111079708Y-84128548D01*
X111083031Y-84132711D01*
X111085534Y-84137418D01*
X111144355Y-84209540D01*
X111145046Y-84210396D01*
X111176338Y-84249595D01*
X111178842Y-84252099D01*
X111179484Y-84252817D01*
X111183185Y-84257150D01*
X111210535Y-84290684D01*
X111239600Y-84314728D01*
X111245865Y-84319911D01*
X111254645Y-84327901D01*
X111365435Y-84438691D01*
X111374536Y-84448833D01*
X111398257Y-84478336D01*
X111436745Y-84510631D01*
X111440364Y-84513789D01*
X111442179Y-84515435D01*
X111444364Y-84517620D01*
X111446744Y-84519575D01*
X111446754Y-84519584D01*
X111477525Y-84544860D01*
X111478540Y-84545702D01*
X111549763Y-84605465D01*
X111554437Y-84608034D01*
X111558550Y-84611413D01*
X111563987Y-84614328D01*
X111563988Y-84614329D01*
X111640336Y-84655266D01*
X111641466Y-84655879D01*
X111652135Y-84661744D01*
X111712106Y-84694713D01*
X111723076Y-84700744D01*
X111728158Y-84702356D01*
X111732852Y-84704873D01*
X111821820Y-84732073D01*
X111822848Y-84732393D01*
X111911595Y-84760546D01*
X111916891Y-84761140D01*
X111921987Y-84762698D01*
X112014546Y-84772101D01*
X112015682Y-84772222D01*
X112049297Y-84775992D01*
X112062019Y-84777419D01*
X112062023Y-84777419D01*
X112065516Y-84777811D01*
X112069043Y-84777811D01*
X112070028Y-84777866D01*
X112075708Y-84778313D01*
X112105114Y-84781300D01*
X112112626Y-84782063D01*
X112112628Y-84782063D01*
X112118751Y-84782685D01*
X112164397Y-84778370D01*
X112176256Y-84777811D01*
X112470907Y-84777811D01*
X112539028Y-84797813D01*
X112585521Y-84851469D01*
X112595625Y-84921743D01*
X112566131Y-84986323D01*
X112546473Y-85004636D01*
X112458539Y-85070539D01*
X112371185Y-85187095D01*
X112320055Y-85323484D01*
X112313300Y-85385666D01*
X112313300Y-87181934D01*
X112320055Y-87244116D01*
X112322827Y-87251512D01*
X112322829Y-87251518D01*
X112363149Y-87359071D01*
X112368332Y-87429878D01*
X112334411Y-87492247D01*
X112272155Y-87526376D01*
X112245167Y-87529300D01*
X106239521Y-87529300D01*
X106171400Y-87509298D01*
X106124907Y-87455642D01*
X106114803Y-87385368D01*
X106132261Y-87337184D01*
X106206616Y-87216557D01*
X106212763Y-87203376D01*
X106263938Y-87049090D01*
X106266805Y-87035714D01*
X106276472Y-86941362D01*
X106276800Y-86934946D01*
X106276800Y-86809915D01*
X106272325Y-86794676D01*
X106270935Y-86793471D01*
X106263252Y-86791800D01*
X103528916Y-86791800D01*
X103513677Y-86796275D01*
X103512472Y-86797665D01*
X103510801Y-86805348D01*
X103510801Y-86934895D01*
X103511138Y-86941414D01*
X103521057Y-87037006D01*
X103523949Y-87050400D01*
X103575388Y-87204584D01*
X103581561Y-87217762D01*
X103666863Y-87355607D01*
X103675899Y-87367008D01*
X103790629Y-87481539D01*
X103802040Y-87490551D01*
X103847455Y-87518545D01*
X103894948Y-87571317D01*
X103906372Y-87641389D01*
X103878098Y-87706513D01*
X103859175Y-87724888D01*
X103850880Y-87731404D01*
X103846948Y-87735935D01*
X103846945Y-87735938D01*
X103763847Y-87831700D01*
X103712248Y-87891163D01*
X103709248Y-87896349D01*
X103709245Y-87896353D01*
X103615461Y-88058465D01*
X103606327Y-88074254D01*
X103536939Y-88274071D01*
X103536078Y-88280006D01*
X103536078Y-88280008D01*
X103507733Y-88475503D01*
X103506587Y-88483404D01*
X103516367Y-88694699D01*
X103517771Y-88700524D01*
X103517771Y-88700525D01*
X103534394Y-88769498D01*
X103565925Y-88900334D01*
X103568407Y-88905792D01*
X103568408Y-88905796D01*
X103606981Y-88990631D01*
X103653474Y-89092887D01*
X103775854Y-89265411D01*
X103928650Y-89411681D01*
X103933688Y-89414934D01*
X103960963Y-89432546D01*
X104007340Y-89486301D01*
X104017293Y-89556597D01*
X103987661Y-89621114D01*
X103970449Y-89637481D01*
X103850880Y-89731404D01*
X103846948Y-89735935D01*
X103846945Y-89735938D01*
X103778274Y-89815075D01*
X103712248Y-89891163D01*
X103709248Y-89896349D01*
X103709245Y-89896353D01*
X103702217Y-89908502D01*
X103606327Y-90074254D01*
X103536939Y-90274071D01*
X103536078Y-90280006D01*
X103536078Y-90280008D01*
X103516113Y-90417708D01*
X103506587Y-90483404D01*
X103516367Y-90694699D01*
X103565925Y-90900334D01*
X103568407Y-90905792D01*
X103568408Y-90905796D01*
X103611853Y-91001346D01*
X103653474Y-91092887D01*
X103775854Y-91265411D01*
X103928650Y-91411681D01*
X103933688Y-91414934D01*
X103960963Y-91432546D01*
X104007340Y-91486301D01*
X104017293Y-91556597D01*
X103987661Y-91621114D01*
X103970449Y-91637481D01*
X103850880Y-91731404D01*
X103846948Y-91735935D01*
X103846945Y-91735938D01*
X103778274Y-91815075D01*
X103712248Y-91891163D01*
X103709248Y-91896349D01*
X103709245Y-91896353D01*
X103662112Y-91977826D01*
X103606327Y-92074254D01*
X103536939Y-92274071D01*
X103536078Y-92280006D01*
X103536078Y-92280008D01*
X103515249Y-92423666D01*
X103506587Y-92483404D01*
X103516367Y-92694699D01*
X103565925Y-92900334D01*
X103568407Y-92905792D01*
X103568408Y-92905796D01*
X103611853Y-93001346D01*
X103653474Y-93092887D01*
X103775854Y-93265411D01*
X103928650Y-93411681D01*
X103933688Y-93414934D01*
X103960963Y-93432546D01*
X104007340Y-93486301D01*
X104017293Y-93556597D01*
X103987661Y-93621114D01*
X103970449Y-93637481D01*
X103850880Y-93731404D01*
X103846948Y-93735935D01*
X103846945Y-93735938D01*
X103778274Y-93815075D01*
X103712248Y-93891163D01*
X103709248Y-93896349D01*
X103709245Y-93896353D01*
X103662316Y-93977473D01*
X103606327Y-94074254D01*
X103536939Y-94274071D01*
X103506587Y-94483404D01*
X103516367Y-94694699D01*
X103565925Y-94900334D01*
X103568407Y-94905792D01*
X103568408Y-94905796D01*
X103611097Y-94999685D01*
X103653474Y-95092887D01*
X103775854Y-95265411D01*
X103788707Y-95277715D01*
X103897780Y-95382129D01*
X103928650Y-95411681D01*
X104106348Y-95526420D01*
X104111914Y-95528663D01*
X104296968Y-95603242D01*
X104296971Y-95603243D01*
X104302537Y-95605486D01*
X104510137Y-95646028D01*
X104515699Y-95646300D01*
X105221646Y-95646300D01*
X105379366Y-95631252D01*
X105582334Y-95571708D01*
X105642507Y-95540717D01*
X105765049Y-95477604D01*
X105765052Y-95477602D01*
X105770380Y-95474858D01*
X105936720Y-95344196D01*
X105940652Y-95339665D01*
X105940655Y-95339662D01*
X106071421Y-95188967D01*
X106075352Y-95184437D01*
X106078352Y-95179251D01*
X106078355Y-95179247D01*
X106178267Y-95006542D01*
X106181273Y-95001346D01*
X106250661Y-94801529D01*
X106251522Y-94795592D01*
X106280152Y-94598136D01*
X106280152Y-94598133D01*
X106281013Y-94592196D01*
X106271233Y-94380901D01*
X106235587Y-94232992D01*
X106223081Y-94181099D01*
X106223080Y-94181097D01*
X106221675Y-94175266D01*
X106178325Y-94079922D01*
X106136606Y-93988168D01*
X106134126Y-93982713D01*
X106011746Y-93810189D01*
X105858950Y-93663919D01*
X105853055Y-93660112D01*
X105826637Y-93643054D01*
X105780260Y-93589299D01*
X105770307Y-93519003D01*
X105799939Y-93454486D01*
X105817153Y-93438117D01*
X105824246Y-93432546D01*
X105936720Y-93344196D01*
X105940652Y-93339665D01*
X105940655Y-93339662D01*
X106071421Y-93188967D01*
X106075352Y-93184437D01*
X106078352Y-93179251D01*
X106078355Y-93179247D01*
X106178267Y-93006542D01*
X106181273Y-93001346D01*
X106250661Y-92801529D01*
X106267019Y-92688709D01*
X106280152Y-92598136D01*
X106280152Y-92598133D01*
X106281013Y-92592196D01*
X106271233Y-92380901D01*
X106233277Y-92223408D01*
X106223081Y-92181099D01*
X106223080Y-92181097D01*
X106221675Y-92175266D01*
X106213481Y-92157243D01*
X106136606Y-91988168D01*
X106134126Y-91982713D01*
X106011746Y-91810189D01*
X105858950Y-91663919D01*
X105853055Y-91660112D01*
X105826637Y-91643054D01*
X105780260Y-91589299D01*
X105770307Y-91519003D01*
X105799939Y-91454486D01*
X105817153Y-91438117D01*
X105824246Y-91432546D01*
X105936720Y-91344196D01*
X105940652Y-91339665D01*
X105940655Y-91339662D01*
X106071421Y-91188967D01*
X106075352Y-91184437D01*
X106078352Y-91179251D01*
X106078355Y-91179247D01*
X106178267Y-91006542D01*
X106181273Y-91001346D01*
X106250661Y-90801529D01*
X106271573Y-90657302D01*
X106280152Y-90598136D01*
X106280152Y-90598133D01*
X106281013Y-90592196D01*
X106271233Y-90380901D01*
X106221675Y-90175266D01*
X106178325Y-90079922D01*
X106136606Y-89988168D01*
X106134126Y-89982713D01*
X106011746Y-89810189D01*
X105962784Y-89763318D01*
X105927408Y-89701763D01*
X105930927Y-89630853D01*
X105972224Y-89573103D01*
X106038187Y-89546847D01*
X106049915Y-89546300D01*
X112187300Y-89546300D01*
X112255421Y-89566302D01*
X112301914Y-89619958D01*
X112313300Y-89672300D01*
X112313300Y-91245934D01*
X112320055Y-91308116D01*
X112371185Y-91444505D01*
X112458539Y-91561061D01*
X112575095Y-91648415D01*
X112711484Y-91699545D01*
X112738714Y-91702503D01*
X112750908Y-91703828D01*
X112816470Y-91731070D01*
X112856896Y-91789434D01*
X112863300Y-91829091D01*
X112863300Y-94797118D01*
X112843298Y-94865239D01*
X112826395Y-94886213D01*
X108468842Y-99243766D01*
X108467905Y-99244694D01*
X108403493Y-99307771D01*
X108380002Y-99344221D01*
X108372583Y-99354546D01*
X108345524Y-99388443D01*
X108342459Y-99394784D01*
X108342458Y-99394785D01*
X108331436Y-99417586D01*
X108283780Y-99470211D01*
X108215237Y-99488718D01*
X108142430Y-99463574D01*
X108137979Y-99460238D01*
X108040505Y-99387185D01*
X107904116Y-99336055D01*
X107841934Y-99329300D01*
X105145666Y-99329300D01*
X105083484Y-99336055D01*
X104947095Y-99387185D01*
X104830539Y-99474539D01*
X104743185Y-99591095D01*
X104692055Y-99727484D01*
X104685300Y-99789666D01*
X104685300Y-102485934D01*
X104692055Y-102548116D01*
X104743185Y-102684505D01*
X104830539Y-102801061D01*
X104947095Y-102888415D01*
X105083484Y-102939545D01*
X105145666Y-102946300D01*
X107841934Y-102946300D01*
X107904116Y-102939545D01*
X108016647Y-102897359D01*
X108032103Y-102891565D01*
X108032104Y-102891564D01*
X108040505Y-102888415D01*
X108042299Y-102887070D01*
X108108347Y-102872624D01*
X108174895Y-102897359D01*
X108217506Y-102954147D01*
X108225500Y-102998313D01*
X108225500Y-105130450D01*
X108205498Y-105198571D01*
X108151842Y-105245064D01*
X108081568Y-105255168D01*
X108016988Y-105225674D01*
X107997416Y-105203587D01*
X107997318Y-105203664D01*
X107995981Y-105201968D01*
X107830905Y-104992569D01*
X107635117Y-104808391D01*
X107414257Y-104655174D01*
X107410064Y-104653106D01*
X107177364Y-104538351D01*
X107177361Y-104538350D01*
X107173176Y-104536286D01*
X107125545Y-104521039D01*
X107067485Y-104502454D01*
X106917170Y-104454338D01*
X106912563Y-104453588D01*
X106912560Y-104453587D01*
X106702643Y-104419400D01*
X106651863Y-104411130D01*
X106521519Y-104409424D01*
X106387761Y-104407673D01*
X106387758Y-104407673D01*
X106383084Y-104407612D01*
X106116737Y-104443860D01*
X106112251Y-104445168D01*
X106112249Y-104445168D01*
X106083365Y-104453587D01*
X105858674Y-104519078D01*
X105614563Y-104631615D01*
X105610654Y-104634178D01*
X105393681Y-104776431D01*
X105393676Y-104776435D01*
X105389768Y-104778997D01*
X105189226Y-104957988D01*
X105017344Y-105164654D01*
X104877896Y-105394456D01*
X104876087Y-105398770D01*
X104876085Y-105398774D01*
X104860040Y-105437038D01*
X104773948Y-105642345D01*
X104707781Y-105902877D01*
X104680850Y-106170326D01*
X104693747Y-106438819D01*
X104746188Y-106702456D01*
X104837020Y-106955446D01*
X104839232Y-106959562D01*
X104839233Y-106959565D01*
X104878091Y-107031882D01*
X104964250Y-107192231D01*
X104967041Y-107195968D01*
X104967045Y-107195975D01*
X105048687Y-107305306D01*
X105125081Y-107407610D01*
X105128390Y-107410890D01*
X105128395Y-107410896D01*
X105294941Y-107575994D01*
X105315980Y-107596850D01*
X105319742Y-107599608D01*
X105319745Y-107599611D01*
X105432099Y-107681992D01*
X105532754Y-107755795D01*
X105536889Y-107757971D01*
X105536893Y-107757973D01*
X105766498Y-107878775D01*
X105770640Y-107880954D01*
X106024413Y-107969575D01*
X106029006Y-107970447D01*
X106283909Y-108018842D01*
X106283912Y-108018842D01*
X106288498Y-108019713D01*
X106416170Y-108024729D01*
X106552425Y-108030083D01*
X106552430Y-108030083D01*
X106557093Y-108030266D01*
X106661407Y-108018842D01*
X106819644Y-108001513D01*
X106819650Y-108001512D01*
X106824297Y-108001003D01*
X106828821Y-107999812D01*
X107079718Y-107933756D01*
X107079720Y-107933755D01*
X107084241Y-107932565D01*
X107088538Y-107930719D01*
X107326920Y-107828302D01*
X107326922Y-107828301D01*
X107331214Y-107826457D01*
X107449871Y-107753030D01*
X107555817Y-107687469D01*
X107555821Y-107687466D01*
X107559790Y-107685010D01*
X107764949Y-107511330D01*
X107942182Y-107309234D01*
X107993529Y-107229406D01*
X108047203Y-107182935D01*
X108117481Y-107172859D01*
X108182050Y-107202377D01*
X108220410Y-107262119D01*
X108225500Y-107297569D01*
X108225500Y-110211345D01*
X108205498Y-110279466D01*
X108151842Y-110325959D01*
X108081568Y-110336063D01*
X108016988Y-110306569D01*
X107996924Y-110283927D01*
X107996903Y-110283944D01*
X107996612Y-110283575D01*
X107995041Y-110281802D01*
X107994014Y-110280279D01*
X107950796Y-110225458D01*
X107938871Y-110216987D01*
X107927337Y-110223473D01*
X106865822Y-111284988D01*
X106858208Y-111298932D01*
X106858339Y-111300765D01*
X106862590Y-111307380D01*
X107929894Y-112374684D01*
X107942274Y-112381444D01*
X107950615Y-112375200D01*
X107993529Y-112308483D01*
X108047203Y-112262012D01*
X108117481Y-112251936D01*
X108182050Y-112281454D01*
X108220410Y-112341196D01*
X108225500Y-112376646D01*
X108225500Y-114166503D01*
X108205498Y-114234624D01*
X108151842Y-114281117D01*
X108081568Y-114291221D01*
X108073303Y-114289750D01*
X107916744Y-114256472D01*
X107916739Y-114256472D01*
X107910287Y-114255100D01*
X107719313Y-114255100D01*
X107712861Y-114256472D01*
X107712856Y-114256472D01*
X107625912Y-114274953D01*
X107532512Y-114294806D01*
X107526482Y-114297491D01*
X107526481Y-114297491D01*
X107421555Y-114344207D01*
X107370306Y-114355100D01*
X103785364Y-114355100D01*
X103784045Y-114355093D01*
X103693979Y-114354150D01*
X103687093Y-114355639D01*
X103687091Y-114355639D01*
X103668513Y-114359656D01*
X103651614Y-114363310D01*
X103639035Y-114365370D01*
X103602941Y-114369418D01*
X103602938Y-114369419D01*
X103595945Y-114370203D01*
X103564268Y-114381234D01*
X103549458Y-114385396D01*
X103523578Y-114390991D01*
X103523574Y-114390992D01*
X103516689Y-114392481D01*
X103510305Y-114395458D01*
X103510299Y-114395460D01*
X103477393Y-114410804D01*
X103465584Y-114415599D01*
X103424648Y-114429855D01*
X103418676Y-114433587D01*
X103418669Y-114433590D01*
X103396205Y-114447627D01*
X103382688Y-114454966D01*
X103358681Y-114466161D01*
X103358677Y-114466163D01*
X103352298Y-114469138D01*
X103324384Y-114490790D01*
X103318044Y-114495708D01*
X103307595Y-114502997D01*
X103270824Y-114525974D01*
X103265825Y-114530939D01*
X103265823Y-114530940D01*
X103242015Y-114554583D01*
X103241392Y-114555166D01*
X103240730Y-114555679D01*
X103214881Y-114581528D01*
X103142118Y-114653785D01*
X103141456Y-114654827D01*
X103140362Y-114656047D01*
X102187893Y-115608515D01*
X102125583Y-115642539D01*
X102054767Y-115637474D01*
X101997932Y-115594927D01*
X101973121Y-115528407D01*
X101972800Y-115519418D01*
X101972800Y-112742706D01*
X105413639Y-112742706D01*
X105422353Y-112754227D01*
X105529252Y-112832609D01*
X105537151Y-112837545D01*
X105766705Y-112958319D01*
X105775254Y-112962036D01*
X106020127Y-113047549D01*
X106029136Y-113049963D01*
X106283966Y-113098344D01*
X106293223Y-113099398D01*
X106552407Y-113109583D01*
X106561721Y-113109257D01*
X106819553Y-113081020D01*
X106828730Y-113079319D01*
X107079558Y-113013281D01*
X107088374Y-113010245D01*
X107326680Y-112907862D01*
X107334967Y-112903548D01*
X107555518Y-112767066D01*
X107563068Y-112761580D01*
X107568359Y-112757101D01*
X107576797Y-112744297D01*
X107570735Y-112733945D01*
X106506612Y-111669822D01*
X106492668Y-111662208D01*
X106490835Y-111662339D01*
X106484220Y-111666590D01*
X105420297Y-112730513D01*
X105413639Y-112742706D01*
X101972800Y-112742706D01*
X101972800Y-111255011D01*
X104681575Y-111255011D01*
X104694020Y-111514088D01*
X104695156Y-111523343D01*
X104745761Y-111777745D01*
X104748249Y-111786717D01*
X104835895Y-112030833D01*
X104839695Y-112039368D01*
X104962458Y-112267842D01*
X104967466Y-112275704D01*
X105037520Y-112369516D01*
X105048779Y-112377965D01*
X105061197Y-112371193D01*
X106121778Y-111310612D01*
X106129392Y-111296668D01*
X106129261Y-111294835D01*
X106125010Y-111288220D01*
X105059616Y-110222826D01*
X105046307Y-110215558D01*
X105036272Y-110222678D01*
X105020737Y-110241356D01*
X105015331Y-110248935D01*
X104880765Y-110470691D01*
X104876536Y-110478992D01*
X104776232Y-110718189D01*
X104773271Y-110727039D01*
X104709428Y-110978425D01*
X104707806Y-110987622D01*
X104681820Y-111245685D01*
X104681575Y-111255011D01*
X101972800Y-111255011D01*
X101972800Y-109850489D01*
X105410902Y-109850489D01*
X105415475Y-109860265D01*
X106480988Y-110925778D01*
X106494932Y-110933392D01*
X106496765Y-110933261D01*
X106503380Y-110929010D01*
X107568149Y-109864241D01*
X107574533Y-109852551D01*
X107565121Y-109840441D01*
X107417845Y-109738271D01*
X107409810Y-109733538D01*
X107177176Y-109618816D01*
X107168543Y-109615328D01*
X106921503Y-109536250D01*
X106912443Y-109534074D01*
X106656430Y-109492380D01*
X106647143Y-109491568D01*
X106387792Y-109488173D01*
X106378481Y-109488743D01*
X106121482Y-109523719D01*
X106112346Y-109525660D01*
X105863343Y-109598239D01*
X105854600Y-109601507D01*
X105619052Y-109710096D01*
X105610897Y-109714616D01*
X105420040Y-109839747D01*
X105410902Y-109850489D01*
X101972800Y-109850489D01*
X101972800Y-86265685D01*
X103510800Y-86265685D01*
X103515275Y-86280924D01*
X103516665Y-86282129D01*
X103524348Y-86283800D01*
X104621685Y-86283800D01*
X104636924Y-86279325D01*
X104638129Y-86277935D01*
X104639800Y-86270252D01*
X104639800Y-86265685D01*
X105147800Y-86265685D01*
X105152275Y-86280924D01*
X105153665Y-86282129D01*
X105161348Y-86283800D01*
X106258684Y-86283800D01*
X106273923Y-86279325D01*
X106275128Y-86277935D01*
X106276799Y-86270252D01*
X106276799Y-86140705D01*
X106276462Y-86134186D01*
X106266543Y-86038594D01*
X106263651Y-86025200D01*
X106212212Y-85871016D01*
X106206039Y-85857838D01*
X106120737Y-85719993D01*
X106111701Y-85708592D01*
X105996971Y-85594061D01*
X105985560Y-85585049D01*
X105847557Y-85499984D01*
X105834376Y-85493837D01*
X105680090Y-85442662D01*
X105666714Y-85439795D01*
X105572362Y-85430128D01*
X105565945Y-85429800D01*
X105165915Y-85429800D01*
X105150676Y-85434275D01*
X105149471Y-85435665D01*
X105147800Y-85443348D01*
X105147800Y-86265685D01*
X104639800Y-86265685D01*
X104639800Y-85447916D01*
X104635325Y-85432677D01*
X104633935Y-85431472D01*
X104626252Y-85429801D01*
X104221705Y-85429801D01*
X104215186Y-85430138D01*
X104119594Y-85440057D01*
X104106200Y-85442949D01*
X103952016Y-85494388D01*
X103938838Y-85500561D01*
X103800993Y-85585863D01*
X103789592Y-85594899D01*
X103675061Y-85709629D01*
X103666049Y-85721040D01*
X103580984Y-85859043D01*
X103574837Y-85872224D01*
X103523662Y-86026510D01*
X103520795Y-86039886D01*
X103511128Y-86134238D01*
X103510800Y-86140655D01*
X103510800Y-86265685D01*
X101972800Y-86265685D01*
X101972800Y-80201199D01*
X103585512Y-80201199D01*
X103606994Y-80290337D01*
X103610883Y-80301632D01*
X103693429Y-80483182D01*
X103699376Y-80493524D01*
X103814768Y-80656197D01*
X103822561Y-80665225D01*
X103966631Y-80803142D01*
X103975996Y-80810538D01*
X104143541Y-80918721D01*
X104154145Y-80924217D01*
X104339112Y-80998761D01*
X104350570Y-81002155D01*
X104547728Y-81040657D01*
X104556591Y-81041734D01*
X104559300Y-81041800D01*
X104663685Y-81041800D01*
X104678924Y-81037325D01*
X104680129Y-81035935D01*
X104681800Y-81028252D01*
X104681800Y-81023685D01*
X105189800Y-81023685D01*
X105194275Y-81038924D01*
X105195665Y-81040129D01*
X105203348Y-81041800D01*
X105260632Y-81041800D01*
X105266608Y-81041515D01*
X105415294Y-81027329D01*
X105427028Y-81025070D01*
X105618399Y-80968928D01*
X105629475Y-80964498D01*
X105806778Y-80873181D01*
X105816824Y-80866731D01*
X105973657Y-80743538D01*
X105982307Y-80735300D01*
X106113012Y-80584677D01*
X106119947Y-80574953D01*
X106219810Y-80402333D01*
X106224784Y-80391469D01*
X106290207Y-80203073D01*
X106290448Y-80202084D01*
X106288980Y-80191792D01*
X106275415Y-80187800D01*
X105207915Y-80187800D01*
X105192676Y-80192275D01*
X105191471Y-80193665D01*
X105189800Y-80201348D01*
X105189800Y-81023685D01*
X104681800Y-81023685D01*
X104681800Y-80205915D01*
X104677325Y-80190676D01*
X104675935Y-80189471D01*
X104668252Y-80187800D01*
X103600398Y-80187800D01*
X103586867Y-80191773D01*
X103585512Y-80201199D01*
X101972800Y-80201199D01*
X101972800Y-67913199D01*
X103543512Y-67913199D01*
X103564994Y-68002337D01*
X103568883Y-68013632D01*
X103651429Y-68195182D01*
X103657376Y-68205524D01*
X103772768Y-68368197D01*
X103780561Y-68377225D01*
X103924631Y-68515142D01*
X103933996Y-68522538D01*
X104101541Y-68630721D01*
X104112145Y-68636217D01*
X104297112Y-68710761D01*
X104308570Y-68714155D01*
X104505728Y-68752657D01*
X104514591Y-68753734D01*
X104517300Y-68753800D01*
X104621685Y-68753800D01*
X104636924Y-68749325D01*
X104638129Y-68747935D01*
X104639800Y-68740252D01*
X104639800Y-68735685D01*
X105147800Y-68735685D01*
X105152275Y-68750924D01*
X105153665Y-68752129D01*
X105161348Y-68753800D01*
X105218632Y-68753800D01*
X105224608Y-68753515D01*
X105373294Y-68739329D01*
X105385028Y-68737070D01*
X105576399Y-68680928D01*
X105587475Y-68676498D01*
X105764778Y-68585181D01*
X105774824Y-68578731D01*
X105931657Y-68455538D01*
X105940306Y-68447301D01*
X106071012Y-68296677D01*
X106077947Y-68286953D01*
X106177810Y-68114333D01*
X106182784Y-68103469D01*
X106248207Y-67915073D01*
X106248448Y-67914084D01*
X106246980Y-67903792D01*
X106233415Y-67899800D01*
X105165915Y-67899800D01*
X105150676Y-67904275D01*
X105149471Y-67905665D01*
X105147800Y-67913348D01*
X105147800Y-68735685D01*
X104639800Y-68735685D01*
X104639800Y-67917915D01*
X104635325Y-67902676D01*
X104633935Y-67901471D01*
X104626252Y-67899800D01*
X103558398Y-67899800D01*
X103544867Y-67903773D01*
X103543512Y-67913199D01*
X101972800Y-67913199D01*
X101972800Y-55421800D01*
X101992802Y-55353679D01*
X102046458Y-55307186D01*
X102098800Y-55295800D01*
X136390800Y-55295800D01*
X136458921Y-55315802D01*
G37*
%TD.AperFunction*%
%TA.AperFunction,Conductor*%
G36*
X117353985Y-73552098D02*
G01*
X117391612Y-73578012D01*
X121419195Y-77605595D01*
X121453221Y-77667907D01*
X121456100Y-77694690D01*
X121456100Y-78113676D01*
X121436098Y-78181797D01*
X121423742Y-78197979D01*
X121350560Y-78279256D01*
X121255073Y-78444644D01*
X121196058Y-78626272D01*
X121195368Y-78632833D01*
X121195368Y-78632835D01*
X121191256Y-78671960D01*
X121176096Y-78816200D01*
X121196058Y-79006128D01*
X121205040Y-79033770D01*
X121239999Y-79141364D01*
X121242027Y-79212331D01*
X121205364Y-79273129D01*
X121141652Y-79304455D01*
X121120166Y-79306300D01*
X119826895Y-79306300D01*
X119758774Y-79286298D01*
X119712281Y-79232642D01*
X119702177Y-79162368D01*
X119731671Y-79097788D01*
X119737955Y-79091049D01*
X119786235Y-79042937D01*
X119789896Y-79039289D01*
X119794172Y-79033339D01*
X119917235Y-78862077D01*
X119920253Y-78857877D01*
X119934608Y-78828833D01*
X120016936Y-78662253D01*
X120016937Y-78662251D01*
X120019230Y-78657611D01*
X120070239Y-78489721D01*
X120082665Y-78448823D01*
X120082665Y-78448821D01*
X120084170Y-78443869D01*
X120113329Y-78222390D01*
X120114744Y-78164476D01*
X120114874Y-78159165D01*
X120114874Y-78159161D01*
X120114956Y-78155800D01*
X120096652Y-77933161D01*
X120042231Y-77716502D01*
X119953154Y-77511640D01*
X119873103Y-77387900D01*
X119834622Y-77328417D01*
X119834620Y-77328414D01*
X119831814Y-77324077D01*
X119681470Y-77158851D01*
X119677419Y-77155652D01*
X119677415Y-77155648D01*
X119510214Y-77023600D01*
X119510210Y-77023598D01*
X119506159Y-77020398D01*
X119491106Y-77012088D01*
X119413484Y-76969239D01*
X119310589Y-76912438D01*
X119305720Y-76910714D01*
X119305716Y-76910712D01*
X119104887Y-76839595D01*
X119104883Y-76839594D01*
X119100012Y-76837869D01*
X119094919Y-76836962D01*
X119094916Y-76836961D01*
X118885173Y-76799600D01*
X118885167Y-76799599D01*
X118880084Y-76798694D01*
X118806252Y-76797792D01*
X118661881Y-76796028D01*
X118661879Y-76796028D01*
X118656711Y-76795965D01*
X118435891Y-76829755D01*
X118223556Y-76899157D01*
X118193243Y-76914937D01*
X118037550Y-76995986D01*
X118025407Y-77002307D01*
X118021274Y-77005410D01*
X118021271Y-77005412D01*
X117850900Y-77133330D01*
X117846765Y-77136435D01*
X117692429Y-77297938D01*
X117585001Y-77455421D01*
X117530093Y-77500421D01*
X117459568Y-77508592D01*
X117395821Y-77477338D01*
X117375124Y-77452854D01*
X117294625Y-77328421D01*
X117294620Y-77328415D01*
X117291814Y-77324077D01*
X117288332Y-77320250D01*
X117253106Y-77281537D01*
X117222054Y-77217691D01*
X117220300Y-77196738D01*
X117220300Y-74041643D01*
X117221037Y-74028036D01*
X117224459Y-73996538D01*
X117224459Y-73996533D01*
X117225124Y-73990412D01*
X117222827Y-73964162D01*
X117220750Y-73940412D01*
X117220421Y-73935586D01*
X117220300Y-73933114D01*
X117220300Y-73930031D01*
X117219126Y-73918062D01*
X117216110Y-73887294D01*
X117215988Y-73885981D01*
X117211370Y-73833205D01*
X117207887Y-73793387D01*
X117206400Y-73788268D01*
X117205880Y-73782967D01*
X117181895Y-73703523D01*
X117181354Y-73632530D01*
X117219282Y-73572513D01*
X117283636Y-73542530D01*
X117353985Y-73552098D01*
G37*
%TD.AperFunction*%
%TA.AperFunction,Conductor*%
G36*
X120055799Y-71651502D02*
G01*
X120102292Y-71705158D01*
X120112988Y-71770669D01*
X120109296Y-71805800D01*
X120109986Y-71812365D01*
X120124565Y-71951072D01*
X120129258Y-71995728D01*
X120188273Y-72177356D01*
X120191576Y-72183078D01*
X120191577Y-72183079D01*
X120196176Y-72191045D01*
X120283760Y-72342744D01*
X120356937Y-72424015D01*
X120387653Y-72488021D01*
X120389300Y-72508324D01*
X120389300Y-74479701D01*
X120369298Y-74547822D01*
X120315642Y-74594315D01*
X120245368Y-74604419D01*
X120180788Y-74574925D01*
X120174205Y-74568796D01*
X117452004Y-71846595D01*
X117417978Y-71784283D01*
X117423043Y-71713468D01*
X117465590Y-71656632D01*
X117532110Y-71631821D01*
X117541099Y-71631500D01*
X119987678Y-71631500D01*
X120055799Y-71651502D01*
G37*
%TD.AperFunction*%
%TA.AperFunction,Conductor*%
G36*
X120649527Y-61948702D02*
G01*
X120670501Y-61965605D01*
X123959395Y-65254499D01*
X123993421Y-65316811D01*
X123996300Y-65343594D01*
X123996300Y-70893112D01*
X123976298Y-70961233D01*
X123922642Y-71007726D01*
X123852368Y-71017830D01*
X123844104Y-71016359D01*
X123791946Y-71005273D01*
X123791947Y-71005273D01*
X123785487Y-71003900D01*
X123729595Y-71003900D01*
X123661474Y-70983898D01*
X123640500Y-70966995D01*
X123279252Y-70605747D01*
X123271712Y-70597461D01*
X123267600Y-70590982D01*
X123217948Y-70544356D01*
X123215107Y-70541602D01*
X123195370Y-70521865D01*
X123192173Y-70519385D01*
X123183151Y-70511680D01*
X123156700Y-70486841D01*
X123150921Y-70481414D01*
X123143975Y-70477595D01*
X123143972Y-70477593D01*
X123133166Y-70471652D01*
X123116647Y-70460801D01*
X123116183Y-70460441D01*
X123100641Y-70448386D01*
X123093372Y-70445241D01*
X123093368Y-70445238D01*
X123060063Y-70430826D01*
X123049413Y-70425609D01*
X123010660Y-70404305D01*
X122991037Y-70399267D01*
X122972334Y-70392863D01*
X122961020Y-70387967D01*
X122961019Y-70387967D01*
X122953745Y-70384819D01*
X122945922Y-70383580D01*
X122945912Y-70383577D01*
X122910076Y-70377901D01*
X122898456Y-70375495D01*
X122863311Y-70366472D01*
X122863310Y-70366472D01*
X122855630Y-70364500D01*
X122835376Y-70364500D01*
X122815665Y-70362949D01*
X122803486Y-70361020D01*
X122795657Y-70359780D01*
X122787765Y-70360526D01*
X122751639Y-70363941D01*
X122739781Y-70364500D01*
X118422727Y-70364500D01*
X118354606Y-70344498D01*
X118308113Y-70290842D01*
X118297417Y-70225330D01*
X118303614Y-70166365D01*
X118304304Y-70159800D01*
X118296341Y-70084033D01*
X118285032Y-69976435D01*
X118285032Y-69976433D01*
X118284342Y-69969872D01*
X118225327Y-69788244D01*
X118205555Y-69753997D01*
X118158362Y-69672258D01*
X118129840Y-69622856D01*
X118056663Y-69541585D01*
X118025947Y-69477579D01*
X118024300Y-69457276D01*
X118024300Y-68130367D01*
X118024827Y-68119184D01*
X118026502Y-68111691D01*
X118024362Y-68043614D01*
X118024300Y-68039655D01*
X118024300Y-68011744D01*
X118023795Y-68007744D01*
X118022862Y-67995901D01*
X118021722Y-67959630D01*
X118021473Y-67951711D01*
X118015821Y-67932257D01*
X118011813Y-67912900D01*
X118010268Y-67900670D01*
X118010268Y-67900669D01*
X118009274Y-67892803D01*
X117998450Y-67865464D01*
X117992996Y-67851688D01*
X117989151Y-67840458D01*
X117979029Y-67805617D01*
X117979029Y-67805616D01*
X117976818Y-67798007D01*
X117972785Y-67791188D01*
X117972783Y-67791183D01*
X117966507Y-67780572D01*
X117957812Y-67762824D01*
X117950352Y-67743983D01*
X117944767Y-67736295D01*
X117924364Y-67708213D01*
X117917848Y-67698293D01*
X117899380Y-67667065D01*
X117899378Y-67667062D01*
X117895342Y-67660238D01*
X117881018Y-67645914D01*
X117868183Y-67630887D01*
X117856272Y-67614493D01*
X117838744Y-67599992D01*
X117832258Y-67593507D01*
X117832000Y-67593782D01*
X117782347Y-67547155D01*
X117779505Y-67544400D01*
X117759770Y-67524665D01*
X117756573Y-67522185D01*
X117747551Y-67514480D01*
X117721100Y-67489641D01*
X117715321Y-67484214D01*
X117708375Y-67480395D01*
X117708372Y-67480393D01*
X117697566Y-67474452D01*
X117681047Y-67463601D01*
X117673729Y-67457925D01*
X117665041Y-67451186D01*
X117657772Y-67448041D01*
X117657768Y-67448038D01*
X117624463Y-67433626D01*
X117613803Y-67428404D01*
X117583569Y-67411783D01*
X117555174Y-67390463D01*
X114826859Y-64662147D01*
X114819319Y-64653861D01*
X114815207Y-64647382D01*
X114765555Y-64600756D01*
X114762714Y-64598002D01*
X114742977Y-64578265D01*
X114739780Y-64575785D01*
X114730758Y-64568080D01*
X114713202Y-64551594D01*
X114698528Y-64537814D01*
X114691582Y-64533995D01*
X114691579Y-64533993D01*
X114680773Y-64528052D01*
X114664254Y-64517201D01*
X114662107Y-64515536D01*
X114648248Y-64504786D01*
X114640979Y-64501641D01*
X114640975Y-64501638D01*
X114607670Y-64487226D01*
X114597020Y-64482009D01*
X114558267Y-64460705D01*
X114538644Y-64455667D01*
X114519941Y-64449263D01*
X114508627Y-64444367D01*
X114508626Y-64444367D01*
X114501352Y-64441219D01*
X114493529Y-64439980D01*
X114493519Y-64439977D01*
X114457683Y-64434301D01*
X114446063Y-64431895D01*
X114410918Y-64422872D01*
X114410917Y-64422872D01*
X114403237Y-64420900D01*
X114382983Y-64420900D01*
X114363272Y-64419349D01*
X114363159Y-64419331D01*
X114343264Y-64416180D01*
X114335372Y-64416926D01*
X114299246Y-64420341D01*
X114287388Y-64420900D01*
X113960197Y-64420900D01*
X113892076Y-64400898D01*
X113845583Y-64347242D01*
X113835479Y-64276968D01*
X113842110Y-64252035D01*
X113844295Y-64248060D01*
X113849333Y-64228437D01*
X113855737Y-64209734D01*
X113860633Y-64198420D01*
X113860633Y-64198419D01*
X113863781Y-64191145D01*
X113865020Y-64183322D01*
X113865023Y-64183312D01*
X113870699Y-64147476D01*
X113873105Y-64135856D01*
X113882128Y-64100711D01*
X113882128Y-64100710D01*
X113884100Y-64093030D01*
X113884100Y-64072776D01*
X113885651Y-64053065D01*
X113887580Y-64040886D01*
X113888820Y-64033057D01*
X113884659Y-63989038D01*
X113884100Y-63977181D01*
X113884100Y-63853700D01*
X113904102Y-63785579D01*
X113957758Y-63739086D01*
X114010100Y-63727700D01*
X114133487Y-63727700D01*
X114139939Y-63726328D01*
X114139944Y-63726328D01*
X114226887Y-63707847D01*
X114320288Y-63687994D01*
X114355632Y-63672258D01*
X114488722Y-63613003D01*
X114488724Y-63613002D01*
X114494752Y-63610318D01*
X114528961Y-63585464D01*
X114616382Y-63521948D01*
X114649253Y-63498066D01*
X114749827Y-63386367D01*
X114772621Y-63361052D01*
X114772622Y-63361051D01*
X114777040Y-63356144D01*
X114872527Y-63190756D01*
X114931542Y-63009128D01*
X114932590Y-62999163D01*
X114944472Y-62886109D01*
X114948907Y-62843906D01*
X114975920Y-62778250D01*
X114985122Y-62767982D01*
X115787499Y-61965605D01*
X115849811Y-61931579D01*
X115876594Y-61928700D01*
X120581406Y-61928700D01*
X120649527Y-61948702D01*
G37*
%TD.AperFunction*%
%TD*%
M02*
