%TF.GenerationSoftware,KiCad,Pcbnew,(6.0.1)*%
%TF.CreationDate,2022-10-31T16:46:04+01:00*%
%TF.ProjectId,ESPRocks,45535052-6f63-46b7-932e-6b696361645f,rev?*%
%TF.SameCoordinates,Original*%
%TF.FileFunction,Soldermask,Top*%
%TF.FilePolarity,Negative*%
%FSLAX46Y46*%
G04 Gerber Fmt 4.6, Leading zero omitted, Abs format (unit mm)*
G04 Created by KiCad (PCBNEW (6.0.1)) date 2022-10-31 16:46:04*
%MOMM*%
%LPD*%
G01*
G04 APERTURE LIST*
G04 Aperture macros list*
%AMRoundRect*
0 Rectangle with rounded corners*
0 $1 Rounding radius*
0 $2 $3 $4 $5 $6 $7 $8 $9 X,Y pos of 4 corners*
0 Add a 4 corners polygon primitive as box body*
4,1,4,$2,$3,$4,$5,$6,$7,$8,$9,$2,$3,0*
0 Add four circle primitives for the rounded corners*
1,1,$1+$1,$2,$3*
1,1,$1+$1,$4,$5*
1,1,$1+$1,$6,$7*
1,1,$1+$1,$8,$9*
0 Add four rect primitives between the rounded corners*
20,1,$1+$1,$2,$3,$4,$5,0*
20,1,$1+$1,$4,$5,$6,$7,0*
20,1,$1+$1,$6,$7,$8,$9,0*
20,1,$1+$1,$8,$9,$2,$3,0*%
G04 Aperture macros list end*
%ADD10RoundRect,0.135000X-0.135000X-0.185000X0.135000X-0.185000X0.135000X0.185000X-0.135000X0.185000X0*%
%ADD11R,2.600000X2.600000*%
%ADD12C,2.600000*%
%ADD13C,3.500000*%
%ADD14R,1.700000X1.700000*%
%ADD15O,1.700000X1.700000*%
%ADD16RoundRect,0.250000X-0.625000X0.350000X-0.625000X-0.350000X0.625000X-0.350000X0.625000X0.350000X0*%
%ADD17O,1.750000X1.200000*%
%ADD18RoundRect,0.135000X0.135000X0.185000X-0.135000X0.185000X-0.135000X-0.185000X0.135000X-0.185000X0*%
%ADD19C,0.650000*%
%ADD20R,0.600000X1.450000*%
%ADD21R,0.300000X1.450000*%
%ADD22O,1.000000X2.100000*%
%ADD23O,1.000000X1.600000*%
%ADD24RoundRect,0.140000X-0.140000X-0.170000X0.140000X-0.170000X0.140000X0.170000X-0.140000X0.170000X0*%
%ADD25RoundRect,0.135000X0.185000X-0.135000X0.185000X0.135000X-0.185000X0.135000X-0.185000X-0.135000X0*%
%ADD26R,1.200000X1.400000*%
%ADD27RoundRect,0.150000X-0.150000X0.512500X-0.150000X-0.512500X0.150000X-0.512500X0.150000X0.512500X0*%
%ADD28R,1.550000X1.300000*%
%ADD29RoundRect,0.218750X0.256250X-0.218750X0.256250X0.218750X-0.256250X0.218750X-0.256250X-0.218750X0*%
%ADD30RoundRect,0.250000X0.625000X-0.350000X0.625000X0.350000X-0.625000X0.350000X-0.625000X-0.350000X0*%
%ADD31RoundRect,0.140000X-0.170000X0.140000X-0.170000X-0.140000X0.170000X-0.140000X0.170000X0.140000X0*%
%ADD32RoundRect,0.250000X-0.325000X-0.650000X0.325000X-0.650000X0.325000X0.650000X-0.325000X0.650000X0*%
%ADD33R,2.000000X0.900000*%
%ADD34R,0.900000X2.000000*%
%ADD35R,5.000000X5.000000*%
%ADD36RoundRect,0.140000X0.170000X-0.140000X0.170000X0.140000X-0.170000X0.140000X-0.170000X-0.140000X0*%
%ADD37RoundRect,0.140000X0.140000X0.170000X-0.140000X0.170000X-0.140000X-0.170000X0.140000X-0.170000X0*%
%ADD38RoundRect,0.150000X0.825000X0.150000X-0.825000X0.150000X-0.825000X-0.150000X0.825000X-0.150000X0*%
%ADD39R,1.800000X2.500000*%
G04 APERTURE END LIST*
D10*
%TO.C,R12*%
X124449800Y-122097800D03*
X125469800Y-122097800D03*
%TD*%
D11*
%TO.C,CN5*%
X131868800Y-116768800D03*
D12*
X131868800Y-111688800D03*
%TD*%
D13*
%TO.C,REF\u002A\u002A*%
X104639800Y-131368800D03*
%TD*%
D14*
%TO.C,JP1*%
X113671800Y-90347800D03*
D15*
X116211800Y-90347800D03*
X118751800Y-90347800D03*
%TD*%
D13*
%TO.C,REF\u002A\u002A*%
X133849800Y-51993800D03*
%TD*%
D16*
%TO.C,CN7*%
X104893800Y-61645800D03*
D17*
X104893800Y-63645800D03*
X104893800Y-65645800D03*
X104893800Y-67645800D03*
%TD*%
D14*
%TO.C,JP3*%
X113671800Y-78155800D03*
D15*
X116211800Y-78155800D03*
X118751800Y-78155800D03*
%TD*%
D18*
%TO.C,R2*%
X117392600Y-124180600D03*
X116372600Y-124180600D03*
%TD*%
D13*
%TO.C,REF\u002A\u002A*%
X104639800Y-51993800D03*
%TD*%
D18*
%TO.C,R13*%
X114065200Y-122123200D03*
X113045200Y-122123200D03*
%TD*%
D19*
%TO.C,CN1*%
X116354800Y-129403800D03*
X122134800Y-129403800D03*
D20*
X115994800Y-127958800D03*
X116794800Y-127958800D03*
D21*
X117994800Y-127958800D03*
X118994800Y-127958800D03*
X119494800Y-127958800D03*
X120494800Y-127958800D03*
D20*
X121694800Y-127958800D03*
X122494800Y-127958800D03*
X122494800Y-127958800D03*
X121694800Y-127958800D03*
D21*
X120994800Y-127958800D03*
X119994800Y-127958800D03*
X118494800Y-127958800D03*
X117494800Y-127958800D03*
D20*
X116794800Y-127958800D03*
X115994800Y-127958800D03*
D22*
X114924800Y-128873800D03*
X123564800Y-128873800D03*
D23*
X114924800Y-133053800D03*
X123564800Y-133053800D03*
%TD*%
D24*
%TO.C,C5*%
X121304800Y-107365800D03*
X122264800Y-107365800D03*
%TD*%
D16*
%TO.C,CN4*%
X104893800Y-86537800D03*
D17*
X104893800Y-88537800D03*
X104893800Y-90537800D03*
X104893800Y-92537800D03*
X104893800Y-94537800D03*
%TD*%
D11*
%TO.C,CN8*%
X131944800Y-88828800D03*
D12*
X131944800Y-83748800D03*
X131944800Y-78668800D03*
%TD*%
D25*
%TO.C,R14*%
X129404800Y-131243800D03*
X129404800Y-130223800D03*
%TD*%
D11*
%TO.C,CN3*%
X106493800Y-101137800D03*
D12*
X106493800Y-106217800D03*
X106493800Y-111297800D03*
%TD*%
D24*
%TO.C,C7*%
X117748800Y-119430800D03*
X118708800Y-119430800D03*
%TD*%
D16*
%TO.C,CN6*%
X104935800Y-73933800D03*
D17*
X104935800Y-75933800D03*
X104935800Y-77933800D03*
X104935800Y-79933800D03*
%TD*%
D24*
%TO.C,C8*%
X117748800Y-120573800D03*
X118708800Y-120573800D03*
%TD*%
D26*
%TO.C,Y1*%
X120934800Y-109059800D03*
X120934800Y-111259800D03*
X122634800Y-111259800D03*
X122634800Y-109059800D03*
%TD*%
D18*
%TO.C,R1*%
X117392600Y-123088400D03*
X116372600Y-123088400D03*
%TD*%
D27*
%TO.C,U2*%
X107240800Y-116642300D03*
X106290800Y-116642300D03*
X105340800Y-116642300D03*
X105340800Y-118917300D03*
X107240800Y-118917300D03*
%TD*%
D28*
%TO.C,SW1*%
X127334800Y-126633800D03*
X135284800Y-126633800D03*
X135284800Y-122133800D03*
X127334800Y-122133800D03*
%TD*%
D10*
%TO.C,R11*%
X120891800Y-115493800D03*
X121911800Y-115493800D03*
%TD*%
D29*
%TO.C,LD2*%
X127880800Y-131013300D03*
X127880800Y-129438300D03*
%TD*%
D30*
%TO.C,CN2*%
X133604600Y-72735200D03*
D17*
X133604600Y-70735200D03*
X133604600Y-68735200D03*
X133604600Y-66735200D03*
X133604600Y-64735200D03*
X133604600Y-62735200D03*
X133604600Y-60735200D03*
X133604600Y-58735200D03*
%TD*%
D31*
%TO.C,C2*%
X111116800Y-117172800D03*
X111116800Y-118132800D03*
%TD*%
D32*
%TO.C,C1*%
X105146000Y-57099200D03*
X108096000Y-57099200D03*
%TD*%
D33*
%TO.C,U1*%
X110744800Y-56438800D03*
X110744800Y-57708800D03*
X110744800Y-58978800D03*
X110744800Y-60248800D03*
X110744800Y-61518800D03*
X110744800Y-62788800D03*
X110744800Y-64058800D03*
X110744800Y-65328800D03*
X110744800Y-66598800D03*
X110744800Y-67868800D03*
X110744800Y-69138800D03*
X110744800Y-70408800D03*
X110744800Y-71678800D03*
X110744800Y-72948800D03*
D34*
X113529800Y-73948800D03*
X114799800Y-73948800D03*
X116069800Y-73948800D03*
X117339800Y-73948800D03*
X118609800Y-73948800D03*
X119879800Y-73948800D03*
X121149800Y-73948800D03*
X122419800Y-73948800D03*
X123689800Y-73948800D03*
X124959800Y-73948800D03*
D33*
X127744800Y-72948800D03*
X127744800Y-71678800D03*
X127744800Y-70408800D03*
X127744800Y-69138800D03*
X127744800Y-67868800D03*
X127744800Y-66598800D03*
X127744800Y-65328800D03*
X127744800Y-64058800D03*
X127744800Y-62788800D03*
X127744800Y-61518800D03*
X127744800Y-60248800D03*
X127744800Y-58978800D03*
X127744800Y-57708800D03*
X127744800Y-56438800D03*
D35*
X118244800Y-63938800D03*
%TD*%
D25*
%TO.C,R9*%
X109338800Y-130989800D03*
X109338800Y-129969800D03*
%TD*%
D11*
%TO.C,CN9*%
X131868800Y-105211800D03*
D12*
X131868800Y-100131800D03*
X131868800Y-95051800D03*
%TD*%
D14*
%TO.C,JP2*%
X113671800Y-86283800D03*
D15*
X116211800Y-86283800D03*
X118751800Y-86283800D03*
%TD*%
D36*
%TO.C,C3*%
X109973800Y-118132800D03*
X109973800Y-117172800D03*
%TD*%
D28*
%TO.C,SW2*%
X111154800Y-126633800D03*
X103204800Y-126633800D03*
X111154800Y-122133800D03*
X103204800Y-122133800D03*
%TD*%
D36*
%TO.C,C4*%
X108830800Y-118132800D03*
X108830800Y-117172800D03*
%TD*%
D37*
%TO.C,C6*%
X122264800Y-112953800D03*
X121304800Y-112953800D03*
%TD*%
D29*
%TO.C,LD1*%
X110862800Y-131013300D03*
X110862800Y-129438300D03*
%TD*%
D24*
%TO.C,C9*%
X120923800Y-114274600D03*
X121883800Y-114274600D03*
%TD*%
D10*
%TO.C,R10*%
X120891800Y-116763800D03*
X121911800Y-116763800D03*
%TD*%
D38*
%TO.C,U3*%
X118671800Y-117652800D03*
X118671800Y-116382800D03*
X118671800Y-115112800D03*
X118671800Y-113842800D03*
X118671800Y-112572800D03*
X118671800Y-111302800D03*
X118671800Y-110032800D03*
X118671800Y-108762800D03*
X113721800Y-108762800D03*
X113721800Y-110032800D03*
X113721800Y-111302800D03*
X113721800Y-112572800D03*
X113721800Y-113842800D03*
X113721800Y-115112800D03*
X113721800Y-116382800D03*
X113721800Y-117652800D03*
%TD*%
D14*
%TO.C,JP4*%
X113671800Y-82219800D03*
D15*
X116211800Y-82219800D03*
X118751800Y-82219800D03*
%TD*%
D39*
%TO.C,D1*%
X122038800Y-124097800D03*
X122038800Y-120097800D03*
%TD*%
D13*
%TO.C,REF\u002A\u002A*%
X133849800Y-131368800D03*
%TD*%
M02*
