M48
; DRILL file {KiCad (6.0.1)} date Mon Oct 31 16:46:04 2022
; FORMAT={-:-/ absolute / inch / decimal}
; #@! TF.CreationDate,2022-10-31T16:46:04+01:00
; #@! TF.GenerationSoftware,Kicad,Pcbnew,(6.0.1)
; #@! TF.FileFunction,Plated,1,2,PTH
FMAT,2
INCH
; #@! TA.AperFunction,Plated,PTH,ViaDrill
T1C0.0157
; #@! TA.AperFunction,Plated,PTH,ComponentDrill
T2C0.0236
; #@! TA.AperFunction,Plated,PTH,ComponentDrill
T3C0.0295
; #@! TA.AperFunction,Plated,PTH,ComponentDrill
T4C0.0394
; #@! TA.AperFunction,Plated,PTH,ComponentDrill
T5C0.0512
%
G90
G05
T1
X4.0287Y-4.591
X4.0607Y-4.925
X4.1246Y-4.8081
X4.1367Y-2.787
X4.1847Y-4.639
X4.1847Y-4.687
X4.1987Y-2.5072
X4.2137Y-4.75
X4.2387Y-2.4302
X4.2447Y-4.534
X4.2463Y-4.8074
X4.2747Y-2.717
X4.2747Y-3.697
X4.2927Y-4.695
X4.3097Y-3.147
X4.3097Y-3.202
X4.3097Y-3.267
X4.3097Y-3.337
X4.3107Y-4.951
X4.3147Y-3.737
X4.3447Y-3.945
X4.3521Y-4.7225
X4.3767Y-3.983
X4.3827Y-5.049
X4.3947Y-3.401
X4.4097Y-4.8637
X4.4297Y-2.5222
X4.4347Y-4.7775
X4.4687Y-2.727
X4.4717Y-2.2722
X4.4717Y-3.8472
X4.4717Y-3.9722
X4.4747Y-4.687
X4.4847Y-4.987
X4.4897Y-2.4732
X4.5337Y-4.862
X4.542Y-4.701
X4.5467Y-2.2722
X4.5547Y-3.657
X4.5547Y-3.737
X4.5717Y-4.1472
X4.5737Y-4.944
X4.5817Y-2.4622
X4.5817Y-2.5122
X4.5817Y-2.5622
X4.5833Y-4.701
X4.5967Y-2.3472
X4.5967Y-3.8472
X4.5991Y-4.632
X4.6147Y-3.697
X4.6217Y-2.7622
X4.6217Y-2.9972
X4.6247Y-3.312
X4.6467Y-4.0722
X4.6467Y-4.1472
X4.6651Y-4.9606
X4.6827Y-5.095
X4.6943Y-4.9314
X4.6967Y-2.7222
X4.6967Y-2.8472
X4.6967Y-2.9972
X4.7217Y-2.2722
X4.7217Y-2.3472
X4.7217Y-2.4622
X4.7217Y-2.5122
X4.7217Y-2.5622
X4.7217Y-3.9222
X4.7217Y-3.9972
X4.7217Y-4.0722
X4.7217Y-4.1472
X4.7338Y-5.0943
X4.7467Y-2.6722
X4.7647Y-2.827
X4.7687Y-3.311
X4.7937Y-4.978
X4.7967Y-2.2722
X4.7967Y-2.3472
X4.7967Y-3.9972
X4.7967Y-4.0722
X4.7967Y-4.1472
X4.8Y-2.8295
X4.8067Y-3.103
X4.8097Y-3.312
X4.8467Y-3.103
X4.8587Y-4.589
X4.8597Y-4.967
X4.8627Y-4.545
X4.8697Y-2.8312
X4.8717Y-2.2722
X4.8717Y-2.3472
X4.8747Y-2.597
X4.8747Y-2.657
X4.8747Y-2.717
X4.8747Y-2.777
X4.8867Y-3.105
X4.8887Y-4.243
X4.9147Y-3.457
X4.9147Y-3.677
X4.9147Y-3.757
X4.9301Y-4.245
X4.9347Y-4.111
X4.9397Y-2.8402
X4.9407Y-4.759
X4.9547Y-2.517
X4.9547Y-2.597
X4.9547Y-2.657
X4.9547Y-2.717
X4.9547Y-2.777
X4.9567Y-2.977
X4.9907Y-3.011
X4.9907Y-5.055
X5.0447Y-2.947
X5.0947Y-2.572
X5.1197Y-2.622
X5.1217Y-2.2722
X5.1467Y-2.4722
X5.2647Y-4.943
X5.3637Y-3.612
T3
X4.1297Y-2.427
X4.1297Y-2.5057
X4.1297Y-2.5845
X4.1297Y-2.6632
X4.1297Y-3.407
X4.1297Y-3.4857
X4.1297Y-3.5645
X4.1297Y-3.6432
X4.1297Y-3.722
X4.1313Y-2.9108
X4.1313Y-2.9895
X4.1313Y-3.0683
X4.1313Y-3.147
X5.26Y-2.3124
X5.26Y-2.3911
X5.26Y-2.4699
X5.26Y-2.5486
X5.26Y-2.6274
X5.26Y-2.7061
X5.26Y-2.7849
X5.26Y-2.8636
T4
X4.4753Y-3.077
X4.4753Y-3.237
X4.4753Y-3.397
X4.4753Y-3.557
X4.5753Y-3.077
X4.5753Y-3.237
X4.5753Y-3.397
X4.5753Y-3.557
X4.6753Y-3.077
X4.6753Y-3.237
X4.6753Y-3.397
X4.6753Y-3.557
T5
X4.1927Y-3.9818
X4.1927Y-4.1818
X4.1927Y-4.3818
X5.1917Y-3.7422
X5.1917Y-3.9422
X5.1917Y-4.1422
X5.1917Y-4.3972
X5.1917Y-4.5972
X5.1947Y-3.0972
X5.1947Y-3.2972
X5.1947Y-3.4972
T2
G00X4.5246Y-5.0521
M15
G01X4.5246Y-5.0954
M16
G05
G00X4.5246Y-5.2265
M15
G01X4.5246Y-5.2501
M16
G05
G00X4.8648Y-5.0521
M15
G01X4.8648Y-5.0954
M16
G05
G00X4.8648Y-5.2265
M15
G01X4.8648Y-5.2501
M16
G05
T0
M30
